<?xml version="1.0" encoding="UTF-8"?>
<svg width="482px" height="361px" viewBox="0 0 482 361" version="1.1" xmlns="http://www.w3.org/2000/svg" xmlns:xlink="http://www.w3.org/1999/xlink">
    <!-- Generator: Sketch 49 (51002) - http://www.bohemiancoding.com/sketch -->
    <title>Décors</title>
    <desc>Created with Sketch.</desc>
    <defs>
        <path d="M236.975143,365.773857 L236.17905,364.348048 L241.019449,361.646363 L245.671224,359.050113 L246.467317,360.475922 L236.975143,365.773857 Z M234.267653,360.982791 L226.102623,348.35848 C226.0175,348.208548 225.99235,347.785835 226.056193,347.63687 C226.787476,346.157859 229.292798,342.322491 232.06413,342.322491 C232.432674,342.322491 232.796381,342.3873 233.172663,342.521756 C233.854614,342.966716 235.358774,344.092661 236.150998,345.285349 L238.192014,349.435092 C238.908787,350.892822 240.049241,351.050493 240.506777,351.050493 C241.359941,351.050493 242.434618,350.532017 242.892154,349.076221 L243.154293,348.243371 C243.272305,347.869023 243.663096,347.248013 243.971667,346.881404 C244.123534,347.200615 244.34408,347.840971 244.490143,349.048169 L244.512391,355.265045 L244.161259,355.461408 C244.160614,355.462053 242.894733,356.168509 240.363616,357.580776 L234.267653,360.982791 Z M248.84302,356.792421 C248.713401,356.561235 248.554763,356.35133 248.379681,356.159803 C248.380648,356.120143 248.392255,356.071778 248.392255,356.033086 L248.359367,348.923387 C248.359367,348.851806 248.354531,348.78216 248.346792,348.710579 C247.790591,343.858573 245.746674,342.840967 244.130305,342.840967 C242.811867,342.840967 241.836823,343.615779 241.654969,343.770548 C241.225485,344.137157 240.792132,344.64209 240.418752,345.193455 L239.573327,343.474552 C239.542373,343.411677 239.508517,343.350737 239.470792,343.291731 C237.971468,340.931505 235.172084,339.204863 235.054073,339.132315 C234.962179,339.076212 234.865448,339.028814 234.765816,338.988187 C233.880731,338.632218 232.97243,338.453267 232.065097,338.453267 C226.411194,338.453267 222.958879,345.164436 222.583564,345.929575 C221.919992,347.283803 222.033167,349.187461 222.851508,350.454632 L231.735246,364.192312 C231.868734,364.398348 232.037046,364.586006 232.219866,364.76399 C232.284676,365.145108 232.40172,365.515587 232.595181,365.861882 L233.805281,368.029615 C234.411782,369.117834 235.565778,369.794948 236.816505,369.794948 C237.401725,369.794948 237.981141,369.644049 238.489944,369.359661 L248.725976,363.647719 C250.383939,362.72104 250.979799,360.620051 250.055055,358.962089 L248.84302,356.792421 Z M265.451664,345.238918 L254.305397,343.230791 L253.899129,343.157276 L251.906478,337.274121 C251.656913,336.105615 251.652077,335.430435 251.689802,335.074467 C252.118318,335.313391 252.677421,335.766091 252.90764,336.076596 L253.427083,336.779827 C254.206732,337.836125 255.116967,337.993796 255.589012,337.993796 C256.631768,337.993796 257.778026,337.250905 257.988898,335.591008 L258.570249,331.004043 C258.938793,329.592744 260.026045,328.012166 260.482613,327.427913 C261.095885,326.939423 261.777836,326.699531 262.564256,326.699531 C265.056036,326.699531 267.969562,329.043314 268.875927,329.940974 C268.991037,330.067691 269.104212,330.474927 269.073258,330.639369 L265.451664,345.238918 Z M264.447601,350.647126 L253.748229,348.722187 L254.037453,347.113557 L264.735858,349.040431 L264.447601,350.647126 Z M262.564256,322.830307 C260.784413,322.830307 259.194162,323.424233 257.836064,324.596608 C257.76932,324.655614 257.70451,324.719456 257.646472,324.7862 C257.624224,324.810383 255.459393,327.374711 254.785181,330.196343 C254.767769,330.265021 254.755194,330.3337 254.747456,330.403346 L254.505629,332.3012 C253.971677,331.90267 253.399031,331.566048 252.872817,331.359044 C252.714179,331.297137 252.138632,331.092068 251.407348,331.092068 C250.323966,331.092068 249.370202,331.537029 248.72114,332.345696 C247.723847,333.587717 247.541994,335.448814 248.149462,338.205636 C248.164939,338.274315 248.183317,338.343961 248.206533,338.409738 L250.485506,345.14509 C250.498081,345.182814 250.524198,345.223441 250.538708,345.261166 C250.43714,345.499124 250.353952,345.745787 250.305587,346.008894 L249.86643,348.453276 C249.527873,350.322111 250.77473,352.116464 252.644533,352.453086 L264.180624,354.529892 C264.384726,354.567617 264.588827,354.585996 264.790994,354.585996 C266.45863,354.585996 267.885406,353.393308 268.180434,351.75179 L268.620559,349.307407 C268.692139,348.911779 268.67763,348.524857 268.616689,348.149542 C268.733733,347.92029 268.831431,347.68717 268.891404,347.447278 L272.82834,331.56895 C273.19108,330.106383 272.680342,328.270436 271.611469,327.203498 C271.162639,326.756602 267.097052,322.830307 262.564256,322.830307 Z" id="path-1"></path>
    </defs>
    <g id="Page-1" stroke="none" stroke-width="1" fill="none" fill-rule="evenodd">
        <g id="01_QUESTION-01.2" transform="translate(-209.000000, -610.000000)">
            <g id="Décors" transform="translate(208.000000, 606.000000)">
                <path d="M67.7344834,195.276618 C67.4665412,194.742894 66.8204547,194.528972 66.2845702,194.792593 L63.5273583,196.171199 L63.5273583,193.597657 C63.5273583,188.236652 59.1646537,183.873947 53.8036483,183.873947 L48.2913851,183.873947 C47.7900739,181.412768 45.6076412,179.552298 42.9995261,179.552298 C40.391411,179.552298 38.2089783,181.412768 37.7055062,183.873947 L32.1954039,183.873947 C26.8343985,183.873947 22.4716939,188.236652 22.4716939,193.597657 L22.4716939,196.169038 L19.714482,194.790432 C19.1807583,194.526812 18.5303502,194.740733 18.2645688,195.274457 C17.9987874,195.808181 18.2148698,196.456428 18.7485934,196.72437 L22.4716939,198.58484 L22.4716939,206.562604 C22.4716939,213.116384 27.8024478,218.447138 34.3562283,218.447138 L51.6428238,218.447138 C58.1966044,218.447138 63.5273583,213.116384 63.5273583,206.562604 L63.5273583,198.589162 L67.2504588,196.726531 C67.7841824,196.458589 68.0024257,195.810341 67.7344834,195.276618 Z M42.9995261,181.713123 C44.4062228,181.713123 45.5946762,182.618508 46.0419669,183.873947 L39.9570853,183.873947 C40.4043759,182.618508 41.5928294,181.713123 42.9995261,181.713123 Z M32.1975647,186.034772 L53.8058091,186.034772 C57.6088601,186.034772 60.7658246,188.856808 61.290905,192.517245 L24.7103081,192.517245 C25.2353884,188.856808 28.3923529,186.034772 32.1975647,186.034772 Z M61.3665338,206.562604 C61.3665338,211.923609 57.0038293,216.286314 51.6428238,216.286314 L34.3562283,216.286314 C28.9952229,216.286314 24.6325184,211.923609 24.6325184,206.562604 L24.6325184,194.678069 L61.3665338,194.678069 L61.3665338,206.562604 Z M34.3562283,214.125489 C34.9526159,214.125489 35.4366406,213.641465 35.4366406,213.045077 C35.4366406,212.44869 34.9526159,211.964665 34.3562283,211.964665 C31.3786123,211.964665 28.9541673,209.54022 28.9541673,206.562604 C28.9541673,205.966216 28.4701426,205.482192 27.873755,205.482192 C27.2773675,205.482192 26.7933428,205.966216 26.7933428,206.562604 C26.7933428,210.732995 30.1858372,214.125489 34.3562283,214.125489 Z" id="Picto_Cocotte" fill="#000000" fill-rule="nonzero" opacity="0.200000003" transform="translate(43.000000, 198.999718) rotate(-35.000000) translate(-43.000000, -198.999718) "></path>
                <path d="M84.3700401,25.6089588 L77.671416,25.6089588 C77.7424894,25.1155646 77.7884297,24.6000244 77.8071766,24.0663552 C77.8083097,24.0592479 77.8099578,24.0522435 77.8109878,24.0449302 C77.8193312,23.980861 77.8194342,23.9178219 77.8135629,23.8562249 C77.815932,23.7448765 77.8179921,23.633219 77.8179921,23.5204285 C77.8179921,22.7907407 77.7664896,22.0915425 77.671313,21.4312801 L84.347585,21.428602 C84.5261958,21.4940102 84.9958988,22.2360586 84.9958988,23.5203255 C84.9958988,24.8045924 84.5261958,25.5468467 84.3700401,25.6089588 Z M73.5305101,29.5856746 L68.6338563,29.5856746 L45.9882999,26.6474557 C46.1368332,26.0059402 46.2392202,25.3148794 46.2903107,24.5860157 L75.0606501,28.3191245 C74.6014536,29.1190617 74.0530547,29.5856746 73.5305101,29.5856746 Z M40.0325482,27.2821727 L41.0765043,27.2821727 C42.4087716,27.2821727 43.375577,25.6999122 43.375577,23.5202225 C43.375577,21.3405327 42.4086686,19.7584782 41.0764013,19.7584782 L40.0328572,19.7584782 C40.5403631,18.3630688 41.3068236,17.4552854 42.0408376,17.4552854 C43.274941,17.4552854 44.6552086,20.0491584 44.6552086,23.5205315 C44.6552086,26.9904625 43.2759711,29.5835115 42.0423826,29.5856746 L42.0407346,29.5856746 L42.0398075,29.5856746 C41.3061026,29.5848505 40.539848,28.6771701 40.0325482,27.2821727 Z M30.2396525,21.4395205 C30.4322719,21.5535471 30.8656141,22.286737 30.8656141,23.5203255 C30.8656141,24.7539139 30.4322719,25.4872068 30.2396525,25.6011304 C30.047136,25.4872068 29.6136908,24.7539139 29.6136908,23.5203255 C29.6136908,22.286737 30.047033,21.5534441 30.2396525,21.4395205 Z M32.1853148,25.6089588 C32.4111018,25.0225511 32.5388281,24.3110952 32.5388281,23.5204285 C32.5388281,22.7293497 32.4109988,22.0176879 32.1850058,21.4310741 L38.8606598,21.42922 C38.9007287,21.4317952 38.9405917,21.4323102 38.9799396,21.42922 L41.0539462,21.428602 C41.232454,21.4938042 41.702466,22.2358525 41.702466,23.5203255 C41.702466,24.8045924 41.232557,25.5468467 41.0765043,25.6089588 L32.1853148,25.6089588 Z M75.2498703,19.081117 L62.7184825,17.4551824 L73.5305101,17.4551824 C74.1271153,17.4551824 74.7574032,18.0627061 75.2498703,19.081117 Z M45.4738927,28.267828 L55.6300873,29.5856746 L44.7646,29.5856746 C45.030559,29.2014658 45.2686037,28.7594711 45.4738927,28.267828 Z M49.7156405,17.4551824 L75.8530679,20.8467265 C76.0021162,21.4950403 76.100898,22.2143245 76.1328296,22.9833602 L45.5713355,19.0179749 C45.3450334,18.42755 45.0737181,17.9020182 44.764394,17.4551824 L49.7156405,17.4551824 Z M46.3146199,22.9020892 C46.2846455,22.1511824 46.2013144,21.4361214 46.0692619,20.7696787 L76.0928636,24.6655356 C76.0252923,25.4128372 75.8947849,26.104207 75.7181313,26.7171901 L46.3146199,22.9020892 Z M84.3700401,19.7584782 L77.3120314,19.7584782 C76.6023266,17.3491902 75.2081533,15.7819684 73.5305101,15.7819684 L42.0407346,15.7819684 C42.0371294,15.7819684 42.0335242,15.7824834 42.029919,15.7824834 C40.4091346,15.7891787 39.0038368,17.2942885 38.2717799,19.7584782 L30.2395495,19.7584782 C30.2341932,19.7584782 30.229043,19.7590962 30.2236867,19.7591992 C28.8997628,19.7719718 27.9404768,21.3494941 27.9404768,23.5204285 C27.9404768,25.7001182 28.9073852,27.2821727 30.2396525,27.2821727 L38.2715739,27.2821727 C39.0053819,29.7522337 40.4153149,31.2588885 42.0407346,31.2588885 L73.5305101,31.2588885 C75.2081533,31.2588885 76.6024296,29.6915638 77.3120314,27.2821727 L84.3700401,27.2821727 C85.7022044,27.2821727 86.6690097,25.6999122 86.6690097,23.5202225 C86.6690097,21.3405327 85.7022044,19.7584782 84.3700401,19.7584782 Z" id="Picto_Rouleau" fill="#000000" opacity="0.200000003" transform="translate(57.304743, 23.520428) rotate(36.000000) translate(-57.304743, -23.520428) "></path>
                <g id="Picto-gant" opacity="0.200000003" transform="translate(247.548481, 346.312628) rotate(40.000000) translate(-247.548481, -346.312628) ">
                    <use fill="#000000" fill-rule="evenodd" xlink:href="#path-1"></use>
                    <path stroke="#FFFFFF" stroke-width="0.8" d="M236.820864,366.318052 L235.634772,364.19375 L240.824508,361.297081 L245.825505,358.505923 L247.011597,360.630225 L236.820864,366.318052 Z M244.354335,355.806662 C244.28886,355.851063 244.252915,355.870568 244.118533,355.943487 C243.841477,356.098149 243.841477,356.098149 243.406294,356.341022 C242.773341,356.694257 241.824083,357.223943 240.558545,357.930064 L234.135317,361.514719 L233.931781,361.200023 L225.754775,348.555968 C225.609122,348.299421 225.57447,347.745453 225.697628,347.459581 C227.094944,344.633528 229.617392,341.922491 232.06413,341.922491 C232.480562,341.922491 232.889708,341.995879 233.391242,342.186759 C234.531144,342.930524 235.796157,344.028197 236.509933,345.10881 L238.550968,349.258592 C239.053511,350.280634 239.774261,350.650493 240.506777,350.650493 C241.364143,350.650493 242.157793,350.078719 242.510607,348.956129 L242.772801,348.123107 C242.902167,347.712739 243.303387,347.054212 243.66564,346.623824 L244.065861,346.148326 L244.332872,346.709558 C244.563119,347.193517 244.758414,347.935331 244.890141,349.046738 L244.913232,355.499182 L244.356495,355.810525 L244.354335,355.806662 Z M248.493971,356.987779 C248.385889,356.79506 248.24917,356.609881 248.084448,356.429687 L247.975876,356.310918 L247.979799,356.15005 C247.984188,356.082397 247.984188,356.082397 247.989625,356.044735 C247.989667,356.044431 247.989667,356.044431 247.989709,356.04413 C247.991326,356.031127 247.991977,356.026149 247.992217,356.025621 L247.959367,348.923387 C247.959367,348.871735 247.956028,348.817574 247.949395,348.756134 C247.495317,344.794994 246.082723,343.240967 244.130305,343.240967 C243.222129,343.240967 242.44104,343.626803 241.914664,344.074782 C241.521855,344.410086 241.111298,344.884153 240.749954,345.417743 L240.363779,345.988002 L240.059817,345.369993 L239.214458,343.651226 C239.189011,343.599535 239.162309,343.551813 239.133157,343.506213 C238.501555,342.511949 237.579415,341.551412 236.491609,340.664106 C235.821449,340.117467 235.244904,339.719169 234.845638,339.473717 C234.776008,339.431206 234.699256,339.393023 234.616561,339.359297 C233.780162,339.022909 232.922523,338.853267 232.065097,338.853267 C229.70161,338.853267 227.548983,340.080467 225.640461,342.173975 C224.939304,342.943092 224.31313,343.785687 223.766619,344.652024 C223.403514,345.227625 223.127711,345.72853 222.94276,346.105581 C222.341091,347.333476 222.445107,349.088018 223.187395,350.237424 L232.070947,363.974816 C232.175568,364.136295 232.314494,364.297862 232.498893,364.477382 L232.592341,364.568358 L232.614205,364.696932 C232.675384,365.056696 232.783234,365.378341 232.944446,365.666911 L234.15468,367.834883 C234.690669,368.796586 235.711085,369.394948 236.816505,369.394948 C237.333173,369.394948 237.845431,369.26166 238.295028,369.010364 L248.53082,363.298557 C249.996065,362.479593 250.522923,360.622087 249.705848,359.157165 L248.493971,356.987779 Z M247.992217,356.025621 C247.992475,356.025053 247.992258,356.029645 247.99226,356.034936 L247.992217,356.025621 Z M265.380741,345.63258 L254.234173,343.624399 L253.595905,343.508903 L253.52027,343.285597 L251.5153,337.357667 C251.294392,336.323336 251.235799,335.562898 251.292029,335.032311 L251.355831,334.430284 L251.884594,334.725102 C252.369031,334.995205 252.966487,335.484358 253.229384,335.838939 L253.748913,336.542286 C254.311683,337.304749 254.959083,337.593796 255.589012,337.593796 C256.584154,337.593796 257.426136,336.846899 257.592073,335.540715 L258.183228,330.902977 C258.50009,329.689586 259.351893,328.225232 260.233398,327.115036 C260.918486,326.569343 261.688568,326.299531 262.564256,326.299531 C264.711003,326.299531 267.42932,327.945286 269.172006,329.672017 C269.370738,329.890789 269.520687,330.424721 269.461491,330.735675 L265.749648,345.699043 L265.380741,345.63258 Z M264.770644,351.111667 L253.283766,349.045047 L253.714571,346.648967 L265.20016,348.71762 L264.770644,351.111667 Z M250.862093,345.010068 C250.862389,345.010372 250.864046,345.013733 250.868266,345.022482 C250.869295,345.024512 250.869295,345.024512 250.870405,345.026701 C250.886922,345.058796 250.886922,345.058796 250.912046,345.117575 L250.970282,345.268988 L250.906597,345.418192 C250.806686,345.65227 250.738359,345.867071 250.699283,346.079625 L250.260023,348.524579 C249.96093,350.175573 251.062892,351.761911 252.715404,352.059415 L264.253326,354.136555 C264.431891,354.16956 264.611624,354.185996 264.790994,354.185996 C266.265181,354.185996 267.525995,353.131815 267.786765,351.680907 L268.226949,349.236192 C268.285234,348.914048 268.281253,348.579437 268.22186,348.213651 L268.200863,348.084337 L268.260434,347.967656 C268.37576,347.741771 268.45561,347.541212 268.50316,347.351015 L272.440102,331.472661 C272.76922,330.145658 272.297917,328.453878 271.329238,327.486951 C271.106777,327.265449 270.790938,326.974507 270.389248,326.638445 C269.78321,326.131421 269.117679,325.638112 268.405426,325.187306 C266.45909,323.955412 264.47639,323.230307 262.564256,323.230307 C260.880442,323.230307 259.382943,323.789692 258.101,324.89629 C258.043603,324.947031 257.991963,324.998475 257.940844,325.057023 C257.08964,325.982245 255.66223,328.246981 255.172915,330.294641 C255.159904,330.345962 255.150671,330.396562 255.144248,330.453906 L254.815768,333.031813 L254.266373,332.621757 C253.74555,332.233027 253.204754,331.91946 252.7274,331.731675 C252.385029,331.598067 251.926712,331.492068 251.407348,331.492068 C250.443608,331.492068 249.605158,331.88333 249.033036,332.596137 C248.126423,333.725227 247.956178,335.469637 248.539676,338.117701 C248.553791,338.180335 248.568196,338.232601 248.585431,338.281534 L250.862093,345.010068 Z"></path>
                </g>
                <path d="M100.344259,217.148221 L106.044259,217.148221 L106.044259,200.148221 L100.344259,200.148221 L100.344259,217.148221 Z M101.244259,179.248221 C101.244259,175.448221 102.544259,173.148221 103.144259,173.148221 C103.844259,173.148221 105.044259,175.448221 105.044259,179.248221 C105.044259,183.048221 103.944259,189.048221 103.144259,190.748221 C102.344259,189.048221 101.244259,183.048221 101.244259,179.248221 Z M97.1442589,179.248221 C97.1442589,177.048221 98.3442589,175.048221 100.144259,174.048221 C99.5442589,175.448221 99.2442589,177.348221 99.2442589,179.248221 C99.2442589,179.348221 99.4442589,185.148221 100.544259,189.148221 C98.6442589,186.448221 97.1442589,181.748221 97.1442589,179.248221 Z M106.244259,173.948221 C108.044259,175.048221 109.244259,176.948221 109.244259,179.148221 C109.244259,181.748221 107.744259,186.448221 105.844259,189.048221 C106.944259,185.048221 107.144259,179.248221 107.144259,179.148221 C107.144259,177.348221 106.844259,175.448221 106.244259,173.948221 Z M107.044259,198.148221 L104.244259,198.148221 L104.244259,192.848221 C108.544259,191.648221 111.344259,182.948221 111.344259,179.248221 C111.244259,174.748221 107.644259,171.148221 103.144259,171.148221 C98.7442589,171.148221 95.0442589,174.748221 95.0442589,179.248221 C95.0442589,182.948221 97.8442589,191.648221 102.144259,192.848221 L102.144259,198.148221 L99.2442589,198.148221 C98.6442589,198.148221 98.2442589,198.548221 98.2442589,199.148221 L98.2442589,218.148221 C98.2442589,218.748221 98.6442589,219.148221 99.2442589,219.148221 L106.944259,219.148221 C107.544259,219.148221 107.944259,218.748221 107.944259,218.148221 L107.944259,199.148221 C108.044259,198.548221 107.544259,198.148221 107.044259,198.148221 Z M84.6442589,182.348221 C85.2442589,182.348221 85.6442589,181.948221 85.6442589,181.348221 L85.6442589,175.648221 C85.6442589,175.048221 85.2442589,174.648221 84.6442589,174.648221 C84.0442589,174.648221 83.6442589,175.048221 83.6442589,175.648221 L83.6442589,181.248221 C83.6442589,181.848221 84.0442589,182.348221 84.6442589,182.348221 Z M81.2442589,182.348221 C81.8442589,182.348221 82.2442589,181.948221 82.2442589,181.348221 L82.2442589,175.648221 C82.2442589,175.048221 81.8442589,174.648221 81.2442589,174.648221 C80.6442589,174.648221 80.2442589,175.048221 80.2442589,175.648221 L80.2442589,181.248221 C80.2442589,181.848221 80.7442589,182.348221 81.2442589,182.348221 Z M77.9442589,182.348221 C78.5442589,182.348221 78.9442589,181.948221 78.9442589,181.348221 L78.9442589,175.648221 C78.9442589,175.048221 78.5442589,174.648221 77.9442589,174.648221 C77.3442589,174.648221 76.9442589,175.048221 76.9442589,175.648221 L76.9442589,181.248221 C76.9442589,181.848221 77.3442589,182.348221 77.9442589,182.348221 Z M87.3442589,184.948221 L83.2442589,187.248221 C82.9442589,187.448221 82.7442589,187.748221 82.7442589,188.148221 L82.7442589,198.148221 L79.8442589,198.148221 L79.8442589,188.148221 C79.8442589,187.748221 79.6442589,187.448221 79.3442589,187.248221 L75.2442589,184.948221 L75.2442589,173.148221 L87.3442589,173.148221 L87.3442589,184.948221 Z M78.4442589,217.148221 L84.1442589,217.148221 L84.1442589,200.148221 L78.4442589,200.148221 L78.4442589,217.148221 Z M88.3442589,171.148221 L74.2442589,171.148221 C73.7442589,171.148221 73.2442589,171.548221 73.2442589,172.148221 L73.2442589,185.548221 C73.2442589,185.948221 73.4442589,186.248221 73.7442589,186.448221 L77.8442589,188.748221 L77.8442589,198.148221 L77.4442589,198.148221 C76.8442589,198.148221 76.4442589,198.548221 76.4442589,199.148221 L76.4442589,218.148221 C76.4442589,218.748221 76.8442589,219.148221 77.4442589,219.148221 L85.1442589,219.148221 C85.7442589,219.148221 86.1442589,218.748221 86.1442589,218.148221 L86.1442589,199.148221 C86.1442589,198.548221 85.7442589,198.148221 85.1442589,198.148221 L84.7442589,198.148221 L84.7442589,188.748221 L88.8442589,186.448221 C89.1442589,186.248221 89.3442589,185.948221 89.3442589,185.548221 L89.3442589,172.148221 C89.3442589,171.548221 88.8442589,171.148221 88.3442589,171.148221 Z M444.537951,299.272407 L457.04766,299.272407 C457.638922,299.272407 458.118049,299.751533 458.118049,300.342796 C458.118049,300.934058 457.638922,301.413184 457.04766,301.413184 L444.508825,301.413184 C443.929214,301.397893 443.467563,300.923135 443.467563,300.342796 C443.467563,299.751533 443.946689,299.272407 444.537951,299.272407 Z M430.071988,300.721939 C430.385823,300.721939 430.63995,300.976794 430.639221,301.290629 C430.639221,301.603735 430.385095,301.857862 430.071988,301.857862 L423.576843,301.857862 C423.263008,301.857862 423.008882,301.603007 423.00961,301.2899 C423.00961,300.976066 423.263736,300.721939 423.576843,300.721939 L430.071988,300.721939 Z M430.147919,303.922825 C431.642094,303.84564 432.790395,302.571368 432.712483,301.077922 C432.640395,299.692242 431.533599,298.584718 430.147919,298.51263 L423.652774,298.51263 C422.158599,298.590543 421.010298,299.864815 421.088211,301.358261 C421.160298,302.743941 422.267094,303.851465 423.652774,303.922825 L430.147919,303.922825 Z M471.146658,305.717925 L470.782581,305.717925 L470.782581,305.302877 C470.781853,304.677391 470.706124,304.053362 470.556853,303.44608 L471.139377,303.44608 L471.146658,305.717925 Z M435.331738,309.202994 L423.921544,309.202994 C422.607951,309.202994 421.336592,308.744256 420.324456,307.906878 L466.402126,307.906878 C465.392175,308.7428 464.123,309.201538 462.81232,309.202994 L435.331738,309.202994 Z M463.422298,342.486263 C464.488317,342.486263 465.35191,343.349855 465.35191,344.415146 L465.35191,344.9467 L418.138317,344.9467 L418.138317,342.486263 L428.871327,342.486263 C429.462589,342.486263 429.941715,342.006408 429.941715,341.415146 C429.941715,340.823884 429.462589,340.344758 428.871327,340.344758 L423.046084,340.344758 C424.436861,338.407865 425.521812,335.123884 426.264531,330.551069 C426.614045,328.366603 426.890745,325.949127 427.087346,323.269515 L429.271812,323.269515 C429.863075,323.268787 430.341473,322.789661 430.340745,322.198399 C430.340745,321.607865 429.862346,321.129467 429.271812,321.128738 L427.19657,321.128738 L427.19657,320.764661 L429.271812,320.764661 C429.863075,320.764661 430.341473,320.284806 430.340745,319.693544 C430.340745,319.10301 429.862346,318.624612 429.271812,318.623884 L427.313075,318.623884 L427.313075,318.27437 L429.271812,318.27437 C429.863075,318.27437 430.341473,317.793787 430.340745,317.203253 C430.340745,316.612719 429.862346,316.134321 429.271812,316.133593 L427.38589,316.133593 C427.420113,314.570972 427.431764,312.944272 427.422298,311.254952 L434.143172,311.254952 L434.143172,337.344758 C434.146812,340.182379 436.446327,342.481894 439.283948,342.486263 L463.422298,342.486263 Z M463.164017,297.799484 C466.2929,297.799484 468.829065,300.334921 468.829793,303.463805 C468.829793,304.232737 468.67324,304.993659 468.370327,305.69997 L419.066929,305.69997 C417.832706,302.825213 419.162317,299.493902 422.037075,298.259679 C422.743385,297.956038 423.504308,297.799484 424.27324,297.799484 L463.164017,297.799484 Z M461.083111,332.889942 C461.083839,333.086544 460.952043,333.259845 460.762723,333.312272 L459.67049,333.618097 L459.67049,324.967612 L460.762723,325.273437 C460.952043,325.325864 461.083839,325.499165 461.083111,325.695767 L461.083111,332.889942 Z M456.119256,325.571752 C456.118528,325.375151 456.250324,325.20185 456.439645,325.149422 L457.531878,324.843597 L457.531878,333.494083 L456.4178,333.188257 C456.236489,333.12782 456.115615,332.957432 456.119256,332.765927 L456.119256,325.571752 Z M469.931779,299.393629 C468.524983,297.037319 465.985177,295.59193 463.240031,295.585377 L424.349255,295.585377 C420.037847,295.586105 416.544158,299.081251 416.544158,303.39193 C416.544158,304.708435 416.876924,306.003095 417.511876,307.155765 C417.536633,307.208921 417.565759,307.259891 417.599255,307.308678 C418.9944,309.716688 421.566245,311.200668 424.349255,311.204309 L425.805565,311.204309 C425.923526,317.53562 425.536148,323.86693 424.647798,330.136348 C423.664789,336.172756 422.303138,338.612076 421.334691,339.602367 C420.989546,340.010134 420.491488,340.257707 419.958478,340.286833 L417.613818,340.286833 C417.022556,340.286833 416.543429,340.765959 416.543429,341.35795 L416.543429,345.959163 C416.543429,346.550425 417.022556,347.03028 417.613818,347.03028 L467.004594,347.03028 C467.595128,347.03028 468.074983,346.550425 468.074983,345.959163 L468.074983,344.357222 C468.079352,342.109406 466.259691,340.283921 464.012604,340.279552 L439.829837,340.279552 C438.17474,340.275183 436.833478,338.934649 436.829837,337.279552 L436.829837,311.197027 L458.528866,311.197027 L458.528866,321.223726 L456.861391,321.689746 C455.748041,322.002853 454.977653,323.016445 454.975468,324.172756 L454.975468,331.36693 C454.977653,332.523241 455.748041,333.536833 456.861391,333.84994 L458.528866,334.316688 L458.528866,334.746299 C458.528866,335.336833 459.007992,335.815959 459.599255,335.815959 C460.190517,335.815959 460.669643,335.336833 460.669643,334.746299 L460.669643,334.316688 L462.337119,333.84994 C463.450468,333.536833 464.220857,332.523241 464.223041,331.36693 L464.223041,324.172756 C464.220857,323.016445 463.450468,322.002853 462.337119,321.689746 L460.669643,321.223726 L460.669643,311.197027 L463.240031,311.197027 C466.564789,311.192658 469.523284,309.087561 470.616245,305.947027 L472.473041,305.947027 C473.064303,305.947027 473.543429,305.467901 473.543429,304.876639 L473.543429,300.464018 C473.543429,299.872756 473.064303,299.393629 472.473041,299.393629 L469.931779,299.393629 Z" id="Picto_Accessoire" fill="#000000" opacity="0.200000003" transform="translate(273.393844, 259.089250) rotate(-35.000000) translate(-273.393844, -259.089250) "></path>
                <g id="rond" transform="translate(47.000000, 91.000000)" fill="#000000" opacity="0.300000012">
                    <path d="M33.5836297,153.464333 C34.0862964,153.035333 34.7232964,152.779667 35.2822964,152.779667 L35.654963,152.801333 C36.5216297,152.801333 37.1022964,153.286667 37.461963,153.694 C37.9646297,154.274667 38.1942964,155.02 38.1076297,155.882333 C38.1076297,156.753333 37.6352964,157.338333 37.253963,157.672 C36.7426297,158.092333 36.0536297,158.343667 35.407963,158.343667 L35.1566297,158.343667 C34.289963,158.343667 33.6962964,157.862667 33.3582964,157.459667 C32.8556297,156.879 32.6042964,156.103333 32.664963,155.323333 C32.729963,154.578 33.0462964,153.923667 33.5836297,153.464333 M35.1566297,161 L35.407963,161 C36.6732964,161 37.9646297,160.532 38.9656297,159.704333 C40.139963,158.703333 40.7726297,157.351333 40.763963,156.029667 C40.919963,154.578 40.451963,153.091667 39.4726297,151.960667 C38.4586297,150.790667 37.162963,150.231667 35.8152964,150.158 C34.445963,149.989 32.9726297,150.483 31.8502964,151.453667 C30.7756297,152.372333 30.1256297,153.672333 30.0172964,155.128333 C29.9002964,156.606 30.3812964,158.092333 31.325963,159.197333 C32.3356297,160.358667 33.6962964,161 35.1566297,161" id="Page-1"></path>
                    <path d="M163.58363,143.464333 C164.086296,143.035333 164.723296,142.779667 165.282296,142.779667 L165.654963,142.801333 C166.52163,142.801333 167.102296,143.286667 167.461963,143.694 C167.96463,144.274667 168.194296,145.02 168.10763,145.882333 C168.10763,146.753333 167.635296,147.338333 167.253963,147.672 C166.74263,148.092333 166.05363,148.343667 165.407963,148.343667 L165.15663,148.343667 C164.289963,148.343667 163.696296,147.862667 163.358296,147.459667 C162.85563,146.879 162.604296,146.103333 162.664963,145.323333 C162.729963,144.578 163.046296,143.923667 163.58363,143.464333 M165.15663,151 L165.407963,151 C166.673296,151 167.96463,150.532 168.96563,149.704333 C170.139963,148.703333 170.77263,147.351333 170.763963,146.029667 C170.919963,144.578 170.451963,143.091667 169.47263,141.960667 C168.45863,140.790667 167.162963,140.231667 165.815296,140.158 C164.445963,139.989 162.97263,140.483 161.850296,141.453667 C160.77563,142.372333 160.12563,143.672333 160.017296,145.128333 C159.900296,146.606 160.381296,148.092333 161.325963,149.197333 C162.33563,150.358667 163.696296,151 165.15663,151" id="Page-1-Copy"></path>
                    <path d="M3.58362969,3.46433333 C4.08629636,3.03533333 4.72329636,2.77966667 5.28229636,2.77966667 L5.65496303,2.80133333 C6.52162969,2.80133333 7.10229636,3.28666667 7.46196303,3.694 C7.96462969,4.27466667 8.19429636,5.02 8.10762969,5.88233333 C8.10762969,6.75333333 7.63529636,7.33833333 7.25396303,7.672 C6.74262969,8.09233333 6.05362969,8.34366667 5.40796303,8.34366667 L5.15662969,8.34366667 C4.28996303,8.34366667 3.69629636,7.86266667 3.35829636,7.45966667 C2.85562969,6.879 2.60429636,6.10333333 2.66496303,5.32333333 C2.72996303,4.578 3.04629636,3.92366667 3.58362969,3.46433333 M5.15662969,11 L5.40796303,11 C6.67329636,11 7.96462969,10.532 8.96562969,9.70433333 C10.139963,8.70333333 10.7726297,7.35133333 10.763963,6.02966667 C10.919963,4.578 10.451963,3.09166667 9.47262969,1.96066667 C8.45862969,0.790666667 7.16296303,0.231666667 5.81529636,0.158 C4.44596303,-0.011 2.97262969,0.483 1.85029636,1.45366667 C0.775629693,2.37233333 0.125629693,3.67233333 0.0172963593,5.12833333 C-0.0997036407,6.606 0.381296359,8.09233333 1.32596303,9.19733333 C2.33562969,10.3586667 3.69629636,11 5.15662969,11" id="Page-1-Copy-3"></path>
                    <path d="M383.58363,3.46433333 C384.086296,3.03533333 384.723296,2.77966667 385.282296,2.77966667 L385.654963,2.80133333 C386.52163,2.80133333 387.102296,3.28666667 387.461963,3.694 C387.96463,4.27466667 388.194296,5.02 388.10763,5.88233333 C388.10763,6.75333333 387.635296,7.33833333 387.253963,7.672 C386.74263,8.09233333 386.05363,8.34366667 385.407963,8.34366667 L385.15663,8.34366667 C384.289963,8.34366667 383.696296,7.86266667 383.358296,7.45966667 C382.85563,6.879 382.604296,6.10333333 382.664963,5.32333333 C382.729963,4.578 383.046296,3.92366667 383.58363,3.46433333 M385.15663,11 L385.407963,11 C386.673296,11 387.96463,10.532 388.96563,9.70433333 C390.139963,8.70333333 390.77263,7.35133333 390.763963,6.02966667 C390.919963,4.578 390.451963,3.09166667 389.47263,1.96066667 C388.45863,0.790666667 387.162963,0.231666667 385.815296,0.158 C384.445963,-0.011 382.97263,0.483 381.850296,1.45366667 C380.77563,2.37233333 380.12563,3.67233333 380.017296,5.12833333 C379.900296,6.606 380.381296,8.09233333 381.325963,9.19733333 C382.33563,10.3586667 383.696296,11 385.15663,11" id="Page-1-Copy-4"></path>
                    <path d="M350.58363,195.464333 C351.086296,195.035333 351.723296,194.779667 352.282296,194.779667 L352.654963,194.801333 C353.52163,194.801333 354.102296,195.286667 354.461963,195.694 C354.96463,196.274667 355.194296,197.02 355.10763,197.882333 C355.10763,198.753333 354.635296,199.338333 354.253963,199.672 C353.74263,200.092333 353.05363,200.343667 352.407963,200.343667 L352.15663,200.343667 C351.289963,200.343667 350.696296,199.862667 350.358296,199.459667 C349.85563,198.879 349.604296,198.103333 349.664963,197.323333 C349.729963,196.578 350.046296,195.923667 350.58363,195.464333 M352.15663,203 L352.407963,203 C353.673296,203 354.96463,202.532 355.96563,201.704333 C357.139963,200.703333 357.77263,199.351333 357.763963,198.029667 C357.919963,196.578 357.451963,195.091667 356.47263,193.960667 C355.45863,192.790667 354.162963,192.231667 352.815296,192.158 C351.445963,191.989 349.97263,192.483 348.850296,193.453667 C347.77563,194.372333 347.12563,195.672333 347.017296,197.128333 C346.900296,198.606 347.381296,200.092333 348.325963,201.197333 C349.33563,202.358667 350.696296,203 352.15663,203" id="Page-1-Copy-2"></path>
                </g>
                <g id="étoiles" transform="translate(173.000000, 114.000000)" fill="#000000" opacity="0.300000012">
                    <path d="M290.502697,30.4364733 L284.602871,33.5381951 C283.625182,34.0521967 282.415928,33.6763037 281.901926,32.6986145 C281.697248,32.3092936 281.626619,31.8633574 281.700972,31.4298422 L282.827739,24.8602899 C282.939015,24.2115017 282.723918,23.5495013 282.252545,23.090027 L277.479486,18.4374442 C276.688519,17.6664418 276.672334,16.4002153 277.443337,15.6092481 C277.750354,15.2942809 278.152639,15.0893065 278.587913,15.0260575 L285.184118,14.0675727 C285.835539,13.9729158 286.39867,13.5637771 286.689994,12.9734901 L289.639907,6.99631397 C290.128751,6.00580665 291.328003,5.59912865 292.31851,6.08797324 C292.712936,6.28263372 293.032191,6.60188876 293.226851,6.99631397 L296.176764,12.9734901 C296.468088,13.5637771 297.031219,13.9729158 297.682639,14.0675727 L304.278845,15.0260575 C305.371935,15.1848927 306.129298,16.1997784 305.970462,17.2928681 C305.907213,17.7281422 305.702239,18.130427 305.387272,18.4374442 L300.614213,23.090027 C300.14284,23.5495013 299.927743,24.2115017 300.039019,24.8602899 L301.165786,31.4298422 C301.352508,32.5185151 300.621332,33.5524269 299.532659,33.7391489 C299.099144,33.8135026 298.653208,33.7428733 298.263887,33.5381951 L292.364061,30.4364733 C291.781413,30.1301571 291.085345,30.1301571 290.502697,30.4364733 Z" id="grande" transform="translate(291.433509, 19.824668) rotate(-26.000000) translate(-291.433509, -19.824668) "></path>
                    <path d="M150.408958,201.736689 L146.486353,203.798925 C145.753086,204.184426 144.846145,203.902506 144.460644,203.169239 C144.307135,202.877249 144.254163,202.542797 144.309928,202.21766 L145.059079,197.849775 C145.142536,197.363184 144.981214,196.866683 144.627684,196.522078 L141.45423,193.428724 C140.861005,192.850472 140.848866,191.900803 141.427118,191.307577 C141.657381,191.071352 141.959095,190.917621 142.28555,190.870184 L146.671156,190.232918 C147.159721,190.161926 147.58207,189.855072 147.800563,189.412356 L149.761866,185.438323 C150.128499,184.695443 151.027938,184.390434 151.770818,184.757068 C152.066637,184.903063 152.306078,185.142504 152.452074,185.438323 L154.413376,189.412356 C154.631869,189.855072 155.054218,190.161926 155.542783,190.232918 L159.928389,190.870184 C160.748206,190.989311 161.316229,191.750475 161.197102,192.570292 C161.149665,192.896748 160.995935,193.198461 160.759709,193.428724 L157.586255,196.522078 C157.232726,196.866683 157.071403,197.363184 157.15486,197.849775 L157.904011,202.21766 C158.044052,203.034165 157.495671,203.809599 156.679166,203.94964 C156.354029,204.005405 156.019577,203.952433 155.727587,203.798925 L151.804981,201.736689 C151.367995,201.506952 150.845944,201.506952 150.408958,201.736689 Z" id="moyenne-copy" transform="translate(151.107067, 194.286684) rotate(-132.000000) translate(-151.107067, -194.286684) "></path>
                    <path d="M6.4551324,198.961819 L5.4158266,199.508214 C4.94228802,199.757168 4.35659209,199.575106 4.10763812,199.101568 C4.00850335,198.913002 3.9742944,198.697015 4.01030721,198.487044 L4.20879696,197.32976 C4.29225387,196.843169 4.13093114,196.346669 3.77740201,196.002063 L2.93658595,195.18247 C2.55348519,194.809039 2.54564626,194.195749 2.91907721,193.812648 C3.06777937,193.660096 3.26262389,193.560817 3.47344658,193.530183 L4.6354258,193.361338 C5.12399104,193.290345 5.54633942,192.983491 5.76483244,192.540776 L6.28448534,191.487844 C6.52125463,191.008097 7.10210584,190.811125 7.58185282,191.047894 C7.77289058,191.142177 7.92752007,191.296806 8.02180284,191.487844 L8.54145575,192.540776 C8.75994877,192.983491 9.18229715,193.290345 9.67086239,193.361338 L10.8328416,193.530183 C11.3622738,193.607114 11.7290985,194.098669 11.6521675,194.628101 C11.6215332,194.838923 11.522255,195.033768 11.3697022,195.18247 L10.5288862,196.002063 C10.175357,196.346669 10.0140343,196.843169 10.0974912,197.32976 L10.295981,198.487044 C10.3864188,199.014337 10.0322777,199.515107 9.50498478,199.605545 C9.29501396,199.641558 9.07902714,199.607349 8.89046159,199.508214 L7.85115579,198.961819 C7.41416975,198.732081 6.89211844,198.732081 6.4551324,198.961819 Z" id="petite" transform="translate(7.153207, 195.283665) rotate(-38.000000) translate(-7.153207, -195.283665) "></path>
                    <path d="M180.555202,118.901934 L179.515896,119.448329 C179.042357,119.697283 178.456661,119.515222 178.207707,119.041683 C178.108573,118.853117 178.074364,118.637131 178.110377,118.42716 L178.308866,117.269876 C178.392323,116.783285 178.231,116.286784 177.877471,115.942179 L177.036655,115.122586 C176.653555,114.749155 176.645716,114.135864 177.019147,113.752764 C177.167849,113.600211 177.362693,113.500933 177.573516,113.470298 L178.735495,113.301453 C179.22406,113.23046 179.646409,112.923606 179.864902,112.480891 L180.384555,111.427959 C180.621324,110.948212 181.202175,110.75124 181.681922,110.988009 C181.87296,111.082292 182.027589,111.236921 182.121872,111.427959 L182.641525,112.480891 C182.860018,112.923606 183.282366,113.23046 183.770932,113.301453 L184.932911,113.470298 C185.462343,113.547229 185.829168,114.038784 185.752237,114.568216 C185.721603,114.779039 185.622324,114.973883 185.469772,115.122586 L184.628956,115.942179 C184.275426,116.286784 184.114104,116.783285 184.197561,117.269876 L184.39605,118.42716 C184.486488,118.954453 184.132347,119.455222 183.605054,119.54566 C183.395083,119.581673 183.179096,119.547464 182.990531,119.448329 L181.951225,118.901934 C181.514239,118.672197 180.992188,118.672197 180.555202,118.901934 Z" id="petite-copy" transform="translate(181.253276, 115.223780) rotate(-38.000000) translate(-181.253276, -115.223780) "></path>
                </g>
                <path d="M11.1915734,160.413544 C11.1915734,161.28619 11.8999571,161.989441 12.7726037,161.989441 C13.6452503,161.989441 14.353634,161.28619 14.353634,160.413544 C14.353634,159.56143 15.2981456,159.012176 17.3565649,158.165195 C18.7835987,157.595409 19.59978,157.236084 19.9796379,156.481501 C20.2876308,155.886048 20.1747001,155.162265 19.7127107,154.690009 C19.3944513,154.35635 19.0145934,154.21262 18.1881458,153.889227 C17.8493536,153.755764 17.4797621,153.617167 17.0896377,153.427238 C15.2468134,152.754787 14.353634,152.056669 14.353634,151.286687 C14.353634,150.434573 15.2981456,149.885319 17.3770978,149.028072 C18.7938652,148.468552 19.6100464,148.109227 19.9899043,147.344378 C20.2876308,146.738658 20.1644336,146.014875 19.6921778,145.542619 C19.3739185,145.229493 19.004327,145.085763 18.193279,144.767504 C17.8544868,144.63404 17.4848953,144.49031 17.0845045,144.300381 C15.354611,143.668996 14.3485008,143.114608 14.3485008,142.15983 C14.3485008,141.307717 15.2519467,140.778995 17.2795667,139.937148 C18.7579327,139.362228 19.5946467,138.99777 19.9847711,138.217521 C20.2824976,137.611802 20.1593004,136.888018 19.6870446,136.415763 C19.3687853,136.102636 18.9889273,135.953773 18.1676129,135.630381 C17.8288207,135.50205 17.4592292,135.363453 17.0793713,135.178658 C15.3494777,134.547272 14.3433676,133.992885 14.3433676,133.038107 C14.3433676,132.16546 13.6349839,131.467343 12.7623373,131.467343 C11.8896907,131.467343 11.181307,132.170594 11.181307,133.038107 C11.181307,135.650913 13.1575948,136.949617 14.6975594,137.632335 C13.0497973,138.427983 11.181307,139.71642 11.181307,142.170097 C11.181307,144.788037 13.1678613,146.08674 14.6975594,146.764324 C13.0497973,147.559973 11.181307,148.843277 11.181307,151.30722 C11.181307,153.843028 13.2602591,155.21873 14.7180923,155.896314 C13.065197,156.65603 11.1915734,157.939334 11.1915734,160.413544" id="Fill-1" fill="#000000" opacity="0.300000012" transform="translate(15.666830, 146.728392) rotate(57.000000) translate(-15.666830, -146.728392) "></path>
                <path d="M441.191573,310.413544 C441.191573,311.28619 441.899957,311.989441 442.772604,311.989441 C443.64525,311.989441 444.353634,311.28619 444.353634,310.413544 C444.353634,309.56143 445.298146,309.012176 447.356565,308.165195 C448.783599,307.595409 449.59978,307.236084 449.979638,306.481501 C450.287631,305.886048 450.1747,305.162265 449.712711,304.690009 C449.394451,304.35635 449.014593,304.21262 448.188146,303.889227 C447.849354,303.755764 447.479762,303.617167 447.089638,303.427238 C445.246813,302.754787 444.353634,302.056669 444.353634,301.286687 C444.353634,300.434573 445.298146,299.885319 447.377098,299.028072 C448.793865,298.468552 449.610046,298.109227 449.989904,297.344378 C450.287631,296.738658 450.164434,296.014875 449.692178,295.542619 C449.373918,295.229493 449.004327,295.085763 448.193279,294.767504 C447.854487,294.63404 447.484895,294.49031 447.084504,294.300381 C445.354611,293.668996 444.348501,293.114608 444.348501,292.15983 C444.348501,291.307717 445.251947,290.778995 447.279567,289.937148 C448.757933,289.362228 449.594647,288.99777 449.984771,288.217521 C450.282498,287.611802 450.1593,286.888018 449.687045,286.415763 C449.368785,286.102636 448.988927,285.953773 448.167613,285.630381 C447.828821,285.50205 447.459229,285.363453 447.079371,285.178658 C445.349478,284.547272 444.343368,283.992885 444.343368,283.038107 C444.343368,282.16546 443.634984,281.467343 442.762337,281.467343 C441.889691,281.467343 441.181307,282.170594 441.181307,283.038107 C441.181307,285.650913 443.157595,286.949617 444.697559,287.632335 C443.049797,288.427983 441.181307,289.71642 441.181307,292.170097 C441.181307,294.788037 443.167861,296.08674 444.697559,296.764324 C443.049797,297.559973 441.181307,298.843277 441.181307,301.30722 C441.181307,303.843028 443.260259,305.21873 444.718092,305.896314 C443.065197,306.65603 441.191573,307.939334 441.191573,310.413544" id="Fill-1-Copy" fill="#000000" opacity="0.300000012" transform="translate(445.666830, 296.728392) rotate(120.000000) translate(-445.666830, -296.728392) "></path>
            </g>
        </g>
    </g>
</svg>