<?xml version="1.0" encoding="UTF-8"?>
<svg width="641px" height="329px" viewBox="0 0 641 329" version="1.1" xmlns="http://www.w3.org/2000/svg" xmlns:xlink="http://www.w3.org/1999/xlink">
    <!-- Generator: Sketch 49 (51002) - http://www.bohemiancoding.com/sketch -->
    <title>Group</title>
    <desc>Created with Sketch.</desc>
    <defs></defs>
    <g id="Page-1" stroke="none" stroke-width="1" fill="none" fill-rule="evenodd">
        <g id="01_QUESTION-01.1-Copy" transform="translate(-320.000000, -159.000000)" fill="#FFFFFF">
            <g id="Contenu" transform="translate(318.000000, 157.000000)">
                <g id="Group">
                    <g id="Group-3-Copy" transform="translate(196.000000, 157.000000)">
                        <path d="M14.95,117.101378 C10.5099778,117.887996 6.92501365,117.158141 4.195,114.911791 C1.46498635,112.665442 0.1,109.322306 0.1,104.882283 L0.1,63.4822835 C0.1,58.982261 1.4499865,55.1431261 4.15,51.9647638 L9.55,45.6080709 C12.2500135,42.4297085 15.8499775,40.4419331 20.35,39.644685 C24.7900222,38.8580669 28.3749864,39.5879218 31.105,41.8342717 C33.8350136,44.0806215 35.2,47.4237573 35.2,51.8637795 L35.2,59.9637795 L29.8,66.3204724 L19,68.2338583 L19,59.4138583 C19,57.4338484 18.100009,56.3033085 16.3,56.0222047 L16.3,97.3322047 C16.3,99.3122146 17.199991,100.442754 19,100.723858 L19,93.4338583 L24.4,87.0771654 L35.2,85.1637795 L35.2,93.2637795 C35.2,97.763802 33.8500135,101.602937 31.15,104.781299 L25.75,111.137992 C23.0499865,114.316354 19.4500225,116.30413 14.95,117.101378 Z M20.35,108.944685 C24.2500195,108.253737 27.399988,106.495683 29.8,103.670472 C32.200012,100.845261 33.4,97.4826967 33.4,93.5826772 L33.4,87.2826772 L26.2,88.5582677 L26.2,95.5782677 C26.2,97.3182764 25.6600054,98.8239307 24.58,100.095276 C23.4999946,101.366621 22.0900087,102.156416 20.35,102.464685 C18.6099913,102.772954 17.2000054,102.48276 16.12,101.594094 C15.0399946,100.705429 14.5,99.3911111 14.5,97.6511024 L14.5,54.8111024 C14.5,53.0710937 15.0399946,51.5654394 16.12,50.2940945 C17.2000054,49.0227495 18.6099913,48.2329543 20.35,47.924685 C22.0900087,47.6164158 23.4999946,47.9066097 24.58,48.7952756 C25.6600054,49.6839415 26.2,50.998259 26.2,52.7382677 L26.2,59.7582677 L33.4,58.4826772 L33.4,52.1826772 C33.4,48.2826577 32.200012,45.3452855 29.8,43.3704724 C27.399988,41.3956594 24.2500195,40.7537367 20.35,41.444685 C16.4499805,42.1356334 13.300012,43.8936867 10.9,46.7188976 C8.499988,49.5441086 7.3,52.9066734 7.3,56.8066929 L7.3,98.2066929 C7.3,102.106712 8.499988,105.044085 10.9,107.018898 C13.300012,108.993711 16.4499805,109.635633 20.35,108.944685 Z M54,110.183071 C49.5599778,110.969689 45.9750136,110.239834 43.245,107.993484 C40.5149863,105.747134 39.15,102.403999 39.15,97.9639764 L39.15,43.0639764 L44.55,36.7072835 L55.35,34.7938976 L55.35,90.4138976 C55.35,92.3939075 56.249991,93.5244474 58.05,93.8055512 L58.05,39.7155512 L63.45,33.3588583 L74.25,31.4454724 L74.25,86.3454724 C74.25,90.8454949 72.9000135,94.6846298 70.2,97.8629921 L64.8,104.219685 C62.0999865,107.398047 58.5000225,109.385823 54,110.183071 Z M59.4,102.026378 C63.3000195,101.33543 66.449988,99.5773763 68.85,96.7521654 C71.250012,93.9269544 72.45,90.5643896 72.45,86.6643701 L72.45,33.5643701 L65.25,34.8399606 L65.25,88.6599606 C65.25,90.3999693 64.7100054,91.9056236 63.63,93.1769685 C62.5499946,94.4483134 61.1400087,95.2381087 59.4,95.546378 C57.6599913,95.8546472 56.2500054,95.5644533 55.17,94.6757874 C54.0899946,93.7871215 53.55,92.472804 53.55,90.7327953 L53.55,36.9127953 L46.35,38.1883858 L46.35,91.2883858 C46.35,95.1884053 47.549988,98.1257775 49.95,100.100591 C52.350012,102.075404 55.4999805,102.717326 59.4,102.026378 Z M81.8,103.907874 L81.8,35.507874 L87.2,29.1511811 L98,27.2377953 L98,95.6377953 L92.6,101.994488 L81.8,103.907874 Z M89,95.4322835 L96.2,94.1566929 L96.2,29.3566929 L89,30.6322835 L89,95.4322835 Z M139.75,41.4411417 L134.35,47.7978346 L125.35,49.3923228 C126.010003,49.9353964 127.479989,51.0849518 129.76,52.8410236 C132.040011,54.5970954 133.719995,55.9944436 134.8,57.0331102 C135.880005,58.0717768 136.974994,59.7077644 138.085,61.941122 C139.195006,64.1744797 139.75,66.6411282 139.75,69.3411417 L139.75,74.7411417 C139.75,79.2411642 138.400014,83.0802991 135.7,86.2586614 L130.3,92.6153543 C127.599987,95.7937167 124.000022,97.7814921 119.5,98.5787402 C115.059978,99.3653583 111.475014,98.6355034 108.745,96.3891535 C106.014986,94.1428037 104.65,90.7996679 104.65,86.3596457 L104.65,78.2596457 L110.05,71.9029528 L119.05,70.3084646 C118.389997,69.765391 116.920011,68.6158356 114.64,66.8597638 C112.359989,65.103692 110.680005,63.7063438 109.6,62.6676772 C108.519995,61.6290106 107.425006,59.993023 106.315,57.7596654 C105.204994,55.5263077 104.65,53.0596592 104.65,50.3596457 L104.65,44.9596457 C104.65,40.4596232 105.999986,36.6204883 108.7,33.442126 L114.1,27.0854331 C116.800013,23.9070707 120.399978,21.9192953 124.9,21.1220472 C129.340022,20.3354291 132.924986,21.065284 135.655,23.3116339 C138.385014,25.5579837 139.75,28.9011195 139.75,33.3411417 L139.75,41.4411417 Z M124.9,29.4020472 C126.640009,29.093778 128.049995,29.3839719 129.13,30.2726378 C130.210005,31.1613037 130.75,32.4756212 130.75,34.2156299 L130.75,41.2356299 L137.95,39.9600394 L137.95,33.6600394 C137.95,29.7600199 136.750012,26.8226477 134.35,24.8478346 C131.949988,22.8730216 128.800019,22.2310989 124.9,22.9220472 C120.99998,23.6129956 117.850012,25.3710489 115.45,28.1962598 C113.049988,31.0214708 111.85,34.3840356 111.85,38.2840551 L111.85,43.5940551 C111.85,46.5340698 112.494994,49.1347722 113.785,51.3962402 C115.075006,53.6577082 116.649991,55.4936544 118.51,56.9041339 C120.370009,58.3146134 122.229991,59.6800721 124.09,61.0005512 C125.950009,62.3210302 127.524994,63.8869791 128.815,65.6984449 C130.105006,67.5099106 130.75,69.5556185 130.75,71.8356299 L130.75,77.0556299 C130.75,78.7956386 130.210005,80.3012929 129.13,81.5726378 C128.049995,82.8439827 126.640009,83.633778 124.9,83.9420472 C123.159991,84.2503165 121.750005,83.9601226 120.67,83.0714567 C119.589995,82.1827908 119.05,80.8684733 119.05,79.1284646 L119.05,72.1084646 L111.85,73.3840551 L111.85,79.6840551 C111.85,83.5840746 113.049988,86.5214468 115.45,88.4962598 C117.850012,90.4710729 120.99998,91.1129956 124.9,90.4220472 C128.800019,89.7310989 131.949988,87.9730456 134.35,85.1478346 C136.750012,82.3226237 137.95,78.9600589 137.95,75.0600394 L137.95,69.7500394 C137.95,66.8100247 137.305006,64.2093223 136.015,61.9478543 C134.724994,59.6863863 133.150009,57.8504401 131.29,56.4399606 C129.429991,55.0294811 127.570009,53.6640224 125.71,52.3435433 C123.849991,51.0230643 122.275006,49.4571154 120.985,47.6456496 C119.694994,45.8341839 119.05,43.788476 119.05,41.5084646 L119.05,36.2884646 C119.05,34.5484559 119.589995,33.0428016 120.67,31.7714567 C121.750005,30.5001118 123.159991,29.7103165 124.9,29.4020472 Z M123.55,40.8912205 C123.55,38.9112106 122.650009,37.7806707 120.85,37.4995669 L120.85,41.1895669 C120.85,43.5895789 121.749991,45.7701083 123.55,47.7312205 L123.55,40.8912205 Z M120.85,78.8095669 C120.85,80.7895768 121.749991,81.9201167 123.55,82.2012205 L123.55,78.5112205 C123.55,76.1112085 122.650009,73.9306791 120.85,71.9695669 L120.85,78.8095669 Z M146.4,92.4629921 L146.4,24.0629921 L151.8,17.7062992 L162.6,15.7929134 L162.6,84.1929134 L157.2,90.5496063 L146.4,92.4629921 Z M153.6,83.9874016 L160.8,82.711811 L160.8,17.911811 L153.6,19.1874016 L153.6,83.9874016 Z M170.6,88.1755906 L170.6,19.7755906 L176,13.4188976 L184.91,11.8403543 L191.3,28.8882677 L191.3,16.1082677 L196.7,9.7515748 L207.5,7.83818898 L207.5,76.238189 L202.1,82.5948819 L193.1,84.1893701 L186.8,67.3955118 L186.8,79.9055118 L181.4,86.2622047 L170.6,88.1755906 Z M177.8,79.7 L185,78.4244094 L185,36.9344094 L199.76,75.8094488 L205.7,74.7570866 L205.7,9.95708661 L198.5,11.2326772 L198.5,52.9026772 L183.65,13.8635827 L177.8,14.9 L177.8,79.7 Z M215.5,80.2208661 L215.5,11.8208661 L220.9,5.46417323 L248.8,0.521259843 L248.8,10.6012598 L243.4,16.9579528 L231.7,19.0307874 L231.7,32.7107874 L245.2,30.3190551 L245.2,40.3990551 L239.8,46.755748 L231.7,48.1907874 L231.7,61.8707874 L248.8,58.8412598 L248.8,68.9212598 L243.4,75.2779528 L215.5,80.2208661 Z M222.7,71.7452756 L247,67.4401575 L247,60.9601575 L229.9,63.989685 L229.9,41.309685 L243.4,38.9179528 L243.4,32.4379528 L229.9,34.829685 L229.9,12.149685 L247,9.12015748 L247,2.64015748 L222.7,6.94527559 L222.7,71.7452756 Z" id="Cuisine"></path>
                        <path d="M169.6,109.952756 C170.24,109.67937 171.24,109.422205 172.08,109.913386 C175.16,111.567717 175.28,112.626457 174.28,115.403622 C172.88,119.171654 170.28,122.072283 167.44,123.175433 C166.4,123.559685 165.24,122.845197 164.56,122.325669 C163.96,124.191969 164,125.984882 164.76,126.370236 C166.84,127.401732 172.52,124.035433 176.76,117.044252 C177.16,116.373386 179.24,117.564882 177.64,120.328346 C175.04,124.868976 168.24,130.313701 163.36,127.938268 C162.38155,127.484404 161.670609,126.998882 161.276523,126.117654 C158.108191,130.195055 154.907111,131.429597 153.04,129.926614 C152.36,129.327087 151.96,128.597953 151.84,127.819213 C149.52,130.990236 146.84,133.425039 144.12,131.186929 C141.52,129.047559 142.56,125.943307 145.6,120.804724 C147.2,118.08126 149.44,115.724409 151.2,114.532598 C152.6,113.564567 153.56,113.554488 154.84,114.327717 C155.28,114.569764 155.8,114.757638 156.2,115.046772 C157.96,112.054961 164.32,101.408189 166.24,98.9880315 C166.68,98.4300787 167.72,98.4458268 168.6,99.5699213 C169.4,100.508189 169.2,101.823622 168.68,102.915748 C168.12,104.174961 163.2,112.046614 158.08,118.753701 C158.08,118.753701 157.6,119.39874 157.16,120.116693 C156.2,121.686772 152.84,127.042047 154.12,128.295276 C155.372063,129.499414 159.043359,124.922397 161.347597,121.519214 C162.639209,117.14 166.596273,111.310112 169.6,109.952756 Z M151.36,123.224252 C154.56,118.497323 154.4,116.845669 154.08,116.622362 C153.4,116.182835 150.4,119.234331 147.84,123.367874 C146.2,126.098425 144.48,129.48315 144.92,129.965197 C145.28,130.381417 147.44,129.11874 151.36,123.224252 Z M229.56,112.129921 C226.72,116.193071 222.96,120.699213 219.4,117.649921 C218.859053,117.194976 218.504321,116.624814 218.321532,115.95029 C215.081052,119.366102 210.242058,122.103594 206.52,120.291811 C205.519532,119.827734 204.798747,119.330558 204.4104,118.411099 C201.012267,122.544287 197.141281,123.777758 195.36,122.748976 C192.16,120.835906 195.56,114.713543 198.2,110.245827 C197.4,110.307559 196.56,110.176378 195.76,109.59811 C194.44,112.271969 191.6,116.895118 190.36,118.754803 C189.84,119.566929 186.72,119.519685 187.8,118.008346 C191.2,113.245984 192.24,110.301732 192.96,108.414173 C192.44,107.946299 192.16,107.355906 192.4,106.393386 C193.24,102.964567 195.96,100.082677 197.24,100.255906 C198.84,100.452441 199.32,102.247402 198.36,105.13748 C198.2,105.645827 197.92,106.415433 197.08,108.044252 C198.12,108.18 199.6,106.957795 201.04,105.662677 C201.16,105.521417 201.28,105.500157 201.4,105.478898 C201.68,105.429291 201.92,105.546772 202.12,105.751339 C203.56,106.89622 203.64,108.682047 203.4,109.124567 C202.44,110.694646 195.76,119.79811 196.8,121.253858 C197.71878,122.539928 202.196504,117.388777 204.524109,113.817179 C205.832626,109.444365 209.768962,103.657921 212.76,102.306299 C213.4,102.032913 214.4,101.775748 215.24,102.266929 C218.32,103.92126 218.44,104.98 217.44,107.757165 C216.04,111.525197 213.44,114.425827 210.6,115.528976 C209.56,115.913228 208.4,115.19874 207.72,114.679213 C207.12,116.545512 207.16,118.338425 207.92,118.72378 C209.916419,119.713827 215.229331,116.652413 219.402221,110.222971 C219.849355,109.249706 220.412145,108.210125 221.08,107.112283 C223.2,103.616693 224.2,102.359528 224.84,101.486142 C226.08,99.9064567 228.08,102.152126 227.56,103.244252 L223.4,109.74126 C221.72,112.358898 220.08,115.649449 220.84,116.194803 C222.48,117.344252 226.56,111.381417 229.84,105.520315 C230.6,102.665669 231.8,99.7730709 233.16,99.692126 C233.68,99.68 235.64,100.092756 235.04,102.239055 C234.88,102.787402 233.36,106.096693 231.36,109.411024 C231.48,110.109764 231.68,110.874331 232.12,110.956378 C232.794562,111.082164 233.915697,110.329703 235.339271,108.310143 C236.662786,103.943381 240.580426,98.1960477 243.56,96.8496063 C244.2,96.5762205 245.2,96.3190551 246.04,96.8102362 C249.12,98.4645669 249.24,99.5233071 248.24,102.300472 C246.84,106.068504 244.24,108.969134 241.4,110.072283 C240.36,110.456535 239.2,109.742047 238.52,109.22252 C237.92,111.088819 237.96,112.881732 238.72,113.267087 C240.8,114.298583 246.48,110.932283 250.72,103.941102 C251.12,103.270236 253.2,104.461732 251.6,107.225197 C249,111.765827 242.2,117.210551 237.32,114.835118 C236.14985,114.292332 235.362298,113.704268 235.041752,112.448239 C233.282417,113.869169 231.126107,114.47948 229.56,112.129921 Z M166.8,118.168819 C169.2,114.343622 171.36,112.320945 171.72,112.537165 C172.04,112.720472 171.2,115.069291 169.24,117.736535 C167.76,119.75874 166.08,121.496378 165.48,121.282677 C165.12,121.146457 165.76,119.793071 166.8,118.168819 Z M219.76,98.5061417 C220.36,99.5598425 220.84,100.474803 221.44,101.528504 C221.84,102.257638 219.64,102.407402 219.16,101.692441 C218.92,101.374961 218.28,100.528346 217.8,99.7733858 C216.84,99.9434646 215.16,100.281102 214.64,100.333228 C213.68,100.423307 212.52,99.5088189 213.4,99.2329134 C214.72,98.8390551 216.68,98.291811 218,97.9379528 C218.64,97.7845669 219.48,98.035748 219.76,98.5061417 Z M209.96,110.522362 C208.92,112.146614 208.28,113.5 208.64,113.63622 C209.24,113.849921 210.92,112.112283 212.4,110.090079 C214.36,107.422835 215.2,105.074016 214.88,104.890709 C214.52,104.674488 212.36,106.697165 209.96,110.522362 Z M240.76,105.065669 C239.72,106.689921 239.08,108.043307 239.44,108.179528 C240.04,108.393228 241.72,106.655591 243.2,104.633386 C245.16,101.966142 246,99.6173228 245.68,99.4340157 C245.32,99.2177953 243.16,101.240472 240.76,105.065669 Z" id="de-rêve"></path>
                        <polygon id="Rectangle-2" points="0 144 130 120.968504 130 123.968504 0 147"></polygon>
                    </g>
                    <path d="M203.982979,161.439931 L200.925668,161.976405 L196,138.726463 L199.668773,138.082694 L202.420353,154.432434 L202.488293,154.420513 L205.273843,137.099157 L208.942617,136.455387 L203.982979,161.439931 Z M210.810973,141.817424 C210.810973,140.846527 210.980822,139.958733 211.320525,139.154017 C211.660228,138.349301 212.107497,137.655549 212.662345,137.07274 C213.217193,136.48993 213.839973,136.013746 214.530702,135.644173 C215.221431,135.2746 215.917812,135.028221 216.619864,134.90503 C217.321917,134.781839 218.018298,134.783826 218.709027,134.910991 C219.399756,135.038156 220.022536,135.295779 220.577384,135.683867 C221.132232,136.071955 221.579501,136.60874 221.919204,137.294239 C222.258907,137.979737 222.428755,138.807923 222.428755,139.778821 L222.428755,152.513319 C222.428755,153.506795 222.258907,154.400233 221.919204,155.193659 C221.579501,155.987086 221.132232,156.675193 220.577384,157.258003 C220.022536,157.840812 219.399756,158.316996 218.709027,158.68657 C218.018298,159.056143 217.321917,159.302521 216.619864,159.425712 C215.917812,159.548904 215.221431,159.546917 214.530702,159.419752 C213.839973,159.292587 213.217193,159.034964 212.662345,158.646876 C212.107497,158.258788 211.660228,157.727647 211.320525,157.053438 C210.980822,156.379229 210.810973,155.545398 210.810973,154.551922 L210.810973,141.817424 Z M214.275926,153.943917 C214.275926,154.779341 214.508053,155.353878 214.972314,155.667545 C215.436574,155.981213 215.985752,156.082411 216.619864,155.971141 C217.253977,155.859872 217.803155,155.565943 218.267415,155.089345 C218.731676,154.612747 218.963803,153.956746 218.963803,153.121323 L218.963803,140.386825 C218.963803,139.551402 218.731676,138.976865 218.267415,138.663197 C217.803155,138.34953 217.253977,138.248332 216.619864,138.359601 C215.985752,138.470871 215.436574,138.7648 214.972314,139.241398 C214.508053,139.717995 214.275926,140.373996 214.275926,141.209419 L214.275926,153.943917 Z M236.696207,150.280717 C236.696207,151.070983 236.549005,151.830619 236.254595,152.55965 C235.960186,153.288681 235.55821,153.951907 235.048656,154.549348 C234.539102,155.146789 233.94463,155.651873 233.265225,156.064618 C232.585819,156.477362 231.86113,156.751287 231.091137,156.886399 C230.321143,157.021512 229.596455,157.001914 228.917049,156.827604 C228.237643,156.653294 227.643172,156.356836 227.133617,155.938221 C226.624063,155.519606 226.222087,154.997452 225.927678,154.371742 C225.633269,153.746033 225.486066,153.038056 225.486066,152.247791 L225.486066,133.552464 L228.951019,132.944459 L228.951019,151.301103 C228.951019,152.159105 229.154838,152.755543 229.562481,153.090435 C229.970125,153.425327 230.479671,153.539124 231.091137,153.431828 C231.702602,153.324533 232.212149,153.031913 232.619792,152.553961 C233.027436,152.076008 233.231254,151.408041 233.231254,150.550038 L233.231254,132.193395 L236.696207,131.58539 L236.696207,150.280717 Z M251.167479,135.989088 L247.702527,136.597093 L247.702527,135.818121 C247.702527,135.027855 247.515693,134.377635 247.14202,133.867439 C246.768346,133.357244 246.139905,133.17964 245.256678,133.334623 C244.781094,133.418075 244.390441,133.576938 244.084709,133.811218 C243.778976,134.045498 243.541188,134.318655 243.371336,134.630696 C243.201485,134.942738 243.08259,135.290992 243.01465,135.675467 C242.946709,136.059943 242.912739,136.455385 242.912739,136.861808 C242.912739,137.335967 242.929724,137.733758 242.963695,138.055193 C242.997665,138.376627 243.082589,138.643959 243.218471,138.857195 C243.354352,139.070431 243.552509,139.244513 243.812948,139.379445 C244.073387,139.514377 244.430069,139.632418 244.883007,139.733572 L247.532676,140.318546 C248.302669,140.476961 248.925449,140.712005 249.401033,141.023685 C249.876617,141.335366 250.244623,141.733654 250.505062,142.218561 C250.765501,142.703467 250.941011,143.282294 251.031599,143.955058 C251.122186,144.627823 251.167479,145.404484 251.167479,146.285065 C251.167479,147.301121 251.06557,148.261663 250.861748,149.16672 C250.657926,150.071777 250.32389,150.875487 249.859629,151.577875 C249.395369,152.280263 248.778251,152.879636 248.008258,153.376013 C247.238265,153.87239 246.298434,154.217934 245.188738,154.412655 C244.350804,154.55969 243.569499,154.550026 242.844799,154.383664 C242.1201,154.217302 241.49732,153.925811 240.976442,153.509183 C240.455565,153.092555 240.042266,152.561099 239.736533,151.914797 C239.4308,151.268496 239.277936,150.538934 239.277936,149.726089 L239.277936,148.439092 L242.742889,147.831087 L242.742889,148.914875 C242.742889,149.547087 242.929723,150.084414 243.303396,150.526872 C243.677069,150.969331 244.30551,151.113066 245.188738,150.958084 C245.777556,150.854763 246.236148,150.689622 246.564528,150.462658 C246.892907,150.235694 247.142019,149.954905 247.31187,149.620284 C247.481722,149.285663 247.589293,148.888595 247.634586,148.429067 C247.67988,147.969539 247.702527,147.468834 247.702527,146.926938 C247.702527,146.294726 247.67988,145.77939 247.634586,145.380916 C247.589293,144.982441 247.493045,144.67194 247.34584,144.449401 C247.198636,144.226862 246.994817,144.059419 246.734378,143.947066 C246.473939,143.834712 246.12858,143.725974 245.698289,143.620846 L243.218471,143.039936 C241.723778,142.69258 240.721669,142.061235 240.212115,141.145882 C239.70256,140.230529 239.447787,139.016474 239.447787,137.503681 C239.447787,136.60052 239.572343,135.720674 239.821458,134.864117 C240.070574,134.00756 240.43858,133.243046 240.925487,132.570553 C241.412395,131.89806 242.029512,131.321265 242.776859,130.840151 C243.524205,130.359038 244.396096,130.03106 245.392558,129.856208 C246.253139,129.7052 247.040106,129.725159 247.753482,129.916087 C248.466858,130.107015 249.078314,130.417427 249.587869,130.847331 C250.097423,131.277236 250.488075,131.790088 250.759838,132.385903 C251.0316,132.981717 251.167479,133.618301 251.167479,134.295671 L251.167479,135.989088 Z M260.067651,127.48434 L270.394569,125.672248 L270.394569,128.923609 L263.532604,130.127697 L263.532604,137.206181 L269.511345,136.157075 L269.511345,139.408436 L263.532604,140.457542 L263.532604,147.536026 L270.394569,146.331939 L270.394569,149.78651 L260.067651,151.598602 L260.067651,127.48434 Z M263.464664,121.029033 L266.657855,120.468715 L269.986927,124.659991 L267.337258,125.124936 L265.061259,122.306818 L262.785261,125.923687 L260.135592,126.388631 L263.464664,121.029033 Z M274.912595,128.130819 L270.90412,128.834197 L270.90412,125.582836 L282.386022,123.568075 L282.386022,126.819437 L278.377547,127.522814 L278.377547,148.385715 L274.912595,148.99372 L274.912595,128.130819 Z M283.914677,123.299838 L294.241595,121.487746 L294.241595,124.739107 L287.37963,125.943195 L287.37963,133.021679 L293.358372,131.972573 L293.358372,135.223934 L287.37963,136.27304 L287.37963,143.351525 L294.241595,142.147437 L294.241595,145.602008 L283.914677,147.4141 L283.914677,123.299838 Z M307.693763,126.070269 L304.228811,126.678273 L304.228811,125.899301 C304.228811,125.109036 304.041977,124.458816 303.668304,123.94862 C303.294631,123.438425 302.66619,123.260821 301.782962,123.415803 C301.307378,123.499255 300.916725,123.658119 300.610993,123.892399 C300.30526,124.126679 300.067472,124.399835 299.89762,124.711877 C299.727769,125.023919 299.608874,125.372173 299.540934,125.756648 C299.472993,126.141123 299.439024,126.536566 299.439024,126.942988 C299.439024,127.417148 299.456008,127.814939 299.489979,128.136373 C299.523949,128.457808 299.608873,128.72514 299.744755,128.938376 C299.880636,129.151612 300.078793,129.325694 300.339232,129.460626 C300.599671,129.595558 300.956353,129.713599 301.409291,129.814753 L304.05896,130.399727 C304.828953,130.558142 305.451733,130.793186 305.927317,131.104866 C306.402901,131.416547 306.770907,131.814835 307.031346,132.299741 C307.291785,132.784648 307.467295,133.363475 307.557883,134.036239 C307.64847,134.709003 307.693763,135.485665 307.693763,136.366246 C307.693763,137.382301 307.591854,138.342843 307.388032,139.2479 C307.18421,140.152957 306.850174,140.956668 306.385914,141.659056 C305.921653,142.361443 305.304535,142.960817 304.534542,143.457194 C303.764549,143.953571 302.824718,144.299115 301.715022,144.493836 C300.877088,144.640871 300.095783,144.631207 299.371083,144.464845 C298.646384,144.298483 298.023604,144.006992 297.502727,143.590364 C296.981849,143.173736 296.56855,142.642279 296.262817,141.995978 C295.957084,141.349676 295.80422,140.620114 295.80422,139.80727 L295.80422,138.520273 L299.269173,137.912268 L299.269173,138.996055 C299.269173,139.628268 299.456007,140.165595 299.82968,140.608053 C300.203353,141.050511 300.831794,141.194247 301.715022,141.039265 C302.30384,140.935943 302.762432,140.770803 303.090812,140.543839 C303.419191,140.316874 303.668303,140.036086 303.838154,139.701465 C304.008006,139.366844 304.115577,138.969776 304.160871,138.510248 C304.206164,138.05072 304.228811,137.550015 304.228811,137.008119 C304.228811,136.375907 304.206164,135.860571 304.160871,135.462097 C304.115577,135.063622 304.019329,134.75312 303.872125,134.530582 C303.72492,134.308043 303.521101,134.1406 303.260662,134.028246 C303.000223,133.915893 302.654864,133.807154 302.224574,133.702026 L299.744755,133.121117 C298.250062,132.773761 297.247953,132.142416 296.738399,131.227063 C296.228844,130.31171 295.974071,129.097655 295.974071,127.584861 C295.974071,126.681701 296.098627,125.801855 296.347742,124.945298 C296.596858,124.088741 296.964864,123.324227 297.451771,122.651734 C297.938679,121.97924 298.555797,121.402446 299.303143,120.921332 C300.050489,120.440218 300.922381,120.112241 301.918842,119.937389 C302.779423,119.78638 303.56639,119.80634 304.279766,119.997268 C304.993142,120.188196 305.604598,120.498608 306.114153,120.928512 C306.623707,121.358416 307.01436,121.871268 307.286122,122.467083 C307.557884,123.062898 307.693763,123.699481 307.693763,124.376852 L307.693763,126.070269 Z M321.893275,123.578642 L321.825334,123.590564 L320.126828,132.626639 L323.591781,132.018634 L321.893275,123.578642 Z M320.432559,116.891947 L323.32002,116.385277 L328.721269,139.551767 L325.256317,140.159772 L324.237213,135.15674 L319.515366,135.985295 L318.496262,141.345977 L315.03131,141.953981 L320.432559,116.891947 Z M324.101333,115.164391 L321.859304,115.557805 L317.375248,111.569198 L321.044022,110.925428 L324.101333,115.164391 Z M339.99935,131.88289 C339.99935,132.718313 340.231477,133.29285 340.695737,133.606518 C341.159998,133.920185 341.709176,134.021383 342.343288,133.910114 C342.637698,133.858453 342.886809,133.769583 343.090631,133.643502 L341.528005,132.664571 L343.294452,130.254771 L344.687227,131.128032 L344.687227,118.325797 C344.687227,117.490374 344.4551,116.915837 343.990839,116.60217 C343.526579,116.288502 342.977401,116.187304 342.343288,116.298574 C341.709176,116.409843 341.159998,116.703772 340.695737,117.18037 C340.231477,117.656968 339.99935,118.312968 339.99935,119.148392 L339.99935,131.88289 Z M336.534397,119.756396 C336.534397,118.785499 336.704246,117.897706 337.043949,117.09299 C337.383652,116.288274 337.830921,115.594521 338.385769,115.011712 C338.940617,114.428903 339.563397,113.952718 340.254126,113.583145 C340.944855,113.213572 341.641236,112.967194 342.343288,112.844002 C343.045341,112.720811 343.741722,112.722798 344.432451,112.849963 C345.12318,112.977128 345.74596,113.234751 346.300808,113.622839 C346.855656,114.010927 347.302925,114.547712 347.642628,115.233211 C347.98233,115.91871 348.152179,116.746895 348.152179,117.717793 L348.152179,130.452291 C348.152179,131.400609 347.98233,132.254535 347.642628,133.014093 L349.782745,134.365846 L348.016299,136.775647 L345.978092,135.473747 C345.457214,135.994148 344.885389,136.410589 344.2626,136.723083 C343.639812,137.035576 343.000047,137.249442 342.343288,137.364685 C341.641236,137.487876 340.944855,137.485889 340.254126,137.358724 C339.563397,137.231559 338.940617,136.973936 338.385769,136.585848 C337.830921,136.19776 337.383652,135.66662 337.043949,134.99241 C336.704246,134.318201 336.534397,133.484371 336.534397,132.490894 L336.534397,119.756396 Z M362.419631,128.21969 C362.419631,129.009955 362.272429,129.769592 361.978019,130.498623 C361.68361,131.227654 361.281634,131.89088 360.77208,132.48832 C360.262526,133.085761 359.668054,133.590846 358.988649,134.00359 C358.309243,134.416334 357.584554,134.690259 356.814561,134.825372 C356.044567,134.960485 355.319879,134.940886 354.640473,134.766576 C353.961067,134.592266 353.366596,134.295808 352.857041,133.877194 C352.347487,133.458579 351.945511,132.936424 351.651102,132.310715 C351.356693,131.685005 351.20949,130.977028 351.20949,130.186763 L351.20949,111.491436 L354.674443,110.883432 L354.674443,129.240075 C354.674443,130.098077 354.878262,130.694516 355.285905,131.029408 C355.693549,131.364299 356.203095,131.478096 356.814561,131.3708 C357.426026,131.263505 357.935573,130.970885 358.343216,130.492933 C358.75086,130.01498 358.954678,129.347013 358.954678,128.489011 L358.954678,110.132367 L362.419631,109.524363 L362.419631,128.21969 Z M365.680763,108.952123 L376.00768,107.140031 L376.00768,110.391392 L369.145715,111.59548 L369.145715,118.673964 L375.124457,117.624858 L375.124457,120.876219 L369.145715,121.925325 L369.145715,129.00381 L376.00768,127.799722 L376.00768,131.254293 L365.680763,133.066385 L365.680763,108.952123 Z M378.249708,106.746616 L381.714661,106.138612 L381.714661,126.798303 L388.576625,125.594215 L388.576625,129.048787 L378.249708,130.860879 L378.249708,106.746616 Z M394.079785,122.39325 C394.079785,123.228674 394.311912,123.803211 394.776173,124.116878 C395.240433,124.430546 395.789612,124.531743 396.423724,124.420474 C396.718133,124.368813 396.967245,124.279944 397.171066,124.153862 L395.608441,123.174932 L397.374887,120.765131 L398.767662,121.638393 L398.767662,108.836158 C398.767662,108.000735 398.535535,107.426198 398.071275,107.11253 C397.607014,106.798862 397.057836,106.697665 396.423724,106.808934 C395.789612,106.920204 395.240433,107.214133 394.776173,107.69073 C394.311912,108.167328 394.079785,108.823329 394.079785,109.658752 L394.079785,122.39325 Z M390.614833,110.266757 C390.614833,109.295859 390.784682,108.408066 391.124385,107.60335 C391.464088,106.798634 391.911356,106.104882 392.466204,105.522073 C393.021053,104.939263 393.643832,104.463079 394.334561,104.093506 C395.02529,103.723932 395.721671,103.477554 396.423724,103.354363 C397.125776,103.231172 397.822157,103.233159 398.512886,103.360324 C399.203616,103.487489 399.826395,103.745111 400.381243,104.133199 C400.936091,104.521287 401.38336,105.058073 401.723063,105.743572 C402.062766,106.42907 402.232615,107.257256 402.232615,108.228153 L402.232615,120.962651 C402.232615,121.91097 402.062766,122.764895 401.723063,123.524453 L403.863181,124.876206 L402.096734,127.286007 L400.058527,125.984108 C399.537649,126.504509 398.965824,126.92095 398.343036,127.233443 C397.720247,127.545937 397.080483,127.759802 396.423724,127.875045 C395.721671,127.998236 395.02529,127.996249 394.334561,127.869084 C393.643832,127.741919 393.021053,127.484297 392.466204,127.096209 C391.911356,126.708121 391.464088,126.17698 391.124385,125.502771 C390.784682,124.828562 390.614833,123.994731 390.614833,123.001255 L390.614833,110.266757 Z M416.500066,118.73005 C416.500066,119.520315 416.352864,120.279952 416.058455,121.008983 C415.764045,121.738014 415.36207,122.40124 414.852515,122.998681 C414.342961,123.596121 413.74849,124.101206 413.069084,124.513951 C412.389678,124.926695 411.664989,125.200619 410.894996,125.335732 C410.125003,125.470845 409.400314,125.451247 408.720908,125.276937 C408.041502,125.102627 407.447031,124.806169 406.937477,124.387554 C406.427922,123.968939 406.025947,123.446785 405.731537,122.821075 C405.437128,122.195366 405.289926,121.487389 405.289926,120.697124 L405.289926,102.001797 L408.754878,101.393792 L408.754878,119.750436 C408.754878,120.608438 408.958697,121.204876 409.36634,121.539768 C409.773984,121.87466 410.283531,121.988456 410.894996,121.881161 C411.506461,121.773865 412.016008,121.481246 412.423651,121.003293 C412.831295,120.525341 413.035114,119.857374 413.035114,118.999371 L413.035114,100.642728 L416.500066,100.034723 L416.500066,118.73005 Z M419.761198,99.4624836 L430.088115,97.6503916 L430.088115,100.901753 L423.22615,102.10584 L423.22615,109.184325 L429.204892,108.135219 L429.204892,111.38658 L423.22615,112.435686 L423.22615,119.51417 L430.088115,118.310083 L430.088115,121.764654 L419.761198,123.576746 L419.761198,99.4624836 Z M443.540284,102.232914 L440.075331,102.840919 L440.075331,102.061947 C440.075331,101.271682 439.888498,100.621461 439.514824,100.111266 C439.141151,99.6010703 438.51271,99.4234665 437.629483,99.5784488 C437.153898,99.6619008 436.763246,99.8207644 436.457513,100.055044 C436.151781,100.289324 435.913992,100.562481 435.744141,100.874523 C435.574289,101.186565 435.455395,101.534818 435.387454,101.919293 C435.319514,102.303769 435.285544,102.699212 435.285544,103.105634 C435.285544,103.579793 435.302529,103.977584 435.336499,104.299019 C435.37047,104.620454 435.455394,104.887785 435.591275,105.101021 C435.727156,105.314257 435.925313,105.488339 436.185752,105.623271 C436.446191,105.758203 436.802874,105.876245 437.255811,105.977399 L439.905481,106.562373 C440.675474,106.720787 441.298253,106.955831 441.773837,107.267512 C442.249422,107.579192 442.617428,107.97748 442.877866,108.462387 C443.138305,108.947294 443.313816,109.52612 443.404403,110.198885 C443.494991,110.871649 443.540284,111.64831 443.540284,112.528891 C443.540284,113.544947 443.438374,114.505489 443.234553,115.410546 C443.030731,116.315603 442.696695,117.119313 442.232434,117.821701 C441.768173,118.524089 441.151056,119.123462 440.381062,119.619839 C439.611069,120.116216 438.671238,120.46176 437.561542,120.656482 C436.723608,120.803516 435.942303,120.793852 435.217604,120.62749 C434.492904,120.461128 433.870125,120.169637 433.349247,119.75301 C432.828369,119.336382 432.41507,118.804925 432.109338,118.158623 C431.803605,117.512322 431.650741,116.78276 431.650741,115.969915 L431.650741,114.682918 L435.115693,114.074914 L435.115693,115.158701 C435.115693,115.790913 435.302527,116.32824 435.6762,116.770698 C436.049874,117.213157 436.678315,117.356893 437.561542,117.20191 C438.150361,117.098589 438.608953,116.933448 438.937332,116.706484 C439.265712,116.47952 439.514823,116.198732 439.684675,115.864111 C439.854526,115.52949 439.962097,115.132421 440.007391,114.672893 C440.052685,114.213365 440.075331,113.712661 440.075331,113.170764 C440.075331,112.538552 440.052685,112.023216 440.007391,111.624742 C439.962097,111.226268 439.86585,110.915766 439.718645,110.693227 C439.57144,110.470688 439.367622,110.303245 439.107183,110.190892 C438.846744,110.078539 438.501384,109.9698 438.071094,109.864672 L435.591275,109.283762 C434.096582,108.936406 433.094474,108.305062 432.584919,107.389709 C432.075365,106.474356 431.820592,105.2603 431.820592,103.747507 C431.820592,102.844346 431.945147,101.964501 432.194263,101.107943 C432.443378,100.251386 432.811384,99.4868722 433.298292,98.8143789 C433.785199,98.1418857 434.402317,97.565091 435.149664,97.0839774 C435.89701,96.6028639 436.768901,96.2748861 437.765363,96.1000342 C438.625944,95.9490258 439.41291,95.9689854 440.126287,96.1599135 C440.839663,96.3508416 441.451119,96.6612531 441.960673,97.0911575 C442.470228,97.5210618 442.86088,98.0339138 443.132642,98.6297287 C443.404405,99.2255436 443.540284,99.8621267 443.540284,100.539497 L443.540284,102.232914 Z M206.336909,187.313697 C206.336909,187.94923 206.216183,188.57705 205.974727,189.197176 C205.733272,189.817302 205.400068,190.3813 204.975106,190.889187 C204.550145,191.397073 204.052754,191.831001 203.482919,192.190982 C202.913084,192.550963 202.299796,192.788572 201.643037,192.903815 C201.08286,193.002111 200.513034,193.025067 199.93354,192.972683 C199.354047,192.9203 198.832511,192.747014 198.368916,192.45282 C197.905322,192.158626 197.523828,191.729668 197.224423,191.165931 C196.925018,190.602194 196.775318,189.848502 196.775318,188.904832 L196.775318,177.580851 C196.775318,176.906801 196.891215,176.26057 197.123012,175.642139 C197.35481,175.023708 197.683184,174.465372 198.108146,173.967115 C198.533108,173.468857 199.040157,173.047678 199.629308,172.703566 C200.218459,172.359454 200.87038,172.124696 201.585088,171.999284 C202.261163,171.880651 202.888938,171.890858 203.468431,172.029905 C204.047925,172.168952 204.550145,172.417846 204.975106,172.776594 C205.400068,173.135343 205.733272,173.596848 205.974727,174.161124 C206.216183,174.7254 206.336909,175.363812 206.336909,176.076379 L206.336909,177.231888 L203.381508,177.75048 L203.381508,176.768298 C203.381508,176.190541 203.217321,175.718636 202.888941,175.352569 C202.560562,174.986502 202.11629,174.852619 201.556113,174.950914 C200.822089,175.079716 200.334356,175.391584 200.0929,175.886529 C199.851445,176.381475 199.730719,176.975592 199.730719,177.668901 L199.730719,188.184026 C199.730719,188.781042 199.861103,189.258878 200.121875,189.61755 C200.382647,189.976221 200.851063,190.096239 201.527139,189.977606 C201.720303,189.943711 201.927952,189.873572 202.150091,189.767188 C202.37223,189.660804 202.57505,189.514479 202.758556,189.32821 C202.942062,189.141942 203.091762,188.903832 203.207661,188.613875 C203.323559,188.323918 203.381508,187.97673 203.381508,187.5723 L203.381508,186.56123 L206.336909,186.042638 L206.336909,187.313697 Z M208.741793,170.916804 L211.697194,170.398212 L211.697194,188.019713 L217.550046,186.992697 L217.550046,189.939243 L208.741793,191.484851 L208.741793,170.916804 Z M219.549288,169.020384 L222.504689,168.501792 L222.504689,189.069839 L219.549288,189.588431 L219.549288,169.020384 Z M234.760909,182.326061 C234.760909,182.961594 234.640183,183.589414 234.398728,184.20954 C234.157272,184.829666 233.824069,185.393664 233.399107,185.901551 C232.974145,186.409438 232.476754,186.843365 231.906919,187.203346 C231.337084,187.563327 230.723796,187.800936 230.067037,187.916179 C229.506861,188.014475 228.937034,188.037431 228.357541,187.985048 C227.778048,187.932664 227.256512,187.759378 226.792917,187.465184 C226.329322,187.170991 225.947829,186.742032 225.648424,186.178295 C225.349019,185.614558 225.199319,184.860866 225.199319,183.917196 L225.199319,172.593215 C225.199319,171.919165 225.315216,171.272935 225.547013,170.654503 C225.77881,170.036072 226.107185,169.477736 226.532146,168.979479 C226.957108,168.481221 227.464157,168.060042 228.053309,167.71593 C228.64246,167.371818 229.29438,167.13706 230.009088,167.011648 C230.685164,166.893015 231.312939,166.903222 231.892432,167.042269 C232.471925,167.181316 232.974145,167.43021 233.399107,167.788959 C233.824069,168.147707 234.157272,168.609212 234.398728,169.173489 C234.640183,169.737765 234.760909,170.376176 234.760909,171.088743 L234.760909,172.244252 L231.805508,172.762844 L231.805508,171.780662 C231.805508,171.202905 231.641321,170.731 231.312942,170.364933 C230.984562,169.998866 230.540291,169.864983 229.980114,169.963278 C229.246089,170.09208 228.758356,170.403948 228.516901,170.898893 C228.275445,171.393839 228.154719,171.987957 228.154719,172.681265 L228.154719,183.19639 C228.154719,183.793406 228.285103,184.271242 228.545875,184.629914 C228.806647,184.988585 229.275064,185.108603 229.951139,184.98997 C230.144304,184.956075 230.351952,184.885936 230.574091,184.779552 C230.796231,184.673168 230.99905,184.526843 231.182556,184.340574 C231.366062,184.154306 231.515763,183.916196 231.631661,183.626239 C231.74756,183.336282 231.805508,182.989094 231.805508,182.584664 L231.805508,181.573594 L234.760909,181.055002 L234.760909,182.326061 Z M246.727384,170.17335 L243.771984,170.691942 L243.771984,170.027525 C243.771984,169.353475 243.612625,168.798875 243.293904,168.363708 C242.975183,167.928542 242.43916,167.777056 241.685818,167.909247 C241.280173,167.980427 240.94697,168.115928 240.686198,168.315755 C240.425426,168.515582 240.222606,168.748568 240.077733,169.014722 C239.93286,169.280875 239.83145,169.577915 239.7735,169.90585 C239.715551,170.233785 239.686577,170.571074 239.686577,170.917728 C239.686577,171.322158 239.701064,171.661451 239.730039,171.935615 C239.759013,172.20978 239.831449,172.437798 239.947348,172.619676 C240.063246,172.801554 240.232262,172.950036 240.454402,173.065125 C240.676541,173.180214 240.98077,173.280896 241.367099,173.367175 L243.627111,173.866123 C244.28387,174.001241 244.815064,174.20172 245.220709,174.467565 C245.626355,174.73341 245.940242,175.073127 246.162381,175.486723 C246.38452,175.90032 246.534221,176.394026 246.611486,176.967854 C246.688752,177.541682 246.727384,178.204129 246.727384,178.955213 C246.727384,179.821848 246.640462,180.641134 246.466614,181.413094 C246.292766,182.185055 246.007853,182.870572 245.611865,183.469668 C245.215878,184.068763 244.689513,184.579994 244.032754,185.003374 C243.375995,185.426754 242.574375,185.721483 241.627869,185.887569 C240.913161,186.012981 240.246754,186.004738 239.628628,185.862841 C239.010502,185.720944 238.479308,185.47232 238.035029,185.116961 C237.590751,184.761601 237.238232,184.3083 236.97746,183.757043 C236.716688,183.205786 236.586304,182.583512 236.586304,181.890204 L236.586304,180.792471 L239.541704,180.273879 L239.541704,181.198285 C239.541704,181.737525 239.701063,182.195834 240.019784,182.573225 C240.338505,182.950615 240.874528,183.073214 241.627869,182.941023 C242.130097,182.852896 242.521249,182.712041 242.801337,182.518454 C243.081426,182.324866 243.293903,182.08537 243.438777,181.799958 C243.58365,181.514546 243.675402,181.17587 243.714035,180.78392 C243.752668,180.39197 243.771984,179.964898 243.771984,179.502692 C243.771984,178.963453 243.752668,178.523902 243.714035,178.184026 C243.675402,177.844151 243.593308,177.579311 243.467751,177.389499 C243.342194,177.199687 243.168349,177.056867 242.94621,176.961036 C242.724071,176.865206 242.4295,176.772458 242.062487,176.68279 L239.947348,176.187308 C238.672462,175.891034 237.817723,175.352534 237.383103,174.571792 C236.948483,173.79105 236.731176,172.755532 236.731176,171.465208 C236.731176,170.694865 236.837415,169.944409 237.049896,169.213816 C237.262377,168.483223 237.576264,167.831137 237.991568,167.25754 C238.406871,166.683943 238.933236,166.191971 239.570679,165.78161 C240.208121,165.371248 240.951793,165.091502 241.801717,164.942364 C242.535741,164.813563 243.206978,164.830587 243.815445,164.993437 C244.423913,165.156288 244.945449,165.421051 245.380069,165.787734 C245.814689,166.154417 246.147893,166.591849 246.37969,167.100044 C246.611487,167.60824 246.727384,168.151207 246.727384,168.728964 L246.727384,170.17335 Z M254.318708,162.9193 L258.69386,162.15158 C260.37439,161.856693 261.658914,162.098308 262.54747,162.876431 C263.436027,163.654554 263.880298,164.881345 263.880298,166.55684 L263.880298,176.176446 C263.880298,178.102303 263.411881,179.604795 262.475034,180.683969 C261.538187,181.763142 260.190885,182.45694 258.433089,182.765386 L254.318708,183.487347 L254.318708,162.9193 Z M257.274108,180.195535 L258.635911,179.956576 C259.466518,179.810827 260.05566,179.500422 260.403356,179.025352 C260.751052,178.550282 260.924897,177.86981 260.924897,176.983916 L260.924897,167.075432 C260.924897,166.266572 260.76071,165.669489 260.432331,165.284163 C260.103951,164.898838 259.50515,164.782441 258.635911,164.934969 L257.274108,165.173928 L257.274108,180.195535 Z M266.661852,160.753415 L275.470105,159.207807 L275.470105,161.981027 L269.617252,163.008043 L269.617252,169.045574 L274.716767,168.150748 L274.716767,170.923968 L269.617252,171.818794 L269.617252,177.856324 L275.470105,176.829309 L275.470105,179.775855 L266.661852,181.321462 L266.661852,160.753415 Z M282.771683,157.92658 L287.146835,157.15886 C288.827365,156.863973 290.111889,157.105587 291.000445,157.883711 C291.889002,158.661834 292.333273,159.888625 292.333273,161.56412 L292.333273,171.183726 C292.333273,173.109583 291.864856,174.612075 290.928009,175.691248 C289.991162,176.770422 288.64386,177.46422 286.886064,177.772666 L282.771683,178.494627 L282.771683,157.92658 Z M285.727083,175.202815 L287.088886,174.963856 C287.919493,174.818107 288.508635,174.507702 288.856331,174.032632 C289.204027,173.557562 289.377872,172.87709 289.377872,171.991195 L289.377872,162.082712 C289.377872,161.273852 289.213685,160.676769 288.885306,160.291443 C288.556926,159.906118 287.958126,159.789721 287.088886,159.942249 L285.727083,160.181208 L285.727083,175.202815 Z M295.114827,155.760695 L303.92308,154.215087 L303.92308,156.988307 L298.070227,158.015323 L298.070227,164.052854 L303.169742,163.158028 L303.169742,165.931248 L298.070227,166.826073 L298.070227,172.863604 L303.92308,171.836588 L303.92308,174.783135 L295.114827,176.328742 L295.114827,155.760695 Z M300.098444,149.888633 L303.227691,149.339536 L299.403055,154.083822 L297.490737,154.419381 L300.098444,149.888633 Z M315.223141,168.207137 C315.223141,168.84267 315.102415,169.47049 314.86096,170.090615 C314.619504,170.710741 314.286301,171.274739 313.861339,171.782626 C313.436377,172.290513 312.938986,172.724441 312.369151,173.084422 C311.799316,173.444403 311.186028,173.682012 310.529269,173.797255 C309.969093,173.895551 309.399266,173.918506 308.819773,173.866123 C308.24028,173.81374 307.718744,173.640454 307.255149,173.34626 C306.791555,173.052066 306.410061,172.623107 306.110656,172.05937 C305.811251,171.495634 305.661551,170.741942 305.661551,169.798272 L305.661551,158.474291 C305.661551,157.800241 305.777448,157.15401 306.009245,156.535579 C306.241042,155.917148 306.569417,155.358812 306.994378,154.860554 C307.41934,154.362297 307.926389,153.941118 308.515541,153.597006 C309.104692,153.252894 309.756612,153.018135 310.47132,152.892724 C311.147396,152.774091 311.775171,152.784298 312.354664,152.923345 C312.934157,153.062392 313.436377,153.311286 313.861339,153.670034 C314.286301,154.028783 314.619504,154.490288 314.86096,155.054564 C315.102415,155.61884 315.223141,156.257252 315.223141,156.969819 L315.223141,158.125327 L312.26774,158.643919 L312.26774,157.661737 C312.26774,157.08398 312.103553,156.612076 311.775174,156.246009 C311.446794,155.879942 311.002523,155.746058 310.442346,155.844354 C309.708321,155.973155 309.220588,156.285024 308.979133,156.779969 C308.737677,157.274914 308.616951,157.869032 308.616951,158.562341 L308.616951,169.077466 C308.616951,169.674481 308.747335,170.152318 309.008107,170.510989 C309.268879,170.869661 309.737296,170.989678 310.413371,170.871046 C310.606536,170.837151 310.814184,170.767012 311.036323,170.660628 C311.258463,170.554243 311.461282,170.407919 311.644788,170.22165 C311.828295,170.035381 311.977995,169.797272 312.093893,169.507315 C312.209792,169.217358 312.26774,168.87017 312.26774,168.46574 L312.26774,167.45467 L315.223141,166.936078 L315.223141,168.207137 Z M317.454179,156.693884 C317.454179,155.865765 317.59905,155.10853 317.888797,154.422154 C318.178543,153.735779 318.560037,153.144049 319.03329,152.646947 C319.506543,152.149845 320.037737,151.743688 320.626888,151.428464 C321.21604,151.113239 321.810011,150.903093 322.408821,150.798018 C323.007631,150.692944 323.601602,150.694638 324.190754,150.803103 C324.779905,150.911567 325.3111,151.131304 325.784352,151.46232 C326.257605,151.793336 326.639099,152.251183 326.928846,152.835873 C327.218592,153.420563 327.363463,154.126956 327.363463,154.955075 L327.363463,165.816853 C327.363463,166.66423 327.218592,167.42628 326.928846,168.103026 C326.639099,168.779772 326.257605,169.366687 325.784352,169.863789 C325.3111,170.360891 324.779905,170.767048 324.190754,171.082273 C323.601602,171.397497 323.007631,171.607643 322.408821,171.712718 C321.810011,171.817793 321.21604,171.816098 320.626888,171.707634 C320.037737,171.599169 319.506543,171.379432 319.03329,171.048416 C318.560037,170.7174 318.178543,170.264368 317.888797,169.689307 C317.59905,169.114247 317.454179,168.403038 317.454179,167.555661 L317.454179,156.693884 Z M320.40958,167.037069 C320.40958,167.749636 320.60757,168.239682 321.003557,168.507222 C321.399544,168.774762 321.867961,168.861078 322.408821,168.766172 C322.949682,168.671266 323.418098,168.420561 323.814085,168.014052 C324.210072,167.607542 324.408063,167.048012 324.408063,166.335445 L324.408063,155.473667 C324.408063,154.7611 324.210072,154.271054 323.814085,154.003514 C323.418098,153.735974 322.949682,153.649658 322.408821,153.744564 C321.867961,153.839471 321.399544,154.090175 321.003557,154.496685 C320.60757,154.903195 320.40958,155.462725 320.40958,156.175292 L320.40958,167.037069 Z M339.53276,163.912575 C339.53276,164.586625 339.407205,165.23455 339.156092,165.856371 C338.904978,166.478192 338.562116,167.043884 338.127496,167.553466 C337.692876,168.063048 337.185827,168.493855 336.606334,168.845902 C336.026841,169.197949 335.408724,169.43159 334.751965,169.546833 C334.095206,169.662077 333.477089,169.64536 332.897596,169.496684 C332.318103,169.348008 331.811054,169.095147 331.376434,168.738093 C330.941814,168.381039 330.598952,167.935672 330.347839,167.401979 C330.096725,166.868285 329.97117,166.264423 329.97117,165.590373 L329.97117,149.644359 L332.926571,149.125767 L332.926571,164.782904 C332.926571,165.514729 333.100416,166.023456 333.448112,166.309099 C333.795808,166.594742 334.230421,166.691804 334.751965,166.600287 C335.273509,166.50877 335.708122,166.259183 336.055818,165.851518 C336.403514,165.443852 336.57736,164.874116 336.57736,164.14229 L336.57736,148.485153 L339.53276,147.966561 L339.53276,163.912575 Z M348.109217,167.029674 L345.501511,167.487255 L341.300206,147.656422 L344.429454,147.107325 L346.776389,161.052692 L346.834338,161.042523 L349.210249,146.268426 L352.339497,145.719328 L348.109217,167.029674 Z M357.062343,154.076889 L358.742865,153.782003 C359.264409,153.690486 359.679706,153.545394 359.988769,153.346723 C360.297832,153.148052 360.534455,152.899504 360.698645,152.601073 C360.862834,152.302643 360.973902,151.950948 361.031852,151.545979 C361.089801,151.14101 361.118775,150.678541 361.118775,150.15856 C361.118775,149.638579 361.089801,149.186279 361.031852,148.801647 C360.973902,148.417015 360.853176,148.101179 360.66967,147.85413 C360.486164,147.607081 360.230225,147.444965 359.901845,147.367776 C359.573466,147.290588 359.138852,147.299447 358.597992,147.394353 L357.062343,147.663818 L357.062343,154.076889 Z M354.106942,145.40919 L358.858763,144.575375 C362.335722,143.965264 364.074176,145.672703 364.074176,149.697743 C364.074176,150.891775 363.885843,151.950325 363.509173,152.873427 C363.132502,153.796528 362.470924,154.601101 361.524418,155.287168 L364.711615,164.116407 L361.582367,164.665504 L358.829788,156.366644 L357.062343,156.676782 L357.062343,165.458645 L354.106942,165.977237 L354.106942,145.40919 Z M366.53701,143.228053 L369.49241,142.70946 L369.49241,163.277508 L366.53701,163.7961 L366.53701,143.228053 Z M375.316288,150.87382 L376.99681,150.578934 C377.518354,150.487417 377.933651,150.342325 378.242714,150.143654 C378.551777,149.944983 378.7884,149.696435 378.95259,149.398004 C379.11678,149.099574 379.227848,148.747879 379.285797,148.34291 C379.343746,147.937941 379.37272,147.475472 379.37272,146.955491 C379.37272,146.43551 379.343746,145.98321 379.285797,145.598578 C379.227848,145.213946 379.107122,144.89811 378.923615,144.651061 C378.740109,144.404012 378.48417,144.241896 378.155791,144.164708 C377.827411,144.087519 377.392798,144.096378 376.851937,144.191284 L375.316288,144.460749 L375.316288,150.87382 Z M372.360887,142.206121 L377.112708,141.372306 C380.589667,140.762195 382.328121,142.469634 382.328121,146.494674 C382.328121,147.688706 382.139789,148.747256 381.763118,149.670358 C381.386447,150.593459 380.724869,151.398032 379.778364,152.084099 L382.96556,160.913338 L379.836313,161.462435 L377.083734,153.163575 L375.316288,153.473713 L375.316288,162.255576 L372.360887,162.774168 L372.360887,142.206121 Z M395.888195,158.645768 L393.280488,159.10335 L389.079183,139.272517 L392.208431,138.723419 L394.555367,152.668786 L394.613316,152.658618 L396.989226,137.88452 L400.118474,137.335423 L395.888195,158.645768 Z M401.712073,141.908924 C401.712073,141.080806 401.856944,140.32357 402.14669,139.637195 C402.436437,138.95082 402.817931,138.35909 403.291184,137.861988 C403.764436,137.364886 404.295631,136.958728 404.884782,136.643504 C405.473934,136.32828 406.067905,136.118134 406.666715,136.013059 C407.265524,135.907984 407.859496,135.909679 408.448648,136.018143 C409.037799,136.126607 409.568993,136.346344 410.042246,136.677361 C410.515499,137.008377 410.896993,137.466223 411.186739,138.050913 C411.476486,138.635603 411.621357,139.341997 411.621357,140.170115 L411.621357,151.031893 C411.621357,151.87927 411.476486,152.64132 411.186739,153.318066 C410.896993,153.994812 410.515499,154.581728 410.042246,155.07883 C409.568993,155.575932 409.037799,155.982089 408.448648,156.297313 C407.859496,156.612537 407.265524,156.822684 406.666715,156.927759 C406.067905,157.032833 405.473934,157.031139 404.884782,156.922674 C404.295631,156.81421 403.764436,156.594473 403.291184,156.263457 C402.817931,155.932441 402.436437,155.479409 402.14669,154.904348 C401.856944,154.329287 401.712073,153.618079 401.712073,152.770702 L401.712073,141.908924 Z M404.667473,152.25211 C404.667473,152.964677 404.865464,153.454723 405.261451,153.722263 C405.657438,153.989803 406.125854,154.076119 406.666715,153.981212 C407.207575,153.886306 407.675992,153.635602 408.071979,153.229092 C408.467966,152.822582 408.665956,152.263052 408.665956,151.550485 L408.665956,140.688708 C408.665956,139.976141 408.467966,139.486094 408.071979,139.218554 C407.675992,138.951014 407.207575,138.864699 406.666715,138.959605 C406.125854,139.054511 405.657438,139.305215 405.261451,139.711725 C404.865464,140.118235 404.667473,140.677765 404.667473,141.390332 L404.667473,152.25211 Z M416.170356,137.291975 L412.751363,137.891915 L412.751363,135.118696 L422.54475,133.400224 L422.54475,136.173443 L419.125757,136.773383 L419.125757,154.568211 L416.170356,155.086803 L416.170356,137.291975 Z M426.804004,141.839132 L428.484526,141.544246 C429.00607,141.452729 429.421367,141.307637 429.73043,141.108966 C430.039493,140.910295 430.276116,140.661747 430.440306,140.363316 C430.604495,140.064886 430.715563,139.713191 430.773512,139.308222 C430.831462,138.903253 430.860436,138.440784 430.860436,137.920803 C430.860436,137.400822 430.831462,136.948522 430.773512,136.56389 C430.715563,136.179258 430.594837,135.863422 430.411331,135.616373 C430.227825,135.369324 429.971886,135.207208 429.643506,135.130019 C429.315127,135.052831 428.880513,135.06169 428.339653,135.156596 L426.804004,135.426061 L426.804004,141.839132 Z M423.848603,133.171433 L428.600424,132.337618 C432.077383,131.727507 433.815837,133.434946 433.815837,137.459986 C433.815837,138.654018 433.627504,139.712568 433.250834,140.63567 C432.874163,141.558771 432.212585,142.363344 431.266079,143.049411 L434.453276,151.87865 L431.324028,152.427747 L428.571449,144.128887 L426.804004,144.439025 L426.804004,153.220888 L423.848603,153.73948 L423.848603,133.171433 Z M436.191747,131.005548 L445,129.45994 L445,132.23316 L439.147148,133.260176 L439.147148,139.297707 L444.246663,138.402881 L444.246663,141.176101 L439.147148,142.070927 L439.147148,148.108457 L445,147.081442 L445,150.027988 L436.191747,151.573595 L436.191747,131.005548 Z" id="Vous-êtes-à-quelques"></path>
                    <g id="PICTO" opacity="0.7">
                        <path d="M337.24425,46.460147 C336.976308,45.9264233 336.330221,45.7125017 335.794337,45.9761223 L333.037125,47.3547283 L333.037125,44.7811864 C333.037125,39.4201809 328.67442,35.0574764 323.313415,35.0574764 L317.801152,35.0574764 C317.29984,32.5962974 315.117408,30.7358275 312.509292,30.7358275 C309.901177,30.7358275 307.718745,32.5962974 307.215273,35.0574764 L301.70517,35.0574764 C296.344165,35.0574764 291.98146,39.4201809 291.98146,44.7811864 L291.98146,47.3525675 L289.224248,45.9739615 C288.690525,45.7103409 288.040117,45.9242625 287.774335,46.4579861 C287.508554,46.9917098 287.724636,47.6399571 288.25836,47.9078993 L291.98146,49.7683692 L291.98146,57.746133 C291.98146,64.2999135 297.312214,69.6306674 303.865995,69.6306674 L321.15259,69.6306674 C327.706371,69.6306674 333.037125,64.2999135 333.037125,57.746133 L333.037125,49.7726908 L336.760225,47.9100602 C337.293949,47.6421179 337.512192,46.9938706 337.24425,46.460147 Z M312.509292,32.896652 C313.915989,32.896652 315.104443,33.8020374 315.551733,35.0574764 L309.466852,35.0574764 C309.914142,33.8020374 311.102596,32.896652 312.509292,32.896652 Z M301.707331,37.2183008 L323.315575,37.2183008 C327.118627,37.2183008 330.275591,40.0403376 330.800671,43.7007742 L294.220074,43.7007742 C294.745155,40.0403376 297.902119,37.2183008 301.707331,37.2183008 Z M330.8763,57.746133 C330.8763,63.1071384 326.513596,67.469843 321.15259,67.469843 L303.865995,67.469843 C298.504989,67.469843 294.142285,63.1071384 294.142285,57.746133 L294.142285,45.8615986 L330.8763,45.8615986 L330.8763,57.746133 Z M303.865995,65.3090185 C304.462382,65.3090185 304.946407,64.8249939 304.946407,64.2286063 C304.946407,63.6322188 304.462382,63.1481941 303.865995,63.1481941 C300.888379,63.1481941 298.463934,60.7237491 298.463934,57.746133 C298.463934,57.1497455 297.979909,56.6657208 297.383521,56.6657208 C296.787134,56.6657208 296.303109,57.1497455 296.303109,57.746133 C296.303109,61.9165242 299.695604,65.3090185 303.865995,65.3090185 Z" id="Picto_Cocotte" fill-rule="nonzero" transform="translate(312.509766, 50.183247) rotate(9.000000) translate(-312.509766, -50.183247) "></path>
                        <path d="M103.824351,254.446821 L103.824351,263.139922 C103.824351,263.760858 103.281032,264.304176 102.660096,264.304176 C102.03916,264.304176 101.495842,263.760858 101.495842,263.139922 L101.495842,254.446821 C101.495842,253.825886 102.03916,253.282567 102.660096,253.282567 C103.281032,253.282567 103.824351,253.825886 103.824351,254.446821 M98.235929,254.446821 L98.235929,263.139922 C98.235929,263.760858 97.6926102,264.304176 97.0716745,264.304176 C96.4507388,264.304176 95.90742,263.760858 95.90742,263.139922 L95.90742,254.446821 C95.90742,253.825886 96.4507388,253.282567 97.0716745,253.282567 C97.6926102,253.282567 98.235929,253.825886 98.235929,254.446821 M92.6475074,254.446821 L92.6475074,263.139922 C92.6475074,263.760858 92.1041886,264.304176 91.4832528,264.304176 C90.8623171,264.304176 90.3189983,263.760858 90.3189983,263.139922 L90.3189983,254.446821 C90.3189983,253.825886 90.8623171,253.282567 91.4832528,253.282567 C92.1041886,253.282567 92.6475074,253.825886 92.6475074,254.446821 M108.947071,253.515418 L108.79106,253.515418 L108.636603,253.515418 C108.326135,253.515418 108.014891,253.593035 107.782816,253.825886 C107.549965,254.058737 107.394731,254.369204 107.394731,254.679672 L107.394731,265.934133 C107.16188,266.632685 103.436266,267.874557 96.9940575,267.874557 C90.5518492,267.874557 86.9038518,266.632685 86.5933839,265.934133 L86.5933839,254.679672 C86.5933839,254.369204 86.43815,254.058737 86.2052991,253.825886 C85.9724482,253.593035 85.6619803,253.515418 85.4291294,253.515418 L85.3515124,253.515418 L85.1962785,253.515418 L85.1186615,253.515418 C81.0825792,253.515418 77.9002835,250.255505 77.9002835,246.29704 C77.9002835,242.338574 81.1601962,239.078662 85.1186615,239.078662 C86.2052991,239.078662 87.2143196,239.311513 88.2233402,239.777215 C88.5338081,239.932448 88.9218929,239.932448 89.2323608,239.777215 C89.5428287,239.621981 89.7756796,239.311513 89.8532965,238.923428 C90.3966153,235.353047 93.423677,232.791687 96.9940575,232.791687 C100.564438,232.791687 103.5915,235.353047 104.134042,238.923428 C104.212436,239.311513 104.445286,239.621981 104.755754,239.777215 C105.066222,239.932448 105.454307,239.932448 105.764775,239.777215 C106.773795,239.311513 107.782816,239.078662 108.869454,239.078662 C112.905536,239.078662 116.087832,242.338574 116.087832,246.29704 C116.087832,250.255505 112.983153,253.515418 108.947071,253.515418 M97.0716745,273.851063 C90.6294662,273.851063 86.9038518,272.609192 86.6710009,271.910639 L86.6710009,268.728343 C87.2919366,269.038811 87.9904893,269.271662 88.8442759,269.426896 C91.017551,269.970215 93.9669958,270.203066 97.0716745,270.203066 C99.0889395,270.203066 104.367669,270.047832 107.472348,268.650726 L107.472348,271.833022 C107.238721,272.609192 103.513883,273.851063 97.0716745,273.851063 M108.947071,236.750153 C108.014891,236.750153 107.084263,236.905387 106.230477,237.138238 C104.988605,233.179772 101.340608,230.385561 97.0716745,230.385561 C92.8027413,230.385561 89.1547438,233.179772 87.9128723,237.138238 C87.0590857,236.905387 86.1276821,236.750153 85.1962785,236.750153 C79.9183247,236.750153 75.6493915,241.019086 75.6493915,246.29704 C75.6493915,251.264526 79.5302398,255.455842 84.4201088,255.843927 L84.4201088,271.910639 C84.4201088,275.869104 94.1222297,276.179572 97.1492915,276.179572 C100.176353,276.179572 109.878474,275.869104 109.878474,271.910639 L109.878474,255.843927 C114.768343,255.455842 118.649191,251.264526 118.649191,246.29704 C118.571575,241.019086 114.224248,236.750153 108.947071,236.750153" id="Picto_Chef" transform="translate(97.149291, 253.282567) rotate(10.000000) translate(-97.149291, -253.282567) "></path>
                        <path d="M604.868087,178.887898 C604.394159,180.918192 602.986411,182.69666 602.020391,183.023621 C601.768565,183.107838 601.50518,183.159855 601.230236,183.182973 C601.179871,183.182147 601.1229,183.18545 601.070884,183.192881 C599.483968,183.24242 597.495783,182.412634 595.269808,181.456521 C594.829732,181.267446 594.378923,181.073416 593.919031,180.881863 C592.699533,180.370781 591.42224,180.178402 590.206871,180.178402 C588.510143,180.178402 586.934787,180.553251 585.806112,180.962778 L586.029039,179.445217 C586.673053,175.003175 588.611699,173.984313 591.963872,173.657352 C593.421985,173.523595 595.527413,174.193204 597.562661,174.847126 C598.616201,175.185646 599.705245,175.534899 600.695209,175.764432 C601.874249,176.036074 603.365389,175.473801 604.297557,175.027119 C605.195048,176.322577 605.121564,177.804634 604.868087,178.887898 Z M598.932429,192.510436 C598.348688,196.509099 594.615061,199.283312 590.624654,198.703699 C588.685182,198.421324 586.975244,197.40081 585.80446,195.83206 C584.634502,194.263309 584.144887,192.332094 584.428088,190.395925 L585.436217,183.492595 C585.47172,183.473605 585.506398,183.452963 585.54025,183.429845 C586.261875,182.941881 589.98064,181.562206 593.090896,182.861792 C593.545833,183.051693 593.989212,183.24242 594.422683,183.429019 C596.428207,184.291832 598.258691,185.077859 599.984317,185.291705 L598.932429,192.510436 Z M605.319722,172.916737 C604.973771,172.56996 604.437093,172.502256 604.016833,172.750779 C603.209339,173.224707 601.778473,173.81175 601.180696,173.672214 C600.275775,173.462497 599.277554,173.141316 598.219885,172.80197 C595.97492,172.082822 593.659774,171.342206 591.757457,171.518897 C586.894329,171.99365 584.61964,174.19981 583.90462,179.133944 L582.304494,190.086303 C581.938728,192.590525 582.571182,195.08649 584.083788,197.115133 C585.596394,199.144601 587.809984,200.463177 590.315032,200.827293 C590.776575,200.894997 591.233164,200.927197 591.688102,200.927197 C596.311789,200.927197 600.3699,197.527136 601.056022,192.820058 L602.165707,185.209139 C602.346526,185.167856 602.528171,185.117491 602.708164,185.056392 C604.517182,184.445405 606.34519,182.003107 606.95948,179.375862 C607.549,176.855953 606.966085,174.562274 605.319722,172.916737 Z M591.338848,193.570581 C589.250758,193.266739 588.480419,191.500656 588.447393,191.423044 C588.274004,191.001958 587.794297,190.805451 587.374037,190.97306 C586.952125,191.144797 586.748188,191.626981 586.919925,192.049718 C586.963685,192.159531 588.055205,194.762832 591.100233,195.203733 C591.380957,195.245842 591.650947,195.263181 591.908553,195.263181 C594.45736,195.263181 595.908042,193.44343 595.97492,193.360038 C596.254818,193.000877 596.192068,192.481538 595.832081,192.20164 C595.47292,191.92009 594.951104,191.983666 594.672857,192.344478 C594.661298,192.360166 593.44758,193.881029 591.338848,193.570581 Z M596.220966,187.902436 C596.892227,187.902436 597.436336,187.359153 597.436336,186.687893 C597.436336,186.017458 596.892227,185.473349 596.220966,185.473349 C595.551358,185.473349 595.007249,186.017458 595.007249,186.687893 C595.007249,187.359153 595.551358,187.902436 596.220966,187.902436 Z M588.584452,186.787798 C589.255712,186.787798 589.798996,186.244514 589.798996,185.57408 C589.798996,184.903645 589.255712,184.360362 588.584452,184.360362 C587.914843,184.360362 587.37156,184.903645 587.37156,185.57408 C587.37156,186.244514 587.914843,186.787798 588.584452,186.787798 Z M569.990625,179.782086 C569.469635,179.896027 568.939562,179.953823 568.411966,179.953823 C565.001171,179.953823 561.994949,177.532167 561.261765,174.196507 L559.917593,168.072599 C559.765672,167.383174 559.718609,166.686318 559.76402,166.001022 C560.7738,164.825284 562.700061,163.144244 565.674909,163.249102 C568.739753,163.357264 571.44461,163.628905 573.428667,162.873428 C573.791131,163.505057 574.069378,164.193656 574.231207,164.929317 L575.577855,171.051574 C576.44232,174.998221 573.936447,178.914319 569.990625,179.782086 Z M583.418307,168.722392 C583.418307,168.722392 580.646572,168.636523 575.906467,163.09553 C575.693448,162.546467 575.435842,162.021348 575.129523,161.530082 C575.872615,159.367682 572.188528,154.478133 570.10374,153.933199 C567.787768,153.32634 563.11867,154.033929 560.862972,155.147742 C557.358877,156.872543 555.436745,159.123287 556.491936,163.914583 C556.906417,165.795433 557.334933,167.621789 557.746937,169.051004 C556.043604,174.091648 554.317152,175.022165 554.317152,175.022165 C554.908323,177.753443 556.503495,180.596185 562.436676,179.948043 C564.087168,181.297169 566.181863,182.098884 568.411966,182.099709 C569.093134,182.099709 569.779257,182.024574 570.451342,181.876781 C573.334542,181.243501 575.621615,179.350267 576.865057,176.903841 C583.303541,175.073356 584.033423,171.567611 583.418307,168.722392 Z M572.603008,171.856591 C572.172015,171.717881 571.707995,171.958973 571.566807,172.389966 C571.542037,172.465927 570.933527,174.265862 568.879289,174.717498 C566.820923,175.169133 565.480053,173.79276 565.418129,173.728359 C565.108507,173.396444 564.587517,173.37828 564.254776,173.687076 C563.919559,173.996698 563.899743,174.519339 564.210191,174.853731 C564.279546,174.928866 565.728576,176.461288 568.050328,176.461288 C568.423525,176.461288 568.81819,176.421656 569.234322,176.330834 C572.246324,175.669482 573.10666,172.998477 573.142163,172.884536 C573.276745,172.451891 573.034828,171.99365 572.603008,171.856591 Z M571.277827,167.739033 C571.935051,167.595368 572.346228,166.950529 572.202564,166.293305 C572.058899,165.640209 571.41406,165.224903 570.756836,165.368568 C570.102915,165.513883 569.688434,166.1612 569.832099,166.814295 C569.976589,167.469868 570.623079,167.882697 571.277827,167.739033 Z M564.665128,167.94875 C564.521464,167.294829 563.874148,166.880348 563.218575,167.024013 C562.564654,167.168503 562.149347,167.81747 562.293012,168.470566 C562.436676,169.124488 563.085644,169.538142 563.73874,169.395304 C564.395138,169.249988 564.808793,168.605974 564.665128,167.94875 Z" id="Picto_Visage" transform="translate(580.750355, 177.318746) rotate(-24.000000) translate(-580.750355, -177.318746) "></path>
                        <path d="M555.420681,89.5862802 L561.120681,89.5862802 L561.120681,72.5862802 L555.420681,72.5862802 L555.420681,89.5862802 Z M556.320681,51.6862802 C556.320681,47.8862802 557.620681,45.5862802 558.220681,45.5862802 C558.920681,45.5862802 560.120681,47.8862802 560.120681,51.6862802 C560.120681,55.4862802 559.020681,61.4862802 558.220681,63.1862802 C557.420681,61.4862802 556.320681,55.4862802 556.320681,51.6862802 Z M552.220681,51.6862802 C552.220681,49.4862802 553.420681,47.4862802 555.220681,46.4862802 C554.620681,47.8862802 554.320681,49.7862802 554.320681,51.6862802 C554.320681,51.7862802 554.520681,57.5862802 555.620681,61.5862802 C553.720681,58.8862802 552.220681,54.1862802 552.220681,51.6862802 Z M561.320681,46.3862802 C563.120681,47.4862802 564.320681,49.3862802 564.320681,51.5862802 C564.320681,54.1862802 562.820681,58.8862802 560.920681,61.4862802 C562.020681,57.4862802 562.220681,51.6862802 562.220681,51.5862802 C562.220681,49.7862802 561.920681,47.8862802 561.320681,46.3862802 Z M562.120681,70.5862802 L559.320681,70.5862802 L559.320681,65.2862802 C563.620681,64.0862802 566.420681,55.3862802 566.420681,51.6862802 C566.320681,47.1862802 562.720681,43.5862802 558.220681,43.5862802 C553.820681,43.5862802 550.120681,47.1862802 550.120681,51.6862802 C550.120681,55.3862802 552.920681,64.0862802 557.220681,65.2862802 L557.220681,70.5862802 L554.320681,70.5862802 C553.720681,70.5862802 553.320681,70.9862802 553.320681,71.5862802 L553.320681,90.5862802 C553.320681,91.1862802 553.720681,91.5862802 554.320681,91.5862802 L562.020681,91.5862802 C562.620681,91.5862802 563.020681,91.1862802 563.020681,90.5862802 L563.020681,71.5862802 C563.120681,70.9862802 562.620681,70.5862802 562.120681,70.5862802 Z M539.720681,54.7862802 C540.320681,54.7862802 540.720681,54.3862802 540.720681,53.7862802 L540.720681,48.0862802 C540.720681,47.4862802 540.320681,47.0862802 539.720681,47.0862802 C539.120681,47.0862802 538.720681,47.4862802 538.720681,48.0862802 L538.720681,53.6862802 C538.720681,54.2862802 539.120681,54.7862802 539.720681,54.7862802 Z M536.320681,54.7862802 C536.920681,54.7862802 537.320681,54.3862802 537.320681,53.7862802 L537.320681,48.0862802 C537.320681,47.4862802 536.920681,47.0862802 536.320681,47.0862802 C535.720681,47.0862802 535.320681,47.4862802 535.320681,48.0862802 L535.320681,53.6862802 C535.320681,54.2862802 535.820681,54.7862802 536.320681,54.7862802 Z M533.020681,54.7862802 C533.620681,54.7862802 534.020681,54.3862802 534.020681,53.7862802 L534.020681,48.0862802 C534.020681,47.4862802 533.620681,47.0862802 533.020681,47.0862802 C532.420681,47.0862802 532.020681,47.4862802 532.020681,48.0862802 L532.020681,53.6862802 C532.020681,54.2862802 532.420681,54.7862802 533.020681,54.7862802 Z M542.420681,57.3862802 L538.320681,59.6862802 C538.020681,59.8862802 537.820681,60.1862802 537.820681,60.5862802 L537.820681,70.5862802 L534.920681,70.5862802 L534.920681,60.5862802 C534.920681,60.1862802 534.720681,59.8862802 534.420681,59.6862802 L530.320681,57.3862802 L530.320681,45.5862802 L542.420681,45.5862802 L542.420681,57.3862802 Z M533.520681,89.5862802 L539.220681,89.5862802 L539.220681,72.5862802 L533.520681,72.5862802 L533.520681,89.5862802 Z M543.420681,43.5862802 L529.320681,43.5862802 C528.820681,43.5862802 528.320681,43.9862802 528.320681,44.5862802 L528.320681,57.9862802 C528.320681,58.3862802 528.520681,58.6862802 528.820681,58.8862802 L532.920681,61.1862802 L532.920681,70.5862802 L532.520681,70.5862802 C531.920681,70.5862802 531.520681,70.9862802 531.520681,71.5862802 L531.520681,90.5862802 C531.520681,91.1862802 531.920681,91.5862802 532.520681,91.5862802 L540.220681,91.5862802 C540.820681,91.5862802 541.220681,91.1862802 541.220681,90.5862802 L541.220681,71.5862802 C541.220681,70.9862802 540.820681,70.5862802 540.220681,70.5862802 L539.820681,70.5862802 L539.820681,61.1862802 L543.920681,58.8862802 C544.220681,58.6862802 544.420681,58.3862802 544.420681,57.9862802 L544.420681,44.5862802 C544.420681,43.9862802 543.920681,43.5862802 543.420681,43.5862802 Z" id="Picto_Accessoire" transform="translate(547.370681, 67.586280) rotate(22.000000) translate(-547.370681, -67.586280) "></path>
                        <path d="M126.37004,102.608959 L119.671416,102.608959 C119.742489,102.115565 119.78843,101.600024 119.807177,101.066355 C119.80831,101.059248 119.809958,101.052244 119.810988,101.04493 C119.819331,100.980861 119.819434,100.917822 119.813563,100.856225 C119.815932,100.744876 119.817992,100.633219 119.817992,100.520428 C119.817992,99.7907407 119.76649,99.0915425 119.671313,98.4312801 L126.347585,98.428602 C126.526196,98.4940102 126.995899,99.2360586 126.995899,100.520325 C126.995899,101.804592 126.526196,102.546847 126.37004,102.608959 Z M115.53051,106.585675 L110.633856,106.585675 L87.9882999,103.647456 C88.1368332,103.00594 88.2392202,102.314879 88.2903107,101.586016 L117.06065,105.319125 C116.601454,106.119062 116.053055,106.585675 115.53051,106.585675 Z M82.0325482,104.282173 L83.0765043,104.282173 C84.4087716,104.282173 85.375577,102.699912 85.375577,100.520222 C85.375577,98.3405327 84.4086686,96.7584782 83.0764013,96.7584782 L82.0328572,96.7584782 C82.5403631,95.3630688 83.3068236,94.4552854 84.0408376,94.4552854 C85.274941,94.4552854 86.6552086,97.0491584 86.6552086,100.520531 C86.6552086,103.990462 85.2759711,106.583511 84.0423826,106.585675 L84.0407346,106.585675 L84.0398075,106.585675 C83.3061026,106.584851 82.539848,105.67717 82.0325482,104.282173 Z M72.2396525,98.4395205 C72.4322719,98.5535471 72.8656141,99.286737 72.8656141,100.520325 C72.8656141,101.753914 72.4322719,102.487207 72.2396525,102.60113 C72.047136,102.487207 71.6136908,101.753914 71.6136908,100.520325 C71.6136908,99.286737 72.047033,98.5534441 72.2396525,98.4395205 Z M74.1853148,102.608959 C74.4111018,102.022551 74.5388281,101.311095 74.5388281,100.520428 C74.5388281,99.7293497 74.4109988,99.0176879 74.1850058,98.4310741 L80.8606598,98.42922 C80.9007287,98.4317952 80.9405917,98.4323102 80.9799396,98.42922 L83.0539462,98.428602 C83.232454,98.4938042 83.702466,99.2358525 83.702466,100.520325 C83.702466,101.804592 83.232557,102.546847 83.0765043,102.608959 L74.1853148,102.608959 Z M117.24987,96.081117 L104.718482,94.4551824 L115.53051,94.4551824 C116.127115,94.4551824 116.757403,95.0627061 117.24987,96.081117 Z M87.4738927,105.267828 L97.6300873,106.585675 L86.7646,106.585675 C87.030559,106.201466 87.2686037,105.759471 87.4738927,105.267828 Z M91.7156405,94.4551824 L117.853068,97.8467265 C118.002116,98.4950403 118.100898,99.2143245 118.13283,99.9833602 L87.5713355,96.0179749 C87.3450334,95.42755 87.0737181,94.9020182 86.764394,94.4551824 L91.7156405,94.4551824 Z M88.3146199,99.9020892 C88.2846455,99.1511824 88.2013144,98.4361214 88.0692619,97.7696787 L118.092864,101.665536 C118.025292,102.412837 117.894785,103.104207 117.718131,103.71719 L88.3146199,99.9020892 Z M126.37004,96.7584782 L119.312031,96.7584782 C118.602327,94.3491902 117.208153,92.7819684 115.53051,92.7819684 L84.0407346,92.7819684 C84.0371294,92.7819684 84.0335242,92.7824834 84.029919,92.7824834 C82.4091346,92.7891787 81.0038368,94.2942885 80.2717799,96.7584782 L72.2395495,96.7584782 C72.2341932,96.7584782 72.229043,96.7590962 72.2236867,96.7591992 C70.8997628,96.7719718 69.9404768,98.3494941 69.9404768,100.520428 C69.9404768,102.700118 70.9073852,104.282173 72.2396525,104.282173 L80.2715739,104.282173 C81.0053819,106.752234 82.4153149,108.258889 84.0407346,108.258889 L115.53051,108.258889 C117.208153,108.258889 118.60243,106.691564 119.312031,104.282173 L126.37004,104.282173 C127.702204,104.282173 128.66901,102.699912 128.66901,100.520222 C128.66901,98.3405327 127.702204,96.7584782 126.37004,96.7584782 Z" id="Picto_Rouleau" transform="translate(99.304743, 100.520428) rotate(36.000000) translate(-99.304743, -100.520428) "></path>
                        <g id="étoiles">
                            <path d="M126.83131,44.1211964 L120.306685,47.5513945 C119.328996,48.0653961 118.119742,47.689503 117.60574,46.7118139 C117.401062,46.3224929 117.330433,45.8765567 117.404787,45.4430415 L118.650879,38.1777655 C118.762155,37.5289773 118.547058,36.8669769 118.075686,36.4075026 L112.797154,31.2622056 C112.006187,30.4912031 111.990002,29.2249766 112.761004,28.4340095 C113.068022,28.1190422 113.470306,27.9140678 113.90558,27.8508188 L121.200332,26.7908293 C121.851753,26.6961724 122.414884,26.2870337 122.706208,25.6967467 L125.96852,19.0865802 C126.457365,18.0960729 127.656616,17.6893949 128.647124,18.1782395 C129.041549,18.3729 129.360804,18.692155 129.555464,19.0865802 L132.817776,25.6967467 C133.109101,26.2870337 133.672232,26.6961724 134.323652,26.7908293 L141.618404,27.8508188 C142.711494,28.009654 143.468856,29.0245397 143.310021,30.1176295 C143.246772,30.5529035 143.041798,30.9551884 142.726831,31.2622056 L137.448299,36.4075026 C136.976926,36.8669769 136.761829,37.5289773 136.873105,38.1777655 L138.119198,45.4430415 C138.30592,46.5317144 137.574744,47.5656262 136.486071,47.7523483 C136.052556,47.8267019 135.60662,47.7560726 135.217299,47.5513945 L128.692674,44.1211964 C128.110026,43.8148802 127.413958,43.8148802 126.83131,44.1211964 Z" id="Picto_grande-étoile" transform="translate(127.762122, 32.876401) rotate(78.000000) translate(-127.762122, -32.876401) "></path>
                            <path d="M460.454026,44.430816 L456.531421,46.4930517 C455.798154,46.8785529 454.891214,46.5966331 454.505712,45.8633663 C454.352204,45.5713755 454.299232,45.2369234 454.354997,44.911787 L455.104148,40.5439017 C455.187605,40.0573106 455.026282,39.5608103 454.672753,39.2162046 L451.499299,36.1228511 C450.906073,35.5445993 450.893935,34.5949294 451.472187,34.001704 C451.70245,33.7654786 452.004163,33.6117478 452.330619,33.5643111 L456.716225,32.9270452 C457.20479,32.8560525 457.627138,32.5491984 457.845631,32.1064832 L459.806934,28.13245 C460.173568,27.3895695 461.073006,27.084561 461.815887,27.4511944 C462.111706,27.5971898 462.351147,27.8366311 462.497142,28.13245 L464.458445,32.1064832 C464.676938,32.5491984 465.099286,32.8560525 465.587852,32.9270452 L469.973458,33.5643111 C470.793275,33.6834375 471.361297,34.4446018 471.242171,35.264419 C471.194734,35.5908746 471.041003,35.8925882 470.804778,36.1228511 L467.631323,39.2162046 C467.277794,39.5608103 467.116472,40.0573106 467.199928,40.5439017 L467.949079,44.911787 C468.089121,45.7282916 467.540739,46.5037255 466.724234,46.6437671 C466.399098,46.6995323 466.064646,46.6465603 465.772655,46.4930517 L461.85005,44.430816 C461.413064,44.2010789 460.891013,44.2010789 460.454026,44.430816 Z" id="Picto_moyenne-étoile" transform="translate(461.152168, 37.088690) rotate(-38.000000) translate(-461.152168, -37.088690) "></path>
                            <path d="M12.2406036,150.163701 L8.31799824,152.225937 C7.58473137,152.611438 6.67779063,152.329518 6.29228942,151.596251 C6.13878082,151.30426 6.0858088,150.969808 6.14157407,150.644672 L6.89072502,146.276787 C6.97418193,145.790196 6.8128592,145.293695 6.45933008,144.94909 L3.2858757,141.855736 C2.69265033,141.277484 2.68051187,140.327814 3.25876369,139.734589 C3.4890266,139.498364 3.79074021,139.344633 4.11719576,139.297196 L8.50280185,138.65993 C8.99136709,138.588937 9.41371547,138.282083 9.63220849,137.839368 L11.5935112,133.865335 C11.9601446,133.122454 12.8595833,132.817446 13.6024638,133.184079 C13.8982827,133.330075 14.137724,133.569516 14.2837194,133.865335 L16.245022,137.839368 C16.4635151,138.282083 16.8858634,138.588937 17.3744287,138.65993 L21.7600348,139.297196 C22.5798521,139.416322 23.1478742,140.177487 23.0287478,140.997304 C22.9813111,141.32376 22.8275803,141.625473 22.5913548,141.855736 L19.4179005,144.94909 C19.0643713,145.293695 18.9030486,145.790196 18.9865055,146.276787 L19.7356565,150.644672 C19.875698,151.461177 19.3273162,152.23661 18.5108116,152.376652 C18.1856751,152.432417 17.851223,152.379445 17.5592323,152.225937 L13.636627,150.163701 C13.1996409,149.933964 12.6775896,149.933964 12.2406036,150.163701 Z" id="moyenne-copy-2" transform="translate(12.938745, 142.821575) rotate(32.000000) translate(-12.938745, -142.821575) "></path>
                            <path d="M630.489073,108.556601 L626.566468,110.618837 C625.833201,111.004338 624.92626,110.722418 624.540759,109.989151 C624.387251,109.697161 624.334279,109.362709 624.390044,109.037572 L625.139195,104.669687 C625.222652,104.183096 625.061329,103.686595 624.7078,103.34199 L621.534345,100.248636 C620.94112,99.6703844 620.928982,98.7207145 621.507233,98.1274892 C621.737496,97.8912637 622.03921,97.737533 622.365666,97.6900962 L626.751272,97.0528303 C627.239837,96.9818376 627.662185,96.6749836 627.880678,96.2322684 L629.841981,92.2582351 C630.208614,91.5153546 631.108053,91.2103461 631.850934,91.5769796 C632.146753,91.7229749 632.386194,91.9624162 632.532189,92.2582351 L634.493492,96.2322684 C634.711985,96.6749836 635.134333,96.9818376 635.622898,97.0528303 L640.008505,97.6900962 C640.828322,97.8092226 641.396344,98.5703869 641.277218,99.3902042 C641.229781,99.7166597 641.07605,100.018373 640.839825,100.248636 L637.66637,103.34199 C637.312841,103.686595 637.151518,104.183096 637.234975,104.669687 L637.984126,109.037572 C638.124168,109.854077 637.575786,110.629511 636.759281,110.769552 C636.434145,110.825317 636.099693,110.772345 635.807702,110.618837 L631.885097,108.556601 C631.448111,108.326864 630.926059,108.326864 630.489073,108.556601 Z" id="moyenne-copy" transform="translate(631.187215, 101.214475) rotate(-132.000000) translate(-631.187215, -101.214475) "></path>
                            <path d="M154.552792,261.902765 L153.513486,262.44916 C153.039947,262.698114 152.454252,262.516052 152.205298,262.042514 C152.106163,261.853948 152.071954,261.637961 152.107967,261.42799 L152.306456,260.270706 C152.389913,259.784115 152.228591,259.287615 151.875061,258.943009 L151.034245,258.123416 C150.651145,257.749985 150.643306,257.136695 151.016737,256.753594 C151.165439,256.601042 151.360283,256.501763 151.571106,256.471129 L152.733085,256.302284 C153.22165,256.231291 153.643999,255.924437 153.862492,255.481722 L154.382145,254.42879 C154.618914,253.949043 155.199765,253.75207 155.679512,253.98884 C155.87055,254.083123 156.025179,254.237752 156.119462,254.42879 L156.639115,255.481722 C156.857608,255.924437 157.279957,256.231291 157.768522,256.302284 L158.930501,256.471129 C159.459933,256.54806 159.826758,257.039615 159.749827,257.569047 C159.719193,257.779869 159.619914,257.974714 159.467362,258.123416 L158.626546,258.943009 C158.273016,259.287615 158.111694,259.784115 158.195151,260.270706 L158.39364,261.42799 C158.484078,261.955283 158.129937,262.456053 157.602644,262.546491 C157.392673,262.582504 157.176687,262.548295 156.988121,262.44916 L155.948815,261.902765 C155.511829,261.673027 154.989778,261.673027 154.552792,261.902765 Z" id="petite" transform="translate(155.250865, 258.220696) rotate(-38.000000) translate(-155.250865, -258.220696) "></path>
                            <path d="M354.552792,9.90276461 L353.513486,10.44916 C353.039947,10.698114 352.454252,10.5160522 352.205298,10.0425136 C352.106163,9.85394805 352.071954,9.63796123 352.107967,9.42799041 L352.306456,8.27070638 C352.389913,7.78411528 352.228591,7.28761498 351.875061,6.94300925 L351.034245,6.12341615 C350.651145,5.7499852 350.643306,5.13669508 351.016737,4.75359433 C351.165439,4.6010416 351.360283,4.50176335 351.571106,4.47112902 L352.733085,4.30228356 C353.22165,4.23129087 353.643999,3.92443681 353.862492,3.4817216 L354.382145,2.42878981 C354.618914,1.94904283 355.199765,1.7520705 355.679512,1.98883978 C355.87055,2.08312256 356.025179,2.23775205 356.119462,2.42878981 L356.639115,3.4817216 C356.857608,3.92443681 357.279957,4.23129087 357.768522,4.30228356 L358.930501,4.47112902 C359.459933,4.54806003 359.826758,5.03961455 359.749827,5.56904677 C359.719193,5.77986946 359.619914,5.97471399 359.467362,6.12341615 L358.626546,6.94300925 C358.273016,7.28761498 358.111694,7.78411528 358.195151,8.27070638 L358.39364,9.42799041 C358.484078,9.95528336 358.129937,10.4560531 357.602644,10.5464909 C357.392673,10.5825037 357.176687,10.5482948 356.988121,10.44916 L355.948815,9.90276461 C355.511829,9.67302746 354.989778,9.67302746 354.552792,9.90276461 Z" id="Picto_petite-étoite" transform="translate(355.250865, 6.220696) rotate(-38.000000) translate(-355.250865, -6.220696) "></path>
                        </g>
                        <g id="rond" transform="translate(30.019533, 29.000000)">
                            <path d="M101.58363,149.464333 C102.086296,149.035333 102.723296,148.779667 103.282296,148.779667 L103.654963,148.801333 C104.52163,148.801333 105.102296,149.286667 105.461963,149.694 C105.96463,150.274667 106.194296,151.02 106.10763,151.882333 C106.10763,152.753333 105.635296,153.338333 105.253963,153.672 C104.74263,154.092333 104.05363,154.343667 103.407963,154.343667 L103.15663,154.343667 C102.289963,154.343667 101.696296,153.862667 101.358296,153.459667 C100.85563,152.879 100.604296,152.103333 100.664963,151.323333 C100.729963,150.578 101.046296,149.923667 101.58363,149.464333 M103.15663,157 L103.407963,157 C104.673296,157 105.96463,156.532 106.96563,155.704333 C108.139963,154.703333 108.77263,153.351333 108.763963,152.029667 C108.919963,150.578 108.451963,149.091667 107.47263,147.960667 C106.45863,146.790667 105.162963,146.231667 103.815296,146.158 C102.445963,145.989 100.97263,146.483 99.8502964,147.453667 C98.7756297,148.372333 98.1256297,149.672333 98.0172964,151.128333 C97.9002964,152.606 98.3812964,154.092333 99.325963,155.197333 C100.33563,156.358667 101.696296,157 103.15663,157" id="rond-copy"></path>
                            <path d="M482.58363,187.464333 C483.086296,187.035333 483.723296,186.779667 484.282296,186.779667 L484.654963,186.801333 C485.52163,186.801333 486.102296,187.286667 486.461963,187.694 C486.96463,188.274667 487.194296,189.02 487.10763,189.882333 C487.10763,190.753333 486.635296,191.338333 486.253963,191.672 C485.74263,192.092333 485.05363,192.343667 484.407963,192.343667 L484.15663,192.343667 C483.289963,192.343667 482.696296,191.862667 482.358296,191.459667 C481.85563,190.879 481.604296,190.103333 481.664963,189.323333 C481.729963,188.578 482.046296,187.923667 482.58363,187.464333 M484.15663,195 L484.407963,195 C485.673296,195 486.96463,194.532 487.96563,193.704333 C489.139963,192.703333 489.77263,191.351333 489.763963,190.029667 C489.919963,188.578 489.451963,187.091667 488.47263,185.960667 C487.45863,184.790667 486.162963,184.231667 484.815296,184.158 C483.445963,183.989 481.97263,184.483 480.850296,185.453667 C479.77563,186.372333 479.12563,187.672333 479.017296,189.128333 C478.900296,190.606 479.381296,192.092333 480.325963,193.197333 C481.33563,194.358667 482.696296,195 484.15663,195" id="Page-1-Copy"></path>
                            <path d="M374.58363,33.4643333 C375.086296,33.0353333 375.723296,32.7796667 376.282296,32.7796667 L376.654963,32.8013333 C377.52163,32.8013333 378.102296,33.2866667 378.461963,33.694 C378.96463,34.2746667 379.194296,35.02 379.10763,35.8823333 C379.10763,36.7533333 378.635296,37.3383333 378.253963,37.672 C377.74263,38.0923333 377.05363,38.3436667 376.407963,38.3436667 L376.15663,38.3436667 C375.289963,38.3436667 374.696296,37.8626667 374.358296,37.4596667 C373.85563,36.879 373.604296,36.1033333 373.664963,35.3233333 C373.729963,34.578 374.046296,33.9236667 374.58363,33.4643333 M376.15663,41 L376.407963,41 C377.673296,41 378.96463,40.532 379.96563,39.7043333 C381.139963,38.7033333 381.77263,37.3513333 381.763963,36.0296667 C381.919963,34.578 381.451963,33.0916667 380.47263,31.9606667 C379.45863,30.7906667 378.162963,30.2316667 376.815296,30.158 C375.445963,29.989 373.97263,30.483 372.850296,31.4536667 C371.77563,32.3723333 371.12563,33.6723333 371.017296,35.1283333 C370.900296,36.606 371.381296,38.0923333 372.325963,39.1973333 C373.33563,40.3586667 374.696296,41 376.15663,41" id="Page-1-Copy-3"></path>
                            <path d="M3.58362969,294.464333 C4.08629636,294.035333 4.72329636,293.779667 5.28229636,293.779667 L5.65496303,293.801333 C6.52162969,293.801333 7.10229636,294.286667 7.46196303,294.694 C7.96462969,295.274667 8.19429636,296.02 8.10762969,296.882333 C8.10762969,297.753333 7.63529636,298.338333 7.25396303,298.672 C6.74262969,299.092333 6.05362969,299.343667 5.40796303,299.343667 L5.15662969,299.343667 C4.28996303,299.343667 3.69629636,298.862667 3.35829636,298.459667 C2.85562969,297.879 2.60429636,297.103333 2.66496303,296.323333 C2.72996303,295.578 3.04629636,294.923667 3.58362969,294.464333 M5.15662969,302 L5.40796303,302 C6.67329636,302 7.96462969,301.532 8.96562969,300.704333 C10.139963,299.703333 10.7726297,298.351333 10.763963,297.029667 C10.919963,295.578 10.451963,294.091667 9.47262969,292.960667 C8.45862969,291.790667 7.16296303,291.231667 5.81529636,291.158 C4.44596303,290.989 2.97262969,291.483 1.85029636,292.453667 C0.775629693,293.372333 0.125629693,294.672333 0.0172963593,296.128333 C-0.0997036407,297.606 0.381296359,299.092333 1.32596303,300.197333 C2.33562969,301.358667 3.69629636,302 5.15662969,302" id="Page-1-Copy-4"></path>
                            <path d="M177.58363,5.46433333 C178.086296,5.03533333 178.723296,4.77966667 179.282296,4.77966667 L179.654963,4.80133333 C180.52163,4.80133333 181.102296,5.28666667 181.461963,5.694 C181.96463,6.27466667 182.194296,7.02 182.10763,7.88233333 C182.10763,8.75333333 181.635296,9.33833333 181.253963,9.672 C180.74263,10.0923333 180.05363,10.3436667 179.407963,10.3436667 L179.15663,10.3436667 C178.289963,10.3436667 177.696296,9.86266667 177.358296,9.45966667 C176.85563,8.879 176.604296,8.10333333 176.664963,7.32333333 C176.729963,6.578 177.046296,5.92366667 177.58363,5.46433333 M179.15663,13 L179.407963,13 C180.673296,13 181.96463,12.532 182.96563,11.7043333 C184.139963,10.7033333 184.77263,9.35133333 184.763963,8.02966667 C184.919963,6.578 184.451963,5.09166667 183.47263,3.96066667 C182.45863,2.79066667 181.162963,2.23166667 179.815296,2.158 C178.445963,1.989 176.97263,2.483 175.850296,3.45366667 C174.77563,4.37233333 174.12563,5.67233333 174.017296,7.12833333 C173.900296,8.606 174.381296,10.0923333 175.325963,11.1973333 C176.33563,12.3586667 177.696296,13 179.15663,13" id="Page-1-Copy-5"></path>
                        </g>
                        <path d="M523.772604,149.989441 C524.64525,149.989441 525.353634,149.28619 525.353634,148.413544 C525.353634,147.56143 526.298146,147.012176 528.356565,146.165195 C529.783599,145.595409 530.59978,145.236084 530.979638,144.481501 C531.287631,143.886048 531.1747,143.162265 530.712711,142.690009 C530.394451,142.35635 530.014593,142.21262 529.188146,141.889227 C528.849354,141.755764 528.479762,141.617167 528.089638,141.427238 C526.246813,140.754787 525.353634,140.056669 525.353634,139.286687 C525.353634,138.434573 526.298146,137.885319 528.377098,137.028072 C529.793865,136.468552 530.610046,136.109227 530.989904,135.344378 C531.287631,134.738658 531.164434,134.014875 530.692178,133.542619 C530.373918,133.229493 530.004327,133.085763 529.193279,132.767504 C528.854487,132.63404 528.484895,132.49031 528.084504,132.300381 C526.354611,131.668996 525.348501,131.114608 525.348501,130.15983 C525.348501,129.307717 526.251947,128.778995 528.279567,127.937148 C529.757933,127.362228 530.594647,126.99777 530.984771,126.217521 C531.282498,125.611802 531.1593,124.888018 530.687045,124.415763 C530.368785,124.102636 529.988927,123.953773 529.167613,123.630381 C528.828821,123.50205 528.459229,123.363453 528.079371,123.178658 C526.349478,122.547272 525.343368,121.992885 525.343368,121.038107 C525.343368,120.16546 524.634984,119.467343 523.762337,119.467343 C522.889691,119.467343 522.181307,120.170594 522.181307,121.038107 C522.181307,123.650913 524.157595,124.949617 525.697559,125.632335 C524.049797,126.427983 522.181307,127.71642 522.181307,130.170097 C522.181307,132.788037 524.167861,134.08674 525.697559,134.764324 C524.049797,135.559973 522.181307,136.843277 522.181307,139.30722 C522.181307,141.843028 524.260259,143.21873 525.718092,143.896314 C524.065197,144.65603 522.191573,145.939334 522.191573,148.413544 C522.191573,149.28619 522.899957,149.989441 523.772604,149.989441 Z" id="Picto_Tortillon" transform="translate(526.666830, 134.728392) scale(1, -1) rotate(120.000000) translate(-526.666830, -134.728392) "></path>
                        <path d="M25.5649911,221.77615 C26.4376377,221.77615 27.1460214,221.0729 27.1460214,220.200253 C27.1460214,219.34814 28.090533,218.798886 30.1489523,217.951905 C31.5759861,217.382118 32.3921674,217.022793 32.7720253,216.26821 C33.0800182,215.672758 32.9670875,214.948974 32.5050981,214.476718 C32.1868388,214.143059 31.8069808,213.999329 30.9805332,213.675937 C30.641741,213.542473 30.2721495,213.403876 29.8820251,213.213947 C28.0392009,212.541496 27.1460214,211.843379 27.1460214,211.073397 C27.1460214,210.221283 28.090533,209.672029 30.1694852,208.814782 C31.5862526,208.255262 32.4024338,207.895936 32.7822917,207.131087 C33.0800182,206.525368 32.956821,205.801585 32.4845652,205.329329 C32.1663059,205.016203 31.7967144,204.872473 30.9856664,204.554213 C30.6468742,204.42075 30.2772827,204.27702 29.8768919,204.087091 C28.1469984,203.455705 27.1408882,202.901318 27.1408882,201.94654 C27.1408882,201.094426 28.0443341,200.565705 30.0719541,199.723858 C31.5503201,199.148938 32.3870342,198.784479 32.7771585,198.004231 C33.074885,197.398511 32.9516878,196.674728 32.479432,196.202472 C32.1611727,195.889346 31.7813148,195.740483 30.9600003,195.41709 C30.6212081,195.28876 30.2516166,195.150163 29.8717587,194.965367 C28.1418652,194.333982 27.135755,193.779595 27.135755,192.824817 C27.135755,191.95217 26.4273713,191.254053 25.5547247,191.254053 C24.6820781,191.254053 23.9736944,191.957303 23.9736944,192.824817 C23.9736944,195.437623 25.9499823,196.736327 27.4899468,197.419044 C25.8421847,198.214693 23.9736944,199.50313 23.9736944,201.956806 C23.9736944,204.574746 25.9602487,205.87345 27.4899468,206.551034 C25.8421847,207.346682 23.9736944,208.629986 23.9736944,211.09393 C23.9736944,213.629738 26.0526466,215.00544 27.5104797,215.683024 C25.8575844,216.44274 23.9839608,217.726044 23.9839608,220.200253 C23.9839608,221.0729 24.6923445,221.77615 25.5649911,221.77615 Z" id="Fill-1-Copy-4" transform="translate(28.459218, 206.515102) rotate(61.000000) translate(-28.459218, -206.515102) "></path>
                        <path d="M202.983961,84.2002534 C202.983961,85.0729 203.692345,85.7761504 204.564991,85.7761504 C205.437638,85.7761504 206.146021,85.0729 206.146021,84.2002534 C206.146021,83.3481396 207.090533,82.7988856 209.148952,81.9519051 C210.575986,81.3821182 211.392167,81.0227931 211.772025,80.2682105 C212.080018,79.6727575 211.967087,78.9489742 211.505098,78.4767184 C211.186839,78.1430594 210.806981,77.9993294 209.980533,77.6759368 C209.641741,77.5424732 209.272149,77.4038764 208.882025,77.2139474 C207.039201,76.5414962 206.146021,75.843379 206.146021,75.0733967 C206.146021,74.221283 207.090533,73.6720289 209.169485,72.814782 C210.586253,72.2552615 211.402434,71.8959364 211.782292,71.1310874 C212.080018,70.525368 211.956821,69.8015846 211.484565,69.3293288 C211.166306,69.0162027 210.796714,68.8724727 209.985666,68.5542133 C209.646874,68.4207497 209.277283,68.2770197 208.876892,68.0870907 C207.146998,67.4557053 206.140888,66.901318 206.140888,65.94654 C206.140888,65.0944263 207.044334,64.5657051 209.071954,63.7238578 C210.55032,63.1489377 211.387034,62.7844794 211.777159,62.0042307 C212.074885,61.3985113 211.951688,60.6747279 211.479432,60.2024721 C211.161173,59.889346 210.781315,59.7404828 209.96,59.4170902 C209.621208,59.2887598 209.251617,59.150163 208.871759,58.9653673 C207.141865,58.3339818 206.135755,57.7795946 206.135755,56.8248165 C206.135755,55.9521699 205.427371,55.2540527 204.554725,55.2540527 C203.682078,55.2540527 202.973694,55.9573031 202.973694,56.8248165 C202.973694,59.4376231 204.949982,60.7363265 206.489947,61.4190442 C204.842185,62.2146925 202.973694,63.5031295 202.973694,65.9568064 C202.973694,68.5747462 204.960249,69.8734496 206.489947,70.5510341 C204.842185,71.3466824 202.973694,72.6299862 202.973694,75.0939295 C202.973694,77.6297379 205.052647,79.0054395 206.51048,79.683024 C204.857584,80.4427398 202.983961,81.7260436 202.983961,84.2002534" id="Fill-1-Copy-2" transform="translate(207.459218, 70.515102) rotate(147.000000) translate(-207.459218, -70.515102) "></path>
                    </g>
                </g>
            </g>
        </g>
    </g>
</svg>