<?xml version="1.0" encoding="UTF-8"?>
<svg width="251px" height="212px" viewBox="0 0 251 212" version="1.1" xmlns="http://www.w3.org/2000/svg" xmlns:xlink="http://www.w3.org/1999/xlink">
    <!-- Generator: Sketch 49 (51002) - http://www.bohemiancoding.com/sketch -->
    <title>Group 4</title>
    <desc>Created with Sketch.</desc>
    <defs></defs>
    <g id="Page-1" stroke="none" stroke-width="1" fill="none" fill-rule="evenodd">
        <g id="01_QUESTION-02" transform="translate(-513.000000, -200.000000)">
            <g id="Group-4" transform="translate(513.000000, 199.000000)">
                <path d="M4.96,32.1305179 L3.16,32.4460558 L0.26,18.7144223 L2.42,18.3357769 L4.04,27.9917928 L4.08,27.9847809 L5.72,17.7572908 L7.88,17.3786454 L4.96,32.1305179 Z M8.98,20.5458167 C8.98,19.9724805 9.079999,19.4482892 9.28,18.9732271 C9.480001,18.498165 9.7433317,18.0886737 10.07,17.744741 C10.3966683,17.4008084 10.7633313,17.1198683 11.17,16.9019124 C11.5766687,16.6839564 11.9866646,16.538752 12.4,16.4662948 C12.8133354,16.3938376 13.2233313,16.3952984 13.63,16.4706773 C14.0366687,16.5460562 14.4033317,16.6984451 14.73,16.9278486 C15.0566683,17.1572521 15.319999,17.4744203 15.52,17.8793625 C15.720001,18.2843048 15.82,18.7734367 15.82,19.3467729 L15.82,26.8667729 C15.82,27.4534425 15.720001,27.9809671 15.52,28.4493625 C15.319999,28.917758 15.0566683,29.3239159 14.73,29.6678486 C14.4033317,30.0117813 14.0366687,30.2927214 13.63,30.5106773 C13.2233313,30.7286332 12.8133354,30.8738376 12.4,30.9462948 C11.9866646,31.018752 11.5766687,31.0172912 11.17,30.9419124 C10.7633313,30.8665335 10.3966683,30.7141446 10.07,30.484741 C9.7433317,30.2553375 9.480001,29.9415027 9.28,29.5432271 C9.079999,29.1449515 8.98,28.6524863 8.98,28.0658167 L8.98,20.5458167 Z M11.02,27.7082072 C11.02,28.201543 11.1566653,28.5409154 11.43,28.7263347 C11.7033347,28.9117539 12.0266648,28.97174 12.4,28.9062948 C12.7733352,28.8408496 13.0966653,28.6675047 13.37,28.386255 C13.6433347,28.1050052 13.78,27.7177183 13.78,27.2243825 L13.78,19.7043825 C13.78,19.2110467 13.6433347,18.8716742 13.37,18.686255 C13.0966653,18.5008357 12.7733352,18.4408496 12.4,18.5062948 C12.0266648,18.57174 11.7033347,18.7450849 11.43,19.0263347 C11.1566653,19.3075844 11.02,19.6948714 11.02,20.1882072 L11.02,27.7082072 Z M18.96,17.3563347 L16.6,17.7700398 L16.6,15.8500398 L23.36,14.6650199 L23.36,16.5850199 L21,16.9987251 L21,29.3187251 L18.96,29.6763347 L18.96,17.3563347 Z M26.3,20.5096414 L27.46,20.3062948 C27.8200018,20.2431869 28.1066656,20.1429356 28.32,20.0055378 C28.5333344,19.8681401 28.6966661,19.6961763 28.81,19.4896414 C28.9233339,19.2831065 28.9999998,19.0396694 29.04,18.7593227 C29.0800002,18.478976 29.1,18.1588066 29.1,17.7988048 C29.1,17.438803 29.0800002,17.1256454 29.04,16.8593227 C28.9999998,16.593 28.9166673,16.3742771 28.79,16.2031474 C28.6633327,16.0320177 28.4866678,15.919655 28.26,15.8660558 C28.0333322,15.8124566 27.7333352,15.8183795 27.36,15.8838247 L26.3,16.0696414 L26.3,20.5096414 Z M24.26,14.507251 L27.54,13.9322709 C29.940012,13.5115517 31.14,14.6945146 31.14,17.4811952 C31.14,18.307866 31.0100013,19.0406475 30.75,19.6795618 C30.4899987,20.318476 30.0333366,20.8751902 29.38,21.3497211 L31.58,27.4640637 L29.42,27.8427092 L27.52,22.0957769 L26.3,22.3096414 L26.3,28.3896414 L24.26,28.747251 L24.26,14.507251 Z M32.78,13.0137052 L38.86,11.9478884 L38.86,13.8678884 L34.82,14.5760956 L34.82,18.7560956 L38.34,18.1390438 L38.34,20.0590438 L34.82,20.6760956 L34.82,24.8560956 L38.86,24.1478884 L38.86,26.1878884 L32.78,27.2537052 L32.78,13.0137052 Z" id="votre" fill="#AB172B"></path>
                <path d="M14.95,117.129283 C10.5099778,117.907613 6.92501365,117.171067 4.195,114.919622 C1.46498635,112.668176 0.1,109.322492 0.1,104.88247 L0.1,63.4824701 C0.1,58.9824476 1.4499865,55.1458326 4.15,51.97251 L9.55,45.6258964 C12.2500135,42.4525738 15.8499775,40.4715179 20.35,39.6826693 C24.7900222,38.9043387 28.3749863,39.6408852 31.105,41.8923307 C33.8350136,44.1437762 35.2,47.4894599 35.2,51.9294821 L35.2,60.0294821 L29.8,66.3760956 L19,68.2693227 L19,59.4493227 C19,57.4693128 18.100009,56.3370931 16.3,56.0526295 L16.3,97.3626295 C16.3,99.3426394 17.199991,100.474859 19,100.759323 L19,93.4693227 L24.4,87.1227092 L35.2,85.2294821 L35.2,93.3294821 C35.2,97.8295046 33.8500135,101.66612 31.15,104.839442 L25.75,111.186056 C23.0499865,114.359378 19.4500225,116.340434 14.95,117.129283 Z M20.35,108.982669 C24.2500195,108.299001 27.399988,106.546827 29.8,103.726096 C32.200012,100.905364 33.4,97.5450394 33.4,93.6450199 L33.4,87.3450199 L26.2,88.6071713 L26.2,95.6271713 C26.2,97.36718 25.6600054,98.8718263 24.58,100.141155 C23.4999946,101.410484 22.0900087,102.197648 20.35,102.502669 C18.6099913,102.807691 17.2000054,102.514865 16.12,101.624183 C15.0399946,100.733502 14.5,99.418176 14.5,97.6781673 L14.5,54.8381673 C14.5,53.0981586 15.0399946,51.5935123 16.12,50.3241833 C17.2000054,49.0548542 18.6099913,48.2676908 20.35,47.9626693 C22.0900087,47.6576479 23.4999946,47.9504736 24.58,48.8411554 C25.6600054,49.7318371 26.2,51.0471626 26.2,52.7871713 L26.2,59.8071713 L33.4,58.5450199 L33.4,52.2450199 C33.4,48.3450004 32.200012,45.4053884 29.8,43.4260956 C27.399988,41.4468029 24.2500195,40.7990006 20.35,41.4826693 C16.4499805,42.1663381 13.300012,43.9185118 10.9,46.739243 C8.499988,49.5599743 7.3,52.9202992 7.3,56.8203187 L7.3,98.2203187 C7.3,102.120338 8.499988,105.05995 10.9,107.039243 C13.300012,109.018536 16.4499805,109.666338 20.35,108.982669 Z M54,110.283865 C49.5599778,111.062195 45.9750136,110.325649 43.245,108.074203 C40.5149863,105.822758 39.15,102.477074 39.15,98.0370518 L39.15,43.1370518 L44.55,36.7904382 L55.35,34.8972112 L55.35,90.5172112 C55.35,92.4972211 56.249991,93.6294408 58.05,93.9139044 L58.05,39.8239044 L63.45,33.4772908 L74.25,31.5840637 L74.25,86.4840637 C74.25,90.9840862 72.9000135,94.8207013 70.2,97.9940239 L64.8,104.340637 C62.0999865,107.51396 58.5000225,109.495016 54,110.283865 Z M59.4,102.137251 C63.3000195,101.453582 66.449988,99.7014085 68.85,96.8806773 C71.250012,94.0599461 72.45,90.6996211 72.45,86.7996016 L72.45,33.6996016 L65.25,34.961753 L65.25,88.781753 C65.25,90.5217617 64.7100054,92.026408 63.63,93.2957371 C62.5499946,94.5650661 61.1400087,95.3522296 59.4,95.657251 C57.6599913,95.9622724 56.2500054,95.6694467 55.17,94.7787649 C54.0899946,93.8880832 53.55,92.5727577 53.55,90.832749 L53.55,37.012749 L46.35,38.2749004 L46.35,91.3749004 C46.35,95.2749199 47.549988,98.2145319 49.95,100.193825 C52.350012,102.173117 55.4999805,102.82092 59.4,102.137251 Z M81.8,104.060558 L81.8,35.6605578 L87.2,29.3139442 L98,27.4207171 L98,95.8207171 L92.6,102.167331 L81.8,104.060558 Z M89,95.5984064 L96.2,94.336255 L96.2,29.536255 L89,30.7984064 L89,95.5984064 Z M139.75,41.701992 L134.35,48.0486056 L125.35,49.6262948 C126.010003,50.1706003 127.479989,51.3228996 129.76,53.0832271 C132.040011,54.8435546 133.719995,56.2440386 134.8,57.2847211 C135.880005,58.3254036 136.974994,59.963435 138.085,62.1988645 C139.195006,64.434294 139.75,66.9019785 139.75,69.601992 L139.75,75.001992 C139.75,79.5020145 138.400013,83.3386296 135.7,86.5119522 L130.3,92.8585657 C127.599986,96.0318884 124.000022,98.0129443 119.5,98.8017928 C115.059978,99.5801234 111.475014,98.843577 108.745,96.5921315 C106.014986,94.340686 104.65,90.9950023 104.65,86.5549801 L104.65,78.4549801 L110.05,72.1083665 L119.05,70.5306773 C118.389997,69.9863718 116.920011,68.8340725 114.64,67.073745 C112.359989,65.3134175 110.680005,63.9129335 109.6,62.872251 C108.519995,61.8315685 107.425006,60.1935371 106.315,57.9581076 C105.204994,55.7226781 104.65,53.2549936 104.65,50.5549801 L104.65,45.1549801 C104.65,40.6549576 105.999986,36.8183426 108.7,33.6450199 L114.1,27.2984064 C116.800013,24.1250837 120.399977,22.1440278 124.9,21.3551793 C129.340022,20.5768487 132.924986,21.3133951 135.655,23.5648406 C138.385014,25.8162862 139.75,29.1619698 139.75,33.601992 L139.75,41.701992 Z M124.9,29.6351793 C126.640009,29.3301578 128.049995,29.6229836 129.13,30.5136653 C130.210005,31.4043471 130.75,32.7196726 130.75,34.4596813 L130.75,41.4796813 L137.95,40.2175299 L137.95,33.9175299 C137.95,30.0175104 136.750012,27.0778983 134.35,25.0986056 C131.949988,23.1193128 128.800019,22.4715105 124.9,23.1551793 C120.99998,23.838848 117.850012,25.5910218 115.45,28.411753 C113.049988,31.2324842 111.85,34.5928092 111.85,38.4928287 L111.85,43.8028287 C111.85,46.7428434 112.494994,49.3447496 113.785,51.6086255 C115.075006,53.8725014 116.649991,55.7113874 118.51,57.1253386 C120.370009,58.5392899 122.229991,59.9082205 124.09,61.2321713 C125.950009,62.5561222 127.524994,64.1250109 128.815,65.9388845 C130.105006,67.7527581 130.75,69.7996699 130.75,72.0796813 L130.75,77.2996813 C130.75,79.03969 130.210005,80.5443363 129.13,81.8136653 C128.049995,83.0829944 126.640009,83.8701578 124.9,84.1751793 C123.159991,84.4802007 121.750005,84.187375 120.67,83.2966932 C119.589995,82.4060115 119.05,81.090686 119.05,79.3506773 L119.05,72.3306773 L111.85,73.5928287 L111.85,79.8928287 C111.85,83.7928482 113.049988,86.7324602 115.45,88.711753 C117.850012,90.6910458 120.99998,91.338848 124.9,90.6551793 C128.800019,89.9715105 131.949988,88.2193368 134.35,85.3986056 C136.750012,82.5778743 137.95,79.2175494 137.95,75.3175299 L137.95,70.0075299 C137.95,67.0675152 137.305006,64.4656089 136.015,62.2017331 C134.724994,59.9378572 133.150009,58.0989712 131.29,56.6850199 C129.429991,55.2710686 127.570009,53.9021381 125.71,52.5781873 C123.849991,51.2542364 122.275006,49.6853477 120.985,47.8714741 C119.694994,46.0576005 119.05,44.0106887 119.05,41.7306773 L119.05,36.5106773 C119.05,34.7706686 119.589995,33.2660223 120.67,31.9966932 C121.750005,30.7273642 123.159991,29.9402007 124.9,29.6351793 Z M123.55,41.1218327 C123.55,39.1418228 122.650009,38.009603 120.85,37.7251394 L120.85,41.4151394 C120.85,43.8151514 121.749991,45.9973607 123.55,47.9618327 L123.55,41.1218327 Z M120.85,79.0351394 C120.85,81.0151493 121.749991,82.1473691 123.55,82.4318327 L123.55,78.7418327 C123.55,76.3418207 122.650009,74.1596114 120.85,72.1951394 L120.85,79.0351394 Z M146.4,92.736255 L146.4,24.336255 L151.8,17.9896414 L162.6,16.0964143 L162.6,84.4964143 L157.2,90.8430279 L146.4,92.736255 Z M153.6,84.2741036 L160.8,83.0119522 L160.8,18.2119522 L153.6,19.4741036 L153.6,84.2741036 Z M170.6,88.4940239 L170.6,20.0940239 L176,13.7474104 L184.91,12.185498 L191.3,29.2453386 L191.3,16.4653386 L196.7,10.1187251 L207.5,8.22549801 L207.5,76.625498 L202.1,82.9721116 L193.1,84.5498008 L186.8,67.7441833 L186.8,80.2541833 L181.4,86.6007968 L170.6,88.4940239 Z M177.8,80.0318725 L185,78.7697211 L185,37.2797211 L199.76,76.1823108 L205.7,75.1410359 L205.7,10.3410359 L198.5,11.6031873 L198.5,53.2731873 L183.65,14.2063745 L177.8,15.2318725 L177.8,80.0318725 Z M215.5,80.6231076 L215.5,12.2231076 L220.9,5.87649402 L248.8,0.985657371 L248.8,11.0656574 L243.4,17.4122709 L231.7,19.4632669 L231.7,33.1432669 L245.2,30.7767331 L245.2,40.8567331 L239.8,47.2033466 L231.7,48.6232669 L231.7,62.3032669 L248.8,59.3056574 L248.8,69.3856574 L243.4,75.7322709 L215.5,80.6231076 Z M222.7,72.1609562 L247,67.9011952 L247,61.4211952 L229.9,64.4188048 L229.9,41.7388048 L243.4,39.3722709 L243.4,32.8922709 L229.9,35.2588048 L229.9,12.5788048 L247,9.58119522 L247,3.10119522 L222.7,7.36095618 L222.7,72.1609562 Z" id="Cuisine" fill="#AB172B"></path>
                <path d="M229.988824,107.565059 C230.391203,106.780929 230.864582,105.939887 231.4,105.035857 C233,102.315378 235.28,99.9156972 237,98.7341833 C238.44,97.761753 239.4,97.7934661 240.68,98.5690837 C241.44,98.9958566 242.64,99.265498 242.68,100.338486 C243.76,100.549163 244.88,101.552829 244.52,102.135936 C244.16,102.679044 242.88,104.503426 241.68,106.633785 C240.28,109.039203 238.64,112.326693 239.8,112.923347 C240.84,113.461036 245.04,107.964781 247.12,104.640159 C247.6,103.796016 249.48,105.426454 248,107.885896 C244.28,114.138008 240.56,115.71012 238.68,114.679681 C237.8,114.193944 237.48,113.37004 237.44,112.377052 C235.16,115.416733 232.56,117.63251 229.92,115.455299 C229.360123,114.984954 228.969033,114.472037 228.730355,113.90544 C225.637851,117.734806 222.550093,118.889875 220.76,117.381036 C220.2,116.919203 219.88,116.375299 219.68,115.810359 C219.08,114.355538 218.96,112.336574 219.8,110.509323 C221.6,106.713785 231.24,89.7039044 233.92,86.5141036 C234.36,85.9569721 235.4,85.9746614 236.28,87.1003984 C237.04,88.0471713 236.88,89.3552191 236.36,90.4463745 C235.8,91.6645418 231.04,99.2989641 226,105.94247 C225.4,106.807649 224.92,107.491793 224.88,107.578805 C223.92,109.187092 220.56,114.536096 221.8,115.758725 C223.24,117.146295 227.88,110.932908 229.96,107.608287 C229.969114,107.593018 229.978733,107.578612 229.988824,107.565059 Z M194.897132,113.739681 C197.92014,108.999658 200.940197,103.556465 202.2,101.834582 C202.88,100.875378 204.56,101.420876 205.44,102.146614 C206.08,102.634422 206.52,103.317291 206,104.048446 C202.64,108.91745 203.56,111.756175 203.24,116.012271 C203.08,117.800319 203.64,120.542151 201.4,121.854821 C198.401131,123.603742 194.974088,123.053301 193.230776,120.601249 C190.419647,123.878177 187.857141,124.64297 186.4,123.844303 C185.52,123.358566 185,122.689721 184.68,121.865817 C182.36,124.67251 179.68,126.702311 177.28,124.843028 C176.567368,124.314706 176.158032,123.592149 176.015341,122.704819 C174.424969,123.97275 172.53531,124.598633 171.04,123.056892 C170.12,124.498167 169.04,125.92749 168.04,126.742789 C164.96,129.362709 162.76,128.348367 162.08,127.90757 C161.487257,127.558203 159.830755,127.09138 159.547859,125.17907 C157.806184,126.54269 155.698356,127.086733 154.16,124.775936 C151.32,128.833785 147.56,133.332908 144,130.276972 C141.8,128.422629 142.68,124.668367 145.68,119.74247 C147.8,116.250837 148.8,114.995538 149.44,114.123347 C150.68,112.545976 152.68,114.795378 152.16,115.886534 L148,122.375777 C146.32,124.990279 144.68,128.277769 145.44,128.824542 C147.08,129.977052 151.16,124.021833 154.44,118.166853 C155.2,115.313625 156.4,112.423267 157.76,112.344861 C158.28,112.333705 160.24,112.75012 159.64,114.895299 C159.48,115.443347 157.96,118.749801 155.96,122.060398 C156.08,122.759363 156.28,123.524303 156.72,123.607171 C157.470306,123.748482 158.773102,122.804274 160.430046,120.239081 C161.766303,116.572106 164.183462,113.526869 165.52,112.104542 C167.36,110.181992 168.72,109.823586 170.2,110.404143 C174.48,112.093865 174.52,114.406853 173.12,118.892271 C172.96,119.320319 172.76,119.835378 172.48,120.404462 C172.64,120.816414 172.84,121.181355 173.12,121.252271 C173.908454,121.414419 175.43698,120.248623 177.341708,117.057853 C177.795751,116.100275 178.352844,115.084682 179,114.021514 C181.16,110.402869 182.12,109.074582 182.88,108.221355 C184.08,106.890996 186.28,109.025339 185.68,110.050518 L181.36,116.727809 C179.68,119.422311 178,122.796813 178.44,123.319681 C178.8,123.736574 180.8,122.425976 184.8,116.724781 L190.92,106.771952 C192,105.822629 194.48,107.547888 193.96,108.359044 C193.76,108.674104 192.2,110.94757 190.68,113.494024 C189.72,115.102311 185.92,121.248446 187.52,122.087968 C188.6,122.658645 192.76,117.169402 194.8,113.851793 C194.828541,113.807272 194.861178,113.769986 194.897132,113.739681 Z M163.24,126.184223 C164.32,126.8349 167.36,122.581992 168.68,120.350598 C168.84,120.08255 169,119.774502 169.2,119.419442 C168.64,117.91761 168.12,115.848765 168.4,114.159681 C167.4,115.13498 166.2,116.625339 165,118.795697 C163.36,121.683187 162.28,125.63251 163.24,126.184223 Z M197.4,120.796016 C199.28,120.626454 199.68,117.036335 199.92,113.794263 C200,113.020239 200.04,112.253227 200.12,111.519203 C198.36,113.987729 196.72,116.235219 195.2,118.101673 C195.6,119.271554 196.12,120.940398 197.4,120.796016 Z M230.72,114.23506 C231.08,114.651952 233.08,113.341355 237.08,107.640159 L237.8,106.473944 C238.88,104.604622 240.52,101.317131 239.92,100.862311 C239.24,100.421514 236.2,103.434422 233.68,107.596175 C232,110.330677 230.28,113.712191 230.72,114.23506 Z" id="vous-la" fill="#4A4A4A"></path>
                <polygon id="Rectangle-2" fill="#4A4A4A" points="0 144 130 122 130 125 0 147"></polygon>
                <path d="M13.392,211.652398 L8.532,212.504351 L0.702,175.42894 L6.534,174.406598 L10.908,200.477841 L11.016,200.458908 L15.444,172.844685 L21.276,171.822343 L13.392,211.652398 Z M24.246,180.373705 C24.246,178.825697 24.5159973,177.410381 25.056,176.127713 C25.5960027,174.845045 26.3069956,173.739419 27.189,172.810801 C28.0710044,171.882183 29.0609945,171.123644 30.159,170.535163 C31.2570055,169.946682 32.3639944,169.55463 33.48,169.358996 C34.5960056,169.163362 35.7029945,169.167306 36.801,169.370829 C37.8990055,169.574352 38.8889956,169.985802 39.771,170.605191 C40.6530044,171.224581 41.3639973,172.080935 41.904,173.174279 C42.4440027,174.267623 42.714,175.588279 42.714,177.136287 L42.714,197.440287 C42.714,199.024295 42.4440027,200.448611 41.904,201.713279 C41.3639973,202.977947 40.6530044,204.074573 39.771,205.003191 C38.8889956,205.931809 37.8990055,206.690348 36.801,207.278829 C35.7029945,207.86731 34.5960056,208.259362 33.48,208.454996 C32.3639944,208.65063 31.2570055,208.646686 30.159,208.443163 C29.0609945,208.23964 28.0710044,207.82819 27.189,207.208801 C26.3069956,206.589411 25.5960027,205.742057 25.056,204.666713 C24.5159973,203.591369 24.246,202.261713 24.246,200.677705 L24.246,180.373705 Z M29.754,199.712159 C29.754,201.044166 30.1229963,201.960472 30.861,202.461104 C31.5990037,202.961736 32.471995,203.123698 33.48,202.946996 C34.488005,202.770294 35.3609963,202.302263 36.099,201.542888 C36.8370037,200.783514 37.206,199.737839 37.206,198.405833 L37.206,178.101833 C37.206,176.769826 36.8370037,175.85352 36.099,175.352888 C35.3609963,174.852256 34.488005,174.690294 33.48,174.866996 C32.471995,175.043698 31.5990037,175.511729 30.861,176.271104 C30.1229963,177.030478 29.754,178.076153 29.754,179.408159 L29.754,199.712159 Z M52.704,188.507052 L45.144,167.638311 L50.976,166.615968 L55.404,181.121745 L55.512,181.102813 L59.94,165.04459 L65.772,164.022247 L58.212,187.541506 L58.212,203.795506 L52.704,204.761052 L52.704,188.507052 Z M68.526,163.539474 L84.942,160.661769 L84.942,165.845769 L74.034,167.757928 L74.034,179.043928 L83.538,177.377888 L83.538,182.561888 L74.034,184.227928 L74.034,195.513928 L84.942,193.601769 L84.942,199.109769 L68.526,201.987474 L68.526,163.539474 Z M86.724,193.937386 L97.092,163.715888 L87.264,165.438725 L87.264,160.254725 L103.086,157.481147 L103.086,161.855147 L92.502,192.60051 L103.086,190.745147 L103.086,195.929147 L86.724,198.797386 L86.724,193.937386 Z M116.532,155.12408 L124.794,153.675761 C126.306008,153.410708 127.637994,153.37521 128.79,153.569267 C129.942006,153.763324 130.985995,154.282307 131.922,155.126231 C132.858005,155.970156 133.505998,157.035551 133.866,158.32245 C134.226002,159.609349 134.406,161.404777 134.406,163.708789 C134.406,165.400797 134.307001,166.867137 134.109,168.107853 C133.910999,169.348568 133.488003,170.547707 132.84,171.705307 C132.083996,173.09784 131.076006,174.255529 129.816,175.17841 C128.555994,176.101291 126.90001,176.74258 124.848,177.102295 L122.04,177.594534 L122.04,192.606534 L116.532,193.57208 L116.532,155.12408 Z M122.04,172.410534 L124.686,171.946693 C125.802006,171.751059 126.665997,171.437604 127.278,171.006319 C127.890003,170.575034 128.339999,170.055154 128.628,169.446665 C128.916001,168.838176 129.087,168.133207 129.141,167.331737 C129.195,166.530267 129.222,165.643543 129.222,164.671538 C129.222,163.771533 129.195,162.921275 129.141,162.120737 C129.087,161.320199 128.925001,160.646604 128.655,160.099932 C128.384999,159.55326 127.962003,159.159416 127.386,158.918386 C126.809997,158.677357 125.982005,158.651505 124.902,158.840829 L122.04,159.342534 L122.04,172.410534 Z M138.51,151.271363 L144.018,150.305817 L144.018,183.245817 L154.926,181.333657 L154.926,186.841657 L138.51,189.719363 L138.51,151.271363 Z M176.31,174.453068 C176.31,175.713074 176.076002,176.924082 175.608,178.086127 C175.139998,179.248173 174.501004,180.305179 173.691,181.257175 C172.880996,182.209172 171.936005,183.013821 170.856,183.671147 C169.775995,184.328473 168.624006,184.764413 167.4,184.97898 C166.175994,185.193547 165.024005,185.161491 163.944,184.882813 C162.863995,184.604134 161.919004,184.130796 161.109,183.462785 C160.298996,182.794774 159.660002,181.961798 159.192,180.963833 C158.723998,179.965868 158.49,178.836899 158.49,177.576892 L158.49,147.768892 L163.998,146.803347 L163.998,176.071347 C163.998,177.439353 164.321997,178.390547 164.97,178.924956 C165.618003,179.459365 166.427995,179.641371 167.4,179.47098 C168.372005,179.300589 169.181997,178.834601 169.83,178.073004 C170.478003,177.311407 170.802,176.24662 170.802,174.878614 L170.802,145.610614 L176.31,144.645068 L176.31,174.453068 Z M185.112,148.286088 L178.74,149.403092 L178.74,144.219092 L196.992,141.019538 L196.992,146.203538 L190.62,147.320542 L190.62,180.584542 L185.112,181.550088 L185.112,148.286088 Z M199.098,149.722359 C199.098,148.174351 199.367997,146.759034 199.908,145.476367 C200.448003,144.193699 201.158996,143.088072 202.041,142.159454 C202.923004,141.230836 203.912995,140.472298 205.011,139.883817 C206.109005,139.295336 207.215994,138.903284 208.332,138.707649 C209.448006,138.512015 210.554995,138.515959 211.653,138.719482 C212.751005,138.923005 213.740996,139.334455 214.623,139.953845 C215.505004,140.573234 216.215997,141.429588 216.756,142.522932 C217.296003,143.616276 217.566,144.936932 217.566,146.48494 L217.566,166.78894 C217.566,168.372948 217.296003,169.797265 216.756,171.061932 C216.215997,172.3266 215.505004,173.423226 214.623,174.351845 C213.740996,175.280463 212.751005,176.039001 211.653,176.627482 C210.554995,177.215963 209.448006,177.608015 208.332,177.803649 C207.215994,177.999284 206.109005,177.99534 205.011,177.791817 C203.912995,177.588294 202.923004,177.176844 202.041,176.557454 C201.158996,175.938065 200.448003,175.090711 199.908,174.015367 C199.367997,172.940023 199.098,171.610366 199.098,170.026359 L199.098,149.722359 Z M204.606,169.060813 C204.606,170.392819 204.974996,171.309125 205.713,171.809757 C206.451004,172.310389 207.323995,172.472351 208.332,172.295649 C209.340005,172.118947 210.212996,171.650916 210.951,170.891542 C211.689004,170.132168 212.058,169.086493 212.058,167.754486 L212.058,147.450486 C212.058,146.118479 211.689004,145.202174 210.951,144.701542 C210.212996,144.20091 209.340005,144.038947 208.332,144.215649 C207.323995,144.392351 206.451004,144.860383 205.713,145.619757 C204.974996,146.379131 204.606,147.424806 204.606,148.756813 L204.606,169.060813 Z M205.794,130.134558 L210.87,129.244741 L216.162,135.93106 L211.95,136.669418 L208.332,132.173649 L204.714,137.93788 L200.502,138.676239 L205.794,130.134558 Z M226.044,141.110757 L219.672,142.227761 L219.672,137.043761 L237.924,133.844207 L237.924,139.028207 L231.552,140.145211 L231.552,173.409211 L226.044,174.374757 L226.044,141.110757 Z M239.386,170.60792 L240.814,170.357594 L240.814,171.785594 L239.386,172.03592 L239.386,170.60792 Z M244.048,169.790677 L245.476,169.540351 L245.476,170.968351 L244.048,171.218677 L244.048,169.790677 Z M248.71,168.973434 L250.138,168.723108 L250.138,170.151108 L248.71,170.401434 L248.71,168.973434 Z" id="voyez-plutôt…" fill="#4A4A4A"></path>
            </g>
        </g>
    </g>
</svg>