<?xml version="1.0" encoding="UTF-8"?>
<svg width="288px" height="222px" viewBox="0 0 288 222" version="1.1" xmlns="http://www.w3.org/2000/svg" xmlns:xlink="http://www.w3.org/1999/xlink">
    <!-- Generator: Sketch 49 (51002) - http://www.bohemiancoding.com/sketch -->
    <title>TITRE</title>
    <desc>Created with Sketch.</desc>
    <defs></defs>
    <g id="Page-1" stroke="none" stroke-width="1" fill="none" fill-rule="evenodd">
        <g id="02_RESULTATS" transform="translate(-496.000000, -194.000000)">
            <g id="TITRE" transform="translate(496.000000, 194.000000)">
                <path d="M0.96,25.5866667 L3,25.2183333 L3,37.4183333 L7.04,36.6888889 L7.04,38.7288889 L0.96,39.8266667 L0.96,25.5866667 Z M8.36,24.2505556 L14.44,23.1527778 L14.44,25.0727778 L10.4,25.8022222 L10.4,29.9822222 L13.92,29.3466667 L13.92,31.2666667 L10.4,31.9022222 L10.4,36.0822222 L14.44,35.3527778 L14.44,37.3927778 L8.36,38.4905556 L8.36,24.2505556 Z M22.36,25.8227778 L20.32,26.1911111 L20.32,25.7311111 C20.32,25.2644421 20.2100011,24.8809737 19.99,24.5806944 C19.7699989,24.2804152 19.4000026,24.1772218 18.88,24.2711111 C18.5999986,24.3216669 18.3700009,24.4165271 18.19,24.5556944 C18.0099991,24.6948618 17.8700005,24.8568046 17.77,25.0415278 C17.6699995,25.2262509 17.6000002,25.4322211 17.56,25.6594444 C17.5199998,25.8866678 17.5,26.1202766 17.5,26.3602778 C17.5,26.6402792 17.5099999,26.8751379 17.53,27.0648611 C17.5500001,27.2545843 17.5999996,27.4122216 17.68,27.5377778 C17.7600004,27.663334 17.8766659,27.7656015 18.03,27.8445833 C18.1833341,27.9235652 18.393332,27.9923145 18.66,28.0508333 L20.22,28.3891667 C20.6733356,28.4806486 21.0399986,28.6177769 21.32,28.8005556 C21.6000014,28.9833342 21.8166659,29.2175449 21.97,29.5031944 C22.1233341,29.788844 22.2266664,30.1301832 22.28,30.5272222 C22.3333336,30.9242612 22.36,31.3827752 22.36,31.9027778 C22.36,32.5027808 22.3000006,33.0702751 22.18,33.6052778 C22.0599994,34.1402805 21.8633347,34.615785 21.59,35.0318056 C21.3166653,35.4478262 20.9533356,35.8034245 20.5,36.0986111 C20.0466644,36.3937978 19.4933366,36.6003698 18.84,36.7183333 C18.3466642,36.8074079 17.8866688,36.8037968 17.46,36.7075 C17.0333312,36.6112032 16.6666682,36.440742 16.36,36.1961111 C16.0533318,35.9514803 15.8100009,35.6387519 15.63,35.2579167 C15.4499991,34.8770814 15.36,34.4466691 15.36,33.9666667 L15.36,33.2066667 L17.4,32.8383333 L17.4,33.4783333 C17.4,33.8516685 17.5099989,34.1684709 17.73,34.42875 C17.9500011,34.6890291 18.3199974,34.7722227 18.84,34.6783333 C19.1866684,34.6157404 19.4566657,34.5169914 19.65,34.3820833 C19.8433343,34.2471753 19.9899995,34.0806954 20.09,33.8826389 C20.1900005,33.6845823 20.2533332,33.4498162 20.28,33.1783333 C20.3066668,32.9068505 20.32,32.6111127 20.32,32.2911111 C20.32,31.9177759 20.3066668,31.6135197 20.28,31.3783333 C20.2533332,31.143147 20.1966671,30.960047 20.11,30.8290278 C20.0233329,30.6980086 19.9033341,30.5996763 19.75,30.5340278 C19.5966659,30.4683793 19.3933346,30.4050929 19.14,30.3441667 L17.68,30.0077778 C16.7999956,29.8066657 16.2100015,29.4365305 15.91,28.8973611 C15.6099985,28.3581917 15.46,27.6419489 15.46,26.7486111 C15.46,26.2152751 15.5333326,25.6953729 15.68,25.1888889 C15.8266674,24.6824049 16.0433319,24.2299557 16.33,23.8315278 C16.6166681,23.4330999 16.9799978,23.0908348 17.42,22.8047222 C17.8600022,22.5186097 18.3733304,22.3225931 18.96,22.2166667 C19.4666692,22.1251847 19.9299979,22.1348606 20.35,22.2456944 C20.7700021,22.3565283 21.1299985,22.5381932 21.43,22.7906944 C21.7300015,23.0431957 21.9599992,23.3449982 22.12,23.6961111 C22.2800008,24.047224 22.36,24.4227758 22.36,24.8227778 L22.36,25.8227778 Z" id="Les" fill="#AB172B"></path>
                <path d="M14.95,124.050694 C10.5099778,124.852365 6.92501365,124.134664 4.195,121.897569 C1.46498635,119.660475 0.1,116.321967 0.1,111.881944 L0.1,70.4819444 C0.1,65.9819219 1.4499865,62.1382104 4.15,58.9506944 L9.55,52.5756944 C12.2500135,49.3881785 15.8499775,47.3881985 20.35,46.5756944 C24.7900222,45.7740238 28.3749864,46.4917249 31.105,48.7288194 C33.8350137,50.965914 35.2,54.3044222 35.2,58.7444444 L35.2,66.8444444 L29.8,73.2194444 L19,75.1694444 L19,66.3494444 C19,64.3694345 18.100009,63.2419458 16.3,62.9669444 L16.3,104.276944 C16.3,106.256954 17.199991,107.384443 19,107.659444 L19,100.369444 L24.4,93.9944444 L35.2,92.0444444 L35.2,100.144444 C35.2,104.644467 33.8500135,108.488179 31.15,111.675694 L25.75,118.050694 C23.0499865,121.23821 19.4500225,123.23819 14.95,124.050694 Z M20.35,115.875694 C24.2500195,115.171524 27.399988,113.402792 29.8,110.569444 C32.200012,107.736097 33.4,104.369464 33.4,100.469444 L33.4,94.1694444 L26.2,95.4694444 L26.2,102.489444 C26.2,104.229453 25.6600054,105.736938 24.58,107.011944 C23.4999946,108.286951 22.0900087,109.081526 20.35,109.395694 C18.6099913,109.709863 17.2000054,109.424449 16.12,108.539444 C15.0399946,107.65444 14.5,106.341953 14.5,104.601944 L14.5,61.7619444 C14.5,60.0219357 15.0399946,58.5144508 16.12,57.2394444 C17.2000054,55.9644381 18.6099913,55.1698627 20.35,54.8556944 C22.0900087,54.5415262 23.4999946,54.82694 24.58,55.7119444 C25.6600054,56.5969489 26.2,57.9094357 26.2,59.6494444 L26.2,66.6694444 L33.4,65.3694444 L33.4,59.0694444 C33.4,55.1694249 32.200012,52.2361209 29.8,50.2694444 C27.399988,48.3027679 24.2500195,47.6715243 20.35,48.3756944 C16.4499805,49.0798646 13.300012,50.8485969 10.9,53.6819444 C8.499988,56.5152919 7.3,59.8819249 7.3,63.7819444 L7.3,105.181944 C7.3,109.081964 8.499988,112.015268 10.9,113.981944 C13.300012,115.948621 16.4499805,116.579865 20.35,115.875694 Z M54,117 C49.5599778,117.801671 45.9750137,117.08397 43.245,114.846875 C40.5149864,112.60978 39.15,109.271272 39.15,104.83125 L39.15,49.93125 L44.55,43.55625 L55.35,41.60625 L55.35,97.22625 C55.35,99.2062599 56.249991,100.333749 58.05,100.60875 L58.05,46.51875 L63.45,40.14375 L74.25,38.19375 L74.25,93.09375 C74.25,97.5937725 72.9000135,101.437484 70.2,104.625 L64.8,111 C62.0999865,114.187516 58.5000225,116.187496 54,117 Z M59.4,108.825 C63.3000195,108.12083 66.449988,106.352098 68.85,103.51875 C71.250012,100.685403 72.45,97.3187695 72.45,93.41875 L72.45,40.31875 L65.25,41.61875 L65.25,95.43875 C65.25,97.1787587 64.7100054,98.6862436 63.63,99.96125 C62.5499946,101.236256 61.1400087,102.030832 59.4,102.345 C57.6599913,102.659168 56.2500054,102.373754 55.17,101.48875 C54.0899946,100.603746 53.55,99.2912587 53.55,97.55125 L53.55,43.73125 L46.35,45.03125 L46.35,98.13125 C46.35,102.031269 47.549988,104.964574 49.95,106.93125 C52.350012,108.897926 55.4999805,109.52917 59.4,108.825 Z M81.8,110.630556 L81.8,42.2305556 L87.2,35.8555556 L98,33.9055556 L98,102.305556 L92.6,108.680556 L81.8,110.630556 Z M89,102.130556 L96.2,100.830556 L96.2,36.0305556 L89,37.3305556 L89,102.130556 Z M139.75,47.9673611 L134.35,54.3423611 L125.35,55.9673611 C126.010003,56.5081971 127.479989,57.652769 129.76,59.4011111 C132.040011,61.1494532 133.719995,62.5411059 134.8,63.5761111 C135.880005,64.6111163 136.974994,66.2433916 138.085,68.4729861 C139.195006,70.7025806 139.75,73.1673476 139.75,75.8673611 L139.75,81.2673611 C139.75,85.7673836 138.400014,89.6110952 135.7,92.7986111 L130.3,99.1736111 C127.599987,102.361127 124.000023,104.361107 119.5,105.173611 C115.059978,105.975282 111.475014,105.257581 108.745,103.020486 C106.014986,100.783392 104.65,97.4448833 104.65,93.0048611 L104.65,84.9048611 L110.05,78.5298611 L119.05,76.9048611 C118.389997,76.3640251 116.920011,75.2194532 114.64,73.4711111 C112.359989,71.722769 110.680005,70.3311163 109.6,69.2961111 C108.519995,68.2611059 107.425006,66.6288306 106.315,64.3992361 C105.204994,62.1696416 104.65,59.7048746 104.65,57.0048611 L104.65,51.6048611 C104.65,47.1048386 105.999987,43.261127 108.7,40.0736111 L114.1,33.6986111 C116.800014,30.5110952 120.399978,28.5111152 124.9,27.6986111 C129.340022,26.8969404 132.924986,27.6146416 135.655,29.8517361 C138.385014,32.0888306 139.75,35.4273389 139.75,39.8673611 L139.75,47.9673611 Z M124.9,35.9786111 C126.640009,35.6644429 128.049995,35.9498567 129.13,36.8348611 C130.210005,37.7198655 130.75,39.0323524 130.75,40.7723611 L130.75,47.7923611 L137.95,46.4923611 L137.95,40.1923611 C137.95,36.2923416 136.750012,33.3590376 134.35,31.3923611 C131.949988,29.4256846 128.80002,28.7944409 124.9,29.4986111 C120.999981,30.2027813 117.850012,31.9715136 115.45,34.8048611 C113.049988,37.6382086 111.85,41.0048416 111.85,44.9048611 L111.85,50.2148611 C111.85,53.1548758 112.494994,55.7533915 113.785,58.0104861 C115.075006,60.2675807 116.649991,62.0981874 118.51,63.5023611 C120.370009,64.9065348 122.229991,66.2656879 124.09,67.5798611 C125.950009,68.8940343 127.524994,70.4546437 128.815,72.2617361 C130.105006,74.0688285 130.75,76.1123497 130.75,78.3923611 L130.75,83.6123611 C130.75,85.3523698 130.210005,86.8598547 129.13,88.1348611 C128.049995,89.4098675 126.640009,90.2044429 124.9,90.5186111 C123.159991,90.8327793 121.750005,90.5473655 120.67,89.6623611 C119.589995,88.7773567 119.05,87.4648698 119.05,85.7248611 L119.05,78.7048611 L111.85,80.0048611 L111.85,86.3048611 C111.85,90.2048806 113.049988,93.1381846 115.45,95.1048611 C117.850012,97.0715376 120.999981,97.7027813 124.9,96.9986111 C128.80002,96.2944409 131.949988,94.5257086 134.35,91.6923611 C136.750012,88.8590136 137.95,85.4923806 137.95,81.5923611 L137.95,76.2823611 C137.95,73.3423464 137.305006,70.7438307 136.015,68.4867361 C134.724994,66.2296415 133.150009,64.3990348 131.29,62.9948611 C129.429991,61.5906874 127.570009,60.2315343 125.71,58.9173611 C123.849991,57.6031879 122.275006,56.0425785 120.985,54.2354861 C119.694994,52.4283937 119.05,50.3848725 119.05,48.1048611 L119.05,42.8848611 C119.05,41.1448524 119.589995,39.6373675 120.67,38.3623611 C121.750005,37.0873547 123.159991,36.2927793 124.9,35.9786111 Z M123.55,47.4723611 C123.55,45.4923512 122.650009,44.3648625 120.85,44.0898611 L120.85,47.7798611 C120.85,50.1798731 121.749991,52.3573513 123.55,54.3123611 L123.55,47.4723611 Z M120.85,85.3998611 C120.85,87.379871 121.749991,88.5073597 123.55,88.7823611 L123.55,85.0923611 C123.55,82.6923491 122.650009,80.5148709 120.85,78.5598611 L120.85,85.3998611 Z M146.4,98.9666667 L146.4,30.5666667 L151.8,24.1916667 L162.6,22.2416667 L162.6,90.6416667 L157.2,97.0166667 L146.4,98.9666667 Z M153.6,90.4666667 L160.8,89.1666667 L160.8,24.3666667 L153.6,25.6666667 L153.6,90.4666667 Z M170.6,94.5972222 L170.6,26.1972222 L176,19.8222222 L184.91,18.2134722 L191.3,35.2397222 L191.3,22.4597222 L196.7,16.0847222 L207.5,14.1347222 L207.5,82.5347222 L202.1,88.9097222 L193.1,90.5347222 L186.8,73.7622222 L186.8,86.2722222 L181.4,92.6472222 L170.6,94.5972222 Z M177.8,86.0972222 L185,84.7972222 L185,43.3072222 L199.76,82.1322222 L205.7,81.0597222 L205.7,16.2597222 L198.5,17.5597222 L198.5,59.2297222 L183.65,20.2409722 L177.8,21.2972222 L177.8,86.0972222 Z M215.5,86.4902778 L215.5,18.0902778 L220.9,11.7152778 L248.8,6.67777778 L248.8,16.7577778 L243.4,23.1327778 L231.7,25.2452778 L231.7,38.9252778 L245.2,36.4877778 L245.2,46.5677778 L239.8,52.9427778 L231.7,54.4052778 L231.7,68.0852778 L248.8,64.9977778 L248.8,75.0777778 L243.4,81.4527778 L215.5,86.4902778 Z M222.7,77.9902778 L247,73.6027778 L247,67.1227778 L229.9,70.2102778 L229.9,47.5302778 L243.4,45.0927778 L243.4,38.6127778 L229.9,41.0502778 L229.9,18.3702778 L247,15.2827778 L247,8.80277778 L222.7,13.1902778 L222.7,77.9902778 Z M287.4,21.3083333 L282,27.6833333 L273,29.3083333 C273.660003,29.8491694 275.129989,30.9937413 277.41,32.7420833 C279.690011,34.4904254 281.369995,35.8820782 282.45,36.9170833 C283.530005,37.9520885 284.624994,39.5843639 285.735,41.8139583 C286.845006,44.0435528 287.4,46.5083198 287.4,49.2083333 L287.4,54.6083333 C287.4,59.1083558 286.050014,62.9520674 283.35,66.1395833 L277.95,72.5145833 C275.249987,75.7020993 271.650023,77.7020793 267.15,78.5145833 C262.709978,79.316254 259.125014,78.5985529 256.395,76.3614583 C253.664986,74.1243638 252.3,70.7858555 252.3,66.3458333 L252.3,58.2458333 L257.7,51.8708333 L266.7,50.2458333 C266.039997,49.7049973 264.570011,48.5604254 262.29,46.8120833 C260.009989,45.0637413 258.330005,43.6720885 257.25,42.6370833 C256.169995,41.6020782 255.075006,39.9698028 253.965,37.7402083 C252.854994,35.5106139 252.3,33.0458468 252.3,30.3458333 L252.3,24.9458333 C252.3,20.4458108 253.649987,16.6020993 256.35,13.4145833 L261.75,7.03958333 C264.450014,3.8520674 268.049978,1.8520874 272.55,1.03958333 C276.990022,0.237912658 280.574986,0.955613815 283.305,3.19270833 C286.035014,5.42980285 287.4,8.76831113 287.4,13.2083333 L287.4,21.3083333 Z M272.55,9.31958333 C274.290009,9.0054151 275.699995,9.29082891 276.78,10.1758333 C277.860005,11.0608378 278.4,12.3733246 278.4,14.1133333 L278.4,21.1333333 L285.6,19.8333333 L285.6,13.5333333 C285.6,9.63331383 284.400012,6.70000983 282,4.73333333 C279.599988,2.76665683 276.45002,2.13541315 272.55,2.83958333 C268.649981,3.54375352 265.500012,5.31248583 263.1,8.14583333 C260.699988,10.9791808 259.5,14.3458138 259.5,18.2458333 L259.5,23.5558333 C259.5,26.495848 260.144994,29.0943637 261.435,31.3514583 C262.725006,33.608553 264.299991,35.4391596 266.16,36.8433333 C268.020009,38.247507 269.879991,39.6066601 271.74,40.9208333 C273.600009,42.2350066 275.174994,43.795616 276.465,45.6027083 C277.755006,47.4098007 278.4,49.4533219 278.4,51.7333333 L278.4,56.9533333 C278.4,58.693342 277.860005,60.200827 276.78,61.4758333 C275.699995,62.7508397 274.290009,63.5454151 272.55,63.8595833 C270.809991,64.1737516 269.400005,63.8883378 268.32,63.0033333 C267.239995,62.1183289 266.7,60.805842 266.7,59.0658333 L266.7,52.0458333 L259.5,53.3458333 L259.5,59.6458333 C259.5,63.5458528 260.699988,66.4791568 263.1,68.4458333 C265.500012,70.4125098 268.649981,71.0437535 272.55,70.3395833 C276.45002,69.6354131 279.599988,67.8666808 282,65.0333333 C284.400012,62.1999858 285.6,58.8333528 285.6,54.9333333 L285.6,49.6233333 C285.6,46.6833186 284.955006,44.084803 283.665,41.8277083 C282.374994,39.5706137 280.800009,37.740007 278.94,36.3358333 C277.079991,34.9316596 275.220009,33.5725066 273.36,32.2583333 C271.499991,30.9441601 269.925006,29.3835507 268.635,27.5764583 C267.344994,25.769366 266.7,23.7258447 266.7,21.4458333 L266.7,16.2258333 C266.7,14.4858246 267.239995,12.9783397 268.32,11.7033333 C269.400005,10.428327 270.809991,9.63375157 272.55,9.31958333 Z M271.2,20.8133333 C271.2,18.8333234 270.300009,17.7058347 268.5,17.4308333 L268.5,21.1208333 C268.5,23.5208453 269.399991,25.6983236 271.2,27.6533333 L271.2,20.8133333 Z M268.5,58.7408333 C268.5,60.7208432 269.399991,61.848332 271.2,62.1233333 L271.2,58.4333333 C271.2,56.0333213 270.300009,53.8558431 268.5,51.9008333 L268.5,58.7408333 Z" id="Cuisines" fill="#AB172B"></path>
                <path d="M271.217132,103.935155 C274.24014,99.1792409 277.260197,93.7201726 278.52,91.9916667 C279.2,91.0288889 280.88,91.5655556 281.76,92.2866667 C282.4,92.7711111 282.84,93.4516667 282.32,94.1855556 C278.96,99.0722222 279.88,101.906111 279.56,106.163889 C279.4,107.952778 279.96,110.691667 277.72,112.016111 C274.721131,113.780796 271.294088,113.24837 269.550776,110.805483 C266.739647,114.097189 264.177141,114.875452 262.72,114.084444 C261.84,113.603333 261.32,112.937222 261,112.115 C258.68,114.933889 256,116.977778 253.6,115.131111 C252.887368,114.606535 252.478032,113.88613 252.335341,112.99955 C250.744969,114.275841 248.85531,114.911658 247.36,113.377778 C246.44,114.823889 245.36,116.258889 244.36,117.079444 C241.28,119.715556 239.08,118.712778 238.4,118.275556 C237.807257,117.929305 236.150755,117.47119 235.867859,115.560367 C234.126184,116.933142 232.018356,117.488265 230.48,115.185556 C227.64,119.258333 223.88,123.777222 220.32,120.74 C218.12,118.897222 219,115.138333 222,110.196667 C224.12,106.693889 225.12,105.433333 225.76,104.557778 C227,102.973889 229,105.212778 228.48,106.306667 L224.32,112.817778 C222.64,115.441111 221,118.737222 221.76,119.28 C223.4,120.423889 227.48,114.447222 230.76,108.575 C231.52,105.717778 232.72,102.821111 234.08,102.735556 C234.6,102.721667 236.56,103.127778 235.96,105.276111 C235.8,105.825 234.28,109.139444 232.28,112.460556 C232.4,113.158889 232.6,113.922778 233.04,114.003333 C233.790306,114.1407 235.093102,113.189644 236.750046,110.615741 C238.086303,106.94174 240.503462,103.883798 241.84,102.454444 C243.68,100.522222 245.04,100.156667 246.52,100.729444 C250.8,102.396667 250.84,104.709444 249.44,109.202222 C249.28,109.631111 249.08,110.147222 248.8,110.717778 C248.96,111.128889 249.16,111.492778 249.44,111.562222 C250.228454,111.720226 251.75698,110.546395 253.661708,107.345612 C254.115751,106.385647 254.672844,105.367125 255.32,104.300556 C257.48,100.670556 258.44,99.3372222 259.2,98.48 C260.4,97.1433333 262.6,99.2661111 262,100.294444 L257.68,106.994444 C256,109.697778 254.32,113.081111 254.76,113.601667 C255.12,114.016667 257.12,112.695556 261.12,106.973333 L267.24,96.9883333 C268.32,96.0333333 270.8,97.7455556 270.28,98.5594444 C270.08,98.8755556 268.52,101.157222 267,103.711667 C266.04,105.325 262.24,111.491111 263.84,112.322222 C264.92,112.887222 269.08,107.376111 271.12,104.047778 C271.148541,104.003107 271.181178,103.965649 271.217132,103.935155 Z M197.702338,117.275386 C198.250381,116.258826 198.911807,115.221648 199.56,114.168333 C201.08,111.693889 202.8,109.543333 202.96,109.274444 C203.8,108.202778 205.72,110.616111 205.28,111.495556 C204.56,112.865556 202.8,115.463333 201.96,116.775 C200.32,119.391111 198.84,123.018333 199.6,123.561111 C200.76,124.311667 205.28,118.735556 207.36,115.4 C207.84,114.633333 209.72,116.173889 208.24,118.641111 C204.52,124.912778 200.56,126.707778 198.84,125.458333 C197.84437,124.721768 197.200024,123.960592 196.827445,123.177621 C193.740129,127.21462 190.86014,128.202221 189.28,127.344444 C188.4,126.863333 187.88,126.197222 187.56,125.375 C185.24,128.193889 182.56,130.237778 180.16,128.391111 C177.76,126.624444 178.8,122.636667 181.88,117.560556 C184.04,113.930556 185,112.597222 185.76,111.74 C186.96,110.403333 189.16,112.526111 188.56,113.554444 L184.24,120.254444 C182.56,122.957778 180.88,126.341111 181.32,126.861667 C181.68,127.276667 183.68,125.955556 187.68,120.233333 L193.8,110.248333 C194.88,109.293333 197.36,111.005556 196.84,111.819444 C196.64,112.135556 195.08,114.417222 193.56,116.971667 C192.6,118.585 188.8,124.751111 190.4,125.582222 C191.48,126.147222 195.64,120.636111 197.68,117.307778 C197.68719,117.296524 197.69464,117.285728 197.702338,117.275386 Z M179.64,117.525 C179.2,118.564444 175.36,125.217778 173.96,127.630556 C172.04,130.937222 165.92,142.682222 162.08,147.935556 C160.4,150.238889 159.56,148.070556 159.52,147.277778 C159.44,146.212222 160.36,144.326111 163.92,138.323333 C165.2,136.132222 166.72,134.017778 168.16,132.077778 L168.52,131.492778 C167.4,131.935 166.24,131.824444 165.08,130.873889 C162.48,128.743333 163.56,125.628333 166.56,120.526667 C168.16,117.797778 170.44,115.426111 172.16,114.235556 C173.56,113.222778 174.52,113.249444 175.8,114.018333 C176.56,114.441111 177.76,114.744444 177.8,115.777222 C178.88,115.982222 179.88,116.961667 179.64,117.525 Z M165.92,129.682222 C166.28,130.057222 168.24,128.743333 172.2,123.068333 L172.92,121.938333 C174.04,120.056111 175.64,116.767222 175.04,116.315556 C174.4,115.871111 171.36,118.9 168.84,123.075 C167.16,125.778333 165.44,129.168889 165.92,129.682222 Z M209.88,100.865 C210.84,101.331667 211,102.822778 210.2,104.167222 C209.4,105.551667 207.96,106.251667 207,105.785 C206,105.365556 205.88,103.867222 206.68,102.522778 C207.44,101.145556 208.88,100.445556 209.88,100.865 Z M239.56,116.546111 C240.64,117.191111 243.68,112.922222 245,110.683889 C245.16,110.415 245.32,110.106111 245.52,109.75 C244.96,108.251111 244.44,106.185 244.72,104.494444 C243.72,105.475 242.52,106.971667 241.32,109.148333 C239.68,112.044444 238.6,115.999444 239.56,116.546111 Z M273.72,110.978333 C275.6,110.798889 276,107.206667 276.24,103.963333 C276.32,103.188889 276.36,102.421667 276.44,101.687222 C274.68,104.165 273.04,106.421111 271.52,108.295556 C271.92,109.463333 272.44,111.129444 273.72,110.978333 Z" id="qui-vous" fill="#4A4A4A"></path>
                <polygon id="Rectangle-2-Copy" fill="#4A4A4A" points="0 152 152 124.555556 152 127.555556 0 155"></polygon>
                <path d="M19.716,211.013167 C19.716,212.179172 19.4951689,213.332034 19.0535,214.471785 C18.6118311,215.611536 18.0023372,216.649074 17.225,217.584431 C16.4476628,218.519787 15.5378385,219.320055 14.4955,219.985257 C13.4531615,220.650459 12.3313393,221.091508 11.13,221.308417 C10.1053282,221.493427 9.0630053,221.540292 8.003,221.449014 C6.9429947,221.357736 5.98900424,221.044155 5.141,220.508264 C4.29299576,219.972372 3.5951694,219.188545 3.0475,218.156757 C2.49983059,217.124969 2.226,215.743425 2.226,214.012083 L2.226,193.236083 C2.226,191.99941 2.43799788,190.812811 2.862,189.67625 C3.28600212,188.539689 3.88666278,187.512579 4.664,186.594889 C5.44133722,185.677199 6.36882794,184.900242 7.4465,184.263993 C8.52417205,183.627745 9.71666013,183.191603 11.024,182.955556 C12.2606728,182.732267 13.4089947,182.745763 14.469,182.996042 C15.5290053,183.246321 16.4476628,183.698779 17.225,184.353431 C18.0023372,185.008082 18.6118311,185.852025 19.0535,186.885285 C19.4951689,187.918545 19.716,189.088827 19.716,190.396167 L19.716,192.516167 L14.31,193.49225 L14.31,191.69025 C14.31,190.630245 14.0096697,189.765814 13.409,189.096931 C12.8083303,188.428048 11.9956718,188.186115 10.971,188.371125 C9.62832662,188.613552 8.73616887,189.189799 8.2945,190.099882 C7.85283112,191.009965 7.632,192.100994 7.632,193.373 L7.632,212.665 C7.632,213.760339 7.87049761,214.635934 8.3475,215.291813 C8.82450238,215.947691 9.68132715,216.163983 10.918,215.940694 C11.2713351,215.876898 11.6511646,215.746485 12.0575,215.549451 C12.4638354,215.352418 12.8348317,215.082268 13.1705,214.738993 C13.5061683,214.395718 13.7799989,213.957614 13.992,213.424667 C14.2040011,212.89172 14.31,212.254254 14.31,211.51225 L14.31,209.65725 L19.716,208.681167 L19.716,211.013167 Z M23.797,189.871319 C23.797,188.351979 24.0619973,186.961479 24.592,185.699778 C25.1220026,184.438077 25.819829,183.349257 26.6855,182.433285 C27.551171,181.517313 28.5228279,180.767714 29.6005,180.184465 C30.6781721,179.601217 31.7646612,179.210714 32.86,179.012944 C33.9553388,178.815175 35.0418279,178.813335 36.1195,179.007424 C37.1971721,179.201513 38.168829,179.600235 39.0345,180.203604 C39.900171,180.806973 40.5979973,181.6438 41.128,182.714111 C41.6580026,183.784422 41.923,185.079229 41.923,186.598569 L41.923,206.526569 C41.923,208.081244 41.6580026,209.480577 41.128,210.724611 C40.5979973,211.968645 39.900171,213.048632 39.0345,213.964604 C38.168829,214.880576 37.1971721,215.630175 36.1195,216.213424 C35.0418279,216.796672 33.9553388,217.187175 32.86,217.384944 C31.7646612,217.582714 30.6781721,217.584554 29.6005,217.390465 C28.5228279,217.196376 27.551171,216.797653 26.6855,216.194285 C25.819829,215.590916 25.1220026,214.762922 24.592,213.710278 C24.0619973,212.657634 23.797,211.353994 23.797,209.799319 L23.797,189.871319 Z M29.203,208.823236 C29.203,210.130576 29.565163,211.028009 30.2895,211.515563 C31.013837,212.003116 31.8706617,212.157575 32.86,211.978944 C33.8493383,211.800314 34.706163,211.336446 35.4305,210.587326 C36.154837,209.838207 36.517,208.809993 36.517,207.502653 L36.517,187.574653 C36.517,186.267313 36.154837,185.36988 35.4305,184.882326 C34.706163,184.394773 33.8493383,184.240314 32.86,184.418944 C31.8706617,184.597575 31.013837,185.061443 30.2895,185.810563 C29.565163,186.559682 29.203,187.587896 29.203,188.895236 L29.203,208.823236 Z M52.099,192.711236 L55.173,192.156208 C56.1270048,191.983957 56.8866638,191.714298 57.452,191.347222 C58.0173362,190.980146 58.4501652,190.522167 58.7505,189.973271 C59.0508348,189.424375 59.2539995,188.778198 59.36,188.034722 C59.4660005,187.291246 59.519,186.442519 59.519,185.488514 C59.519,184.534509 59.4660005,183.70492 59.36,182.999722 C59.2539995,182.294524 59.0331683,181.716069 58.6975,181.26434 C58.3618317,180.812611 57.8936697,180.517311 57.293,180.378431 C56.6923303,180.23955 55.8973383,180.259425 54.908,180.438056 L52.099,180.945236 L52.099,192.711236 Z M46.693,176.833319 L55.385,175.263931 C61.7450318,174.115591 64.925,177.233727 64.925,184.618431 C64.925,186.809108 64.5805034,188.75279 63.8915,190.449535 C63.2024966,192.146279 61.992342,193.627933 60.261,194.894542 L66.091,211.066903 L60.367,212.100403 L55.332,196.8975 L52.099,197.481236 L52.099,213.593236 L46.693,214.569319 L46.693,176.833319 Z M74.677,188.634653 L77.751,188.079625 C78.7050048,187.907374 79.4646638,187.637715 80.03,187.270639 C80.5953362,186.903563 81.0281652,186.445584 81.3285,185.896688 C81.6288348,185.347791 81.8319995,184.701615 81.938,183.958139 C82.0440005,183.214663 82.097,182.365935 82.097,181.411931 C82.097,180.457926 82.0440005,179.628337 81.938,178.923139 C81.8319995,178.217941 81.6111683,177.639486 81.2755,177.187757 C80.9398317,176.736028 80.4716697,176.440728 79.871,176.301847 C79.2703303,176.162967 78.4753383,176.182842 77.486,176.361472 L74.677,176.868653 L74.677,188.634653 Z M69.271,172.756736 L77.963,171.187347 C84.3230318,170.039008 87.503,173.157144 87.503,180.541847 C87.503,182.732525 87.1585034,184.676207 86.4695,186.372951 C85.7804966,188.069696 84.570342,189.55135 82.839,190.817958 L88.669,206.990319 L82.945,208.023819 L77.91,192.820917 L74.677,193.404653 L74.677,209.516653 L69.271,210.492736 L69.271,172.756736 Z M91.849,168.680153 L107.961,165.771042 L107.961,170.859042 L97.255,172.792069 L97.255,183.869069 L106.583,182.184847 L106.583,187.272847 L97.255,188.957069 L97.255,200.034069 L107.961,198.101042 L107.961,203.507042 L91.849,206.416153 L91.849,168.680153 Z M128.949,172.846542 L123.543,173.822625 L123.543,172.603625 C123.543,171.366952 123.251503,170.350761 122.6685,169.555021 C122.085497,168.759281 121.105007,168.485818 119.727,168.734625 C118.984996,168.868598 118.375502,169.119977 117.8985,169.488771 C117.421498,169.857564 117.050501,170.286713 116.7855,170.776229 C116.520499,171.265746 116.335001,171.811566 116.229,172.413708 C116.122999,173.01585 116.07,173.634913 116.07,174.270917 C116.07,175.01292 116.0965,175.635296 116.1495,176.138063 C116.2025,176.640829 116.334999,177.058568 116.547,177.391292 C116.759001,177.724016 117.068165,177.995024 117.4745,178.204326 C117.880835,178.413628 118.43733,178.595814 119.144,178.750889 L123.278,179.647472 C124.479339,179.889899 125.450996,180.253289 126.193,180.737653 C126.935004,181.222016 127.509165,181.842674 127.9155,182.599646 C128.321835,183.356617 128.595666,184.261166 128.737,185.313319 C128.878334,186.365473 128.949,187.580535 128.949,188.958542 C128.949,190.54855 128.790002,192.05241 128.472,193.470167 C128.153998,194.887924 127.632837,196.148011 126.9085,197.250465 C126.184163,198.35292 125.221339,199.295255 124.02,200.0775 C122.818661,200.859745 121.352342,201.40716 119.621,201.719764 C118.31366,201.955811 117.094672,201.946242 115.964,201.691056 C114.833328,201.435869 113.861671,200.984147 113.049,200.335875 C112.236329,199.687603 111.591502,198.858873 111.1145,197.84966 C110.637498,196.840446 110.399,195.699854 110.399,194.427847 L110.399,192.413847 L115.805,191.437764 L115.805,193.133764 C115.805,194.123102 116.096497,194.962628 116.6795,195.652368 C117.262503,196.342108 118.242993,196.562571 119.621,196.313764 C120.539671,196.147893 121.255164,195.886208 121.7675,195.528701 C122.279836,195.171195 122.668499,194.730023 122.9335,194.205174 C123.198501,193.680324 123.366333,193.058193 123.437,192.338764 C123.507667,191.619334 123.543,190.835629 123.543,189.987625 C123.543,188.998287 123.507667,188.192008 123.437,187.568764 C123.366333,186.94552 123.216168,186.460305 122.9865,186.113104 C122.756832,185.765903 122.438835,185.505323 122.0325,185.331354 C121.626165,185.157386 121.087337,184.989677 120.416,184.828222 L116.547,183.936792 C114.214988,183.403845 112.651504,182.422986 111.8565,180.994188 C111.061496,179.565389 110.664,177.667345 110.664,175.3 C110.664,173.88666 110.858331,172.508919 111.247,171.166736 C111.635669,169.824553 112.20983,168.625563 112.9695,167.569729 C113.72917,166.513895 114.691994,165.606893 115.858,164.848694 C117.024006,164.090496 118.384326,163.571052 119.939,163.290347 C121.281673,163.04792 122.509494,163.073561 123.6225,163.367271 C124.735506,163.660981 125.689496,164.142392 126.4845,164.811521 C127.279504,165.480649 127.888998,166.280426 128.313,167.210875 C128.737002,168.141324 128.949,169.136536 128.949,170.196542 L128.949,172.846542 Z M132.977,161.254264 L141.086,159.790139 C142.570007,159.522193 143.877328,159.480481 145.008,159.665 C146.138672,159.849519 147.163329,160.353505 148.082,161.176972 C149.000671,162.000439 149.636665,163.042762 149.99,164.303972 C150.343335,165.565182 150.52,167.326433 150.52,169.587778 C150.52,171.248453 150.422834,172.688149 150.2285,173.90691 C150.034166,175.12567 149.619003,176.304786 148.983,177.444292 C148.240996,178.814937 147.251673,179.956389 146.015,180.868681 C144.778327,181.780972 143.15301,182.418929 141.139,182.782569 L138.383,183.280181 L138.383,198.014181 L132.977,198.990264 L132.977,161.254264 Z M138.383,178.192181 L140.98,177.723278 C142.075339,177.525508 142.92333,177.2134 143.524,176.786944 C144.12467,176.360489 144.566332,175.847915 144.849,175.249208 C145.131668,174.650502 145.2995,173.957705 145.3525,173.170799 C145.4055,172.383892 145.432,171.513449 145.432,170.559444 C145.432,169.676107 145.4055,168.841733 145.3525,168.056299 C145.2995,167.270864 145.140501,166.610579 144.8755,166.075424 C144.610499,165.540268 144.195336,165.155899 143.63,164.922306 C143.064664,164.688712 142.252005,164.66761 141.192,164.859 L138.383,165.366181 L138.383,178.192181 Z M154.23,166.320917 C154.23,164.801576 154.494997,163.411076 155.025,162.149375 C155.555003,160.887674 156.252829,159.798854 157.1185,158.882882 C157.984171,157.96691 158.955828,157.217311 160.0335,156.634063 C161.111172,156.050814 162.197661,155.660311 163.293,155.462542 C164.388339,155.264772 165.474828,155.262932 166.5525,155.457021 C167.630172,155.65111 168.601829,156.049833 169.4675,156.653201 C170.333171,157.25657 171.030997,158.093397 171.561,159.163708 C172.091003,160.234019 172.356,161.528826 172.356,163.048167 L172.356,182.976167 C172.356,184.530841 172.091003,185.930174 171.561,187.174208 C171.030997,188.418242 170.333171,189.498229 169.4675,190.414201 C168.601829,191.330174 167.630172,192.079773 166.5525,192.663021 C165.474828,193.246269 164.388339,193.636772 163.293,193.834542 C162.197661,194.032311 161.111172,194.034151 160.0335,193.840062 C158.955828,193.645974 157.984171,193.247251 157.1185,192.643882 C156.252829,192.040513 155.555003,191.212519 155.025,190.159875 C154.494997,189.107231 154.23,187.803591 154.23,186.248917 L154.23,166.320917 Z M159.636,185.272833 C159.636,186.580173 159.998163,187.477606 160.7225,187.96516 C161.446837,188.452713 162.303662,188.607172 163.293,188.428542 C164.282338,188.249911 165.139163,187.786043 165.8635,187.036924 C166.587837,186.287804 166.95,185.25959 166.95,183.95225 L166.95,164.02425 C166.95,162.71691 166.587837,161.819477 165.8635,161.331924 C165.139163,160.84437 164.282338,160.689911 163.293,160.868542 C162.303662,161.047172 161.446837,161.51104 160.7225,162.26016 C159.998163,163.009279 159.636,164.037493 159.636,165.344833 L159.636,185.272833 Z M176.914,153.321194 L182.108,152.383389 L190.27,173.646694 L190.376,173.627556 L190.376,150.890556 L195.782,149.914472 L195.782,187.650472 L190.694,188.569139 L182.426,167.377972 L182.32,167.397111 L182.32,190.081111 L176.914,191.057194 L176.914,153.321194 Z M200.658,149.034083 L208.661,147.589097 C211.735015,147.034067 214.084659,147.46665 215.71,148.886861 C217.335341,150.307072 218.148,152.554151 218.148,155.628167 L218.148,173.277167 C218.148,176.810518 217.291175,179.571029 215.5775,181.558785 C213.863825,183.54654 211.399349,184.830673 208.184,185.411222 L200.658,186.770083 L200.658,149.034083 Z M206.064,180.706 L208.555,180.256236 C210.074341,179.981911 211.151997,179.407504 211.788,178.533 C212.424003,177.658496 212.742,176.408591 212.742,174.78325 L212.742,156.60425 C212.742,155.120243 212.44167,154.026147 211.841,153.321931 C211.24033,152.617714 210.145008,152.409151 208.555,152.696236 L206.064,153.146 L206.064,180.706 Z M223.236,144.9575 L239.348,142.048389 L239.348,147.136389 L228.642,149.069417 L228.642,160.146417 L237.97,158.462194 L237.97,163.550194 L228.642,165.234417 L228.642,176.311417 L239.348,174.378389 L239.348,179.784389 L223.236,182.6935 L223.236,144.9575 Z M242.634,141.455083 L247.828,140.517278 L255.99,161.780583 L256.096,161.761444 L256.096,139.024444 L261.502,138.048361 L261.502,175.784361 L256.414,176.703028 L248.146,155.511861 L248.04,155.531 L248.04,178.215 L242.634,179.191083 L242.634,141.455083 Z M269.929,141.614819 L263.675,142.744014 L263.675,137.656014 L281.589,134.421542 L281.589,139.509542 L275.335,140.638736 L275.335,173.286736 L269.929,174.262819 L269.929,141.614819 Z" id="correspondent" fill="#4A4A4A"></path>
            </g>
        </g>
    </g>
</svg>