<?xml version="1.0" encoding="UTF-8"?>
<svg width="254px" height="196px" viewBox="0 0 254 196" version="1.1" xmlns="http://www.w3.org/2000/svg" xmlns:xlink="http://www.w3.org/1999/xlink">
    <!-- Generator: Sketch 49 (51002) - http://www.bohemiancoding.com/sketch -->
    <title>Group 2</title>
    <desc>Created with Sketch.</desc>
    <defs></defs>
    <g id="Page-1" stroke="none" stroke-width="1" fill="none" fill-rule="evenodd">
        <g id="01_QUESTION-01.1" transform="translate(-513.000000, -207.000000)">
            <g id="Group-2" transform="translate(512.000000, 207.000000)">
                <path d="M37.5607741,82.4578359 L32.0360397,88.9472066 L22.8281489,90.5549335 C23.5033976,91.1122817 25.007338,92.292244 27.3400153,94.094856 C29.6726927,95.897468 31.3914818,97.3314974 32.4964342,98.3969872 C33.6013866,99.462477 34.7216688,101.139125 35.8573143,103.42698 C36.9929599,105.714836 37.5607741,108.239916 37.5607741,111.002297 L37.5607741,116.527032 C37.5607741,121.131 36.1796043,125.055276 33.4172233,128.299978 L27.8924888,134.789349 C25.1301077,138.03405 21.4469883,140.058304 16.8430198,140.862172 C12.3004377,141.655321 8.63266449,140.89921 5.83959032,138.593815 C3.04651614,136.288421 1.65,132.864484 1.65,128.321902 L1.65,120.0348 L7.17473448,113.545429 L16.3826253,111.937702 C15.7073766,111.380354 14.2034361,110.200392 11.8707588,108.39778 C9.53808146,106.595168 7.81929236,105.161138 6.71433994,104.095648 C5.60938752,103.030159 4.48910534,101.353511 3.3534598,99.0656554 C2.21781425,96.7777998 1.65,94.2527194 1.65,91.4903383 L1.65,85.9656038 C1.65,81.3616354 3.03116981,77.4373593 5.79355086,74.1926577 L11.3182853,67.7032871 C14.0806664,64.4585855 17.7637859,62.4343313 22.3677543,61.6304638 C26.9103365,60.8373146 30.5781096,61.5934259 33.3711838,63.8988204 C36.164258,66.204215 37.5607741,69.628152 37.5607741,74.1707342 L37.5607741,82.4578359 Z M22.3677543,70.1017234 C24.1479554,69.7908946 25.5905106,70.0914878 26.695463,71.003512 C27.8004154,71.9155363 28.3528833,73.2616287 28.3528833,75.0418299 L28.3528833,82.2239847 L35.719196,80.9378031 L35.719196,74.4922796 C35.719196,70.5021736 34.4914895,67.4938055 32.0360397,65.467085 C29.5805898,63.4403645 26.3578603,62.7753568 22.3677543,63.472042 C18.3776483,64.1687272 15.1549188,65.9591325 12.699469,68.8433116 C10.2440191,71.7274908 9.01631264,75.1645818 9.01631264,79.1546878 L9.01631264,84.5873433 C9.01631264,87.5952694 9.67620489,90.257736 10.9960092,92.5748232 C12.3158134,94.8919104 13.9271782,96.7743937 15.8301518,98.2223296 C17.7331255,99.6702655 19.6360705,101.072141 21.5390441,102.427997 C23.4420178,103.783854 25.0533825,105.390103 26.3731868,107.246793 C27.6929911,109.103484 28.3528833,111.198136 28.3528833,113.530813 L28.3528833,118.87139 C28.3528833,120.651591 27.8004154,122.190609 26.695463,123.48849 C25.5905106,124.78637 24.1479554,125.590713 22.3677543,125.901542 C20.5875532,126.21237 19.1449981,125.911777 18.0400456,124.999753 C16.9350932,124.087729 16.3826253,122.741636 16.3826253,120.961435 L16.3826253,113.77928 L9.01631264,115.065462 L9.01631264,121.510985 C9.01631264,125.501091 10.2440191,128.50946 12.699469,130.53618 C15.1549188,132.562901 18.3776483,133.227908 22.3677543,132.531223 C26.3578603,131.834538 29.5805898,130.044133 32.0360397,127.159953 C34.4914895,124.275774 35.719196,120.838683 35.719196,116.848577 L35.719196,111.415922 C35.719196,108.407996 35.0593037,105.745529 33.7394995,103.428442 C32.4196952,101.111355 30.8083304,99.2288713 28.9053568,97.7809354 C27.0023832,96.3329996 25.0994381,94.9311244 23.1964645,93.5752679 C21.2934909,92.2194113 19.6821261,90.613162 18.3623218,88.7564717 C17.0425175,86.8997813 16.3826253,84.8051289 16.3826253,82.4724516 L16.3826253,77.1318749 C16.3826253,75.3516738 16.9350932,73.812656 18.0400456,72.5147754 C19.1449981,71.2168948 20.5875532,70.4125521 22.3677543,70.1017234 Z M20.9865707,81.8527459 C20.9865707,79.8269998 20.0657908,78.6679864 18.2242034,78.375671 L18.2242034,82.1509062 C18.2242034,84.606356 19.1449833,86.8396126 20.9865707,88.8507429 L20.9865707,81.8527459 Z M18.2242034,120.63989 C18.2242034,122.665636 19.1449833,123.824649 20.9865707,124.116965 L20.9865707,120.341729 C20.9865707,117.88628 20.0657908,115.653023 18.2242034,113.641893 L18.2242034,120.63989 Z M60.0177967,131.942535 L60.0177967,72.2754027 L47.5871441,74.4458341 L47.5871441,64.1329964 L53.1118786,57.6436257 L89.0226527,51.3734906 L89.0226527,61.6863283 L83.4979183,68.1756989 L76.5920002,69.3814942 L76.5920002,123.523892 L71.0672657,130.013263 L60.0177967,131.942535 Z M67.3841094,123.290041 L74.750422,122.003859 L74.750422,62.3367269 L87.1810746,60.1662955 L87.1810746,53.5366141 L54.9534568,59.1636585 L54.9534568,65.7933399 L67.3841094,63.6229085 L67.3841094,123.290041 Z M108.348992,123.503755 L108.348992,91.7365316 L94.4450773,55.9514525 L99.9698118,49.4620819 L111.755912,47.4041913 L117.648962,62.5811339 L121.516276,51.2247352 L127.041011,44.7353646 L138.827111,42.6774741 L124.923196,83.3178886 L124.923196,115.085112 L119.398461,121.574483 L108.348992,123.503755 Z M115.715305,114.851261 L123.081618,113.565079 L123.081618,83.2711184 L136.156823,44.985293 L128.330115,46.351861 L119.398461,72.4964246 L110.466807,49.4708513 L102.6401,50.8374192 L115.715305,84.5573 L115.715305,114.851261 Z M149.313876,116.351156 L149.313876,46.3711862 L154.83861,39.8818155 L165.888079,37.9525431 L165.888079,97.6196756 L181.541493,94.8865397 L181.541493,105.199377 L176.016759,111.688748 L149.313876,116.351156 Z M156.680188,107.698662 L179.699915,103.679345 L179.699915,97.0496633 L164.046501,99.7827991 L164.046501,40.1156667 L156.680188,41.4018483 L156.680188,107.698662 Z M193.409442,108.65193 L193.409442,38.6719604 L198.934176,32.1825897 L227.478637,27.1986361 L227.478637,37.5114738 L221.953903,44.0008445 L209.983645,46.0908895 L209.983645,60.0868835 L223.795481,57.6752931 L223.795481,67.9881308 L218.270747,74.4775015 L209.983645,75.9244557 L209.983645,89.9204498 L227.478637,86.8657685 L227.478637,97.1786062 L221.953903,103.667977 L193.409442,108.65193 Z M200.775754,99.9994363 L225.637059,95.6585735 L225.637059,89.0288921 L208.142067,92.0835733 L208.142067,68.8796885 L221.953903,66.468098 L221.953903,59.8384167 L208.142067,62.2500071 L208.142067,39.0461223 L225.637059,35.991441 L225.637059,29.3617597 L200.775754,33.7026225 L200.775754,99.9994363 Z M255,81.32382 L255,90.8079475 L251.685159,100.318383 L246.160425,106.807754 L238.425797,108.158245 L238.425797,89.742463 L243.950531,83.2530923 L255,81.32382 Z M253.158422,90.8532562 L253.158422,83.4869435 L245.792109,84.7731251 L245.792109,99.5057504 L250.396055,98.7018869 L253.158422,90.8532562 Z" id="Style," fill="#AB172B"></path>
                <path d="M86.0756463,29.9371127 C86.5118424,29.037576 87.036799,28.0883156 87.64,27.0977778 C89.8,23.4806349 90.76,22.1530159 91.52,21.3003175 C92.72,19.9707937 94.92,22.1066667 94.32,23.1314286 L90,29.8057143 C88.32,32.4990476 86.64,35.872381 87.08,36.3955556 C87.44,36.8126984 89.44,35.5034921 93.44,29.8050794 L99.56,19.8565079 C100.64,18.9079365 103.12,20.6349206 102.6,21.4457143 C102.4,21.7606349 100.84,24.0330159 99.32,26.5784127 C98.36,28.1860317 94.56,34.3295238 96.16,35.1701587 C97.24,35.7415873 101.4,30.2552381 103.44,26.9390476 C103.96,26.128254 105.84,27.72 104.36,30.1784127 C100.64,36.3879365 96.92,37.9574603 95.04,36.9257143 C94.16,36.4393651 93.64,35.7701587 93.32,34.9460317 C91,37.7511111 88.32,39.7790476 85.92,37.9180952 C85.3608827,37.5031947 84.9884643,36.9688591 84.7850436,36.3293058 C81.8515551,39.9416355 79.1512709,40.7931966 77.64,39.9638095 C76.76,39.4774603 76.44,38.6533333 76.4,37.6603175 C74.12,40.6984127 71.52,42.912381 68.88,40.7333333 C68.2396435,40.1949335 67.8200866,39.6009967 67.5968281,38.9348853 C64.3578567,42.2811571 59.5946089,44.9142915 55.92,43.1161905 C54.7498498,42.5704061 53.9622978,41.9803247 53.6417516,40.7234744 C51.8824167,42.1398966 49.726107,42.7446821 48.16,40.3911111 C45.32,44.4469841 41.56,48.9434921 38,45.8850794 C37.5458057,45.5019307 37.2228884,45.0378942 37.0228006,44.4993725 C34.0111153,48.217456 31.1519956,49.1832703 29.76,48.1638095 C28.7392016,47.4025483 28.0876712,46.6176148 27.7197094,45.8115321 C24.7827027,49.7136962 21.5116064,52.4440052 19.56,52.7847619 C15.64,53.4692063 15.2,49.4660317 16.56,45.8285714 C18,41.9371429 19.92,38.1219048 22,34.3587302 C16.16,41.7384127 9.96,49.1809524 3.92,55.5155556 C2.92,56.5301587 0.48,54.7561905 1.04,53.5384127 C1.24,53.1834921 4.04,47.8946032 5.84,44.5003175 C9.88,36.7949206 17.6,25.7669841 16.56,25.1085714 C15.32,24.2850794 11.8,28.5396825 10.4,30.824127 C8.52,33.792381 7.48,36.0139683 6.36,39.2495238 C5.56,41.5092063 3.68,37.7974603 4.84,34.4349206 C8.16,24.7752381 16.08,21.232381 18.24,23.3752381 C20.88,26.0742857 18.4,29.3873016 17.2,31.6768254 C16.12,33.7853968 11.68,41.4806349 9.4,45.4387302 C16.52,37.3155556 24.04,28.0825397 29.84,20.3498413 C30.48,19.4780952 33.56,20.8603175 33.08,21.864127 C29.64,28.5047619 25.76,34.9822222 22.4,41.6888889 C21.16,44.1853968 17.24,51.0298413 19.4,50.6526984 C19.64,50.6107937 20.24,50.6260317 22.4,48.1288889 C24.7242089,45.463427 26.7358052,42.9567526 28.539907,40.1279914 C29.1033078,39.0654752 29.7989577,37.9807352 30.48,36.8780952 C32,34.4126984 33.72,32.272381 33.88,32.0044444 C34.72,30.9377778 36.64,33.3625397 36.2,34.2393651 C35.48,35.6050794 33.72,38.192381 32.88,39.4990476 C31.24,42.1053968 29.76,45.7238095 30.52,46.2711111 C31.6000404,46.9763591 35.592831,42.214421 37.8169913,38.872333 C38.2900727,37.7826252 38.9163536,36.6050959 39.68,35.351746 C41.8,31.8615873 42.8,30.6069841 43.44,29.7352381 C44.68,28.1587302 46.68,30.4095238 46.16,31.5003175 L42,37.9866667 C40.32,40.6 38.68,43.8863492 39.44,44.4336508 C41.08,45.5873016 45.16,39.6349206 48.44,33.7822222 C49.2,30.9295238 50.4,28.04 51.76,27.9625397 C52.28,27.951746 54.24,28.3695238 53.64,30.5142857 C53.48,31.0622222 51.96,34.367619 49.96,37.6768254 C50.08,38.375873 50.28,39.1409524 50.72,39.224127 C51.3945622,39.3516416 52.5156972,38.602053 53.9392706,36.5861406 C55.2627865,32.2227695 59.1804264,26.4854739 62.16,25.1466667 C62.8,24.8749206 63.8,24.6203175 64.64,25.1136508 C67.72,26.775873 67.84,27.8349206 66.84,30.6095238 C65.44,34.3739683 62.84,37.2679365 60,38.3638095 C58.96,38.7453968 57.8,38.0279365 57.12,37.5066667 C56.52,39.3714286 56.56,41.1644444 57.32,41.551746 C59.3359075,42.556623 64.7333746,39.4392179 68.9240955,32.891418 C69.3317641,32.0938345 69.8135736,31.2371578 70.36,30.3149206 C71.96,27.5955556 74.24,25.1974603 75.96,24.0171429 C77.4,23.0457143 78.36,23.0780952 79.64,23.8546032 C80.4,24.2819048 81.6,24.552381 81.64,25.6253968 C82.72,25.8368254 83.84,26.8412698 83.48,27.424127 C83.12,27.9669841 81.84,29.7904762 80.64,31.92 C79.24,34.3244444 77.6,37.6107937 78.76,38.208254 C79.7992749,38.7462913 83.994145,33.2609904 86.0756463,29.9371127 Z M40.8,23.6361905 C41.76,24.1085714 41.92,25.6006349 41.12,26.9403175 C40.32,28.32 38.88,29.0114286 37.92,28.5390476 C36.92,28.1136508 36.8,26.6146032 37.6,25.2749206 C38.36,23.9022222 39.8,23.2107937 40.8,23.6361905 Z M59.36,33.3555556 C58.32,34.9771429 57.68,36.3288889 58.04,36.4660317 C58.64,36.6812698 60.32,34.9479365 61.8,32.9295238 C63.76,30.2673016 64.6,27.9206349 64.28,27.7365079 C63.92,27.5193651 61.76,29.5365079 59.36,33.3555556 Z M69.68,39.5136508 C70.04,39.9307937 72.04,38.6215873 76.04,32.9231746 L76.76,31.7574603 C77.84,29.8888889 79.48,26.6025397 78.88,26.1473016 C78.2,25.7060317 75.16,28.7168254 72.64,32.8768254 C70.96,35.6101587 69.24,38.9904762 69.68,39.5136508 Z" id="Niveau" fill="#AB172B"></path>
                <polygon id="Rectangle-2" fill="#AB172B" points="115 23.9206349 252 0 252 3 115 26.9206349"></polygon>
                <path d="M12.16,195.022835 L8.11,195.740354 L1.585,164.856358 L6.445,163.995335 L10.09,185.714567 L10.18,185.698622 L13.87,162.679882 L18.73,161.818858 L12.16,195.022835 Z M21.205,168.940374 C21.205,167.650368 21.4299978,166.470517 21.88,165.400787 C22.3300023,164.331058 22.9224963,163.408596 23.6575,162.633376 C24.3925037,161.858156 25.2174954,161.2245 26.1325,160.732392 C27.0475046,160.240283 27.9699954,159.911851 28.9,159.747087 C29.8300047,159.582322 30.7524954,159.583887 31.6675,159.751781 C32.5825046,159.919676 33.4074963,160.261011 34.1425,160.775797 C34.8775037,161.290583 35.4699978,162.003106 35.92,162.913386 C36.3700023,163.823666 36.595,164.923793 36.595,166.213799 L36.595,183.133799 C36.595,184.453806 36.3700023,185.641156 35.92,186.695886 C35.4699978,187.750616 34.8775037,188.665577 34.1425,189.440797 C33.4074963,190.216018 32.5825046,190.849673 31.6675,191.341781 C30.7524954,191.83389 29.8300047,192.162322 28.9,192.327087 C27.9699954,192.491851 27.0475046,192.490286 26.1325,192.322392 C25.2174954,192.154497 24.3925037,191.813162 23.6575,191.298376 C22.9224963,190.78359 22.3300023,190.078567 21.88,189.183287 C21.4299978,188.288007 21.205,187.180381 21.205,185.860374 L21.205,168.940374 Z M25.795,185.047185 C25.795,186.157191 26.1024969,186.920205 26.7175,187.33625 C27.3325031,187.752295 28.0599958,187.885906 28.9,187.737087 C29.7400042,187.588267 30.4674969,187.196883 31.0825,186.562923 C31.6975031,185.928963 32.005,185.056994 32.005,183.946988 L32.005,167.026988 C32.005,165.916983 31.6975031,165.153969 31.0825,164.737923 C30.4674969,164.321878 29.7400042,164.188267 28.9,164.337087 C28.0599958,164.485906 27.3325031,164.87729 26.7175,165.51125 C26.1024969,166.14521 25.795,167.017179 25.795,168.127185 L25.795,185.047185 Z M55.495,180.145374 C55.495,181.195379 55.300002,182.204916 54.91,183.174016 C54.5199981,184.143115 53.9875034,185.024947 53.3125,185.819537 C52.6374966,186.614128 51.8500045,187.286139 50.95,187.835591 C50.0499955,188.385042 49.0900051,188.750117 48.07,188.930827 C47.0499949,189.111536 46.0900045,189.086615 45.19,188.856063 C44.2899955,188.625511 43.5025034,188.232532 42.8275,187.677116 C42.1524966,187.1217 41.620002,186.428547 41.23,185.597638 C40.8399981,184.766728 40.645,183.826285 40.645,182.77628 L40.645,157.93628 L45.235,157.123091 L45.235,181.513091 C45.235,182.653096 45.5049973,183.445254 46.045,183.889587 C46.5850027,184.33392 47.259996,184.484331 48.07,184.340827 C48.8800041,184.197322 49.5549973,183.807739 50.095,183.172067 C50.6350027,182.536394 50.905,181.648569 50.905,180.508563 L50.905,156.118563 L55.495,155.305374 L55.495,180.145374 Z M74.665,161.134114 L70.075,161.947303 L70.075,160.912303 C70.075,159.862298 69.8275025,158.998655 69.3325,158.321348 C68.8374975,157.644042 68.0050059,157.409034 66.835,157.616319 C66.2049969,157.727934 65.687502,157.939615 65.2825,158.251368 C64.877498,158.563122 64.5625011,158.926425 64.3375,159.341289 C64.1124989,159.756154 63.9550005,160.219053 63.865,160.73 C63.7749996,161.240947 63.73,161.766415 63.73,162.306417 C63.73,162.93642 63.7524998,163.464929 63.7975,163.891959 C63.8425002,164.318988 63.9549991,164.674054 64.135,164.957165 C64.3150009,165.240277 64.5774983,165.471269 64.9225,165.650148 C65.2675017,165.829026 65.739997,165.985314 66.34,166.119016 L69.85,166.892165 C70.8700051,167.101458 71.6949969,167.412793 72.325,167.826181 C72.9550032,168.239569 73.4424983,168.768196 73.7875,169.412077 C74.1325017,170.055958 74.3649994,170.824759 74.485,171.718504 C74.6050006,172.612249 74.665,173.644108 74.665,174.814114 C74.665,176.164121 74.5300013,177.440525 74.26,178.643366 C73.9899987,179.846207 73.5475031,180.914592 72.9325,181.848553 C72.3174969,182.782515 71.5000051,183.579839 70.48,184.240551 C69.4599949,184.901263 68.2150074,185.361829 66.745,185.622264 C65.6349945,185.818918 64.6000048,185.807285 63.64,185.587362 C62.6799952,185.36744 61.8550035,184.981105 61.165,184.428346 C60.4749966,183.875588 59.927502,183.170093 59.5225,182.311841 C59.117498,181.453588 58.915,180.484474 58.915,179.404469 L58.915,177.694469 L63.505,176.88128 L63.505,178.32128 C63.505,179.161284 63.7524975,179.874928 64.2475,180.462234 C64.7425025,181.04954 65.5749942,181.239548 66.745,181.032264 C67.5250039,180.894074 68.1324978,180.673948 68.5675,180.37188 C69.0025022,180.069811 69.3324989,179.696351 69.5575,179.251486 C69.7825011,178.806622 69.9249997,178.278881 69.985,177.668248 C70.0450003,177.057615 70.075,176.392307 70.075,175.672303 C70.075,174.832299 70.0450003,174.147621 69.985,173.618248 C69.9249997,173.088875 69.797501,172.676468 69.6025,172.381014 C69.407499,172.08556 69.1375017,171.863396 68.7925,171.714518 C68.4474983,171.565639 67.9900029,171.421694 67.42,171.282677 L64.135,170.514665 C62.1549901,170.05545 60.8275034,169.218146 60.1525,168.002726 C59.4774966,166.787307 59.14,165.174616 59.14,163.164606 C59.14,161.9646 59.3049984,160.79538 59.635,159.656909 C59.9650017,158.518439 60.4524968,157.502081 61.0975,156.607805 C61.7425032,155.713529 62.5599951,154.946204 63.55,154.305807 C64.540005,153.66541 65.6949934,153.228289 67.015,152.994429 C68.1550057,152.79246 69.1974953,152.817764 70.1425,153.070344 C71.0875047,153.322924 71.8974966,153.734416 72.5725,154.304833 C73.2475034,154.875249 73.7649982,155.556059 74.125,156.347283 C74.4850018,157.138508 74.665,157.98411 74.665,158.884114 L74.665,161.134114 Z M86.455,149.820335 L91.045,149.007146 L91.045,176.457146 L100.135,174.846713 L100.135,179.436713 L86.455,181.860335 L86.455,149.820335 Z M102.835,146.918366 L107.425,146.105177 L107.425,150.695177 L102.835,154.838366 L102.835,146.918366 Z M111.61,145.36374 L116.2,144.550551 L116.2,176.590551 L111.61,177.40374 L111.61,145.36374 Z M120.655,143.76128 L125.065,142.97998 L130.96,158.900591 L131.05,158.884646 L136.9,140.883228 L141.355,140.093957 L141.355,172.133957 L136.765,172.947146 L136.765,153.462146 L136.675,153.478091 L132.13,168.053307 L129.835,168.459902 L125.335,155.487146 L125.245,155.503091 L125.245,174.988091 L120.655,175.80128 L120.655,143.76128 Z M152.695,147.309902 L152.605,147.325846 L150.355,159.334469 L154.945,158.52128 L152.695,147.309902 Z M150.76,138.427717 L154.585,137.750059 L161.74,168.522441 L157.15,169.33563 L155.8,162.689803 L149.545,163.797972 L148.195,170.922146 L143.605,171.735335 L150.76,138.427717 Z M163.72,143.691654 C163.72,142.401647 163.944998,141.221797 164.395,140.152067 C164.845002,139.082337 165.437496,138.159876 166.1725,137.384656 C166.907504,136.609435 167.732495,135.97578 168.6475,135.483671 C169.562505,134.991563 170.484995,134.663131 171.415,134.498366 C172.345005,134.333602 173.267495,134.335166 174.1825,134.503061 C175.097505,134.670956 175.922496,135.012291 176.6575,135.527077 C177.392504,136.041863 177.984998,136.754385 178.435,137.664665 C178.885002,138.574945 179.11,139.675072 179.11,140.965079 L179.11,142.585079 L174.52,143.398268 L174.52,141.778268 C174.52,140.668262 174.212503,139.905248 173.5975,139.489203 C172.982497,139.073157 172.255004,138.939546 171.415,139.088366 C170.574996,139.237186 169.847503,139.62857 169.2325,140.26253 C168.617497,140.896489 168.31,141.768459 168.31,142.878465 L168.31,159.798465 C168.31,160.90847 168.617497,161.671484 169.2325,162.08753 C169.847503,162.503575 170.574996,162.637186 171.415,162.488366 C172.255004,162.339546 172.982497,161.948163 173.5975,161.314203 C174.212503,160.680243 174.52,159.808273 174.52,158.698268 L174.52,152.668268 L170.875,153.314035 L170.875,149.264035 L179.11,147.805079 L179.11,157.885079 C179.11,159.205085 178.885002,160.392436 178.435,161.447165 C177.984998,162.501895 177.392504,163.416856 176.6575,164.192077 C175.922496,164.967297 175.097505,165.600952 174.1825,166.093061 C173.267495,166.58517 172.345005,166.913602 171.415,167.078366 C170.484995,167.243131 169.562505,167.241566 168.6475,167.073671 C167.732495,166.905777 166.907504,166.564442 166.1725,166.049656 C165.437496,165.534869 164.845002,164.829847 164.395,163.934567 C163.944998,163.039287 163.72,161.93166 163.72,160.611654 L163.72,143.691654 Z M183.295,132.663642 L187.885,131.850453 L187.885,163.890453 L183.295,164.703642 L183.295,132.663642 Z M192.16,131.093071 L196.57,130.311772 L203.5,148.389016 L203.59,148.373071 L203.59,129.068071 L208.18,128.254882 L208.18,160.294882 L203.86,161.060236 L196.84,143.043937 L196.75,143.059882 L196.75,162.319882 L192.16,163.133071 L192.16,131.093071 Z M212.32,127.521417 L226,125.097795 L226,129.417795 L216.91,131.028228 L216.91,140.433228 L224.83,139.030079 L224.83,143.350079 L216.91,144.753228 L216.91,154.158228 L226,152.547795 L226,157.137795 L212.32,159.561417 L212.32,127.521417 Z M227.485,152.824705 L236.125,127.623996 L227.935,129.07498 L227.935,124.75498 L241.12,122.419055 L241.12,126.064055 L232.3,151.701654 L241.12,150.139055 L241.12,154.459055 L227.485,156.874705 L227.485,152.824705 Z M243.419,152.623752 L244.847,152.37076 L244.847,153.79876 L243.419,154.051752 L243.419,152.623752 Z M248.081,151.797807 L249.509,151.544815 L249.509,152.972815 L248.081,153.225807 L248.081,151.797807 Z M252.743,150.971862 L254.171,150.71887 L254.171,152.14687 L252.743,152.399862 L252.743,150.971862 Z" id="vous-l’imaginez…" fill="#4A4A4A"></path>
            </g>
        </g>
    </g>
</svg>