<?xml version="1.0" encoding="UTF-8"?>
<svg width="313px" height="270px" viewBox="0 0 313 270" version="1.1" xmlns="http://www.w3.org/2000/svg" xmlns:xlink="http://www.w3.org/1999/xlink">
    <!-- Generator: Sketch 49 (51002) - http://www.bohemiancoding.com/sketch -->
    <title>Group 5</title>
    <desc>Created with Sketch.</desc>
    <defs></defs>
    <g id="Page-1" stroke="none" stroke-width="1" fill="none" fill-rule="evenodd">
        <g id="01_QUESTION-05" transform="translate(-484.000000, -171.000000)">
            <g id="Group-5" transform="translate(484.000000, 171.000000)">
                <path d="M96.53,160.677859 L104.9,186.567093 L99.5,192.915974 L88.25,194.892812 L84.2,182.464473 L84.2,190.204473 L78.8,196.553355 L68,198.451118 L68,130.051118 L73.4,123.702236 L88.25,121.092812 C92.6900222,120.312616 96.2749863,121.047656 99.005,123.297955 C101.735014,125.548254 103.1,128.893364 103.1,133.333387 L103.1,146.833387 C103.1,152.713416 100.910022,157.328194 96.53,160.677859 Z M94.91,186.522524 L102.47,185.194089 L94.37,160.157412 C98.9900231,157.245576 101.3,152.909709 101.3,147.149681 L101.3,133.649681 C101.3,129.749661 100.100012,126.810553 97.7,124.832268 C95.299988,122.853984 92.1500195,122.207505 88.25,122.892812 L75.2,125.185942 L75.2,189.985942 L82.4,188.720767 L82.4,163.520767 L87.26,162.666773 L94.91,186.522524 Z M88.25,129.372812 C89.9900087,129.067059 91.3999946,129.359293 92.48,130.249521 C93.5600054,131.139749 94.1,132.454848 94.1,134.194856 L94.1,149.134856 C94.1,150.874865 93.5600054,152.379738 92.48,153.649521 C91.3999946,154.919303 89.9900087,155.707059 88.25,156.012812 L82.4,157.040767 L82.4,130.400767 L88.25,129.372812 Z M86.9,154.450032 L86.9,140.860032 C86.9,138.880022 86.000009,137.74818 84.2,137.464473 L84.2,154.924473 L86.9,154.450032 Z M134.6,188.098243 C130.159978,188.878438 126.575014,188.143398 123.845,185.893099 C121.114986,183.6428 119.75,180.29769 119.75,175.857668 L119.75,134.457668 C119.75,129.957645 121.099986,126.120463 123.8,122.946006 L129.2,116.597125 C131.900013,113.422668 135.499977,111.4401 140,110.649361 C144.440022,109.869165 148.024986,110.604206 150.755,112.854505 C153.485014,115.104804 154.85,118.449914 154.85,122.889936 L154.85,164.289936 C154.85,168.789959 153.500013,172.627141 150.8,175.801597 L145.4,182.150479 C142.699987,185.324936 139.100023,187.307504 134.6,188.098243 Z M140,179.949361 C143.90002,179.264054 147.049988,177.510557 149.45,174.688818 C151.850012,171.867079 153.05,168.50625 153.05,164.60623 L153.05,123.20623 C153.05,119.306211 151.850012,116.367103 149.45,114.388818 C147.049988,112.410533 143.90002,111.764054 140,112.449361 C136.09998,113.134668 132.950012,114.888165 130.55,117.709904 C128.149988,120.531644 126.95,123.892473 126.95,127.792492 L126.95,169.192492 C126.95,173.092512 128.149988,176.03162 130.55,178.009904 C132.950012,179.988189 136.09998,180.634668 140,179.949361 Z M140,173.469361 C138.259991,173.775113 136.850005,173.48288 135.77,172.592652 C134.689995,171.702424 134.15,170.387325 134.15,168.647316 L134.15,125.807316 C134.15,124.067308 134.689995,122.562434 135.77,121.292652 C136.850005,120.022869 138.259991,119.235113 140,118.929361 C141.740009,118.623609 143.149995,118.915842 144.23,119.80607 C145.310005,120.696298 145.85,122.011397 145.85,123.751406 L145.85,166.591406 C145.85,168.331414 145.310005,169.836288 144.23,171.10607 C143.149995,172.375853 141.740009,173.163609 140,173.469361 Z M138.65,171.726581 L138.65,130.416581 C138.65,128.436572 137.750009,127.30473 135.95,127.021022 L135.95,168.331022 C135.95,170.311032 136.849991,171.442874 138.65,171.726581 Z M186.35,179.004792 C181.909978,179.784988 178.325014,179.049947 175.595,176.799649 C172.864986,174.54935 171.5,171.204239 171.5,166.764217 L171.5,111.864217 L176.9,105.515335 L187.7,103.617572 L187.7,159.237572 C187.7,161.217582 188.599991,162.349424 190.4,162.633131 L190.4,108.543131 L195.8,102.194249 L206.6,100.296486 L206.6,155.196486 C206.6,159.696508 205.250013,163.53369 202.55,166.708147 L197.15,173.057029 C194.449987,176.231486 190.850022,178.214054 186.35,179.004792 Z M191.75,170.855911 C195.650019,170.170604 198.799988,168.417107 201.2,165.595367 C203.600012,162.773628 204.8,159.412799 204.8,155.51278 L204.8,102.41278 L197.6,103.677955 L197.6,157.497955 C197.6,159.237964 197.060005,160.742837 195.98,162.01262 C194.899995,163.282403 193.490009,164.070158 191.75,164.375911 C190.009991,164.681663 188.600005,164.389429 187.52,163.499201 C186.439995,162.608973 185.9,161.293875 185.9,159.553866 L185.9,105.733866 L178.7,106.999042 L178.7,160.099042 C178.7,163.999061 179.899988,166.938169 182.3,168.916454 C184.700012,170.894738 187.849981,171.541217 191.75,170.855911 Z M231.35,169.747444 L231.35,111.427444 L219.2,113.562428 L219.2,103.482428 L224.6,97.1335463 L259.7,90.9658147 L259.7,101.045815 L254.3,107.394696 L247.55,108.580799 L247.55,161.500799 L242.15,167.849681 L231.35,169.747444 Z M238.55,161.282268 L245.75,160.017093 L245.75,101.697093 L257.9,99.5621086 L257.9,93.0821086 L226.4,98.6172524 L226.4,105.097252 L238.55,102.962268 L238.55,161.282268 Z M272.75,162.472684 L272.75,94.0726837 L278.15,87.7238019 L306.05,82.821246 L306.05,92.901246 L300.65,99.2501278 L288.95,101.306038 L288.95,114.986038 L302.45,112.613834 L302.45,122.693834 L297.05,129.042716 L288.95,130.466038 L288.95,144.146038 L306.05,141.141246 L306.05,151.221246 L300.65,157.570128 L272.75,162.472684 Z M279.95,154.007508 L304.25,149.73754 L304.25,143.25754 L287.15,146.262332 L287.15,123.582332 L300.65,121.210128 L300.65,114.730128 L287.15,117.102332 L287.15,94.4223323 L304.25,91.4175399 L304.25,84.9375399 L279.95,89.207508 L279.95,154.007508 Z" id="route" fill="#AB172B"></path>
                <path d="M279.817795,23.5379755 C277.658723,26.3475082 275.645174,27.0274345 274.54,26.422147 C273.924,26.0823898 273.56,25.6143514 273.336,25.0377125 C271.712,27.0030799 269.836,28.4247284 268.156,27.1239361 C267.657158,26.7543201 267.370623,26.2486505 267.270738,25.6275619 C266.157478,26.5155809 264.834717,26.9542546 263.788,25.875476 C263.144,26.884639 262.388,27.8854824 261.688,28.4564856 C259.532,30.2913355 257.992,29.5819425 257.516,29.2735847 C257.149842,29.0579225 256.203791,28.7784747 255.85039,27.7958708 C255.347865,28.4286462 254.831492,28.967756 254.268,29.4523195 C252.868,30.6223259 250.712,31.7851757 248.696,32.8954249 C247.128,35.5509521 245.028,39.3919617 243.936,40.8998466 C242.788,42.5015719 242.06,41.6774952 241.724,41.2885367 C241.192,40.7100192 241.556,39.2180575 242.34,37.5402939 C243.152,35.8296102 244.076,34.519246 246.036,33.0268371 C246.148,32.8671565 246.568,32.2613546 247.044,31.5337125 C246.288,31.8345559 245.476,31.7532396 244.692,31.0790032 C242.872,29.5788115 243.6,27.4068882 245.7,23.8458786 C246.848,21.9361534 248.416,20.2886262 249.62,19.4610607 C250.6,18.7568562 251.3,18.773853 252.196,19.3164089 C252.7,19.6198466 253.54,19.8362428 253.568,20.5593227 C254.324,20.7064792 255.052,21.3905559 254.856,21.7889968 C254.576,22.4541981 251.44,28.0172524 250.152,30.2315783 C250.656,29.919016 251.216,29.5406134 251.384,29.4270927 C252.056,29.0010096 253.316,27.9956038 254.044,27.1116805 C254.880008,26.0781027 255.716016,24.8840773 256.36538,23.8942147 C257.301646,21.3322562 258.989871,19.2049346 259.924,18.2104537 C261.212,16.8641278 262.164,16.6128435 263.2,17.0187987 C266.196,18.200345 266.224,19.8194249 265.244,22.9596294 C265.132,23.2593099 264.992,23.6199105 264.796,24.0183514 C264.908,24.3066709 265.048,24.5620703 265.244,24.6116294 C265.795918,24.7249015 266.865886,23.9083948 268.199196,21.6742957 C268.517026,21.0038573 268.906991,20.2927784 269.36,19.5483706 C270.872,17.0146837 271.544,16.0846006 272.076,15.4871182 C272.916,14.5555144 274.456,16.0489073 274.036,16.7667093 L271.012,21.4420831 C269.836,23.3287284 268.66,25.6913738 268.968,26.0572524 C269.22,26.3489712 270.62,25.4309649 273.42,21.4389521 L277.704,14.4701725 C278.46,13.8053291 280.196,15.0122812 279.832,15.5802428 C279.692,15.8008435 278.6,17.3927284 277.536,19.1756933 C276.864,20.3017764 274.204,24.6051885 275.324,25.1923834 C276.08,25.5915399 278.992,21.7478466 280.42,19.4249201 C280.420913,19.4234957 280.421832,19.4220818 280.422757,19.4206785 C280.824194,18.683063 281.314072,17.9313692 281.792,17.1678339 C282.072,16.7266326 282.52,16.0599105 283.024,15.2713482 C280.952,15.6354377 281.008,13.7215974 281.68,13.6035144 C282.604,13.4411502 282.576,13.3900703 284.48,13.0835016 C285.712,11.215016 286.916,9.43545048 287,9.3086901 C287.644,8.46752716 289.212,9.984 288.904,10.5701214 C288.736,10.8796422 288.232,11.6682045 287.588,12.6773674 C289.296,12.4332396 291.004,13.9811118 289.156,14.3058403 C288.708,14.3845623 287.28,14.6914888 286.16,14.8882939 C284.956,16.7238594 283.78,18.5825048 283.472,19.0286262 C282.296,20.8592716 281.204,23.4031565 281.764,23.808754 C282.548,24.3709904 285.292,23.7488179 288.932,18.1252013 C289.296,17.5572396 290.752,18.421393 289.604,20.2751182 C286.888,24.6443706 282.38,26.0525112 281.204,25.1391565 C280.520754,24.618295 280.076449,24.0841722 279.817795,23.5379755 Z M224.971318,29.9413914 C225.875446,26.8772498 228.645391,22.8003348 230.748,21.8532268 C231.196,21.6625048 231.896,21.4835016 232.484,21.8281789 C234.64,22.9893291 234.724,23.7305687 234.024,25.6735719 C233.044,28.3097764 231.224,30.3375847 229.236,31.1069137 C228.508,31.3748371 227.696,30.8735208 227.22,30.5091629 C226.8,31.8149649 226.828,33.0700447 227.36,33.3405623 C228.816,34.0647157 232.792,31.7140575 235.76,26.824524 C236.04,26.3553227 237.496,27.191476 236.376,29.1242812 C234.556,32.3000895 229.796,36.1045112 226.38,34.4367668 C225.695085,34.1180713 225.197426,33.7774865 224.921566,33.1602273 C222.703734,36.0112002 220.462978,36.8721381 219.156,35.8181597 C218.68,35.3978019 218.4,34.8870032 218.316,34.3417636 C216.692,36.559131 214.816,38.2607796 212.912,36.6913482 C211.092,35.1911565 211.82,33.0192332 213.948,29.4253035 C215.068,27.5204984 216.636,25.8729712 217.868,25.0404856 C218.848,24.3642812 219.52,24.3581981 220.416,24.900754 C220.724,25.0706326 221.088,25.2026709 221.368,25.4054696 C222.6,23.312984 227.052,15.8666837 228.396,14.1745176 C228.704,13.7843962 229.432,13.7964728 230.048,14.58423 C230.608,15.2418275 230.468,16.1624281 230.104,16.9263898 C229.712,17.8072716 226.268,23.3124473 222.684,28.0022236 C222.684,28.0022236 222.348,28.4532652 222.04,28.9553866 C221.368,30.0534696 219.016,33.7987604 219.912,34.6773163 C220.788444,35.5214812 223.358351,32.3212867 224.971318,29.9413914 Z M188.420355,41.9430187 C187.878084,42.0583165 187.408537,41.9993887 187.04,41.7975463 C186.424,41.4577891 186.06,40.9897508 185.836,40.4131118 C184.212,42.3784792 182.336,43.8001278 180.656,42.4993355 C180.157158,42.1297195 179.870623,41.6240498 179.770738,41.0029612 C178.657478,41.8909803 177.334717,42.3296539 176.288,41.2508754 C175.644,42.2600383 174.888,43.2608818 174.188,43.831885 C172.032,45.6667348 170.492,44.9573419 170.016,44.648984 C169.627683,44.4202704 168.587161,44.1198172 168.293001,42.9850073 C166.008475,45.4191789 162.536186,47.3829291 159.88,46.1220703 C159.279844,45.8524314 158.742499,45.5089435 158.453085,44.8150582 C156.277666,47.6720406 154.244557,48.3651522 153.132,47.7558211 C152.516,47.4160639 152.152,46.9480256 151.928,46.3713866 C150.304,48.336754 148.428,49.7584026 146.748,48.4576102 C146.356618,48.1676165 146.095925,47.7938725 145.953531,47.346344 C143.900089,49.8772657 142.00989,50.4754674 140.952,49.8960767 C140.336,49.5563195 140.112,48.9796805 140.084,48.2846006 C138.488,50.4130479 136.668,51.9648562 134.82,50.4415847 C134.37175,50.0652049 134.078061,49.6497768 133.92178,49.1836731 C131.6545,51.5285929 128.320226,53.375507 125.748,52.1197061 C124.656,51.6115911 124.04,51.0478339 124.04,49.3958339 C124.04,46.4278339 127.568,40.6838978 130.116,39.5361661 C130.564,39.3454441 131.264,39.1664409 131.852,39.5111182 C134.008,40.6722684 134.092,41.413508 133.392,43.3565112 C132.412,45.9927157 130.592,48.020524 128.604,48.789853 C127.876,49.0577764 127.064,48.5564601 126.588,48.1921022 C126.168,49.4979042 126.196,50.752984 126.728,51.0235016 C128.139135,51.7253411 131.917362,49.5389422 134.850867,44.9522095 C135.136235,44.3935827 135.473502,43.7935327 135.856,43.1475399 C136.976,41.2427348 138.572,39.5622875 139.776,38.734722 C140.784,38.0535974 141.456,38.0755144 142.352,38.6180703 C142.884,38.9165879 143.724,39.104984 143.752,39.8560639 C144.508,40.0032204 145.292,40.7054569 145.04,41.113738 C144.788,41.4940192 143.892,42.7714633 143.052,44.2630671 C142.072,45.9472716 140.924,48.2489968 141.736,48.6663131 C142.463492,49.0421276 145.399902,45.1991409 146.856952,42.8708009 C147.16229,42.2407846 147.529759,41.5758923 147.952,40.8820447 C149.464,38.3483578 150.136,37.4182748 150.668,36.8207923 C151.508,35.8891885 153.048,37.3825815 152.628,38.1003834 L149.604,42.7757572 C148.428,44.6624026 147.252,47.0250479 147.56,47.3909265 C147.812,47.6826454 149.212,46.764639 152.012,42.7726262 L156.296,35.8038466 C157.052,35.1390032 158.788,36.3459553 158.424,36.9139169 C158.284,37.1345176 157.192,38.7264026 156.128,40.5093674 C155.456,41.6354505 152.796,45.9388626 153.916,46.5260575 C154.614292,46.8947449 157.151994,43.6436064 158.660663,41.3145687 C159.704091,38.2468599 162.420112,34.3919614 164.416,33.5090096 C164.836,33.2952077 165.424,33.275885 165.732,33.5297636 C167.664,35.0382748 168,35.5952332 167.328,37.4493163 C166.936,38.4141981 166.544,39.1830799 165.676,40.2036038 C165.284,40.6924856 163.968,39.2997316 164.724,37.8508882 C165.564,36.2192843 165.732,35.7137636 165.62,35.6214441 C165.396,35.4368051 164.052,36.6529712 162.316,39.3100192 C160.496,42.1498275 159.992,44.5623898 160.916,45.0440256 C162.289377,45.7452109 166.045451,43.5673175 168.946155,39.0544267 C169.896042,36.5888518 171.516152,34.5523552 172.424,33.585853 C173.712,32.2395272 174.664,31.9882428 175.7,32.3941981 C178.696,33.5757444 178.724,35.1948243 177.744,38.3350288 C177.632,38.6347093 177.492,38.9953099 177.296,39.3937508 C177.408,39.6820703 177.548,39.9374696 177.744,39.9870288 C178.295918,40.1003008 179.365886,39.2837942 180.699196,37.049695 C181.017026,36.3792567 181.406991,35.6681778 181.86,34.92377 C183.372,32.3900831 184.044,31.46 184.576,30.8625176 C185.416,29.9309137 186.956,31.4243067 186.536,32.1421086 L183.512,36.8174824 C182.336,38.7041278 181.16,41.0667732 181.468,41.4326518 C181.72,41.7243706 183.12,40.8063642 185.92,36.8143514 L190.204,29.8455719 C190.96,29.1807284 192.696,30.3876805 192.332,30.9556422 C192.192,31.1762428 191.1,32.7681278 190.036,34.5510927 C189.364,35.6771757 186.704,39.9805879 187.824,40.5677827 C188.454942,40.9009106 190.587588,38.278796 192.105991,36.0518513 L197.008,28.1459808 C197.316,27.9518594 197.792,28.1202173 198.128,28.4811757 C199.584,27.5813291 200.676,27.6974441 201.516,28.1098403 C202.86,28.7696741 204.372,29.5679872 201.152,35.1178019 C200.172,36.8300064 196.644,41.0619425 194.208,40.7619936 C193.48,40.6939169 193.004,40.3295591 192.724,39.8467604 C190.848,43.2564089 188.188,48.0638211 186.284,50.6383898 C185.136,52.212115 184.52,50.7243578 184.492,50.141278 C184.436,49.4231182 186.284,45.5423898 187.208,43.9240256 C187.477537,43.4412573 187.900603,42.7472759 188.420355,41.9430187 Z M82.3334894,54.9353299 C83.2599505,51.8799365 86.0022985,47.86077 88.088,46.921278 C88.536,46.7305559 89.236,46.5515527 89.824,46.89623 C91.98,48.0573802 92.064,48.7986198 91.364,50.741623 C90.384,53.3778275 88.564,55.4056358 86.576,56.1749649 C85.848,56.4428882 85.036,55.9415719 84.56,55.5772141 C84.14,56.883016 84.168,58.1380958 84.7,58.4086134 C86.156,59.1327668 90.132,56.7821086 93.1,51.8925751 C93.38,51.4233738 94.836,52.2595272 93.716,54.1923323 C91.896,57.3681406 87.136,61.1725623 83.72,59.5048179 C82.9008949,59.1236827 82.3496085,58.7112408 82.1252261,57.8316959 C80.8936917,58.8245654 79.3842749,59.2495993 78.288,57.6033227 C76.3,60.4446518 73.668,63.5951438 71.176,61.4570351 C70.8522509,61.1842885 70.6237868,60.8527247 70.4843641,60.4670827 C68.38062,63.1357136 66.4323205,63.7720975 65.352,63.1804217 C64.736,62.8406645 64.512,62.2640256 64.484,61.5689457 C62.888,63.697393 61.068,65.2492013 59.22,63.7259297 C57.4,62.197738 58.128,60.0258147 60.256,56.431885 C61.376,54.5270799 62.972,52.8466326 64.176,52.0190671 C65.184,51.3379425 65.856,51.3598594 66.752,51.9024153 C67.284,52.2009329 68.124,52.3893291 68.152,53.1404089 C68.908,53.2875655 69.692,53.9898019 69.44,54.3980831 C69.188,54.7783642 68.292,56.0558083 67.452,57.5474121 C66.472,59.2316166 65.324,61.5333419 66.136,61.9506581 C66.8445678,62.3166963 69.6486233,58.6805707 71.1403048,56.3398253 C71.4590819,55.6355709 71.8657609,54.8809818 72.352,54.0823898 C73.836,51.637623 74.536,50.7586198 74.984,50.1478978 C75.852,49.0433738 77.252,50.6173674 76.888,51.3813291 L73.976,55.9250224 C72.8,57.7556677 71.652,60.057393 72.184,60.4399105 C73.332,61.2461853 76.188,57.0763323 78.484,52.9768818 C79.016,50.9793994 79.856,48.9557955 80.808,48.9005112 C81.172,48.8925495 82.544,49.1834633 82.124,50.6852652 C82.012,51.0689457 80.948,53.3839105 79.548,55.7019169 C79.632,56.1911565 79.772,56.7265559 80.08,56.7844345 C80.5521936,56.8731679 81.3369881,56.3475803 82.3334894,54.9353299 Z M41.3959926,61.3593843 C43.5120979,58.0404794 45.6261381,54.2293566 46.508,53.0236677 C46.984,52.3520256 48.16,52.7333802 48.776,53.2411374 C49.224,53.5824153 49.532,54.0602939 49.168,54.5722556 C46.816,57.9815463 47.46,59.9683834 47.236,62.9477444 C47.124,64.1994249 47.516,66.1185431 45.948,67.0380703 C43.8487918,68.2631967 41.4498617,67.8788957 40.229543,66.1629719 C38.2617526,68.4576486 36.4679988,68.9937567 35.448,68.4351182 C34.832,68.095361 34.468,67.6273227 34.244,67.0506837 C32.62,69.0160511 30.744,70.4376997 29.064,69.1369073 C28.5651579,68.7672914 28.2786227,68.2616217 28.1787385,67.6405331 C27.065478,68.5285522 25.7427172,68.9672258 24.696,67.8884473 C24.052,68.8976102 23.296,69.8984537 22.596,70.4694569 C20.44,72.3043067 18.9,71.5949137 18.424,71.2865559 C17.948,71.0061981 16.492,70.6180447 16.632,68.7174441 C16.94,64.9673227 19.572,61.5648307 20.832,60.2234249 C22.12,58.877099 23.072,58.6258147 24.108,59.03177 C27.104,60.2133163 27.132,61.8323962 26.152,64.9726006 C26.04,65.2722812 25.9,65.6328818 25.704,66.0313227 C25.816,66.3196422 25.956,66.5750415 26.152,66.6246006 C26.7039179,66.7378727 27.7738858,65.9213661 29.1071958,63.6872669 C29.4250259,63.0168286 29.8149909,62.3057497 30.268,61.5613419 C31.78,59.027655 32.452,58.0975719 32.984,57.5000895 C33.824,56.5684856 35.364,58.0618786 34.944,58.7796805 L31.92,63.4550543 C30.744,65.3416997 29.568,67.704345 29.876,68.0702236 C30.128,68.3619425 31.528,67.4439361 34.328,63.4519233 L38.612,56.4831438 C39.368,55.8183003 41.104,57.0252524 40.74,57.5932141 C40.6,57.8138147 39.508,59.4056997 38.444,61.1886645 C37.772,62.3147476 35.112,66.6181597 36.232,67.2053546 C36.988,67.6045112 39.9,63.7608179 41.328,61.4378914 C41.3479784,61.4067183 41.3708247,61.3806084 41.3959926,61.3593843 Z M15.232,65.7714505 C7.812,77.3232843 3.192,77.0991054 1.148,74.4622748 C0.028,73.0070799 1.148,70.5702748 2.016,68.8217508 C4.76,63.3555783 10.332,55.8244728 9.548,55.2062364 C8.736,54.5649201 6.216,57.6397316 5.208,59.2448562 C3.92,61.3191821 3.192,62.8751054 2.38,65.1457891 C1.82,66.7001917 0.532,64.0985176 1.316,61.776754 C3.64,54.9843834 9.072,52.2098786 10.668,54.1974313 C12.348,56.2542236 11.06,58.3005495 10.22,59.9041534 C9.184,61.9061981 4.844,68.9128179 4.844,68.9128179 C4.088,70.3056613 1.792,73.8731118 3.052,74.4917061 C4.508,75.1878594 14.728,65.6080128 17.416,53.5716805 C17.78,52.0237188 20.076,54.1402684 19.852,55.0476294 C18.816,59.2896741 17.108,62.8658019 15.232,65.7714505 Z M95.088,57.675246 C94.472,58.0074888 92.372,57.1164984 93.044,56.6064153 C95.312,54.863885 97.272,52.839476 98.756,50.3947093 C100.324,47.7951821 100.156,47.1527029 99.876,46.8659042 C99.428,46.4406262 97.888,46.3752332 95.116,50.2503259 C94.64,50.8939681 93.996,48.515131 95.032,47.1290863 C96.768,44.8920383 99.4,44.7935463 99.932,44.9520639 C102.536,45.642492 102.76,47.647131 101.416,50.3472971 C100.492,52.1616613 99.428,53.9726262 98.14,55.2349521 C98.42,55.2137508 98.644,55.2303898 98.896,55.2701086 C99.232,55.3510671 99.54,55.4649457 99.82,55.6397444 C102.172,53.6584537 103.236,52.1834888 104.356,50.3346837 C104.72,49.766722 106.12,50.8927157 105,52.6015208 C103.712,54.5638466 102.452,55.6812524 100.856,56.9696997 C101.164,57.7555783 101.22,58.781738 100.912,59.9838594 C100.268,62.5050224 96.432,67.5750799 93.548,67.045853 C89.88,66.3743898 93.1,62.5325751 94.696,60.5721278 C95.788,59.2602428 96.796,58.1031182 98.308,56.8854313 C97.664,56.6345942 96.572,56.9384792 95.088,57.675246 Z M124.796,33.1069904 C125.328,33.769508 125.216,34.6851885 124.852,35.4491502 C124.516,36.1521917 122.108,39.7673227 119.448,43.2867348 C121.016,42.0312077 121.8,41.9494441 123.004,42.6618786 C125.188,43.9581086 123.536,47.7203962 121.716,50.2802045 C118.72,54.4466581 115.304,55.3549137 113.96,54.2750799 C112.056,52.7336486 112.896,50.3180447 113.26,49.4980831 C114.016,47.7972396 115.36,45.2930735 115.864,44.3925112 C115.864,44.3645112 115.892,44.3595911 115.892,44.3315911 C116.564,43.149508 121.66,34.5260447 123.144,32.697278 C123.424,32.3120767 124.152,32.3241534 124.796,33.1069904 Z M277.508,10.8926134 C278.236,11.3526901 278.796,11.7582875 279.496,12.2232843 C279.972,12.5596422 278.488,13.2684089 277.956,12.9698914 C277.704,12.8461725 277.032,12.5162556 276.5,12.189738 C275.884,12.5499808 274.82,13.2409457 274.456,13.4169073 C273.812,13.7260703 272.776,13.516115 273.308,13.0866326 C274.12,12.4959489 275.324,11.6123834 276.136,11.0496997 C276.556,10.7798978 277.2,10.6947348 277.508,10.8926134 Z M301.168,17.0111054 L310.184,0.670824281 C310.576,-0.070057508 313.096,1.47513099 312.116,3.21533546 C308.756,9.3217508 306.096,13.5691629 302.764,19.3066581 C302.344,20.0524601 300.216,18.6903898 301.168,17.0111054 Z M19.236,70.0798722 C19.992,70.5350288 22.12,67.557099 23.044,65.9947348 C23.156,65.8070543 23.268,65.5913738 23.408,65.3427732 C23.016,64.291655 22.652,62.8436166 22.848,61.6611757 C22.148,62.3441789 21.308,63.3877827 20.468,64.9073866 C19.32,66.9291118 18.564,69.6939553 19.236,70.0798722 Z M43.148,66.2980831 C44.464,66.1788371 44.744,63.6656358 44.912,61.396115 C44.968,60.8542748 44.996,60.3173546 45.052,59.8035144 C43.82,61.532 42.672,63.1057252 41.608,64.4126901 C41.888,65.2314888 42.252,66.3995272 43.148,66.2980831 Z M59.78,62.8715272 C60.032,63.163246 61.432,62.2452396 64.232,58.2532268 L64.736,57.4366645 C65.492,56.1278211 66.64,53.8260958 66.22,53.5078978 C65.744,53.1995399 63.616,55.3094696 61.852,58.2234377 C60.676,60.1380831 59.472,62.5056486 59.78,62.8715272 Z M86.128,52.6696869 C85.4,53.8056102 84.952,54.7523323 85.204,54.8480511 C85.624,54.9982492 86.8,53.7836038 87.836,52.3695591 C89.208,50.5044728 89.796,48.8611502 89.572,48.7325112 C89.32,48.5807923 87.808,49.9944792 86.128,52.6696869 Z M98.42,59.8897508 C98.616,59.4353099 98.756,59.0187093 98.84,58.6679489 C97.72,59.760754 96.656,61.0397188 95.788,62.2002428 C94.36,64.1031693 93.436,65.3575335 93.744,65.6954121 C94.052,66.0052907 95.62,64.1057636 96.656,62.8037188 C97.356,61.9527157 97.972,60.9204728 98.42,59.8897508 Z M121.66,43.3180447 C121.268,43.0789265 119.896,44.1320128 117.852,46.7871821 C117.544,47.1773035 117.348,47.1557444 117.208,46.900345 C115.416,50.0432332 114.24,52.6858786 114.828,53.3665559 C115.388,53.9961534 117.992,51.1865815 119.392,49.2325751 C121.128,46.7715272 122.444,43.7402812 121.66,43.3180447 Z M128.156,45.2845751 C127.428,46.4204984 126.98,47.3672204 127.232,47.4629393 C127.652,47.6131374 128.828,46.398492 129.864,44.9844473 C131.236,43.119361 131.824,41.4760383 131.6,41.3473994 C131.348,41.1956805 129.836,42.6093674 128.156,45.2845751 Z M135.38,49.5871821 C135.632,49.878901 137.032,48.9608946 139.832,44.9688818 L140.336,44.1523195 C141.092,42.843476 142.24,40.5417508 141.82,40.2235527 C141.344,39.9151949 139.216,42.0251246 137.452,44.9390927 C136.276,46.853738 135.072,49.2213035 135.38,49.5871821 Z M170.828,43.4423003 C171.584,43.8974569 173.712,40.9195272 174.636,39.3571629 C174.748,39.1694824 174.86,38.9538019 175,38.7052013 C174.608,37.6540831 174.244,36.2060447 174.44,35.0236038 C173.74,35.706607 172.9,36.7502109 172.06,38.2698147 C170.912,40.2915399 170.156,43.0563834 170.828,43.4423003 Z M200.536,29.2620447 C199.836,28.8810479 197.372,31.9460192 196.028,34.1701853 C194.32,36.9343131 193.62,38.9053163 194.096,39.1576741 C195.86,40.0517061 201.768,29.9415591 200.536,29.2620447 Z M217.98,31.1248051 C220.22,27.8191949 220.108,26.6628754 219.884,26.5062364 C219.408,26.1978786 217.308,28.3308882 215.516,31.2217764 C214.368,33.1315016 213.164,35.4990671 213.472,35.8369457 C213.724,36.1286645 215.236,35.2469776 217.98,31.1248051 Z M228.788,27.6016358 C228.06,28.7375591 227.612,29.6842812 227.864,29.78 C228.284,29.9301981 229.46,28.7155527 230.496,27.301508 C231.868,25.4364217 232.456,23.793099 232.232,23.6644601 C231.98,23.5127412 230.468,24.9264281 228.788,27.6016358 Z M245.252,30.2526006 C245.504,30.5163195 246.904,29.5983131 249.676,25.6392204 L250.18,24.8506581 C250.936,23.5418147 252.084,21.2400895 251.664,20.9218914 C251.188,20.6135335 249.06,22.7234633 247.296,25.6374313 C246.148,27.5191565 244.916,29.8916422 245.252,30.2526006 Z M258.328,28.066901 C259.084,28.5220575 261.212,25.5441278 262.136,23.9817636 C262.248,23.7940831 262.36,23.5784026 262.5,23.3298019 C262.108,22.2786837 261.744,20.8306454 261.94,19.6482045 C261.24,20.3312077 260.4,21.3748115 259.56,22.8944153 C258.412,24.9161406 257.656,27.680984 258.328,28.066901 Z M298.452,24.9363578 C297.78,24.6064409 297.668,23.5621214 298.228,22.6237188 C298.76,21.6902364 299.768,21.1771118 300.468,21.5021086 C301.14,21.8040256 301.252,22.848345 300.692,23.7867476 C300.132,24.7531502 299.124,25.2382748 298.452,24.9363578 Z" id="Vous-avez-beaucoup-d" fill="#AB172B"></path>
                <path d="M14.2339667,268.268545 L8.78266033,269.263641 L0,227.74096 L6.5415677,226.546845 L11.4477435,255.754584 L11.5688836,255.732471 L16.5356295,224.722503 L23.0771971,223.528389 L14.2339667,268.268545 Z M26.4085511,233.096047 C26.4085511,231.359696 26.7113984,229.769987 27.3171021,228.326872 C27.9228059,226.883757 28.7203038,225.637835 29.70962,224.589067 C30.6989361,223.540299 31.8093763,222.681427 33.0409739,222.012426 C34.2725715,221.343424 35.5142455,220.894678 36.7660333,220.666173 C38.017821,220.437669 39.259495,220.433098 40.4910926,220.652462 C41.7226902,220.871826 42.8331304,221.325292 43.8224466,222.012875 C44.8117627,222.700458 45.6092606,223.655226 46.2149644,224.877208 C46.8206681,226.099189 47.1235154,227.578333 47.1235154,229.314684 L47.1235154,252.089031 C47.1235154,253.865762 46.8206681,255.465566 46.2149644,256.888491 C45.6092606,258.311415 44.8117627,259.547243 43.8224466,260.596011 C42.8331304,261.644778 41.7226902,262.50365 40.4910926,263.172652 C39.259495,263.841654 38.017821,264.2904 36.7660333,264.518905 C35.5142455,264.747409 34.2725715,264.75198 33.0409739,264.532616 C31.8093763,264.313252 30.6989361,263.859785 29.70962,263.172202 C28.7203038,262.484619 27.9228059,261.539946 27.3171021,260.338155 C26.7113984,259.136363 26.4085511,257.647125 26.4085511,255.870394 L26.4085511,233.096047 Z M32.5866983,254.742619 C32.5866983,256.236688 33.0005897,257.26148 33.8283848,257.817027 C34.6561799,258.372574 35.6353863,258.547149 36.7660333,258.340757 C37.8966802,258.134366 38.8758866,257.602297 39.7036817,256.744535 C40.5314768,255.886773 40.9453682,254.710875 40.9453682,253.216806 L40.9453682,230.442459 C40.9453682,228.94839 40.5314768,227.923597 39.7036817,227.368051 C38.8758866,226.812504 37.8966802,226.637929 36.7660333,226.84432 C35.6353863,227.050712 34.6561799,227.58278 33.8283848,228.440542 C33.0005897,229.298305 32.5866983,230.474203 32.5866983,231.968272 L32.5866983,254.742619 Z M55.9061758,223.35043 L48.7589074,224.65511 L48.7589074,218.840383 L69.2315914,215.103247 L69.2315914,220.917974 L62.084323,222.222655 L62.084323,259.533819 L55.9061758,260.661593 L55.9061758,223.35043 Z M78.1353919,232.739207 L81.6484561,232.097923 C82.7387228,231.898903 83.6068851,231.589003 84.2529691,231.168213 C84.8990531,230.747424 85.3937037,230.223048 85.7369359,229.59507 C86.080168,228.967092 86.3123509,228.22816 86.4334917,227.378251 C86.5546324,226.528343 86.6152019,225.55827 86.6152019,224.468003 C86.6152019,223.377736 86.5546324,222.429776 86.4334917,221.624095 C86.3123509,220.818413 86.0599782,220.157838 85.6763658,219.64235 C85.2927534,219.126862 84.7577231,218.790446 84.0712589,218.633094 C83.3847947,218.475741 82.4762527,218.50026 81.3456057,218.706651 L78.1353919,219.292651 L78.1353919,232.739207 Z M71.9572447,214.605699 L81.8907363,212.792414 C89.1591812,211.465614 92.7933492,215.021896 92.7933492,223.461368 C92.7933492,225.964944 92.3996476,228.187027 91.6122328,230.127685 C90.8248179,232.068343 89.4418151,233.764372 87.4631829,235.215823 L94.1258907,253.684869 L87.584323,254.878983 L81.8301663,237.51606 L78.1353919,238.190514 L78.1353919,256.603815 L71.9572447,257.73159 L71.9572447,214.605699 Z M97.760095,209.895581 L116.173397,206.53437 L116.173397,212.349096 L103.938242,214.582533 L103.938242,227.241678 L114.598575,225.295713 L114.598575,231.11044 L103.938242,233.056405 L103.938242,245.71555 L116.173397,243.482113 L116.173397,249.66026 L97.760095,253.021472 L97.760095,209.895581 Z M131.437055,203.748102 L140.461995,202.100666 C142.440627,201.739482 144.126478,201.73459 145.519596,202.08599 C146.912715,202.43739 148.05344,203.036752 148.941805,203.884094 C149.830171,204.731436 150.46615,205.776257 150.849762,207.01859 C151.233375,208.260922 151.425178,209.588723 151.425178,211.002032 L151.425178,212.576854 C151.425178,213.747881 151.334324,214.753767 151.152613,215.594542 C150.970902,216.435317 150.698339,217.191715 150.334917,217.863759 C149.971495,218.535802 149.527319,219.151914 149.002375,219.712111 C148.477432,220.272308 147.871737,220.816955 147.185273,221.346066 C148.638962,221.76717 149.709023,222.591425 150.395487,223.818854 C151.081951,225.046283 151.425178,226.790619 151.425178,229.051913 L151.425178,231.474716 C151.425178,235.270459 150.506541,238.345484 148.66924,240.699882 C146.831939,243.05428 143.894319,244.600012 139.856295,245.337123 L131.437055,246.873993 L131.437055,203.748102 Z M137.615202,239.568071 L140.280285,239.08158 C141.532073,238.853075 142.511279,238.49262 143.217933,238.000203 C143.924588,237.507786 144.459618,236.905375 144.82304,236.192951 C145.186463,235.480527 145.408551,234.672773 145.489311,233.769666 C145.570072,232.866558 145.610451,231.890075 145.610451,230.840189 C145.610451,229.749922 145.549882,228.812057 145.428741,228.026565 C145.3076,227.241074 145.055228,226.610784 144.671615,226.135676 C144.288003,225.660568 143.752973,225.344342 143.066508,225.18699 C142.380044,225.029637 141.471502,225.054156 140.340855,225.260547 L137.615202,225.758095 L137.615202,239.568071 Z M137.615202,220.306788 L140.401425,219.798184 C142.460818,219.422257 143.843821,218.65496 144.550475,217.496269 C145.257129,216.337578 145.610451,214.76894 145.610451,212.790308 C145.610451,210.852056 145.21675,209.470256 144.429335,208.644867 C143.64192,207.819477 142.218538,207.59475 140.159145,207.970676 L137.615202,208.435054 L137.615202,220.306788 Z M177.228029,228.82398 C177.228029,230.237288 176.965561,231.597538 176.440618,232.90477 C175.915674,234.212002 175.198936,235.402803 174.29038,236.477209 C173.381824,237.551615 172.321859,238.461842 171.110451,239.207919 C169.899044,239.953996 168.606895,240.452335 167.233967,240.702953 C165.861038,240.953571 164.56889,240.926976 163.357482,240.623166 C162.146075,240.319356 161.086109,239.796106 160.177553,239.053401 C159.268998,238.310695 158.552259,237.381565 158.027316,236.265982 C157.502373,235.150399 157.239905,233.885972 157.239905,232.472663 L157.239905,199.037984 L163.418052,197.910209 L163.418052,230.739188 C163.418052,232.273637 163.781469,233.337928 164.508314,233.932092 C165.235158,234.526257 166.1437,234.723826 167.233967,234.524806 C168.324233,234.325786 169.232775,233.796521 169.95962,232.936997 C170.686464,232.077472 171.049881,230.880503 171.049881,229.346054 L171.049881,196.517075 L177.228029,195.3893 L177.228029,228.82398 Z M183.042755,194.327865 L192.188836,192.658316 C195.701918,192.017029 198.387164,192.506064 200.244656,194.125435 C202.102147,195.744805 203.030879,198.310993 203.030879,201.824075 L203.030879,221.993909 C203.030879,226.031934 202.051672,229.188679 200.09323,231.46424 C198.134788,233.739801 195.318308,235.212945 191.643705,235.883716 L183.042755,237.453756 L183.042755,194.327865 Z M189.220903,230.511254 L192.067696,229.991593 C193.804047,229.674635 195.035626,229.015739 195.76247,228.014883 C196.489315,227.014028 196.852732,225.584876 196.852732,223.727384 L196.852732,202.95185 C196.852732,201.255879 196.509505,200.006194 195.82304,199.202758 C195.136576,198.399321 193.884807,198.163456 192.067696,198.495156 L189.220903,199.014817 L189.220903,230.511254 Z M208.482185,199.859858 C208.482185,198.123508 208.785033,196.533799 209.390736,195.090684 C209.99644,193.647569 210.793938,192.401646 211.783254,191.352878 C212.77257,190.304111 213.88301,189.445239 215.114608,188.776237 C216.346206,188.107236 217.58788,187.658489 218.839667,187.429985 C220.091455,187.20148 221.333129,187.19691 222.564727,187.416273 C223.796324,187.635637 224.906765,188.089104 225.896081,188.776687 C226.885397,189.46427 227.682895,190.419038 228.288599,191.641019 C228.894302,192.863001 229.19715,194.342145 229.19715,196.078496 L229.19715,198.259018 L223.019002,199.386793 L223.019002,197.20627 C223.019002,195.712201 222.605111,194.687409 221.777316,194.131862 C220.949521,193.576316 219.970314,193.401741 218.839667,193.608132 C217.70902,193.814523 216.729814,194.346592 215.902019,195.204354 C215.074224,196.062116 214.660333,197.238014 214.660333,198.732083 L214.660333,221.50643 C214.660333,223.0005 215.074224,224.025292 215.902019,224.580839 C216.729814,225.136385 217.70902,225.31096 218.839667,225.104569 C219.970314,224.898178 220.949521,224.366109 221.777316,223.508347 C222.605111,222.650585 223.019002,221.474686 223.019002,219.980617 L223.019002,211.864228 L218.112827,212.759814 L218.112827,207.308507 L229.19715,205.285146 L229.19715,218.852842 C229.19715,220.629573 228.894302,222.229377 228.288599,223.652302 C227.682895,225.075227 226.885397,226.311055 225.896081,227.359822 C224.906765,228.40859 223.796324,229.267462 222.564727,229.936463 C221.333129,230.605465 220.091455,231.054212 218.839667,231.282716 C217.58788,231.511221 216.346206,231.515791 215.114608,231.296427 C213.88301,231.077064 212.77257,230.623597 211.783254,229.936014 C210.793938,229.248431 209.99644,228.303758 209.390736,227.101966 C208.785033,225.900175 208.482185,224.410936 208.482185,222.634205 L208.482185,199.859858 Z M234.648456,184.907628 L253.061758,181.546417 L253.061758,187.361144 L240.826603,189.59458 L240.826603,202.253725 L251.486936,200.307761 L251.486936,206.122487 L240.826603,208.068452 L240.826603,220.727597 L253.061758,218.49416 L253.061758,224.672308 L234.648456,228.033519 L234.648456,184.907628 Z M261.117577,185.890614 L253.970309,187.195294 L253.970309,181.380568 L274.442993,177.643431 L274.442993,183.458158 L267.295724,184.762839 L267.295724,222.074003 L261.117577,223.201778 L261.117577,185.890614 Z M287.465558,184.109489 C287.465558,182.857701 287.707836,181.622276 288.192399,180.403176 C288.676962,179.184075 289.343226,178.083247 290.191211,177.100659 C291.039197,176.11807 292.028498,175.281311 293.159145,174.590357 C294.289792,173.899403 295.501181,173.435995 296.793349,173.200119 C298.287418,172.927388 299.650231,172.981464 300.881829,173.362349 C302.113427,173.743234 303.133013,174.405088 303.940618,175.347933 C304.34442,175.839545 304.677552,176.30367 304.940024,176.74032 C305.202495,177.176971 305.414489,177.653114 305.57601,178.168763 C305.73753,178.684412 305.848575,179.279931 305.909145,179.955339 C305.969715,180.630746 306,181.432811 306,182.361557 C306,183.411443 305.989905,184.291543 305.969715,185.001883 C305.949525,185.712223 305.89905,186.337226 305.81829,186.876912 C305.737529,187.416597 305.63658,187.889296 305.515439,188.295021 C305.394299,188.700747 305.23278,189.083553 305.030879,189.443451 L300.851544,197.353625 C300.568882,197.889786 300.326604,198.428663 300.124703,198.970272 C299.922802,199.51188 299.821853,200.065338 299.821853,200.630662 L299.821853,205.476267 L293.643705,206.604042 L293.643705,200.971025 C293.643705,200.08266 293.785034,199.208889 294.067696,198.349686 C294.350358,197.490483 294.713775,196.636741 295.157957,195.788434 L299.034442,188.781523 C299.357484,188.197611 299.569477,187.593599 299.670428,186.969467 C299.771378,186.345335 299.821853,185.730427 299.821853,185.124723 L299.821853,181.91451 C299.821853,181.066524 299.5291,180.39313 298.943587,179.894308 C298.358073,179.395485 297.641334,179.223473 296.793349,179.378267 C296.066505,179.510947 295.359861,179.902407 294.673397,180.552659 C293.986932,181.202911 293.643705,182.032778 293.643705,183.042284 L293.643705,186.555349 L287.465558,187.683123 L287.465558,184.109489 Z M293.643705,211.086227 L299.821853,209.958453 L299.821853,216.1366 L293.643705,217.264375 L293.643705,211.086227 Z" id="votre-budget-?" fill="#4A4A4A"></path>
                <path d="M15.12,112.943131 C15.12,113.876469 14.9466684,114.773585 14.6,115.634505 C14.2533316,116.495425 13.780003,117.278591 13.18,117.984026 C12.579997,118.68946 11.880004,119.285791 11.08,119.773035 C10.279996,120.260279 9.4266712,120.583556 8.52,120.742875 C7.6133288,120.902195 6.760004,120.878808 5.96,120.672716 C5.159996,120.466623 4.460003,120.116296 3.86,119.621725 C3.259997,119.127154 2.7866684,118.510334 2.44,117.771246 C2.0933316,117.032158 1.92,116.195958 1.92,115.26262 L1.92,93.1826198 L6,92.4656869 L6,114.145687 C6,115.159025 6.2399976,115.863512 6.72,116.259169 C7.2000024,116.654826 7.7999964,116.789394 8.52,116.662875 C9.2400036,116.536357 9.8399976,116.190929 10.32,115.626581 C10.8000024,115.062234 11.04,114.273402 11.04,113.260064 L11.04,91.5800639 L15.12,90.863131 L15.12,112.943131 Z M18.8,90.2164856 L22.72,89.5276677 L28.88,105.60524 L28.96,105.591182 L28.96,88.4311821 L33.04,87.7142492 L33.04,116.194249 L29.2,116.86901 L22.96,100.845495 L22.88,100.859553 L22.88,117.979553 L18.8,118.696486 L18.8,90.2164856 Z M36.72,87.0676038 L48.88,84.9308626 L48.88,88.7708626 L40.8,90.1906709 L40.8,98.5506709 L47.84,97.3136102 L47.84,101.15361 L40.8,102.390671 L40.8,110.750671 L48.88,109.330863 L48.88,113.410863 L36.72,115.547604 L36.72,87.0676038 Z M58.96,83.1596166 L65,82.0982748 C67.3200116,81.690605 69.0933272,82.0256602 70.32,83.1034505 C71.5466728,84.1812407 72.16,85.8801162 72.16,88.2001278 L72.16,101.520128 C72.16,104.186808 71.5133398,106.267085 70.22,107.761022 C68.9266602,109.25496 67.0666788,110.21512 64.64,110.641534 L58.96,111.639617 L58.96,83.1596166 Z M63.04,107.082684 L64.92,106.752332 C66.0666724,106.55084 66.8799976,106.12126 67.36,105.463578 C67.8400024,104.805897 68.08,103.863734 68.08,102.637061 L68.08,88.9170607 C68.08,87.7970551 67.8533356,86.9702263 67.4,86.4365495 C66.9466644,85.9028727 66.120006,85.7414686 64.92,85.9523323 L63.04,86.2826837 L63.04,107.082684 Z M76,80.1653674 L88.16,78.0286262 L88.16,81.8686262 L80.08,83.2884345 L80.08,91.6484345 L87.12,90.4113738 L87.12,94.2513738 L80.08,95.4884345 L80.08,103.848435 L88.16,102.428626 L88.16,106.508626 L76,108.645367 L76,80.1653674 Z M94.88,89.5677955 L97.2,89.1601278 C97.9200036,89.0336096 98.4933312,88.8328661 98.92,88.5578914 C99.3466688,88.2829166 99.6733322,87.9388519 99.9,87.5256869 C100.126668,87.1125219 100.28,86.6255832 100.36,86.0648562 C100.44,85.5041293 100.48,84.8637736 100.48,84.14377 C100.48,83.4237664 100.44,82.7974681 100.36,82.2648562 C100.28,81.7322444 100.113335,81.2948686 99.86,80.9527157 C99.6066654,80.6105627 99.2533356,80.3859856 98.8,80.2789776 C98.3466644,80.1719696 97.7466704,80.1840675 97,80.3152716 L94.88,80.6877955 L94.88,89.5677955 Z M90.8,77.5647284 L97.36,76.4120128 C102.160024,75.5685581 104.56,77.9334759 104.56,83.5068371 C104.56,85.1601787 104.300003,86.6258509 103.78,87.9038978 C103.259997,89.1819446 102.346673,90.2957567 101.04,91.2453674 L105.44,103.472204 L101.12,104.23131 L97.32,92.7390415 L94.88,93.1677955 L94.88,105.327796 L90.8,106.044728 L90.8,77.5647284 Z M107.68,74.5985942 L111.6,73.9097764 L117.76,89.9873482 L117.84,89.9732907 L117.84,72.8132907 L121.92,72.0963578 L121.92,100.576358 L118.08,101.251118 L111.84,85.2276038 L111.76,85.2416613 L111.76,102.361661 L107.68,103.078594 L107.68,74.5985942 Z M125.72,71.4286262 L129.8,70.7116933 L129.8,99.1916933 L125.72,99.9086262 L125.72,71.4286262 Z M133.76,70.0158466 L145.92,67.8791054 L145.92,71.7191054 L137.84,73.1389137 L137.84,81.4989137 L144.88,80.261853 L144.88,84.101853 L137.84,85.3389137 L137.84,93.6989137 L145.92,92.2791054 L145.92,96.3591054 L133.76,98.4958466 L133.76,70.0158466 Z M142.24,67.2457508 L139.6,67.7096486 L134.32,62.9974441 L138.64,62.2383387 L142.24,67.2457508 Z M152.64,79.4182748 L154.96,79.010607 C155.680004,78.8840888 156.253331,78.6833454 156.68,78.4083706 C157.106669,78.1333959 157.433332,77.7893311 157.66,77.3761661 C157.886668,76.9630011 158.04,76.4760624 158.12,75.9153355 C158.2,75.3546085 158.24,74.7142528 158.24,73.9942492 C158.24,73.2742456 158.2,72.6479473 158.12,72.1153355 C158.04,71.5827236 157.873335,71.1453478 157.62,70.8031949 C157.366665,70.461042 157.013336,70.2364649 156.56,70.1294569 C156.106664,70.0224489 155.50667,70.0345467 154.76,70.1657508 L152.64,70.5382748 L152.64,79.4182748 Z M148.56,67.4152077 L155.12,66.262492 C159.920024,65.4190373 162.32,67.7839551 162.32,73.3573163 C162.32,75.0106579 162.060003,76.4763301 161.54,77.754377 C161.019997,79.0324239 160.106673,80.1462359 158.8,81.0958466 L163.2,93.3226837 L158.88,94.0817891 L155.08,82.5895208 L152.64,83.0182748 L152.64,95.1782748 L148.56,95.8952077 L148.56,67.4152077 Z M165.6,64.4209585 L177.76,62.2842173 L177.76,66.1242173 L169.68,67.5440256 L169.68,75.9040256 L176.72,74.6669649 L176.72,78.5069649 L169.68,79.7440256 L169.68,88.1040256 L177.76,86.6842173 L177.76,90.7642173 L165.6,92.9009585 L165.6,64.4209585 Z M191.68,81.5982109 C191.68,82.5848825 191.953331,83.2635125 192.5,83.6341214 C193.046669,84.0047303 193.69333,84.1244309 194.44,83.9932268 C194.786668,83.9323107 195.079999,83.8274342 195.32,83.6785942 L193.48,82.5219169 L195.56,79.6764217 L197.2,80.7082428 L197.2,65.5882428 C197.2,64.6015712 196.926669,63.9229412 196.38,63.5523323 C195.833331,63.1817234 195.18667,63.0620228 194.44,63.1932268 C193.69333,63.3244309 193.046669,63.6713923 192.5,64.2341214 C191.953331,64.7968505 191.68,65.5715393 191.68,66.5582109 L191.68,81.5982109 Z M187.6,67.2751438 C187.6,66.1284714 187.799998,65.0800048 188.2,64.1297125 C188.600002,63.1794202 189.126663,62.3602164 189.78,61.6720767 C190.433337,60.9839369 191.166663,60.4217487 191.98,59.9854952 C192.793337,59.5492417 193.613329,59.2584885 194.44,59.1132268 C195.266671,58.9679652 196.086663,58.9705424 196.9,59.1209585 C197.713337,59.2713746 198.446663,59.5758444 199.1,60.034377 C199.753337,60.4929096 200.279998,61.1270247 200.68,61.9367412 C201.080002,62.7464577 201.28,63.7246375 201.28,64.8713099 L201.28,79.9113099 C201.28,81.0313155 201.080002,82.0397825 200.68,82.9367412 L203.2,84.5339297 L201.12,87.3794249 L198.72,85.8411502 C198.106664,86.4555941 197.433337,86.9472399 196.7,87.3161022 C195.966663,87.6849646 195.213337,87.9373369 194.44,88.0732268 C193.613329,88.2184885 192.793337,88.2159113 191.98,88.0654952 C191.166663,87.9150791 190.433337,87.6106093 189.78,87.1520767 C189.126663,86.693544 188.600002,86.0660956 188.2,85.2697125 C187.799998,84.4733294 187.6,83.488483 187.6,82.3151438 L187.6,67.2751438 Z M218.08,77.2792332 C218.08,78.2125712 217.906668,79.1096869 217.56,79.970607 C217.213332,80.8315272 216.740003,81.614693 216.14,82.3201278 C215.539997,83.0255626 214.840004,83.6218932 214.04,84.1091374 C213.239996,84.5963816 212.386671,84.9196584 211.48,85.0789776 C210.573329,85.2382969 209.720004,85.2149105 208.92,85.0088179 C208.119996,84.8027253 207.420003,84.4523986 206.82,83.9578275 C206.219997,83.4632563 205.746668,82.8464361 205.4,82.1073482 C205.053332,81.3682604 204.88,80.53206 204.88,79.598722 L204.88,57.518722 L208.96,56.8017891 L208.96,78.4817891 C208.96,79.4951275 209.199998,80.1996146 209.68,80.5952716 C210.160002,80.9909285 210.759996,81.1254958 211.48,80.9989776 C212.200004,80.8724594 212.799998,80.5270316 213.28,79.9626837 C213.760002,79.3983358 214,78.6095045 214,77.5961661 L214,55.9161661 L218.08,55.1992332 L218.08,77.2792332 Z M221.92,54.5244728 L234.08,52.3877316 L234.08,56.2277316 L226,57.6475399 L226,66.0075399 L233.04,64.7704792 L233.04,68.6104792 L226,69.8475399 L226,78.2075399 L234.08,76.7877316 L234.08,80.8677316 L221.92,83.0044728 L221.92,54.5244728 Z M249.92,57.804345 L245.84,58.521278 L245.84,57.601278 C245.84,56.66794 245.620002,55.8999391 245.18,55.2972524 C244.739998,54.6945657 244.000005,54.4845997 242.96,54.6673482 C242.399997,54.7657513 241.940002,54.9532468 241.58,55.2298403 C241.219998,55.5064338 240.940001,55.8289651 240.74,56.1974441 C240.539999,56.565923 240.4,56.9771862 240.32,57.431246 C240.24,57.8853058 240.2,58.3523299 240.2,58.8323323 C240.2,59.3923351 240.22,59.8621493 240.26,60.2417891 C240.3,60.6214289 240.399999,60.9371872 240.56,61.1890735 C240.720001,61.4409597 240.953332,61.6466233 241.26,61.8060703 C241.566668,61.9655173 241.986664,62.1050473 242.52,62.2246645 L245.64,62.9164217 C246.546671,63.1037709 247.279997,63.3815743 247.84,63.7498403 C248.400003,64.1181062 248.833332,64.5886233 249.14,65.1614058 C249.446668,65.7341882 249.653333,66.4178661 249.76,67.2124601 C249.866667,68.007054 249.92,68.9243398 249.92,69.964345 C249.92,71.164351 249.800001,72.2987593 249.56,73.3676038 C249.319999,74.4364484 248.926669,75.385555 248.38,76.2149521 C247.833331,77.0443492 247.106671,77.7520311 246.2,78.3380192 C245.293329,78.9240072 244.186673,79.3317986 242.88,79.5614058 C241.893328,79.7347825 240.973338,79.7231107 240.12,79.5263898 C239.266662,79.3296689 238.533336,78.9851995 237.92,78.4929712 C237.306664,78.000743 236.820002,77.3729325 236.46,76.6095208 C236.099998,75.8461091 235.92,74.9844137 235.92,74.0244089 L235.92,72.5044089 L240,71.787476 L240,73.067476 C240,73.8141464 240.219998,74.4488153 240.66,74.9715016 C241.100002,75.4941879 241.839995,75.6641543 242.88,75.4814058 C243.573337,75.3595734 244.113331,75.1646872 244.5,74.8967412 C244.886669,74.6287953 245.179999,74.2972544 245.38,73.9021086 C245.580001,73.5069629 245.706666,73.0380432 245.76,72.4953355 C245.813334,71.9526277 245.84,71.3612812 245.84,70.721278 C245.84,69.9746076 245.813334,69.3659661 245.76,68.8953355 C245.706666,68.4247048 245.593334,68.0579566 245.42,67.7950799 C245.246666,67.5322032 245.006668,67.3343777 244.7,67.2015974 C244.393332,67.0688172 243.986669,66.9402775 243.48,66.8159744 L240.56,66.1290735 C238.799991,65.7183366 237.620003,64.972359 237.02,63.8911182 C236.419997,62.8098774 236.12,61.3759408 236.12,59.5892652 C236.12,58.5225932 236.266665,57.4834981 236.56,56.4719489 C236.853335,55.4603996 237.286664,54.5575972 237.86,53.7635144 C238.433336,52.9694316 239.159996,52.288416 240.04,51.7204473 C240.920004,51.1524785 241.946661,50.765411 243.12,50.5592332 C244.133338,50.3811706 245.059996,50.4050042 245.9,50.6307348 C246.740004,50.8564655 247.459997,51.2232775 248.06,51.7311821 C248.660003,52.2390867 249.119998,52.8449166 249.44,53.5486901 C249.760002,54.2524636 249.92,55.004341 249.92,55.804345 L249.92,57.804345 Z M255.64,52.4392332 L250.92,53.2686262 L250.92,49.4286262 L264.44,47.0529073 L264.44,50.8929073 L259.72,51.7223003 L259.72,76.3623003 L255.64,77.0792332 L255.64,52.4392332 Z M266.36,46.7155272 L270.44,45.9985942 L270.44,74.4785942 L266.36,75.1955272 L266.36,46.7155272 Z M274.16,52.0649201 C274.16,50.9182477 274.359998,49.8697811 274.76,48.9194888 C275.160002,47.9691965 275.686663,47.1499928 276.34,46.461853 C276.993337,45.7737133 277.726663,45.2115251 278.54,44.7752716 C279.353337,44.3390181 280.173329,44.0482648 281,43.9030032 C281.826671,43.7577416 282.646663,43.7603187 283.46,43.9107348 C284.273337,44.0611509 285.006663,44.3656207 285.66,44.8241534 C286.313337,45.282686 286.839998,45.9168011 287.24,46.7265176 C287.640002,47.5362341 287.84,48.5144139 287.84,49.6610863 L287.84,64.7010863 C287.84,65.8744255 287.640002,66.9295587 287.24,67.8665176 C286.839998,68.8034765 286.313337,69.6160136 285.66,70.3041534 C285.006663,70.9922931 284.273337,71.5544813 283.46,71.9907348 C282.646663,72.4269883 281.826671,72.7177416 281,72.8630032 C280.173329,73.0082648 279.353337,73.0056877 278.54,72.8552716 C277.726663,72.7048555 276.993337,72.4003857 276.34,71.941853 C275.686663,71.4833204 275.160002,70.8558719 274.76,70.0594888 C274.359998,69.2631057 274.16,68.2782593 274.16,67.1049201 L274.16,52.0649201 Z M278.24,66.3879872 C278.24,67.3746588 278.513331,68.0532889 279.06,68.4238978 C279.606669,68.7945066 280.25333,68.9142073 281,68.7830032 C281.74667,68.6517991 282.393331,68.3048377 282.94,67.7421086 C283.486669,67.1793795 283.76,66.4046908 283.76,65.4180192 L283.76,50.3780192 C283.76,49.3913476 283.486669,48.7127175 282.94,48.3421086 C282.393331,47.9714997 281.74667,47.8517991 281,47.9830032 C280.25333,48.1142073 279.606669,48.4611686 279.06,49.0238978 C278.513331,49.5866269 278.24,50.3613156 278.24,51.3479872 L278.24,66.3879872 Z M291.28,42.3366134 L295.2,41.6477955 L301.36,57.7253674 L301.44,57.7113099 L301.44,40.5513099 L305.52,39.834377 L305.52,68.314377 L301.68,68.9891374 L295.44,52.965623 L295.36,52.9796805 L295.36,70.0996805 L291.28,70.8166134 L291.28,42.3366134 Z" id="une-dernière-questio" fill="#AB172B"></path>
                <path d="M1.96,145.415591 L5.02,144.877891 C5.5800028,144.779488 6.0733312,144.766134 6.5,144.837827 C6.9266688,144.909521 7.3133316,145.101575 7.66,145.413994 C8.0066684,145.726413 8.246666,146.120903 8.38,146.597476 C8.513334,147.074049 8.58,147.738995 8.58,148.592332 C8.58,149.219002 8.5433337,149.762106 8.47,150.221661 C8.3966663,150.681216 8.2400012,151.125408 8,151.554249 C7.7199986,152.07012 7.346669,152.49905 6.88,152.841054 C6.413331,153.183058 5.8000038,153.42083 5.04,153.554377 L4,153.737125 L4,159.297125 L1.96,159.655591 L1.96,145.415591 Z M4,151.817125 L4.98,151.64492 C5.3933354,151.572289 5.7133322,151.45606 5.94,151.29623 C6.1666678,151.1364 6.3333328,150.943782 6.44,150.718371 C6.5466672,150.492959 6.6099999,150.231833 6.63,149.934984 C6.6500001,149.638135 6.66,149.309714 6.66,148.949712 C6.66,148.616377 6.6500001,148.301471 6.63,148.004984 C6.6099999,147.708497 6.5500005,147.459043 6.45,147.256613 C6.3499995,147.054184 6.1933344,146.908382 5.98,146.819201 C5.7666656,146.730021 5.460002,146.720575 5.06,146.790863 L4,146.977125 L4,151.817125 Z M9.98,147.366326 C9.98,146.79299 10.079999,146.268756 10.28,145.79361 C10.480001,145.318464 10.7433317,144.908862 11.07,144.564792 C11.3966683,144.220722 11.7633313,143.939628 12.17,143.721502 C12.5766687,143.503375 12.9866646,143.357998 13.4,143.285367 C13.8133354,143.212737 14.2233313,143.214025 14.63,143.289233 C15.0366687,143.364441 15.4033317,143.516676 15.73,143.745942 C16.0566683,143.975209 16.319999,144.292266 16.52,144.697125 C16.720001,145.101983 16.82,145.591073 16.82,146.164409 L16.82,153.684409 C16.82,154.271079 16.720001,154.798645 16.52,155.267125 C16.319999,155.735604 16.0566683,156.141873 15.73,156.485942 C15.4033317,156.830012 15.0366687,157.111106 14.63,157.329233 C14.2233313,157.54736 13.8133354,157.692737 13.4,157.765367 C12.9866646,157.837998 12.5766687,157.83671 12.17,157.761502 C11.7633313,157.686294 11.3966683,157.534059 11.07,157.304792 C10.7433317,157.075526 10.480001,156.761802 10.28,156.36361 C10.079999,155.965419 9.98,155.472995 9.98,154.886326 L9.98,147.366326 Z M12.02,154.527859 C12.02,155.021195 12.1566653,155.36051 12.43,155.545815 C12.7033347,155.731119 13.0266648,155.790969 13.4,155.725367 C13.7733352,155.659765 14.0966653,155.486285 14.37,155.20492 C14.6433347,154.923556 14.78,154.536211 14.78,154.042875 L14.78,146.522875 C14.78,146.02954 14.6433347,145.690225 14.37,145.50492 C14.0966653,145.319616 13.7733352,145.259765 13.4,145.325367 C13.0266648,145.390969 12.7033347,145.56445 12.43,145.845815 C12.1566653,146.127179 12.02,146.514524 12.02,147.007859 L12.02,154.527859 Z M25.22,152.368371 C25.22,152.83504 25.1333342,153.283597 24.96,153.714058 C24.7866658,154.144518 24.5500015,154.5361 24.25,154.888818 C23.9499985,155.241535 23.600002,155.539701 23.2,155.783323 C22.799998,156.026945 22.3733356,156.188583 21.92,156.268243 C21.4666644,156.347902 21.040002,156.336209 20.64,156.233163 C20.239998,156.130117 19.8900015,155.954953 19.59,155.707668 C19.2899985,155.460382 19.0533342,155.151972 18.88,154.782428 C18.7066658,154.412884 18.62,153.994784 18.62,153.528115 L18.62,142.488115 L20.66,142.129649 L20.66,152.969649 C20.66,153.476318 20.7799988,153.828561 21.02,154.02639 C21.2600012,154.224218 21.5599982,154.291502 21.92,154.228243 C22.2800018,154.164984 22.5799988,153.99227 22.82,153.710096 C23.0600012,153.427922 23.18,153.033506 23.18,152.526837 L23.18,141.686837 L25.22,141.328371 L25.22,152.368371 Z M29.18,146.992524 L30.34,146.78869 C30.7000018,146.725431 30.9866656,146.625059 31.2,146.487572 C31.4133344,146.350085 31.5766661,146.178052 31.69,145.97147 C31.8033339,145.764887 31.8799998,145.521418 31.92,145.241054 C31.9600002,144.960691 31.98,144.640513 31.98,144.280511 C31.98,143.920509 31.9600002,143.60736 31.92,143.341054 C31.8799998,143.074748 31.7966673,142.85606 31.67,142.684984 C31.5433327,142.513908 31.3666678,142.401619 31.14,142.348115 C30.9133322,142.294611 30.6133352,142.30066 30.24,142.366262 L29.18,142.552524 L29.18,146.992524 Z M27.14,140.99099 L30.42,140.414633 C32.820012,139.992905 34.02,141.175364 34.02,143.962045 C34.02,144.788716 33.8900013,145.521552 33.63,146.160575 C33.3699987,146.799599 32.9133366,147.356505 32.26,147.83131 L34.46,153.944728 L32.3,154.324281 L30.4,148.578147 L29.18,148.792524 L29.18,154.872524 L27.14,155.23099 L27.14,140.99099 Z M39.38,138.840192 L41.42,138.481725 L41.42,150.681725 L45.46,149.971821 L45.46,152.011821 L39.38,153.080192 L39.38,138.840192 Z M49.9,141.091629 L49.86,141.098658 L48.86,146.434377 L50.9,146.075911 L49.9,141.091629 Z M49.04,137.142748 L50.74,136.844026 L53.92,150.52524 L51.88,150.883706 L51.28,147.929137 L48.5,148.417636 L47.9,151.583067 L45.86,151.941534 L49.04,137.142748 Z" id="pour-la" fill="#AB172B"></path>
                <polygon id="Rectangle-2" fill="#AB172B" points="0 172 55 162.335463 55 165.335463 0 175"></polygon>
            </g>
        </g>
    </g>
</svg>