<?xml version="1.0" encoding="UTF-8"?>
<svg width="254px" height="172px" viewBox="0 0 254 172" version="1.1" xmlns="http://www.w3.org/2000/svg" xmlns:xlink="http://www.w3.org/1999/xlink">
    <!-- Generator: Sketch 49 (51002) - http://www.bohemiancoding.com/sketch -->
    <title>Group 2</title>
    <desc>Created with Sketch.</desc>
    <defs></defs>
    <g id="Page-1" stroke="none" stroke-width="1" fill="none" fill-rule="evenodd">
        <g id="01_QUESTION-04" transform="translate(-513.000000, -214.000000)">
            <g id="Group-2" transform="translate(512.000000, 214.000000)">
                <path d="M86.0756463,29.9371127 C86.5118424,29.037576 87.036799,28.0883156 87.64,27.0977778 C89.8,23.4806349 90.76,22.1530159 91.52,21.3003175 C92.72,19.9707937 94.92,22.1066667 94.32,23.1314286 L90,29.8057143 C88.32,32.4990476 86.64,35.872381 87.08,36.3955556 C87.44,36.8126984 89.44,35.5034921 93.44,29.8050794 L99.56,19.8565079 C100.64,18.9079365 103.12,20.6349206 102.6,21.4457143 C102.4,21.7606349 100.84,24.0330159 99.32,26.5784127 C98.36,28.1860317 94.56,34.3295238 96.16,35.1701587 C97.24,35.7415873 101.4,30.2552381 103.44,26.9390476 C103.96,26.128254 105.84,27.72 104.36,30.1784127 C100.64,36.3879365 96.92,37.9574603 95.04,36.9257143 C94.16,36.4393651 93.64,35.7701587 93.32,34.9460317 C91,37.7511111 88.32,39.7790476 85.92,37.9180952 C85.3608827,37.5031947 84.9884643,36.9688591 84.7850436,36.3293058 C81.8515551,39.9416355 79.1512709,40.7931966 77.64,39.9638095 C76.76,39.4774603 76.44,38.6533333 76.4,37.6603175 C74.12,40.6984127 71.52,42.912381 68.88,40.7333333 C68.2396435,40.1949335 67.8200866,39.6009967 67.5968281,38.9348853 C64.3578567,42.2811571 59.5946089,44.9142915 55.92,43.1161905 C54.7498498,42.5704061 53.9622978,41.9803247 53.6417516,40.7234744 C51.8824167,42.1398966 49.726107,42.7446821 48.16,40.3911111 C45.32,44.4469841 41.56,48.9434921 38,45.8850794 C37.5458057,45.5019307 37.2228884,45.0378942 37.0228006,44.4993725 C34.0111153,48.217456 31.1519956,49.1832703 29.76,48.1638095 C28.7392016,47.4025483 28.0876712,46.6176148 27.7197094,45.8115321 C24.7827027,49.7136962 21.5116064,52.4440052 19.56,52.7847619 C15.64,53.4692063 15.2,49.4660317 16.56,45.8285714 C18,41.9371429 19.92,38.1219048 22,34.3587302 C16.16,41.7384127 9.96,49.1809524 3.92,55.5155556 C2.92,56.5301587 0.48,54.7561905 1.04,53.5384127 C1.24,53.1834921 4.04,47.8946032 5.84,44.5003175 C9.88,36.7949206 17.6,25.7669841 16.56,25.1085714 C15.32,24.2850794 11.8,28.5396825 10.4,30.824127 C8.52,33.792381 7.48,36.0139683 6.36,39.2495238 C5.56,41.5092063 3.68,37.7974603 4.84,34.4349206 C8.16,24.7752381 16.08,21.232381 18.24,23.3752381 C20.88,26.0742857 18.4,29.3873016 17.2,31.6768254 C16.12,33.7853968 11.68,41.4806349 9.4,45.4387302 C16.52,37.3155556 24.04,28.0825397 29.84,20.3498413 C30.48,19.4780952 33.56,20.8603175 33.08,21.864127 C29.64,28.5047619 25.76,34.9822222 22.4,41.6888889 C21.16,44.1853968 17.24,51.0298413 19.4,50.6526984 C19.64,50.6107937 20.24,50.6260317 22.4,48.1288889 C24.7242089,45.463427 26.7358052,42.9567526 28.539907,40.1279914 C29.1033078,39.0654752 29.7989577,37.9807352 30.48,36.8780952 C32,34.4126984 33.72,32.272381 33.88,32.0044444 C34.72,30.9377778 36.64,33.3625397 36.2,34.2393651 C35.48,35.6050794 33.72,38.192381 32.88,39.4990476 C31.24,42.1053968 29.76,45.7238095 30.52,46.2711111 C31.6000404,46.9763591 35.592831,42.214421 37.8169913,38.872333 C38.2900727,37.7826252 38.9163536,36.6050959 39.68,35.351746 C41.8,31.8615873 42.8,30.6069841 43.44,29.7352381 C44.68,28.1587302 46.68,30.4095238 46.16,31.5003175 L42,37.9866667 C40.32,40.6 38.68,43.8863492 39.44,44.4336508 C41.08,45.5873016 45.16,39.6349206 48.44,33.7822222 C49.2,30.9295238 50.4,28.04 51.76,27.9625397 C52.28,27.951746 54.24,28.3695238 53.64,30.5142857 C53.48,31.0622222 51.96,34.367619 49.96,37.6768254 C50.08,38.375873 50.28,39.1409524 50.72,39.224127 C51.3945622,39.3516416 52.5156972,38.602053 53.9392706,36.5861406 C55.2627865,32.2227695 59.1804264,26.4854739 62.16,25.1466667 C62.8,24.8749206 63.8,24.6203175 64.64,25.1136508 C67.72,26.775873 67.84,27.8349206 66.84,30.6095238 C65.44,34.3739683 62.84,37.2679365 60,38.3638095 C58.96,38.7453968 57.8,38.0279365 57.12,37.5066667 C56.52,39.3714286 56.56,41.1644444 57.32,41.551746 C59.3359075,42.556623 64.7333746,39.4392179 68.9240955,32.891418 C69.3317641,32.0938345 69.8135736,31.2371578 70.36,30.3149206 C71.96,27.5955556 74.24,25.1974603 75.96,24.0171429 C77.4,23.0457143 78.36,23.0780952 79.64,23.8546032 C80.4,24.2819048 81.6,24.552381 81.64,25.6253968 C82.72,25.8368254 83.84,26.8412698 83.48,27.424127 C83.12,27.9669841 81.84,29.7904762 80.64,31.92 C79.24,34.3244444 77.6,37.6107937 78.76,38.208254 C79.7992749,38.7462913 83.994145,33.2609904 86.0756463,29.9371127 Z M40.8,23.6361905 C41.76,24.1085714 41.92,25.6006349 41.12,26.9403175 C40.32,28.32 38.88,29.0114286 37.92,28.5390476 C36.92,28.1136508 36.8,26.6146032 37.6,25.2749206 C38.36,23.9022222 39.8,23.2107937 40.8,23.6361905 Z M59.36,33.3555556 C58.32,34.9771429 57.68,36.3288889 58.04,36.4660317 C58.64,36.6812698 60.32,34.9479365 61.8,32.9295238 C63.76,30.2673016 64.6,27.9206349 64.28,27.7365079 C63.92,27.5193651 61.76,29.5365079 59.36,33.3555556 Z M69.68,39.5136508 C70.04,39.9307937 72.04,38.6215873 76.04,32.9231746 L76.76,31.7574603 C77.84,29.8888889 79.48,26.6025397 78.88,26.1473016 C78.2,25.7060317 75.16,28.7168254 72.64,32.8768254 C70.96,35.6101587 69.24,38.9904762 69.68,39.5136508 Z" id="Niveau" fill="#AB172B"></path>
                <polygon id="Rectangle-2" fill="#AB172B" points="115 23.9206349 252 0 252 3 115 26.9206349"></polygon>
                <path d="M1.6,122.297408 L1.6,75.3829132 L5.30377588,71.0458389 L24.4399513,67.7737976 L24.4399513,74.6875126 L20.7361754,79.0245868 L12.7113276,80.3967332 L12.7113276,89.7796321 L21.9707674,88.1963862 L21.9707674,95.1101012 L18.2669915,99.4471754 L12.7113276,100.397123 L12.7113276,116.693737 L9.00755177,121.030811 L1.6,122.297408 Z M34.316687,116.703272 L34.316687,69.7887779 L38.0204629,65.4517037 L45.4280146,64.1851071 L45.4280146,111.099602 L41.7242387,115.436676 L34.316687,116.703272 Z M6.53836784,116.514642 L11.4767357,115.670244 L11.4767357,95.6698545 L20.7361754,94.0866087 L20.7361754,89.6420776 L11.4767357,91.2253235 L11.4767357,75.6694648 L23.2053593,73.6640201 L23.2053593,69.219489 L6.53836784,72.0693315 L6.53836784,116.514642 Z M39.2550548,110.920507 L44.1934227,110.076109 L44.1934227,65.6307985 L39.2550548,66.4751962 L39.2550548,110.920507 Z M53.1442144,113.484006 L53.1442144,66.5695114 L56.8479903,62.2324372 L62.9592205,61.187495 L67.3420219,72.9074708 L67.3420219,64.1418679 L71.0457978,59.8047936 L78.4533496,58.538197 L78.4533496,105.452692 L74.7495737,109.789766 L68.5766139,110.845263 L64.255542,99.299921 L64.255542,107.880335 L60.5517661,112.217409 L53.1442144,113.484006 Z M58.0825822,107.70124 L63.0209501,106.856843 L63.0209501,78.3994979 L73.1446041,105.125827 L77.2187576,104.429199 L77.2187576,59.9838884 L72.2803898,60.8282862 L72.2803898,89.4090901 L62.0950061,62.5698566 L58.0825822,63.2559297 L58.0825822,107.70124 Z M86.1695493,107.837096 L86.1695493,60.9226014 L89.8733252,56.5855272 L97.280877,55.3189305 L97.280877,102.233425 L93.5771011,106.570499 L86.1695493,107.837096 Z M91.1079172,102.05433 L96.046285,101.209932 L96.046285,56.7646219 L91.1079172,57.6090197 L91.1079172,102.05433 Z M109.935445,103.773432 L109.935445,63.7726521 L101.601949,65.1975733 L101.601949,58.2838583 L105.305725,53.9467841 L129.380268,49.830345 L129.380268,56.74406 L125.676492,61.0811342 L121.046772,61.8727571 L121.046772,98.1697608 L117.342996,102.506835 L109.935445,103.773432 Z M114.873812,97.990666 L119.81218,97.1462682 L119.81218,57.1454887 L128.145676,55.7205675 L128.145676,51.2760364 L106.540317,54.9702766 L106.540317,59.4148077 L114.873812,57.9898865 L114.873812,97.990666 Z M133.70134,99.7097674 L133.70134,52.7952728 L137.405116,48.4581986 L144.812667,47.191602 L144.812667,94.1060965 L141.108892,98.4431707 L133.70134,99.7097674 Z M138.639708,93.9270017 L143.578076,93.082604 L143.578076,48.6372934 L138.639708,49.4816911 L138.639708,93.9270017 Z M162.096955,95.7804242 C159.051613,96.3011387 156.592742,95.7853514 154.720268,94.2330466 C152.847794,92.6807419 151.911571,90.3819529 151.911571,87.3366109 L151.911571,58.9409958 C151.911571,55.8545004 152.837506,53.2270182 154.689403,51.0584703 L158.393179,46.7213961 C160.245076,44.5528481 162.714235,43.2047187 165.800731,42.6769675 C168.846073,42.1562529 171.304944,42.6720403 173.177418,44.224345 C175.049892,45.7766498 175.986114,48.0754387 175.986114,51.1207808 L175.986114,79.5163959 C175.986114,82.6028912 175.06018,85.2303734 173.208283,87.3989214 L169.504507,91.7359956 C167.652609,93.9045435 165.18345,95.2526729 162.096955,95.7804242 Z M165.800731,90.208758 C168.475693,89.7513736 170.636208,88.5589002 172.282339,86.631302 C173.928469,84.7037038 174.751523,82.4024579 174.751523,79.7274953 L174.751523,51.3318802 C174.751523,48.6569176 173.928469,46.6371348 172.282339,45.2724713 C170.636208,43.9078078 168.475693,43.454175 165.800731,43.9115594 C163.125768,44.3689439 160.965254,45.5614173 159.319123,47.4890154 C157.672992,49.4166136 156.849939,51.7178595 156.849939,54.3928221 L156.849939,82.7884372 C156.849939,85.4633998 157.672992,87.4831826 159.319123,88.8478461 C160.965254,90.2125096 163.125768,90.6661424 165.800731,90.208758 Z M165.800731,85.7642269 C164.607286,85.9682907 163.640199,85.7632764 162.89944,85.1491778 C162.158681,84.5350793 161.788307,83.6313211 161.788307,82.4378762 L161.788307,53.0545876 C161.788307,51.8611427 162.158681,50.8307261 162.89944,49.963307 C163.640199,49.0958878 164.607286,48.5601543 165.800731,48.3560905 C166.994176,48.1520267 167.961263,48.357041 168.702022,48.9711396 C169.442781,49.5852382 169.813155,50.4889963 169.813155,51.6824412 L169.813155,81.0657299 C169.813155,82.2591747 169.442781,83.2895913 168.702022,84.1570105 C167.961263,85.0244296 166.994176,85.5601631 165.800731,85.7642269 Z M164.874787,84.5645003 L164.874787,56.2306148 C164.874787,54.8725569 164.257497,54.0933235 163.022899,53.8928913 L163.022899,82.2267768 C163.022899,83.5848347 163.640189,84.3640681 164.874787,84.5645003 Z M183.085018,91.2657897 L183.085018,44.3512951 L186.788794,40.0142209 L192.900024,38.9692787 L197.282826,50.6892545 L197.282826,41.9236516 L200.986602,37.5865774 L208.394153,36.3199807 L208.394153,83.2344752 L204.690378,87.5715494 L198.517418,88.6270466 L194.196346,77.0817047 L194.196346,85.6621188 L190.49257,89.999193 L183.085018,91.2657897 Z M188.023386,85.4830241 L192.961754,84.6386263 L192.961754,56.1812816 L203.085408,82.9076109 L207.159562,82.2109827 L207.159562,37.7656721 L202.221194,38.6100699 L202.221194,67.1908738 L192.03581,40.3516403 L188.023386,41.0377135 L188.023386,85.4830241 Z M239.258952,45.8575982 L235.555177,50.1946724 L229.382217,51.2501696 C229.834903,51.6254521 230.843143,52.4201433 232.406967,53.6342671 C233.970791,54.8483909 235.123066,55.8139292 235.863825,56.5309109 C236.604583,57.2478927 237.355619,58.3746311 238.116955,59.9111599 C238.87829,61.4476888 239.258952,63.1418764 239.258952,64.9937736 L239.258952,68.6975495 C239.258952,71.7840448 238.333018,74.411527 236.481121,76.580075 L232.777345,80.9171492 C230.925448,83.0856971 228.456288,84.4338265 225.369793,84.9615777 C222.324451,85.4822923 219.86558,84.9665049 217.993106,83.4142002 C216.120632,81.8618955 215.184409,79.5631065 215.184409,76.5177645 L215.184409,70.9621006 L218.888185,66.6250264 L225.061145,65.5695292 C224.608459,65.1942468 223.600219,64.3995555 222.036395,63.1854317 C220.47257,61.9713079 219.320296,61.0057696 218.579537,60.2887879 C217.838778,59.5718061 217.087742,58.4450677 216.326407,56.9085389 C215.565071,55.3720101 215.184409,53.6778224 215.184409,51.8259252 L215.184409,48.1221494 C215.184409,45.035654 216.110344,42.4081718 217.962241,40.2396238 L221.666017,35.9025496 C223.517914,33.7340017 225.987073,32.3858723 229.073569,31.8581211 C232.118911,31.3374065 234.577782,31.8531939 236.450256,33.4054986 C238.32273,34.9578034 239.258952,37.2565923 239.258952,40.3019344 L239.258952,45.8575982 Z M229.073569,37.5372441 C230.267014,37.3331803 231.234101,37.5381946 231.97486,38.1522932 C232.715619,38.7663918 233.085993,39.6701499 233.085993,40.8635948 L233.085993,45.6785034 L238.024361,44.8341057 L238.024361,40.5130338 C238.024361,37.8380712 237.201307,35.8182884 235.555177,34.4536249 C233.909046,33.0889614 231.748531,32.6353286 229.073569,33.092713 C226.398606,33.5500974 224.238092,34.7425709 222.591961,36.670169 C220.94583,38.5977672 220.122777,40.8990131 220.122777,43.5739757 L220.122777,47.216022 C220.122777,49.2325323 220.565168,51.0190467 221.449963,52.5756187 C222.334759,54.1321908 223.415016,55.3981117 224.690767,56.3734193 C225.966519,57.348727 227.242251,58.2931556 228.518002,59.2067334 C229.793754,60.1203111 230.874011,61.2010451 231.758806,62.4489676 C232.643602,63.6968901 233.085993,65.1027425 233.085993,66.6665668 L233.085993,70.2468835 C233.085993,71.4403283 232.715619,72.4707449 231.97486,73.3381641 C231.234101,74.2055832 230.267014,74.7413167 229.073569,74.9453805 C227.880124,75.1494443 226.913037,74.94443 226.172278,74.3303314 C225.431519,73.7162329 225.061145,72.8124747 225.061145,71.6190298 L225.061145,66.8041212 L220.122777,67.6485189 L220.122777,71.9695908 C220.122777,74.6445534 220.94583,76.6643362 222.591961,78.0289997 C224.238092,79.3936632 226.398606,79.847296 229.073569,79.3899116 C231.748531,78.9325272 233.909046,77.7400538 235.555177,75.8124556 C237.201307,73.8848574 238.024361,71.5836115 238.024361,68.9086489 L238.024361,65.2666026 C238.024361,63.2500923 237.58197,61.463578 236.697174,59.9070059 C235.812379,58.3504338 234.732122,57.0845129 233.45637,56.1092053 C232.180619,55.1338976 230.904887,54.189469 229.629135,53.2758912 C228.353384,52.3623135 227.273127,51.2815795 226.388331,50.033657 C225.503536,48.7857345 225.061145,47.3798821 225.061145,45.8160578 L225.061145,42.2357412 C225.061145,41.0422963 225.431519,40.0118797 226.172278,39.1444605 C226.913037,38.2770414 227.880124,37.7413079 229.073569,37.5372441 Z M228.147625,45.4117684 C228.147625,44.0537105 227.530335,43.2744771 226.295737,43.0740449 L226.295737,45.6049584 C226.295737,47.2510892 226.913027,48.7504941 228.147625,50.1032179 L228.147625,45.4117684 Z M226.295737,71.4079304 C226.295737,72.7659883 226.913027,73.5452217 228.147625,73.7456539 L228.147625,71.2147404 C228.147625,69.5686096 227.530335,68.0692047 226.295737,66.7164809 L226.295737,71.4079304 Z M255,67.8579195 L255,74.2160681 L252.777734,80.5838181 L249.073959,84.9208923 L243.888672,85.80751 L243.888672,73.4615904 L247.592448,69.1245162 L255,67.8579195 Z M253.765408,74.2419788 L253.765408,69.3036109 L248.82704,70.1480087 L248.82704,80.0247444 L251.91352,79.4969958 L253.765408,74.2419788 Z" id="finitions," fill="#AB172B"></path>
                <path d="M10.7362912,170.518893 L7.00749881,171.174112 L1,142.730852 L5.47455083,141.944589 L8.83046396,161.946112 L8.91332601,161.931551 L12.3106702,140.743354 L16.785221,139.957091 L10.7362912,170.518893 Z M19.0639274,146.517092 C19.0639274,145.329396 19.2710805,144.24342 19.6853928,143.259131 C20.0997052,142.274841 20.6452082,141.42633 21.3219184,140.713571 C21.9986285,140.000813 22.7581897,139.418512 23.6006248,138.966651 C24.4430599,138.514791 25.2923874,138.213635 26.1486329,138.063177 C27.0048784,137.912719 27.854206,137.915388 28.696641,138.071185 C29.5390761,138.226983 30.2986373,138.542345 30.9753475,139.017282 C31.6520576,139.492219 32.1975607,140.14902 32.611873,140.987704 C33.0261854,141.826389 33.2333384,142.839564 33.2333384,144.027259 L33.2333384,159.605325 C33.2333384,160.820641 33.0261854,161.913523 32.611873,162.884002 C32.1975607,163.854481 31.6520576,164.696087 30.9753475,165.408846 C30.2986373,166.121604 29.5390761,166.703905 28.696641,167.155766 C27.854206,167.607626 27.0048784,167.908782 26.1486329,168.05924 C25.2923874,168.209698 24.4430599,168.207029 23.6006248,168.051232 C22.7581897,167.895434 21.9986285,167.580072 21.3219184,167.105135 C20.6452082,166.630198 20.0997052,165.980302 19.6853928,165.155428 C19.2710805,164.330554 19.0639274,163.310474 19.0639274,162.095158 L19.0639274,146.517092 Z M23.2898921,161.352576 C23.2898921,162.374546 23.5730013,163.077455 24.1392282,163.461323 C24.705455,163.84519 25.3752499,163.969173 26.1486329,163.833275 C26.922016,163.697377 27.5918108,163.338003 28.1580377,162.755142 C28.7242646,162.172281 29.0073737,161.369877 29.0073737,160.347907 L29.0073737,144.769841 C29.0073737,143.74787 28.7242646,143.044962 28.1580377,142.661094 C27.5918108,142.277227 26.922016,142.153244 26.1486329,142.289142 C25.3752499,142.42504 24.705455,142.784414 24.1392282,143.367275 C23.5730013,143.950136 23.2898921,144.75254 23.2898921,145.77451 L23.2898921,161.352576 Z M50.6343694,156.879084 C50.6343694,157.845813 50.4548368,158.775023 50.0957661,159.666744 C49.7366954,160.558464 49.2464332,161.369648 48.6249647,162.10032 C48.0034962,162.830992 47.2784605,163.448657 46.4498358,163.953333 C45.6212111,164.458008 44.7373581,164.792851 43.7982501,164.95787 C42.8591422,165.122889 41.9752891,165.098666 41.1466644,164.8852 C40.3180398,164.671734 39.5930041,164.308874 38.9715356,163.79661 C38.3500671,163.284345 37.8598048,162.645457 37.5007341,161.879928 C37.1416634,161.114399 36.9621308,160.248283 36.9621308,159.281554 L36.9621308,136.411628 L41.1880955,135.669046 L41.1880955,158.124662 C41.1880955,159.174254 41.4366791,159.903944 41.9338539,160.313756 C42.4310287,160.723568 43.0524879,160.862949 43.7982501,160.731905 C44.5440123,160.60086 45.1654715,160.243075 45.6626463,159.658537 C46.1598211,159.073999 46.4084048,158.256947 46.4084048,157.207356 L46.4084048,134.751739 L50.6343694,134.009158 L50.6343694,156.879084 Z M68.2839866,139.401148 L64.0580219,140.143729 L64.0580219,139.190816 C64.0580219,138.224087 63.8301536,137.42861 63.37441,136.804362 C62.9186664,136.180114 62.1522001,135.962636 61.0749881,136.151923 C60.4949508,136.253846 60.0184988,136.448049 59.6456177,136.734538 C59.2727366,137.021027 58.9827223,137.355097 58.7755661,137.736759 C58.5684099,138.11842 58.4234028,138.544397 58.3405403,139.014701 C58.2576779,139.485005 58.2162472,139.968737 58.2162472,140.465912 C58.2162472,141.045949 58.2369626,141.532571 58.2783938,141.925793 C58.319825,142.319015 58.4234015,142.646069 58.5891265,142.906967 C58.7548514,143.167865 58.99653,143.380886 59.3141694,143.546037 C59.6318089,143.711189 60.0668303,143.85571 60.6192468,143.979607 L63.8508668,144.696112 C64.7899748,144.890164 65.549536,145.177906 66.1295733,145.559347 C66.7096105,145.940788 67.1584422,146.428138 67.4760816,147.021412 C67.7937211,147.614686 68.0077792,148.322823 68.1182625,149.145844 C68.2287458,149.968865 68.2839866,150.918968 68.2839866,151.99618 C68.2839866,153.239117 68.1596948,154.414109 67.9111074,155.521192 C67.66252,156.628275 67.255119,157.611337 66.6888921,158.470406 C66.1226653,159.329476 65.3700091,160.062475 64.4309012,160.669427 C63.4917932,161.27638 62.3455463,161.69876 60.992126,161.936581 C59.9701556,162.116161 59.0172515,162.104071 58.1333852,161.900313 C57.2495189,161.696554 56.4899577,161.339761 55.8546788,160.829923 C55.2193998,160.320085 54.7153274,159.669814 54.3424463,158.879091 C53.9695652,158.088368 53.7831274,157.195845 53.7831274,156.201495 L53.7831274,154.627116 L58.0090921,153.884534 L58.0090921,155.210327 C58.0090921,155.98371 58.2369605,156.641085 58.692704,157.18247 C59.1484476,157.723856 59.9149139,157.899903 60.992126,157.710617 C61.7102674,157.584426 62.2695806,157.382567 62.6700826,157.105035 C63.0705845,156.827504 63.374409,156.484102 63.5815651,156.074819 C63.7887213,155.665537 63.9199183,155.179841 63.9751599,154.617718 C64.0304015,154.055594 64.0580219,153.443092 64.0580219,152.780192 C64.0580219,152.006809 64.0304015,151.376393 63.9751599,150.888925 C63.9199183,150.401458 63.8025315,150.021589 63.6229962,149.749308 C63.4434608,149.477026 63.1948772,149.272123 62.8772377,149.134593 C62.5595982,148.997062 62.138387,148.863924 61.6135914,148.735174 L58.5891265,148.023699 C56.7661522,147.598267 55.5439492,146.825602 54.9224807,145.705679 C54.3010122,144.585756 53.9902826,143.10052 53.9902826,141.249924 C53.9902826,140.145092 54.1421948,139.068822 54.4460239,138.021084 C54.7498529,136.973346 55.1986845,136.038245 55.7925322,135.215754 C56.3863799,134.393262 57.139036,133.687883 58.0505231,133.099594 C58.9620103,132.511306 60.025396,132.110391 61.2407122,131.896837 C62.2903034,131.712404 63.2501126,131.73709 64.1201685,131.970897 C64.9902244,132.204703 65.7359754,132.584638 66.3574439,133.110713 C66.9789124,133.636788 67.4553644,134.264292 67.7868143,134.993244 C68.1182642,135.722195 68.2839866,136.500972 68.2839866,137.329596 L68.2839866,139.401148 Z M79.1389155,129.000372 L91.7339475,126.787187 L91.7339475,130.764566 L83.3648802,132.235168 L83.3648802,140.894253 L90.6567408,139.612936 L90.6567408,143.590314 L83.3648802,144.871631 L83.3648802,153.530716 L91.7339475,152.060113 L91.7339475,156.286078 L79.1389155,158.499262 L79.1389155,129.000372 Z M83.2820181,121.104783 L87.1765346,120.420443 L91.2367752,125.548757 L88.0051551,126.116613 L85.2292764,122.66844 L82.4533976,127.092162 L79.2217776,127.660018 L83.2820181,121.104783 Z M97.244274,129.796297 L92.3554129,130.655362 L92.3554129,126.677984 L106.3591,124.217272 L106.3591,128.194651 L101.470239,129.053716 L101.470239,154.575228 L97.244274,155.31781 L97.244274,129.796297 Z M108.223496,123.889663 L120.818528,121.676478 L120.818528,125.653857 L112.449461,127.124459 L112.449461,135.783544 L119.741321,134.502227 L119.741321,138.479605 L112.449461,139.760922 L112.449461,148.420007 L120.818528,146.949404 L120.818528,151.175369 L108.223496,153.388553 L108.223496,123.889663 Z M137.225214,127.286874 L132.99925,128.029456 L132.99925,127.076542 C132.99925,126.109814 132.771381,125.314337 132.315638,124.690089 C131.859894,124.065841 131.093428,123.848363 130.016216,124.037649 C129.436178,124.139573 128.959726,124.333776 128.586845,124.620265 C128.213964,124.906754 127.92395,125.240824 127.716794,125.622485 C127.509638,126.004147 127.36463,126.430123 127.281768,126.900427 C127.198906,127.370732 127.157475,127.854464 127.157475,128.351639 C127.157475,128.931676 127.17819,129.418298 127.219621,129.81152 C127.261053,130.204741 127.364629,130.531796 127.530354,130.792694 C127.696079,131.053591 127.937758,131.266613 128.255397,131.431764 C128.573037,131.596915 129.008058,131.741437 129.560474,131.865334 L132.792094,132.581839 C133.731202,132.775891 134.490764,133.063633 135.070801,133.445074 C135.650838,133.826514 136.09967,134.313865 136.417309,134.907139 C136.734949,135.500413 136.949007,136.20855 137.05949,137.031571 C137.169973,137.854592 137.225214,138.804694 137.225214,139.881906 C137.225214,141.124843 137.100922,142.299836 136.852335,143.406919 C136.603748,144.514002 136.196347,145.497064 135.63012,146.356133 C135.063893,147.215202 134.311237,147.948202 133.372129,148.555154 C132.433021,149.162106 131.286774,149.584487 129.933354,149.822308 C128.911383,150.001888 127.958479,149.989798 127.074613,149.78604 C126.190747,149.582281 125.431185,149.225488 124.795906,148.71565 C124.160628,148.205812 123.656555,147.555541 123.283674,146.764818 C122.910793,145.974094 122.724355,145.081571 122.724355,144.087222 L122.724355,142.512843 L126.95032,141.770261 L126.95032,143.096054 C126.95032,143.869437 127.178188,144.526811 127.633932,145.068197 C128.089675,145.609583 128.856142,145.78563 129.933354,145.596344 C130.651495,145.470153 131.210808,145.268294 131.61131,144.990762 C132.011812,144.71323 132.315637,144.369828 132.522793,143.960546 C132.729949,143.551264 132.861146,143.065568 132.916388,142.503445 C132.971629,141.941321 132.99925,141.328819 132.99925,140.665919 C132.99925,139.892536 132.971629,139.26212 132.916388,138.774652 C132.861146,138.287184 132.743759,137.907316 132.564224,137.635034 C132.384689,137.362753 132.136105,137.15785 131.818465,137.02032 C131.500826,136.882789 131.079615,136.749651 130.554819,136.620901 L127.530354,135.909425 C125.70738,135.483994 124.485177,134.711329 123.863708,133.591406 C123.24224,132.471483 122.93151,130.986246 122.93151,129.135651 C122.93151,128.030818 123.083422,126.954549 123.387252,125.906811 C123.691081,124.859073 124.139912,123.923972 124.73376,123.10148 C125.327608,122.278989 126.080264,121.573609 126.991751,120.985321 C127.903238,120.397033 128.966624,119.996118 130.18194,119.782564 C131.231531,119.598131 132.19134,119.622817 133.061396,119.856624 C133.931452,120.09043 134.677203,120.470365 135.298672,120.99644 C135.92014,121.522515 136.396592,122.150019 136.728042,122.878971 C137.059492,123.607922 137.225214,124.386698 137.225214,125.215323 L137.225214,127.286874 Z M148.080143,116.886098 L154.41909,115.772226 C155.579165,115.568379 156.60112,115.540714 157.484986,115.689231 C158.368852,115.837749 159.169844,116.235597 159.887986,116.882789 C160.606127,117.529981 161.103294,118.347188 161.379503,119.334434 C161.655711,120.32168 161.793813,121.699148 161.793813,123.466881 C161.793813,124.765059 161.717857,125.890128 161.565942,126.84212 C161.414028,127.794111 161.089488,128.714277 160.592313,129.602644 C160.012276,130.671296 159.238904,131.559848 158.272176,132.268327 C157.305447,132.976805 156.034908,133.469362 154.460521,133.746011 L152.306108,134.124582 L152.306108,145.642407 L148.080143,146.384989 L148.080143,116.886098 Z M152.306108,130.147204 L154.336228,129.790473 C155.192474,129.640015 155.855363,129.399241 156.324917,129.068144 C156.794471,128.737047 157.139726,128.338029 157.360693,127.871078 C157.58166,127.404128 157.712857,126.863191 157.754288,126.248253 C157.795719,125.633314 157.816434,124.952974 157.816434,124.207212 C157.816434,123.516692 157.795719,122.864347 157.754288,122.250159 C157.712857,121.635971 157.588565,121.119213 157.381409,120.699871 C157.174252,120.280528 156.849713,119.978491 156.407779,119.793749 C155.965846,119.609007 155.330577,119.589439 154.501952,119.735044 L152.306108,120.120895 L152.306108,130.147204 Z M164.942571,113.923052 L169.168536,113.18047 L169.168536,138.453396 L177.537603,136.982793 L177.537603,141.208758 L164.942571,143.421943 L164.942571,113.923052 Z M193.944289,131.69683 C193.944289,132.663559 193.764757,133.592769 193.405686,134.484489 C193.046615,135.37621 192.556353,136.187394 191.934884,136.918066 C191.313416,137.648738 190.58838,138.266403 189.759756,138.771078 C188.931131,139.275754 188.047278,139.610596 187.10817,139.775615 C186.169062,139.940634 185.285209,139.916411 184.456584,139.702946 C183.62796,139.48948 182.902924,139.12662 182.281455,138.614355 C181.659987,138.10209 181.169725,137.463203 180.810654,136.697674 C180.451583,135.932145 180.272051,135.066029 180.272051,134.0993 L180.272051,111.229373 L184.498015,110.486792 L184.498015,132.942408 C184.498015,133.991999 184.746599,134.72169 185.243774,135.131502 C185.740949,135.541313 186.362408,135.680695 187.10817,135.549651 C187.853932,135.418606 188.475391,135.06082 188.972566,134.476283 C189.469741,133.891745 189.718325,133.074693 189.718325,132.025101 L189.718325,109.569485 L193.944289,108.826903 L193.944289,131.69683 Z M200.697547,111.617607 L195.808685,112.476672 L195.808685,108.499294 L209.812372,106.038582 L209.812372,110.015961 L204.923511,110.875026 L204.923511,136.396538 L200.697547,137.139119 L200.697547,111.617607 Z M211.428182,112.715066 C211.428182,111.527371 211.635335,110.441395 212.049648,109.457105 C212.46396,108.472815 213.009463,107.624304 213.686173,106.911546 C214.362883,106.198787 215.122445,105.616486 215.96488,105.164626 C216.807315,104.712765 217.656642,104.41161 218.512888,104.261151 C219.369133,104.110693 220.218461,104.113362 221.060896,104.26916 C221.903331,104.424957 222.662892,104.740319 223.339602,105.215256 C224.016312,105.690193 224.561816,106.346994 224.976128,107.185679 C225.39044,108.024363 225.597593,109.037538 225.597593,110.225234 L225.597593,125.803299 C225.597593,127.018616 225.39044,128.111497 224.976128,129.081976 C224.561816,130.052455 224.016312,130.894062 223.339602,131.60682 C222.662892,132.319578 221.903331,132.901879 221.060896,133.35374 C220.218461,133.805601 219.369133,134.106756 218.512888,134.257214 C217.656642,134.407673 216.807315,134.405003 215.96488,134.249206 C215.122445,134.093409 214.362883,133.778046 213.686173,133.303109 C213.009463,132.828173 212.46396,132.178277 212.049648,131.353402 C211.635335,130.528528 211.428182,129.508448 211.428182,128.293132 L211.428182,112.715066 Z M215.654147,127.55055 C215.654147,128.572521 215.937256,129.275429 216.503483,129.659297 C217.06971,130.043165 217.739505,130.167148 218.512888,130.03125 C219.286271,129.895352 219.956066,129.535978 220.522293,128.953116 C221.088519,128.370255 221.371629,127.567852 221.371629,126.545881 L221.371629,110.967815 C221.371629,109.945845 221.088519,109.242936 220.522293,108.859069 C219.956066,108.475201 219.286271,108.351218 218.512888,108.487116 C217.739505,108.623014 217.06971,108.982388 216.503483,109.565249 C215.937256,110.14811 215.654147,110.950514 215.654147,111.972485 L215.654147,127.55055 Z M216.56563,97.68434 L220.460146,97 L224.520387,102.128314 L221.288767,102.69617 L218.512888,99.2479972 L215.737009,103.671719 L212.505389,104.239575 L216.56563,97.68434 Z M232.102264,106.099206 L227.213403,106.958271 L227.213403,102.980893 L241.21709,100.520181 L241.21709,104.49756 L236.328229,105.356625 L236.328229,130.878137 L232.102264,131.620719 L232.102264,106.099206 Z M242.438477,128.621181 L243.621747,128.413258 L243.621747,129.596528 L242.438477,129.804451 L242.438477,128.621181 Z M246.301506,127.942374 L247.484776,127.734451 L247.484776,128.917721 L246.301506,129.125644 L246.301506,127.942374 Z M250.164535,127.263567 L251.347805,127.055644 L251.347805,128.238914 L250.164535,128.446837 L250.164535,127.263567 Z" id="Vous-êtes-plutôt…" fill="#4A4A4A"></path>
            </g>
        </g>
    </g>
</svg>