<?xml version="1.0" encoding="UTF-8"?>
<svg width="253px" height="208px" viewBox="0 0 253 208" version="1.1" xmlns="http://www.w3.org/2000/svg" xmlns:xlink="http://www.w3.org/1999/xlink">
    <!-- Generator: Sketch 49 (51002) - http://www.bohemiancoding.com/sketch -->
    <title>Group 2</title>
    <desc>Created with Sketch.</desc>
    <defs></defs>
    <g id="Page-1" stroke="none" stroke-width="1" fill="none" fill-rule="evenodd">
        <g id="01_QUESTION-01.1-Copy" transform="translate(-514.000000, -253.000000)" fill="#FFFFFF">
            <g id="Contenu" transform="translate(318.000000, 157.000000)">
                <g id="Group">
                    <g id="Group-2" transform="translate(196.000000, 96.000000)">
                        <g id="Group-3-Copy" transform="translate(0.000000, 61.000000)">
                            <path d="M14.95,117.101378 C10.5099778,117.887996 6.92501365,117.158141 4.195,114.911791 C1.46498635,112.665442 0.1,109.322306 0.1,104.882283 L0.1,63.4822835 C0.1,58.982261 1.4499865,55.1431261 4.15,51.9647638 L9.55,45.6080709 C12.2500135,42.4297085 15.8499775,40.4419331 20.35,39.644685 C24.7900222,38.8580669 28.3749864,39.5879218 31.105,41.8342717 C33.8350136,44.0806215 35.2,47.4237573 35.2,51.8637795 L35.2,59.9637795 L29.8,66.3204724 L19,68.2338583 L19,59.4138583 C19,57.4338484 18.100009,56.3033085 16.3,56.0222047 L16.3,97.3322047 C16.3,99.3122146 17.199991,100.442754 19,100.723858 L19,93.4338583 L24.4,87.0771654 L35.2,85.1637795 L35.2,93.2637795 C35.2,97.763802 33.8500135,101.602937 31.15,104.781299 L25.75,111.137992 C23.0499865,114.316354 19.4500225,116.30413 14.95,117.101378 Z M20.35,108.944685 C24.2500195,108.253737 27.399988,106.495683 29.8,103.670472 C32.200012,100.845261 33.4,97.4826967 33.4,93.5826772 L33.4,87.2826772 L26.2,88.5582677 L26.2,95.5782677 C26.2,97.3182764 25.6600054,98.8239307 24.58,100.095276 C23.4999946,101.366621 22.0900087,102.156416 20.35,102.464685 C18.6099913,102.772954 17.2000054,102.48276 16.12,101.594094 C15.0399946,100.705429 14.5,99.3911111 14.5,97.6511024 L14.5,54.8111024 C14.5,53.0710937 15.0399946,51.5654394 16.12,50.2940945 C17.2000054,49.0227495 18.6099913,48.2329543 20.35,47.924685 C22.0900087,47.6164158 23.4999946,47.9066097 24.58,48.7952756 C25.6600054,49.6839415 26.2,50.998259 26.2,52.7382677 L26.2,59.7582677 L33.4,58.4826772 L33.4,52.1826772 C33.4,48.2826577 32.200012,45.3452855 29.8,43.3704724 C27.399988,41.3956594 24.2500195,40.7537367 20.35,41.444685 C16.4499805,42.1356334 13.300012,43.8936867 10.9,46.7188976 C8.499988,49.5441086 7.3,52.9066734 7.3,56.8066929 L7.3,98.2066929 C7.3,102.106712 8.499988,105.044085 10.9,107.018898 C13.300012,108.993711 16.4499805,109.635633 20.35,108.944685 Z M54,110.183071 C49.5599778,110.969689 45.9750136,110.239834 43.245,107.993484 C40.5149863,105.747134 39.15,102.403999 39.15,97.9639764 L39.15,43.0639764 L44.55,36.7072835 L55.35,34.7938976 L55.35,90.4138976 C55.35,92.3939075 56.249991,93.5244474 58.05,93.8055512 L58.05,39.7155512 L63.45,33.3588583 L74.25,31.4454724 L74.25,86.3454724 C74.25,90.8454949 72.9000135,94.6846298 70.2,97.8629921 L64.8,104.219685 C62.0999865,107.398047 58.5000225,109.385823 54,110.183071 Z M59.4,102.026378 C63.3000195,101.33543 66.449988,99.5773763 68.85,96.7521654 C71.250012,93.9269544 72.45,90.5643896 72.45,86.6643701 L72.45,33.5643701 L65.25,34.8399606 L65.25,88.6599606 C65.25,90.3999693 64.7100054,91.9056236 63.63,93.1769685 C62.5499946,94.4483134 61.1400087,95.2381087 59.4,95.546378 C57.6599913,95.8546472 56.2500054,95.5644533 55.17,94.6757874 C54.0899946,93.7871215 53.55,92.472804 53.55,90.7327953 L53.55,36.9127953 L46.35,38.1883858 L46.35,91.2883858 C46.35,95.1884053 47.549988,98.1257775 49.95,100.100591 C52.350012,102.075404 55.4999805,102.717326 59.4,102.026378 Z M81.8,103.907874 L81.8,35.507874 L87.2,29.1511811 L98,27.2377953 L98,95.6377953 L92.6,101.994488 L81.8,103.907874 Z M89,95.4322835 L96.2,94.1566929 L96.2,29.3566929 L89,30.6322835 L89,95.4322835 Z M139.75,41.4411417 L134.35,47.7978346 L125.35,49.3923228 C126.010003,49.9353964 127.479989,51.0849518 129.76,52.8410236 C132.040011,54.5970954 133.719995,55.9944436 134.8,57.0331102 C135.880005,58.0717768 136.974994,59.7077644 138.085,61.941122 C139.195006,64.1744797 139.75,66.6411282 139.75,69.3411417 L139.75,74.7411417 C139.75,79.2411642 138.400014,83.0802991 135.7,86.2586614 L130.3,92.6153543 C127.599987,95.7937167 124.000022,97.7814921 119.5,98.5787402 C115.059978,99.3653583 111.475014,98.6355034 108.745,96.3891535 C106.014986,94.1428037 104.65,90.7996679 104.65,86.3596457 L104.65,78.2596457 L110.05,71.9029528 L119.05,70.3084646 C118.389997,69.765391 116.920011,68.6158356 114.64,66.8597638 C112.359989,65.103692 110.680005,63.7063438 109.6,62.6676772 C108.519995,61.6290106 107.425006,59.993023 106.315,57.7596654 C105.204994,55.5263077 104.65,53.0596592 104.65,50.3596457 L104.65,44.9596457 C104.65,40.4596232 105.999986,36.6204883 108.7,33.442126 L114.1,27.0854331 C116.800013,23.9070707 120.399978,21.9192953 124.9,21.1220472 C129.340022,20.3354291 132.924986,21.065284 135.655,23.3116339 C138.385014,25.5579837 139.75,28.9011195 139.75,33.3411417 L139.75,41.4411417 Z M124.9,29.4020472 C126.640009,29.093778 128.049995,29.3839719 129.13,30.2726378 C130.210005,31.1613037 130.75,32.4756212 130.75,34.2156299 L130.75,41.2356299 L137.95,39.9600394 L137.95,33.6600394 C137.95,29.7600199 136.750012,26.8226477 134.35,24.8478346 C131.949988,22.8730216 128.800019,22.2310989 124.9,22.9220472 C120.99998,23.6129956 117.850012,25.3710489 115.45,28.1962598 C113.049988,31.0214708 111.85,34.3840356 111.85,38.2840551 L111.85,43.5940551 C111.85,46.5340698 112.494994,49.1347722 113.785,51.3962402 C115.075006,53.6577082 116.649991,55.4936544 118.51,56.9041339 C120.370009,58.3146134 122.229991,59.6800721 124.09,61.0005512 C125.950009,62.3210302 127.524994,63.8869791 128.815,65.6984449 C130.105006,67.5099106 130.75,69.5556185 130.75,71.8356299 L130.75,77.0556299 C130.75,78.7956386 130.210005,80.3012929 129.13,81.5726378 C128.049995,82.8439827 126.640009,83.633778 124.9,83.9420472 C123.159991,84.2503165 121.750005,83.9601226 120.67,83.0714567 C119.589995,82.1827908 119.05,80.8684733 119.05,79.1284646 L119.05,72.1084646 L111.85,73.3840551 L111.85,79.6840551 C111.85,83.5840746 113.049988,86.5214468 115.45,88.4962598 C117.850012,90.4710729 120.99998,91.1129956 124.9,90.4220472 C128.800019,89.7310989 131.949988,87.9730456 134.35,85.1478346 C136.750012,82.3226237 137.95,78.9600589 137.95,75.0600394 L137.95,69.7500394 C137.95,66.8100247 137.305006,64.2093223 136.015,61.9478543 C134.724994,59.6863863 133.150009,57.8504401 131.29,56.4399606 C129.429991,55.0294811 127.570009,53.6640224 125.71,52.3435433 C123.849991,51.0230643 122.275006,49.4571154 120.985,47.6456496 C119.694994,45.8341839 119.05,43.788476 119.05,41.5084646 L119.05,36.2884646 C119.05,34.5484559 119.589995,33.0428016 120.67,31.7714567 C121.750005,30.5001118 123.159991,29.7103165 124.9,29.4020472 Z M123.55,40.8912205 C123.55,38.9112106 122.650009,37.7806707 120.85,37.4995669 L120.85,41.1895669 C120.85,43.5895789 121.749991,45.7701083 123.55,47.7312205 L123.55,40.8912205 Z M120.85,78.8095669 C120.85,80.7895768 121.749991,81.9201167 123.55,82.2012205 L123.55,78.5112205 C123.55,76.1112085 122.650009,73.9306791 120.85,71.9695669 L120.85,78.8095669 Z M146.4,92.4629921 L146.4,24.0629921 L151.8,17.7062992 L162.6,15.7929134 L162.6,84.1929134 L157.2,90.5496063 L146.4,92.4629921 Z M153.6,83.9874016 L160.8,82.711811 L160.8,17.911811 L153.6,19.1874016 L153.6,83.9874016 Z M170.6,88.1755906 L170.6,19.7755906 L176,13.4188976 L184.91,11.8403543 L191.3,28.8882677 L191.3,16.1082677 L196.7,9.7515748 L207.5,7.83818898 L207.5,76.238189 L202.1,82.5948819 L193.1,84.1893701 L186.8,67.3955118 L186.8,79.9055118 L181.4,86.2622047 L170.6,88.1755906 Z M177.8,79.7 L185,78.4244094 L185,36.9344094 L199.76,75.8094488 L205.7,74.7570866 L205.7,9.95708661 L198.5,11.2326772 L198.5,52.9026772 L183.65,13.8635827 L177.8,14.9 L177.8,79.7 Z M215.5,80.2208661 L215.5,11.8208661 L220.9,5.46417323 L248.8,0.521259843 L248.8,10.6012598 L243.4,16.9579528 L231.7,19.0307874 L231.7,32.7107874 L245.2,30.3190551 L245.2,40.3990551 L239.8,46.755748 L231.7,48.1907874 L231.7,61.8707874 L248.8,58.8412598 L248.8,68.9212598 L243.4,75.2779528 L215.5,80.2208661 Z M222.7,71.7452756 L247,67.4401575 L247,60.9601575 L229.9,63.989685 L229.9,41.309685 L243.4,38.9179528 L243.4,32.4379528 L229.9,34.829685 L229.9,12.149685 L247,9.12015748 L247,2.64015748 L222.7,6.94527559 L222.7,71.7452756 Z" id="Cuisine"></path>
                            <path d="M169.6,109.952756 C170.24,109.67937 171.24,109.422205 172.08,109.913386 C175.16,111.567717 175.28,112.626457 174.28,115.403622 C172.88,119.171654 170.28,122.072283 167.44,123.175433 C166.4,123.559685 165.24,122.845197 164.56,122.325669 C163.96,124.191969 164,125.984882 164.76,126.370236 C166.84,127.401732 172.52,124.035433 176.76,117.044252 C177.16,116.373386 179.24,117.564882 177.64,120.328346 C175.04,124.868976 168.24,130.313701 163.36,127.938268 C162.38155,127.484404 161.670609,126.998882 161.276523,126.117654 C158.108191,130.195055 154.907111,131.429597 153.04,129.926614 C152.36,129.327087 151.96,128.597953 151.84,127.819213 C149.52,130.990236 146.84,133.425039 144.12,131.186929 C141.52,129.047559 142.56,125.943307 145.6,120.804724 C147.2,118.08126 149.44,115.724409 151.2,114.532598 C152.6,113.564567 153.56,113.554488 154.84,114.327717 C155.28,114.569764 155.8,114.757638 156.2,115.046772 C157.96,112.054961 164.32,101.408189 166.24,98.9880315 C166.68,98.4300787 167.72,98.4458268 168.6,99.5699213 C169.4,100.508189 169.2,101.823622 168.68,102.915748 C168.12,104.174961 163.2,112.046614 158.08,118.753701 C158.08,118.753701 157.6,119.39874 157.16,120.116693 C156.2,121.686772 152.84,127.042047 154.12,128.295276 C155.372063,129.499414 159.043359,124.922397 161.347597,121.519214 C162.639209,117.14 166.596273,111.310112 169.6,109.952756 Z M151.36,123.224252 C154.56,118.497323 154.4,116.845669 154.08,116.622362 C153.4,116.182835 150.4,119.234331 147.84,123.367874 C146.2,126.098425 144.48,129.48315 144.92,129.965197 C145.28,130.381417 147.44,129.11874 151.36,123.224252 Z M229.56,112.129921 C226.72,116.193071 222.96,120.699213 219.4,117.649921 C218.859053,117.194976 218.504321,116.624814 218.321532,115.95029 C215.081052,119.366102 210.242058,122.103594 206.52,120.291811 C205.519532,119.827734 204.798747,119.330558 204.4104,118.411099 C201.012267,122.544287 197.141281,123.777758 195.36,122.748976 C192.16,120.835906 195.56,114.713543 198.2,110.245827 C197.4,110.307559 196.56,110.176378 195.76,109.59811 C194.44,112.271969 191.6,116.895118 190.36,118.754803 C189.84,119.566929 186.72,119.519685 187.8,118.008346 C191.2,113.245984 192.24,110.301732 192.96,108.414173 C192.44,107.946299 192.16,107.355906 192.4,106.393386 C193.24,102.964567 195.96,100.082677 197.24,100.255906 C198.84,100.452441 199.32,102.247402 198.36,105.13748 C198.2,105.645827 197.92,106.415433 197.08,108.044252 C198.12,108.18 199.6,106.957795 201.04,105.662677 C201.16,105.521417 201.28,105.500157 201.4,105.478898 C201.68,105.429291 201.92,105.546772 202.12,105.751339 C203.56,106.89622 203.64,108.682047 203.4,109.124567 C202.44,110.694646 195.76,119.79811 196.8,121.253858 C197.71878,122.539928 202.196504,117.388777 204.524109,113.817179 C205.832626,109.444365 209.768962,103.657921 212.76,102.306299 C213.4,102.032913 214.4,101.775748 215.24,102.266929 C218.32,103.92126 218.44,104.98 217.44,107.757165 C216.04,111.525197 213.44,114.425827 210.6,115.528976 C209.56,115.913228 208.4,115.19874 207.72,114.679213 C207.12,116.545512 207.16,118.338425 207.92,118.72378 C209.916419,119.713827 215.229331,116.652413 219.402221,110.222971 C219.849355,109.249706 220.412145,108.210125 221.08,107.112283 C223.2,103.616693 224.2,102.359528 224.84,101.486142 C226.08,99.9064567 228.08,102.152126 227.56,103.244252 L223.4,109.74126 C221.72,112.358898 220.08,115.649449 220.84,116.194803 C222.48,117.344252 226.56,111.381417 229.84,105.520315 C230.6,102.665669 231.8,99.7730709 233.16,99.692126 C233.68,99.68 235.64,100.092756 235.04,102.239055 C234.88,102.787402 233.36,106.096693 231.36,109.411024 C231.48,110.109764 231.68,110.874331 232.12,110.956378 C232.794562,111.082164 233.915697,110.329703 235.339271,108.310143 C236.662786,103.943381 240.580426,98.1960477 243.56,96.8496063 C244.2,96.5762205 245.2,96.3190551 246.04,96.8102362 C249.12,98.4645669 249.24,99.5233071 248.24,102.300472 C246.84,106.068504 244.24,108.969134 241.4,110.072283 C240.36,110.456535 239.2,109.742047 238.52,109.22252 C237.92,111.088819 237.96,112.881732 238.72,113.267087 C240.8,114.298583 246.48,110.932283 250.72,103.941102 C251.12,103.270236 253.2,104.461732 251.6,107.225197 C249,111.765827 242.2,117.210551 237.32,114.835118 C236.14985,114.292332 235.362298,113.704268 235.041752,112.448239 C233.282417,113.869169 231.126107,114.47948 229.56,112.129921 Z M166.8,118.168819 C169.2,114.343622 171.36,112.320945 171.72,112.537165 C172.04,112.720472 171.2,115.069291 169.24,117.736535 C167.76,119.75874 166.08,121.496378 165.48,121.282677 C165.12,121.146457 165.76,119.793071 166.8,118.168819 Z M219.76,98.5061417 C220.36,99.5598425 220.84,100.474803 221.44,101.528504 C221.84,102.257638 219.64,102.407402 219.16,101.692441 C218.92,101.374961 218.28,100.528346 217.8,99.7733858 C216.84,99.9434646 215.16,100.281102 214.64,100.333228 C213.68,100.423307 212.52,99.5088189 213.4,99.2329134 C214.72,98.8390551 216.68,98.291811 218,97.9379528 C218.64,97.7845669 219.48,98.035748 219.76,98.5061417 Z M209.96,110.522362 C208.92,112.146614 208.28,113.5 208.64,113.63622 C209.24,113.849921 210.92,112.112283 212.4,110.090079 C214.36,107.422835 215.2,105.074016 214.88,104.890709 C214.52,104.674488 212.36,106.697165 209.96,110.522362 Z M240.76,105.065669 C239.72,106.689921 239.08,108.043307 239.44,108.179528 C240.04,108.393228 241.72,106.655591 243.2,104.633386 C245.16,101.966142 246,99.6173228 245.68,99.4340157 C245.32,99.2177953 243.16,101.240472 240.76,105.065669 Z" id="de-rêve"></path>
                            <polygon id="Rectangle-2" points="0 144 130 120.968504 130 123.968504 0 147"></polygon>
                        </g>
                        <path d="M7.98297883,65.4399307 L4.92566779,65.9764053 L0,42.7264633 L3.66877325,42.0826938 L6.42035318,58.4324345 L6.48829343,58.4205128 L9.27384349,41.099157 L12.9426167,40.4553875 L7.98297883,65.4399307 Z M14.8109735,45.817424 C14.8109735,44.8465265 14.9808224,43.9587332 15.3205253,43.1540173 C15.6602282,42.3493014 16.1074971,41.6555491 16.6623452,41.0727397 C17.2171933,40.4899303 17.8399726,40.0137461 18.5307019,39.6441729 C19.2214312,39.2745996 19.9178117,39.0282212 20.6198645,38.9050301 C21.3219172,38.781839 22.0182977,38.7838259 22.709027,38.9109909 C23.3997563,39.0381559 24.0225356,39.2957785 24.5773837,39.6838666 C25.1322319,40.0719546 25.5795007,40.6087399 25.9192036,41.2942387 C26.2589065,41.9797374 26.4287554,42.8079231 26.4287554,43.7788205 L26.4287554,56.5133185 C26.4287554,57.506795 26.2589065,58.400233 25.9192036,59.1936594 C25.5795007,59.9870858 25.1322319,60.6751934 24.5773837,61.2580028 C24.0225356,61.8408122 23.3997563,62.3169964 22.709027,62.6865696 C22.0182977,63.0561429 21.3219172,63.3025213 20.6198645,63.4257124 C19.9178117,63.5489035 19.2214312,63.5469166 18.5307019,63.4197516 C17.8399726,63.2925866 17.2171933,63.034964 16.6623452,62.6468759 C16.1074971,62.2587879 15.6602282,61.7276473 15.3205253,61.053438 C14.9808224,60.3792288 14.8109735,59.5453984 14.8109735,58.551922 L14.8109735,45.817424 Z M18.275926,57.9439174 C18.275926,58.7793408 18.5080528,59.3538777 18.9723135,59.6675453 C19.4365742,59.9812129 19.9857523,60.0824105 20.6198645,59.9711412 C21.2539766,59.8598718 21.8031547,59.5659426 22.2674154,59.0893449 C22.7316761,58.6127472 22.9638029,57.9567464 22.9638029,57.1213231 L22.9638029,44.3868251 C22.9638029,43.5514017 22.7316761,42.9768648 22.2674154,42.6631972 C21.8031547,42.3495296 21.2539766,42.248332 20.6198645,42.3596014 C19.9857523,42.4708707 19.4365742,42.7647999 18.9723135,43.2413976 C18.5080528,43.7179953 18.275926,44.3739961 18.275926,45.2094194 L18.275926,57.9439174 Z M40.696207,54.2807172 C40.696207,55.0709825 40.5490046,55.8306193 40.2545954,56.5596504 C39.9601862,57.2886815 39.5582104,57.9519074 39.048656,58.549348 C38.5391016,59.1467886 37.9446304,59.6518735 37.2652246,60.0646178 C36.5858187,60.4773621 35.86113,60.7512865 35.0911367,60.8863993 C34.3211434,61.0215121 33.5964547,61.0019138 32.9170489,60.8276039 C32.237643,60.6532939 31.6431718,60.356836 31.1336174,59.9382211 C30.624063,59.5196063 30.2220873,58.9974519 29.9276781,58.3717424 C29.6332689,57.7460329 29.4860665,57.038056 29.4860665,56.2477907 L29.4860665,37.5524638 L32.951019,36.9444593 L32.951019,55.3011027 C32.951019,56.1591051 33.1548377,56.7555433 33.5624812,57.0904351 C33.9701247,57.425327 34.4796714,57.5391235 35.0911367,57.4318281 C35.702602,57.3245326 36.2121487,57.031913 36.6197922,56.5539605 C37.0274357,56.0760081 37.2312544,55.4080406 37.2312544,54.5500383 L37.2312544,36.1933948 L40.696207,35.5853903 L40.696207,54.2807172 Z M55.1674792,39.9890881 L51.7025267,40.5970926 L51.7025267,39.8181207 C51.7025267,39.0278553 51.5156929,38.3776348 51.1420197,37.8674394 C50.7683465,37.3572441 50.1399055,37.1796403 49.2566779,37.3346226 C48.7810938,37.4180746 48.3904413,37.5769382 48.0847086,37.811218 C47.778976,38.0454978 47.5411875,38.3186546 47.3713361,38.6306965 C47.2014846,38.9427384 47.0825904,39.2909918 47.0146498,39.6754672 C46.9467092,40.0599426 46.9127394,40.4553854 46.9127394,40.8618076 C46.9127394,41.3359668 46.9297243,41.7337579 46.9636946,42.0551927 C46.9976649,42.3766274 47.0825893,42.6439589 47.2184705,42.8571951 C47.3543517,43.0704313 47.5525087,43.2445128 47.8129476,43.379445 C48.0733866,43.5143771 48.4300693,43.6324184 48.8830065,43.7335724 L51.5326761,44.3185465 C52.3026694,44.4769608 52.9254487,44.7120048 53.4010328,45.0236854 C53.8766169,45.3353661 54.2446229,45.7336538 54.5050618,46.2185607 C54.7655007,46.7034675 54.9410113,47.2822943 55.0315987,47.9550585 C55.1221862,48.6278227 55.1674792,49.4044838 55.1674792,50.2850652 C55.1674792,51.3011207 55.0655699,52.2616625 54.8617481,53.1667195 C54.6579263,54.0717766 54.3238901,54.875487 53.8596295,55.5778748 C53.3953688,56.2802627 52.7782511,56.8796361 52.0082578,57.376013 C51.2382645,57.87239 50.2984338,58.217934 49.1887376,58.4126554 C48.3508037,58.5596899 47.5694987,58.5500262 46.8447992,58.3836641 C46.1200996,58.2173019 45.4973202,57.9258113 44.9764424,57.5091834 C44.4555646,57.0925555 44.0422656,56.5610987 43.7365329,55.9147971 C43.4308003,55.2684955 43.2779363,54.5389335 43.2779363,53.7260891 L43.2779363,52.439092 L46.7428888,51.8310875 L46.7428888,52.9148745 C46.7428888,53.5470868 46.9297226,54.084414 47.3033958,54.5268723 C47.677069,54.9693306 48.30551,55.1130664 49.1887376,54.9580841 C49.777556,54.8547625 50.2361481,54.6896221 50.5645276,54.4626579 C50.8929071,54.2356937 51.1420188,53.9549054 51.3118703,53.6202844 C51.4817217,53.2856635 51.5892927,52.888595 51.6345864,52.429067 C51.6798802,51.969539 51.7025267,51.4688343 51.7025267,50.9269381 C51.7025267,50.2947258 51.6798802,49.7793902 51.6345864,49.3809159 C51.5892927,48.9824415 51.493045,48.6719396 51.3458404,48.4494009 C51.1986358,48.2268621 50.9948171,48.0594187 50.7343782,47.9470656 C50.4739393,47.8347124 50.1285798,47.7259735 49.6982895,47.6208457 L47.2184705,47.0399358 C45.7237776,46.6925803 44.721669,46.0612355 44.2121146,45.1458824 C43.7025603,44.2305294 43.4477869,43.0164742 43.4477869,41.5036805 C43.4477869,40.6005201 43.5723428,39.7206744 43.8214582,38.8641171 C44.0705737,38.0075598 44.4385797,37.243046 44.9254872,36.5705527 C45.4123947,35.8980595 46.0295125,35.3212648 46.7768589,34.8401512 C47.5242053,34.3590377 48.3960964,34.0310599 49.3925584,33.856208 C50.2531391,33.7051996 51.0401057,33.7251592 51.7534819,33.9160873 C52.466858,34.1070154 53.0783141,34.417427 53.5878685,34.8473313 C54.0974229,35.2772357 54.4880754,35.7900876 54.7598377,36.3859025 C55.0316001,36.9817174 55.1674792,37.6183005 55.1674792,38.2956708 L55.1674792,39.9890881 Z M64.0676513,31.48434 L74.3945686,29.6722481 L74.3945686,32.9236093 L67.5326039,34.1276967 L67.5326039,41.206181 L73.5113454,40.1570751 L73.5113454,43.4084363 L67.5326039,44.4575422 L67.5326039,51.5360264 L74.3945686,50.331939 L74.3945686,53.7865103 L64.0676513,55.5986022 L64.0676513,31.48434 Z M67.4646636,25.0290333 L70.6578551,24.4687154 L73.9869272,28.659991 L71.3372576,29.1249356 L69.0612594,26.3068183 L66.7852612,29.9236867 L64.1355916,30.3886313 L67.4646636,25.0290333 Z M78.9125949,32.130819 L74.9041205,32.8341968 L74.9041205,29.5828356 L86.3860219,27.5680755 L86.3860219,30.8194367 L82.3775475,31.5228145 L82.3775475,52.3857155 L78.9125949,52.99372 L78.9125949,32.130819 Z M87.9146775,27.2998382 L98.2415947,25.4877462 L98.2415947,28.7391074 L91.37963,29.9431948 L91.37963,37.0216791 L97.3583716,35.9725732 L97.3583716,39.2239344 L91.37963,40.2730403 L91.37963,47.3515246 L98.2415947,46.1474371 L98.2415947,49.6020084 L87.9146775,51.4141004 L87.9146775,27.2998382 Z M111.693763,30.0702689 L108.228811,30.6782734 L108.228811,29.8993015 C108.228811,29.1090361 108.041977,28.4588155 107.668304,27.9486202 C107.294631,27.4384249 106.66619,27.2608211 105.782962,27.4158034 C105.307378,27.4992554 104.916725,27.658119 104.610993,27.8923988 C104.30526,28.1266786 104.067472,28.3998353 103.89762,28.7118773 C103.727769,29.0239192 103.608874,29.3721726 103.540934,29.756648 C103.472993,30.1411234 103.439024,30.5365662 103.439024,30.9429884 C103.439024,31.4171476 103.456008,31.8149387 103.489979,32.1363734 C103.523949,32.4578082 103.608873,32.7251397 103.744755,32.9383759 C103.880636,33.151612 104.078793,33.3256936 104.339232,33.4606258 C104.599671,33.5955579 104.956353,33.7135992 105.409291,33.8147532 L108.05896,34.3997273 C108.828953,34.5581416 109.451733,34.7931856 109.927317,35.1048662 C110.402901,35.4165469 110.770907,35.8148346 111.031346,36.2997415 C111.291785,36.7846483 111.467295,37.3634751 111.557883,38.0362393 C111.64847,38.7090035 111.693763,39.4856646 111.693763,40.366246 C111.693763,41.3823014 111.591854,42.3428433 111.388032,43.2479003 C111.18421,44.1529574 110.850174,44.9566678 110.385914,45.6590556 C109.921653,46.3614434 109.304535,46.9608169 108.534542,47.4571938 C107.764549,47.9535708 106.824718,48.2991148 105.715022,48.4938361 C104.877088,48.6408707 104.095783,48.631207 103.371083,48.4648448 C102.646384,48.2984827 102.023604,48.006992 101.502727,47.5903641 C100.981849,47.1737363 100.56855,46.6422795 100.262817,45.9959779 C99.9570844,45.3496763 99.8042204,44.6201143 99.8042204,43.8072699 L99.8042204,42.5202728 L103.269173,41.9122682 L103.269173,42.9960553 C103.269173,43.6282676 103.456007,44.1655948 103.82968,44.6080531 C104.203353,45.0505114 104.831794,45.1942472 105.715022,45.0392649 C106.30384,44.9359433 106.762432,44.7708029 107.090812,44.5438387 C107.419191,44.3168745 107.668303,44.0360861 107.838154,43.7014652 C108.008006,43.3668443 108.115577,42.9697758 108.160871,42.5102478 C108.206164,42.0507197 108.228811,41.5500151 108.228811,41.0081189 C108.228811,40.3759066 108.206164,39.860571 108.160871,39.4620966 C108.115577,39.0636223 108.019329,38.7531204 107.872125,38.5305817 C107.72492,38.3080429 107.521101,38.1405995 107.260662,38.0282463 C107.000223,37.9158932 106.654864,37.8071543 106.224574,37.7020264 L103.744755,37.1211166 C102.250062,36.7737611 101.247953,36.1424163 100.738399,35.2270632 C100.228844,34.3117101 99.974071,33.097655 99.974071,31.5848613 C99.974071,30.6817009 100.098627,29.8018552 100.347742,28.9452979 C100.596858,28.0887406 100.964864,27.3242268 101.451771,26.6517335 C101.938679,25.9792403 102.555797,25.4024456 103.303143,24.921332 C104.050489,24.4402185 104.922381,24.1122407 105.918842,23.9373888 C106.779423,23.7863804 107.56639,23.8063399 108.279766,23.9972681 C108.993142,24.1881962 109.604598,24.4986077 110.114153,24.9285121 C110.623707,25.3584164 111.01436,25.8712684 111.286122,26.4670833 C111.557884,27.0628982 111.693763,27.6994813 111.693763,28.3768516 L111.693763,30.0702689 Z M125.893275,27.5786424 L125.825334,27.5905641 L124.126828,36.6266387 L127.591781,36.0186342 L125.893275,27.5786424 Z M124.432559,20.8919472 L127.32002,20.3852767 L132.721269,43.5517671 L129.256317,44.1597717 L128.237213,39.1567396 L123.515366,39.9852948 L122.496262,45.3459766 L119.03131,45.9539812 L124.432559,20.8919472 Z M128.101333,19.1643906 L125.859304,19.5578053 L121.375248,15.5691979 L125.044022,14.9254284 L128.101333,19.1643906 Z M143.99935,35.8828899 C143.99935,36.7183132 144.231477,37.2928501 144.695737,37.6065177 C145.159998,37.9201853 145.709176,38.0213829 146.343288,37.9101136 C146.637698,37.8584528 146.886809,37.7695831 147.090631,37.6435019 L145.528005,36.6645713 L147.294452,34.2547707 L148.687227,35.1280322 L148.687227,22.3257975 C148.687227,21.4903741 148.4551,20.9158372 147.990839,20.6021696 C147.526579,20.288502 146.977401,20.1873044 146.343288,20.2985738 C145.709176,20.4098431 145.159998,20.7037723 144.695737,21.18037 C144.231477,21.6569677 143.99935,22.3129685 143.99935,23.1483918 L143.99935,35.8828899 Z M140.534397,23.7563964 C140.534397,22.785499 140.704246,21.8977056 141.043949,21.0929897 C141.383652,20.2882738 141.830921,19.5945215 142.385769,19.0117121 C142.940617,18.4289027 143.563397,17.9527185 144.254126,17.5831453 C144.944855,17.213572 145.641236,16.9671936 146.343288,16.8440025 C147.045341,16.7208114 147.741722,16.7227983 148.432451,16.8499633 C149.12318,16.9771283 149.74596,17.2347509 150.300808,17.622839 C150.855656,18.010927 151.302925,18.5477123 151.642628,19.2332111 C151.98233,19.9187098 152.152179,20.7468955 152.152179,21.7177929 L152.152179,34.4522909 C152.152179,35.4006093 151.98233,36.2545347 151.642628,37.0140926 L153.782745,38.365846 L152.016299,40.7756466 L149.978092,39.4737473 C149.457214,39.9941484 148.885389,40.4105894 148.2626,40.7230829 C147.639812,41.0355764 147.000047,41.2494416 146.343288,41.3646848 C145.641236,41.4878759 144.944855,41.485889 144.254126,41.358724 C143.563397,41.231559 142.940617,40.9739364 142.385769,40.5858483 C141.830921,40.1977603 141.383652,39.6666197 141.043949,38.9924104 C140.704246,38.3182012 140.534397,37.4843708 140.534397,36.4908944 L140.534397,23.7563964 Z M166.419631,32.2196896 C166.419631,33.0099549 166.272429,33.7695917 165.978019,34.4986228 C165.68361,35.2276539 165.281634,35.8908798 164.77208,36.4883204 C164.262526,37.085761 163.668054,37.5908459 162.988649,38.0035902 C162.309243,38.4163345 161.584554,38.6902589 160.814561,38.8253717 C160.044567,38.9604845 159.319879,38.9408862 158.640473,38.7665763 C157.961067,38.5922663 157.366596,38.2958084 156.857041,37.8771935 C156.347487,37.4585787 155.945511,36.9364243 155.651102,36.3107148 C155.356693,35.6850053 155.20949,34.9770284 155.20949,34.1867631 L155.20949,15.4914362 L158.674443,14.8834317 L158.674443,33.2400751 C158.674443,34.0980775 158.878262,34.6945157 159.285905,35.0294075 C159.693549,35.3642994 160.203095,35.4780959 160.814561,35.3708005 C161.426026,35.263505 161.935573,34.9708854 162.343216,34.4929329 C162.75086,34.0149805 162.954678,33.347013 162.954678,32.4890107 L162.954678,14.1323672 L166.419631,13.5243627 L166.419631,32.2196896 Z M169.680763,12.9521231 L180.00768,11.1400312 L180.00768,14.3913924 L173.145715,15.5954798 L173.145715,22.6739641 L179.124457,21.6248582 L179.124457,24.8762194 L173.145715,25.9253252 L173.145715,33.0038095 L180.00768,31.7997221 L180.00768,35.2542934 L169.680763,37.0663853 L169.680763,12.9521231 Z M182.249708,10.7466165 L185.714661,10.1386119 L185.714661,30.7983028 L192.576625,29.5942154 L192.576625,33.0487867 L182.249708,34.8608786 L182.249708,10.7466165 Z M198.079785,26.3932503 C198.079785,27.2286737 198.311912,27.8032106 198.776173,28.1168782 C199.240433,28.4305458 199.789612,28.5317434 200.423724,28.420474 C200.718133,28.3688132 200.967245,28.2799436 201.171066,28.1538624 L199.608441,27.1749317 L201.374887,24.7651312 L202.767662,25.6383926 L202.767662,12.8361579 C202.767662,12.0007345 202.535535,11.4261977 202.071275,11.1125301 C201.607014,10.7988625 201.057836,10.6976649 200.423724,10.8089342 C199.789612,10.9202036 199.240433,11.2141327 198.776173,11.6907305 C198.311912,12.1673282 198.079785,12.8233289 198.079785,13.6587523 L198.079785,26.3932503 Z M194.614833,14.2667568 C194.614833,13.2958594 194.784682,12.4080661 195.124385,11.6033501 C195.464088,10.7986342 195.911356,10.104882 196.466204,9.52207255 C197.021053,8.93926314 197.643832,8.46307896 198.334561,8.09350572 C199.02529,7.72393249 199.721671,7.47755402 200.423724,7.35436295 C201.125776,7.23117187 201.822157,7.23315879 202.512886,7.36032377 C203.203616,7.48748876 203.826395,7.7451114 204.381243,8.13319942 C204.936091,8.52128745 205.38336,9.05807278 205.723063,9.74357153 C206.062766,10.4290703 206.232615,11.2572559 206.232615,12.2281534 L206.232615,24.9626514 C206.232615,25.9109698 206.062766,26.7648952 205.723063,27.5244531 L207.863181,28.8762065 L206.096734,31.286007 L204.058527,29.9841078 C203.537649,30.5045088 202.965824,30.9209498 202.343036,31.2334433 C201.720247,31.5459368 201.080483,31.759802 200.423724,31.8750453 C199.721671,31.9982364 199.02529,31.9962494 198.334561,31.8690845 C197.643832,31.7419195 197.021053,31.4842968 196.466204,31.0962088 C195.911356,30.7081208 195.464088,30.1769801 195.124385,29.5027709 C194.784682,28.8285616 194.614833,27.9947313 194.614833,27.0012549 L194.614833,14.2667568 Z M220.500066,22.73005 C220.500066,23.5203154 220.352864,24.2799522 220.058455,25.0089833 C219.764045,25.7380144 219.36207,26.4012403 218.852515,26.9986809 C218.342961,27.5961215 217.74849,28.1012063 217.069084,28.5139507 C216.389678,28.926695 215.664989,29.2006194 214.894996,29.3357322 C214.125003,29.470845 213.400314,29.4512467 212.720908,29.2769367 C212.041502,29.1026268 211.447031,28.8061688 210.937477,28.387554 C210.427922,27.9689391 210.025947,27.4467848 209.731537,26.8210753 C209.437128,26.1953657 209.289926,25.4873889 209.289926,24.6971236 L209.289926,6.00179669 L212.754878,5.39379215 L212.754878,23.7504356 C212.754878,24.6084379 212.958697,25.2048761 213.36634,25.539768 C213.773984,25.8746599 214.283531,25.9884564 214.894996,25.8811609 C215.506461,25.7738655 216.016008,25.4812459 216.423651,25.0032934 C216.831295,24.5253409 217.035114,23.8573735 217.035114,22.9993711 L217.035114,4.64272771 L220.500066,4.03472317 L220.500066,22.73005 Z M223.761198,3.4624836 L234.088115,1.65039162 L234.088115,4.90175282 L227.22615,6.10584025 L227.22615,13.1843245 L233.204892,12.1352186 L233.204892,15.3865798 L227.22615,16.4356857 L227.22615,23.51417 L234.088115,22.3100825 L234.088115,25.7646538 L223.761198,27.5767458 L223.761198,3.4624836 Z M247.540284,6.23291428 L244.075331,6.84091882 L244.075331,6.06194687 C244.075331,5.27168152 243.888498,4.62146094 243.514824,4.11126563 C243.141151,3.60107032 242.51271,3.42346649 241.629483,3.57844881 C241.153898,3.66190083 240.763246,3.82076436 240.457513,4.05504417 C240.151781,4.28932398 239.913992,4.56248075 239.744141,4.87452267 C239.574289,5.18656459 239.455395,5.53481801 239.387454,5.9192934 C239.319514,6.30376878 239.285544,6.69921163 239.285544,7.10563381 C239.285544,7.57979303 239.302529,7.97758406 239.336499,8.29901885 C239.37047,8.62045363 239.455394,8.8877851 239.591275,9.10102127 C239.727156,9.31425744 239.925313,9.488339 240.185752,9.62327117 C240.446191,9.75820333 240.802874,9.87624462 241.255811,9.97739859 L243.905481,10.5623727 C244.675474,10.720787 245.298253,10.955831 245.773837,11.2675116 C246.249422,11.5791923 246.617428,11.97748 246.877866,12.4623869 C247.138305,12.9472937 247.313816,13.5261205 247.404403,14.1988847 C247.494991,14.8716489 247.540284,15.64831 247.540284,16.5288914 C247.540284,17.5449468 247.438374,18.5054887 247.234553,19.4105457 C247.030731,20.3156028 246.696695,21.1193132 246.232434,21.821701 C245.768173,22.5240888 245.151056,23.1234623 244.381062,23.6198392 C243.611069,24.1162162 242.671238,24.4617602 241.561542,24.6564815 C240.723608,24.8035161 239.942303,24.7938524 239.217604,24.6274902 C238.492904,24.4611281 237.870125,24.1696374 237.349247,23.7530095 C236.828369,23.3363817 236.41507,22.8049249 236.109338,22.1586233 C235.803605,21.5123217 235.650741,20.7827597 235.650741,19.9699153 L235.650741,18.6829182 L239.115693,18.0749136 L239.115693,19.1587007 C239.115693,19.790913 239.302527,20.3282402 239.6762,20.7706985 C240.049874,21.2131568 240.678315,21.3568926 241.561542,21.2019103 C242.150361,21.0985887 242.608953,20.9334483 242.937332,20.7064841 C243.265712,20.4795199 243.514823,20.1987315 243.684675,19.8641106 C243.854526,19.5294897 243.962097,19.1324212 244.007391,18.6728932 C244.052685,18.2133651 244.075331,17.7126605 244.075331,17.1707643 C244.075331,16.538552 244.052685,16.0232164 244.007391,15.624742 C243.962097,15.2262677 243.86585,14.9157658 243.718645,14.6932271 C243.57144,14.4706883 243.367622,14.3032449 243.107183,14.1908918 C242.846744,14.0785386 242.501384,13.9697997 242.071094,13.8646718 L239.591275,13.283762 C238.096582,12.9364065 237.094474,12.3050617 236.584919,11.3897086 C236.075365,10.4743555 235.820592,9.26030038 235.820592,7.7475067 C235.820592,6.8443463 235.945147,5.96450063 236.194263,5.10794331 C236.443378,4.25138598 236.811384,3.48687217 237.298292,2.81437893 C237.785199,2.14188569 238.402317,1.56509096 239.149664,1.08397741 C239.89701,0.602863862 240.768901,0.274886081 241.765363,0.100034227 C242.625944,-0.0509741923 243.41291,-0.0310146468 244.126287,0.159913462 C244.839663,0.350841572 245.451119,0.661253146 245.960673,1.0911575 C246.470228,1.52106185 246.86088,2.03391379 247.132642,2.62972871 C247.404405,3.22554363 247.540284,3.86212669 247.540284,4.53949699 L247.540284,6.23291428 Z M10.3369085,91.3136973 C10.3369085,91.94923 10.2161826,92.5770499 9.97472705,93.1971757 C9.73327154,93.8173016 9.40006793,94.3812996 8.97510623,94.8891865 C8.55014453,95.3970734 8.05275364,95.831001 7.48291864,96.1909821 C6.91308363,96.5509633 6.29979584,96.7885719 5.64303685,96.9038152 C5.08286006,97.0021109 4.51303361,97.0250668 3.93354038,96.9726835 C3.35404715,96.9203002 2.83251108,96.7470142 2.3689165,96.4528203 C1.90532191,96.1586264 1.52382793,95.7296675 1.2244231,95.1659307 C0.925018265,94.6021939 0.775318094,93.848502 0.775318094,92.9048322 L0.775318094,81.5808511 C0.775318094,80.9068013 0.891215,80.2605705 1.12301229,79.6421394 C1.35480958,79.0237082 1.68318415,78.4653722 2.10814585,77.9671146 C2.53310755,77.4688569 3.04015651,77.0476784 3.62930796,76.7035663 C4.2184594,76.3594542 4.8703795,76.1246958 5.58508781,75.999284 C6.26116324,75.8806512 6.88893815,75.8908581 7.46843138,76.029905 C8.0479246,76.1689518 8.55014453,76.4178458 8.97510623,76.7765944 C9.40006793,77.135343 9.73327154,77.5968484 9.97472705,78.1611244 C10.2161826,78.7254004 10.3369085,79.3638124 10.3369085,80.0763794 L10.3369085,81.2318876 L7.38150783,81.7504797 L7.38150783,80.7682977 C7.38150783,80.1905407 7.21732055,79.7186358 6.88894105,79.352569 C6.56056156,78.9865021 6.11629008,78.8526186 5.5561133,78.9509143 C4.82208855,79.0797156 4.33435573,79.3915842 4.09290022,79.8865294 C3.85144471,80.3814745 3.73071877,80.9755924 3.73071877,81.6689009 L3.73071877,92.1840261 C3.73071877,92.7810417 3.86110279,93.2588781 4.12187474,93.6175497 C4.38264669,93.9762212 4.85106335,94.0962388 5.52713878,93.977606 C5.72030319,93.9437109 5.92795181,93.8735723 6.15009088,93.767188 C6.37222995,93.6608036 6.57504954,93.5144792 6.75855573,93.3282104 C6.94206192,93.1419415 7.09176209,92.9038322 7.20766073,92.6138752 C7.32355938,92.3239182 7.38150783,91.9767299 7.38150783,91.5723 L7.38150783,90.5612303 L10.3369085,90.0426382 L10.3369085,91.3136973 Z M12.7417934,74.9168038 L15.697194,74.3982117 L15.697194,92.0197128 L21.5500463,90.9926971 L21.5500463,93.9392432 L12.7417934,95.484851 L12.7417934,74.9168038 Z M23.549288,73.0203837 L26.5046886,72.5017916 L26.5046886,93.0698387 L23.549288,93.5884308 L23.549288,73.0203837 Z M38.7609091,86.3260614 C38.7609091,86.9615941 38.6401831,87.589414 38.3987276,88.2095399 C38.1572721,88.8296657 37.8240685,89.3936637 37.3991068,89.9015506 C36.9741451,90.4094376 36.4767542,90.8433651 35.9069192,91.2033462 C35.3370842,91.5633274 34.7237964,91.800936 34.0670374,91.9161793 C33.5068606,92.014475 32.9370342,92.0374309 32.357541,91.9850476 C31.7780477,91.9326643 31.2565117,91.7593783 30.7929171,91.4651844 C30.3293225,91.1709905 29.9478285,90.7420316 29.6484237,90.1782948 C29.3490188,89.6145581 29.1993187,88.8608661 29.1993187,87.9171963 L29.1993187,76.5932152 C29.1993187,75.9191654 29.3152156,75.2729346 29.5470129,74.6545035 C29.7788102,74.0360724 30.1071847,73.4777363 30.5321464,72.9794787 C30.9571081,72.481221 31.4641571,72.0600425 32.0533085,71.7159304 C32.64246,71.3718183 33.2943801,71.1370599 34.0090884,71.0116481 C34.6851638,70.8930153 35.3129387,70.9032222 35.892432,71.0422691 C36.4719252,71.1813159 36.9741451,71.4302099 37.3991068,71.7889585 C37.8240685,72.1477071 38.1572721,72.6092125 38.3987276,73.1734885 C38.6401831,73.7377646 38.7609091,74.3761765 38.7609091,75.0887435 L38.7609091,76.2442517 L35.8055084,76.7628439 L35.8055084,75.7806618 C35.8055084,75.2029048 35.6413211,74.7309999 35.3129416,74.3649331 C34.9845621,73.9988663 34.5402907,73.8649827 33.9801139,73.9632784 C33.2460891,74.0920797 32.7583563,74.4039483 32.5169008,74.8988935 C32.2754453,75.3938387 32.1547193,75.9879565 32.1547193,76.681265 L32.1547193,87.1963902 C32.1547193,87.7934058 32.2851034,88.2712422 32.5458753,88.6299138 C32.8066473,88.9885853 33.2750639,89.1086029 33.9511394,88.9899701 C34.1443038,88.9560751 34.3519524,88.8859364 34.5740915,88.7795521 C34.7962305,88.6731678 34.9990501,88.5268434 35.1825563,88.3405745 C35.3660625,88.1543056 35.5157627,87.9161963 35.6316613,87.6262393 C35.74756,87.3362823 35.8055084,86.989094 35.8055084,86.5846641 L35.8055084,85.5735944 L38.7609091,85.0550023 L38.7609091,86.3260614 Z M50.7273843,74.1733498 L47.7719837,74.6919419 L47.7719837,74.0275247 C47.7719837,73.3534748 47.6126254,72.7988749 47.2939042,72.3637083 C46.9751829,71.9285417 46.4391597,71.7770561 45.6858185,71.9092469 C45.2801732,71.9804266 44.9469696,72.1159278 44.6861977,72.3157547 C44.4254257,72.5155816 44.2226061,72.7485683 44.0777328,73.0147217 C43.9328595,73.2808751 43.8314497,73.5779148 43.7735004,73.9058497 C43.7155511,74.2337846 43.6865769,74.571074 43.6865769,74.9177283 C43.6865769,75.3221582 43.701064,75.6614505 43.7300386,75.9356155 C43.7590133,76.2097805 43.8314489,76.4377985 43.9473475,76.6196764 C44.0632462,76.8015543 44.2322625,76.9500356 44.4544016,77.0651248 C44.6765406,77.180214 44.98077,77.2808963 45.3670988,77.3671747 L47.6271111,77.8661232 C48.2838701,78.0012413 48.8150642,78.2017199 49.2207095,78.4675652 C49.6263548,78.7334105 49.9402422,79.0731265 50.1623813,79.4867235 C50.3845203,79.9003205 50.5342205,80.3940257 50.6114863,80.967854 C50.688752,81.5416823 50.7273843,82.2041285 50.7273843,82.9552127 C50.7273843,83.8218482 50.6404617,84.6411339 50.4666137,85.4130943 C50.2927657,86.1850547 50.0078525,86.8705724 49.6118655,87.4696679 C49.2158784,88.0687634 48.6895133,88.5799937 48.0327543,89.003374 C47.3759953,89.4267544 46.5743751,89.7214831 45.6278695,89.887569 C44.9131612,90.0129808 44.2467539,90.0047382 43.6286278,89.8628411 C43.0105017,89.720944 42.4793076,89.4723196 42.0350294,89.1169605 C41.5907513,88.7616014 41.2382315,88.3083001 40.9774596,87.7570428 C40.7166876,87.2057856 40.5863036,86.5835121 40.5863036,85.8902037 L40.5863036,84.7924708 L43.5417043,84.2738787 L43.5417043,85.1982853 C43.5417043,85.7375252 43.7010625,86.1958337 44.0197838,86.5732246 C44.3385051,86.9506155 44.8745283,87.0732137 45.6278695,86.9410229 C46.1300969,86.8528957 46.521249,86.7120406 46.8013374,86.5184535 C47.0814258,86.3248664 47.2939034,86.0853704 47.4387767,85.7999585 C47.58365,85.5145465 47.6754018,85.1758704 47.7140346,84.78392 C47.7526675,84.3919697 47.7719837,83.9648981 47.7719837,83.5026925 C47.7719837,82.9634526 47.7526675,82.5239016 47.7140346,82.1840264 C47.6754018,81.8441512 47.5933081,81.5793114 47.4677513,81.389499 C47.3421944,81.1996865 47.168349,81.0568671 46.94621,80.9610365 C46.7240709,80.8652059 46.4294996,80.772458 46.0624872,80.6827901 L43.9473475,80.1873082 C42.6724624,79.8910344 41.8177227,79.3525344 41.3831028,78.571792 C40.9484829,77.7910497 40.7311762,76.7555321 40.7311762,75.4652081 C40.7311762,74.6948654 40.837415,73.9444088 41.0498959,73.2138158 C41.2623767,72.4832228 41.5762642,71.8311374 41.9915677,71.2575403 C42.4068711,70.6839431 42.9332363,70.1919711 43.5706788,69.7816096 C44.2081213,69.371248 44.9517932,69.0915022 45.8017166,68.9423639 C46.5357413,68.8135626 47.2069776,68.8305869 47.8154455,68.9934374 C48.4239133,69.1562878 48.9454494,69.4210506 49.3800693,69.7877338 C49.8146893,70.1544169 50.1478929,70.5918494 50.3796902,71.1000445 C50.6114874,71.6082396 50.7273843,72.1512075 50.7273843,72.7289645 L50.7273843,74.1733498 Z M58.3187076,66.9193 L62.6938596,66.1515803 C64.37439,65.8566931 65.658914,66.0983075 66.5474703,66.8764307 C67.4360266,67.6545538 67.8802981,68.8813447 67.8802981,70.5568401 L67.8802981,80.1764464 C67.8802981,82.1023031 67.4118814,83.6047955 66.475034,84.6839686 C65.5381866,85.7631417 64.1908851,86.4569404 62.433089,86.7653856 L58.3187076,87.4873472 L58.3187076,66.9193 Z M61.2741083,84.1955352 L62.6359106,83.9565761 C63.4665175,83.8108273 64.0556601,83.5004224 64.4033561,83.025352 C64.751052,82.5502817 64.9248974,81.8698097 64.9248974,80.9839156 L64.9248974,71.0754322 C64.9248974,70.2665723 64.7607101,69.6694887 64.4323306,69.2841632 C64.1039511,68.8988378 63.5051504,68.7824408 62.6359106,68.9349686 L61.2741083,69.1739278 L61.2741083,84.1955352 Z M70.6618516,64.7534153 L79.4701046,63.2078075 L79.4701046,65.9810273 L73.6172523,67.0080431 L73.6172523,73.0455738 L78.7167672,72.1507482 L78.7167672,74.923968 L73.6172523,75.8187936 L73.6172523,81.8563243 L79.4701046,80.8293086 L79.4701046,83.7758546 L70.6618516,85.3214625 L70.6618516,64.7534153 Z M86.7716827,61.9265799 L91.1468347,61.1588602 C92.8273651,60.863973 94.1118891,61.1055874 95.0004454,61.8837105 C95.8890017,62.6618337 96.3332731,63.8886246 96.3332731,65.5641199 L96.3332731,75.1837263 C96.3332731,77.109583 95.8648565,78.6120754 94.9280091,79.6912485 C93.9911617,80.7704215 92.6438602,81.4642203 90.8860641,81.7726655 L86.7716827,82.4946271 L86.7716827,61.9265799 Z M89.7270834,79.2028151 L91.0888857,78.963856 C91.9194926,78.8181072 92.5086352,78.5077022 92.8563312,78.0326319 C93.2040271,77.5575616 93.3778725,76.8770895 93.3778725,75.9911954 L93.3778725,66.082712 C93.3778725,65.2738522 93.2136852,64.6767685 92.8853057,64.2914431 C92.5569262,63.9061177 91.9581255,63.7897207 91.0888857,63.9422485 L89.7270834,64.1812076 L89.7270834,79.2028151 Z M99.1148267,59.7606952 L107.92308,58.2150873 L107.92308,60.9883072 L102.070227,62.0153229 L102.070227,68.0528536 L107.169742,67.158028 L107.169742,69.9312479 L102.070227,70.8260735 L102.070227,76.8636042 L107.92308,75.8365884 L107.92308,78.7831345 L99.1148267,80.3287424 L99.1148267,59.7606952 Z M104.098444,53.8886333 L107.227691,53.3395358 L103.403055,58.0838216 L101.490737,58.4193812 L104.098444,53.8886333 Z M119.223141,72.207137 C119.223141,72.8426697 119.102415,73.4704896 118.86096,74.0906154 C118.619504,74.7107413 118.286301,75.2747393 117.861339,75.7826262 C117.436377,76.2905131 116.938986,76.7244407 116.369151,77.0844218 C115.799316,77.4444029 115.186028,77.6820116 114.529269,77.7972549 C113.969093,77.8955506 113.399266,77.9185065 112.819773,77.8661232 C112.24028,77.8137398 111.718744,77.6404539 111.255149,77.34626 C110.791555,77.0520661 110.410061,76.6231072 110.110656,76.0593704 C109.811251,75.4956336 109.661551,74.7419416 109.661551,73.7982718 L109.661551,62.4742908 C109.661551,61.800241 109.777448,61.1540102 110.009245,60.5355791 C110.241042,59.9171479 110.569417,59.3588119 110.994378,58.8605543 C111.41934,58.3622966 111.926389,57.9411181 112.515541,57.597006 C113.104692,57.2528939 113.756612,57.0181355 114.47132,56.8927237 C115.147396,56.7740909 115.775171,56.7842978 116.354664,56.9233447 C116.934157,57.0623915 117.436377,57.3112855 117.861339,57.6700341 C118.286301,58.0287827 118.619504,58.4902881 118.86096,59.0545641 C119.102415,59.6188401 119.223141,60.2572521 119.223141,60.9698191 L119.223141,62.1253273 L116.26774,62.6439194 L116.26774,61.6617374 C116.26774,61.0839804 116.103553,60.6120755 115.775174,60.2460087 C115.446794,59.8799418 115.002523,59.7460583 114.442346,59.844354 C113.708321,59.9731553 113.220588,60.2850239 112.979133,60.7799691 C112.737677,61.2749142 112.616951,61.8690321 112.616951,62.5623406 L112.616951,73.0774658 C112.616951,73.6744814 112.747335,74.1523178 113.008107,74.5109893 C113.268879,74.8696609 113.737296,74.9896785 114.413371,74.8710457 C114.606536,74.8371506 114.814184,74.767012 115.036323,74.6606277 C115.258463,74.5542433 115.461282,74.4079189 115.644788,74.2216501 C115.828295,74.0353812 115.977995,73.7972719 116.093893,73.5073149 C116.209792,73.2173579 116.26774,72.8701696 116.26774,72.4657397 L116.26774,71.45467 L119.223141,70.9360779 L119.223141,72.207137 Z M121.454179,60.6938837 C121.454179,59.8657653 121.59905,59.1085298 121.888797,58.4221544 C122.178543,57.7357791 122.560037,57.1440492 123.03329,56.6469471 C123.506543,56.1498449 124.037737,55.7436878 124.626888,55.4284636 C125.21604,55.1132394 125.810011,54.903093 126.408821,54.7980183 C127.007631,54.6929436 127.601602,54.6946383 128.190754,54.8031025 C128.779905,54.9115668 129.3111,55.1313037 129.784352,55.46232 C130.257605,55.7933363 130.639099,56.2511826 130.928846,56.8358727 C131.218592,57.4205628 131.363463,58.1269564 131.363463,58.9550748 L131.363463,69.8168526 C131.363463,70.6642295 131.218592,71.4262796 130.928846,72.1030257 C130.639099,72.7797717 130.257605,73.366687 129.784352,73.8637892 C129.3111,74.3608913 128.779905,74.7670484 128.190754,75.0822726 C127.601602,75.3974969 127.007631,75.6076432 126.408821,75.7127179 C125.810011,75.8177927 125.21604,75.816098 124.626888,75.7076337 C124.037737,75.5991695 123.506543,75.3794325 123.03329,75.0484162 C122.560037,74.7174 122.178543,74.2643682 121.888797,73.6893074 C121.59905,73.1142466 121.454179,72.4030384 121.454179,71.5556614 L121.454179,60.6938837 Z M124.40958,71.0370693 C124.40958,71.7496363 124.60757,72.2396824 125.003557,72.5072225 C125.399544,72.7747625 125.867961,72.8610781 126.408821,72.7661719 C126.949682,72.6712656 127.418098,72.4205614 127.814085,72.0140515 C128.210072,71.6075417 128.408063,71.0480117 128.408063,70.3354447 L128.408063,59.473667 C128.408063,58.7611 128.210072,58.2710538 127.814085,58.0035138 C127.418098,57.7359738 126.949682,57.6496582 126.408821,57.7445644 C125.867961,57.8394706 125.399544,58.0901749 125.003557,58.4966847 C124.60757,58.9031946 124.40958,59.4627246 124.40958,60.1752916 L124.40958,71.0370693 Z M143.53276,67.9125749 C143.53276,68.5866248 143.407205,69.2345503 143.156092,69.8563709 C142.904978,70.4781916 142.562116,71.0438842 142.127496,71.5534659 C141.692876,72.0630476 141.185827,72.4938553 140.606334,72.8459019 C140.026841,73.1979485 139.408724,73.43159 138.751965,73.5468332 C138.095206,73.6620765 137.477089,73.6453603 136.897596,73.4966842 C136.318103,73.348008 135.811054,73.0951468 135.376434,72.738093 C134.941814,72.3810392 134.598952,71.9356722 134.347839,71.4019788 C134.096725,70.8682854 133.97117,70.2644228 133.97117,69.5903729 L133.97117,53.6443588 L136.926571,53.1257667 L136.926571,68.7829038 C136.926571,69.5147293 137.100416,70.023456 137.448112,70.3090991 C137.795808,70.5947422 138.230421,70.6918039 138.751965,70.6002872 C139.273509,70.5087705 139.708122,70.2591832 140.055818,69.8515178 C140.403514,69.4438525 140.57736,68.8741155 140.57736,68.14229 L140.57736,52.485153 L143.53276,51.9665608 L143.53276,67.9125749 Z M152.109217,71.029674 L149.501511,71.4872553 L145.300206,51.6564224 L148.429454,51.1073249 L150.776389,65.052692 L150.834338,65.0425235 L153.210249,50.2684259 L156.339497,49.7193284 L152.109217,71.029674 Z M161.062343,58.0768886 L162.742865,57.7820028 C163.264409,57.6904861 163.679706,57.5453943 163.988769,57.3467229 C164.297832,57.1480515 164.534455,56.8995042 164.698645,56.6010734 C164.862834,56.3026426 164.973902,55.950948 165.031852,55.5459788 C165.089801,55.1410096 165.118775,54.6785413 165.118775,54.15856 C165.118775,53.6385787 165.089801,53.1862788 165.031852,52.8016467 C164.973902,52.4170146 164.853176,52.1011788 164.66967,51.8541299 C164.486164,51.607081 164.230225,51.4449648 163.901845,51.3677765 C163.573466,51.2905881 163.138852,51.2994469 162.597992,51.3943531 L161.062343,51.6638177 L161.062343,58.0768886 Z M158.106942,49.4091899 L162.858763,48.5753752 C166.335722,47.9652638 168.074176,49.6727027 168.074176,53.6977433 C168.074176,54.8917745 167.885843,55.950325 167.509173,56.8734267 C167.132502,57.7965284 166.470924,58.6011007 165.524418,59.2871679 L168.711615,68.1164066 L165.582367,68.6655041 L162.829788,60.3666437 L161.062343,60.6767822 L161.062343,69.458645 L158.106942,69.9772371 L158.106942,49.4091899 Z M170.53701,47.2280525 L173.49241,46.7094604 L173.49241,67.2775076 L170.53701,67.7960997 L170.53701,47.2280525 Z M179.316288,54.8738196 L180.99681,54.5789339 C181.518354,54.4874172 181.933651,54.3423253 182.242714,54.143654 C182.551777,53.9449826 182.7884,53.6964352 182.95259,53.3980045 C183.11678,53.0995737 183.227848,52.747879 183.285797,52.3429099 C183.343746,51.9379407 183.37272,51.4754724 183.37272,50.9554911 C183.37272,50.4355098 183.343746,49.9832099 183.285797,49.5985777 C183.227848,49.2139456 183.107122,48.8981099 182.923615,48.651061 C182.740109,48.4040121 182.48417,48.2418959 182.155791,48.1647075 C181.827411,48.0875192 181.392798,48.096378 180.851937,48.1912842 L179.316288,48.4607488 L179.316288,54.8738196 Z M176.360887,46.206121 L181.112708,45.3723063 C184.589667,44.7621948 186.328121,46.4696338 186.328121,50.4946744 C186.328121,51.6887056 186.139789,52.7472561 185.763118,53.6703578 C185.386447,54.5934594 184.724869,55.3980318 183.778364,56.084099 L186.96556,64.9133377 L183.836313,65.4624352 L181.083734,57.1635748 L179.316288,57.4737132 L179.316288,66.2555761 L176.360887,66.7741682 L176.360887,46.206121 Z M199.888195,62.6457682 L197.280488,63.1033495 L193.079183,43.2725166 L196.208431,42.7234191 L198.555367,56.6687862 L198.613316,56.6586177 L200.989226,41.8845201 L204.118474,41.3354226 L199.888195,62.6457682 Z M205.712073,45.9089243 C205.712073,45.0808059 205.856944,44.3235704 206.14669,43.637195 C206.436437,42.9508197 206.817931,42.3590898 207.291184,41.8619877 C207.764436,41.3648856 208.295631,40.9587285 208.884782,40.6435042 C209.473934,40.32828 210.067905,40.1181337 210.666715,40.0130589 C211.265524,39.9079842 211.859496,39.9096789 212.448648,40.0181431 C213.037799,40.1266074 213.568993,40.3463444 214.042246,40.6773606 C214.515499,41.0083769 214.896993,41.4662232 215.186739,42.0509133 C215.476486,42.6356034 215.621357,43.3419971 215.621357,44.1701155 L215.621357,55.0318932 C215.621357,55.8792701 215.476486,56.6413202 215.186739,57.3180663 C214.896993,57.9948123 214.515499,58.5817276 214.042246,59.0788298 C213.568993,59.5759319 213.037799,59.982089 212.448648,60.2973132 C211.859496,60.6125375 211.265524,60.8226838 210.666715,60.9277586 C210.067905,61.0328333 209.473934,61.0311386 208.884782,60.9226743 C208.295631,60.8142101 207.764436,60.5944731 207.291184,60.2634569 C206.817931,59.9324406 206.436437,59.4794089 206.14669,58.904348 C205.856944,58.3292872 205.712073,57.618079 205.712073,56.770702 L205.712073,45.9089243 Z M208.667473,56.2521099 C208.667473,56.9646769 208.865464,57.4547231 209.261451,57.7222631 C209.657438,57.9898031 210.125854,58.0761187 210.666715,57.9812125 C211.207575,57.8863063 211.675992,57.635602 212.071979,57.2290921 C212.467966,56.8225823 212.665956,56.2630523 212.665956,55.5504853 L212.665956,44.6887076 C212.665956,43.9761406 212.467966,43.4860944 212.071979,43.2185544 C211.675992,42.9510144 211.207575,42.8646988 210.666715,42.959605 C210.125854,43.0545112 209.657438,43.3052155 209.261451,43.7117253 C208.865464,44.1182352 208.667473,44.6777652 208.667473,45.3903322 L208.667473,56.2521099 Z M220.170356,41.2919755 L216.751363,41.8919154 L216.751363,39.1186955 L226.54475,37.4002236 L226.54475,40.1734435 L223.125757,40.7733834 L223.125757,58.5682107 L220.170356,59.0868028 L220.170356,41.2919755 Z M230.804004,45.8391316 L232.484526,45.5442459 C233.00607,45.4527292 233.421367,45.3076373 233.73043,45.1089659 C234.039493,44.9102945 234.276116,44.6617472 234.440306,44.3633164 C234.604495,44.0648857 234.715563,43.713191 234.773512,43.3082218 C234.831462,42.9032527 234.860436,42.4407844 234.860436,41.9208031 C234.860436,41.4008217 234.831462,40.9485218 234.773512,40.5638897 C234.715563,40.1792576 234.594837,39.8634218 234.411331,39.6163729 C234.227825,39.369324 233.971886,39.2072078 233.643506,39.1300195 C233.315127,39.0528312 232.880513,39.06169 232.339653,39.1565962 L230.804004,39.4260607 L230.804004,45.8391316 Z M227.848603,37.171433 L232.600424,36.3376182 C236.077383,35.7275068 237.815837,37.4349458 237.815837,41.4599864 C237.815837,42.6540175 237.627504,43.7125681 237.250834,44.6356697 C236.874163,45.5587714 236.212585,46.3633438 235.266079,47.049411 L238.453276,55.8786496 L235.324028,56.4277472 L232.571449,48.1288868 L230.804004,48.4390252 L230.804004,57.220888 L227.848603,57.7394801 L227.848603,37.171433 Z M240.191747,35.0055483 L249,33.4599404 L249,36.2331603 L243.147148,37.260176 L243.147148,43.2977067 L248.246663,42.4028811 L248.246663,45.176101 L243.147148,46.0709266 L243.147148,52.1084573 L249,51.0814415 L249,54.0279876 L240.191747,55.5735954 L240.191747,35.0055483 Z" id="Vous-êtes-à-quelques"></path>
                    </g>
                </g>
            </g>
        </g>
    </g>
</svg>