<?xml version="1.0" encoding="UTF-8"?>
<svg width="254px" height="204px" viewBox="0 0 254 204" version="1.1" xmlns="http://www.w3.org/2000/svg" xmlns:xlink="http://www.w3.org/1999/xlink">
    <!-- Generator: Sketch 49 (51002) - http://www.bohemiancoding.com/sketch -->
    <title>Group 3</title>
    <desc>Created with Sketch.</desc>
    <defs></defs>
    <g id="Page-1" stroke="none" stroke-width="1" fill="none" fill-rule="evenodd">
        <g id="01_QUESTION-03" transform="translate(-513.000000, -199.000000)">
            <g id="Group-3" transform="translate(513.000000, 199.000000)">
                <path d="M4.96,32.1212598 L3.16,32.4401575 L0.26,18.713937 L2.42,18.3312598 L4.04,27.984252 L4.08,27.9771654 L5.72,17.7466142 L7.88,17.363937 L4.96,32.1212598 Z M8.98,20.5290551 C8.98,19.9557189 9.079999,19.431341 9.28,18.9559055 C9.480001,18.4804701 9.7433317,18.0704873 10.07,17.7259449 C10.3966683,17.3814025 10.7633313,17.099778 11.17,16.881063 C11.5766687,16.662348 11.9866646,16.5163783 12.4,16.4431496 C12.8133354,16.3699209 13.2233313,16.3706164 13.63,16.4452362 C14.0366687,16.519856 14.4033317,16.6715605 14.73,16.9003543 C15.0566683,17.1291481 15.319999,17.4458247 15.52,17.8503937 C15.720001,18.2549627 15.82,18.7439079 15.82,19.3172441 L15.82,26.8372441 C15.82,27.4239137 15.720001,27.951625 15.52,28.4203937 C15.319999,28.8891624 15.0566683,29.2958119 14.73,29.6403543 C14.4033317,29.9848967 14.0366687,30.2665212 13.63,30.4852362 C13.2233313,30.7039512 12.8133354,30.8499209 12.4,30.9231496 C11.9866646,30.9963783 11.5766687,30.9956828 11.17,30.921063 C10.7633313,30.8464432 10.3966683,30.6947387 10.07,30.4659449 C9.7433317,30.2371511 9.480001,29.9238078 9.28,29.5259055 C9.079999,29.1280033 8.98,28.6357247 8.98,28.0490551 L8.98,20.5290551 Z M11.02,27.6876378 C11.02,28.1809736 11.1566653,28.5200909 11.43,28.705 C11.7033347,28.8899091 12.0266648,28.9492917 12.4,28.8831496 C12.7733352,28.8170075 13.0966653,28.6430592 13.37,28.3612992 C13.6433347,28.0795393 13.78,27.6919972 13.78,27.1986614 L13.78,19.6786614 C13.78,19.1853256 13.6433347,18.8462083 13.37,18.6612992 C13.0966653,18.4763902 12.7733352,18.4170075 12.4,18.4831496 C12.0266648,18.5492917 11.7033347,18.7232401 11.43,19.005 C11.1566653,19.2867599 11.02,19.674302 11.02,20.1676378 L11.02,27.6876378 Z M18.96,17.3209449 L16.6,17.7390551 L16.6,15.8190551 L23.36,14.6214173 L23.36,16.5414173 L21,16.9595276 L21,29.2795276 L18.96,29.6409449 L18.96,17.3209449 Z M26.3,20.4605512 L27.46,20.2550394 C27.8200018,20.1912595 28.1066656,20.0904731 28.32,19.9526772 C28.5333344,19.8148812 28.6966661,19.6426126 28.81,19.4358661 C28.9233339,19.2291197 28.9999998,18.9855395 29.04,18.7051181 C29.0800002,18.4246968 29.1,18.10449 29.1,17.7444882 C29.1,17.3844864 29.0800002,17.0713662 29.04,16.8051181 C28.9999998,16.5388701 28.9166673,16.3203027 28.79,16.1494094 C28.6633327,15.9785162 28.4866678,15.8664832 28.26,15.8133071 C28.0333322,15.760131 27.7333352,15.7666138 27.36,15.8327559 L26.3,16.0205512 L26.3,20.4605512 Z M24.26,14.4619685 L27.54,13.8808661 C29.940012,13.4556672 31.14,14.6363903 31.14,17.4230709 C31.14,18.2497417 31.0100013,18.9827658 30.75,19.6221654 C30.4899987,20.2615649 30.0333366,20.8191315 29.38,21.2948819 L31.58,27.4051181 L29.42,27.7877953 L27.52,22.0444094 L26.3,22.2605512 L26.3,28.3405512 L24.26,28.7019685 L24.26,14.4619685 Z M32.78,12.9525197 L38.86,11.8753543 L38.86,13.7953543 L34.82,14.5111024 L34.82,18.6911024 L38.34,18.0674803 L38.34,19.9874803 L34.82,20.6111024 L34.82,24.7911024 L38.86,24.0753543 L38.86,26.1153543 L32.78,27.1925197 L32.78,12.9525197 Z" id="votre" fill="#AB172B"></path>
                <path d="M14.95,117.101378 C10.5099778,117.887996 6.92501365,117.158141 4.195,114.911791 C1.46498635,112.665442 0.1,109.322306 0.1,104.882283 L0.1,63.4822835 C0.1,58.982261 1.4499865,55.1431261 4.15,51.9647638 L9.55,45.6080709 C12.2500135,42.4297085 15.8499775,40.4419331 20.35,39.644685 C24.7900222,38.8580669 28.3749864,39.5879218 31.105,41.8342717 C33.8350136,44.0806215 35.2,47.4237573 35.2,51.8637795 L35.2,59.9637795 L29.8,66.3204724 L19,68.2338583 L19,59.4138583 C19,57.4338484 18.100009,56.3033085 16.3,56.0222047 L16.3,97.3322047 C16.3,99.3122146 17.199991,100.442754 19,100.723858 L19,93.4338583 L24.4,87.0771654 L35.2,85.1637795 L35.2,93.2637795 C35.2,97.763802 33.8500135,101.602937 31.15,104.781299 L25.75,111.137992 C23.0499865,114.316354 19.4500225,116.30413 14.95,117.101378 Z M20.35,108.944685 C24.2500195,108.253737 27.399988,106.495683 29.8,103.670472 C32.200012,100.845261 33.4,97.4826967 33.4,93.5826772 L33.4,87.2826772 L26.2,88.5582677 L26.2,95.5782677 C26.2,97.3182764 25.6600054,98.8239307 24.58,100.095276 C23.4999946,101.366621 22.0900087,102.156416 20.35,102.464685 C18.6099913,102.772954 17.2000054,102.48276 16.12,101.594094 C15.0399946,100.705429 14.5,99.3911111 14.5,97.6511024 L14.5,54.8111024 C14.5,53.0710937 15.0399946,51.5654394 16.12,50.2940945 C17.2000054,49.0227495 18.6099913,48.2329543 20.35,47.924685 C22.0900087,47.6164158 23.4999946,47.9066097 24.58,48.7952756 C25.6600054,49.6839415 26.2,50.998259 26.2,52.7382677 L26.2,59.7582677 L33.4,58.4826772 L33.4,52.1826772 C33.4,48.2826577 32.200012,45.3452855 29.8,43.3704724 C27.399988,41.3956594 24.2500195,40.7537367 20.35,41.444685 C16.4499805,42.1356334 13.300012,43.8936867 10.9,46.7188976 C8.499988,49.5441086 7.3,52.9066734 7.3,56.8066929 L7.3,98.2066929 C7.3,102.106712 8.499988,105.044085 10.9,107.018898 C13.300012,108.993711 16.4499805,109.635633 20.35,108.944685 Z M54,110.183071 C49.5599778,110.969689 45.9750136,110.239834 43.245,107.993484 C40.5149863,105.747134 39.15,102.403999 39.15,97.9639764 L39.15,43.0639764 L44.55,36.7072835 L55.35,34.7938976 L55.35,90.4138976 C55.35,92.3939075 56.249991,93.5244474 58.05,93.8055512 L58.05,39.7155512 L63.45,33.3588583 L74.25,31.4454724 L74.25,86.3454724 C74.25,90.8454949 72.9000135,94.6846298 70.2,97.8629921 L64.8,104.219685 C62.0999865,107.398047 58.5000225,109.385823 54,110.183071 Z M59.4,102.026378 C63.3000195,101.33543 66.449988,99.5773763 68.85,96.7521654 C71.250012,93.9269544 72.45,90.5643896 72.45,86.6643701 L72.45,33.5643701 L65.25,34.8399606 L65.25,88.6599606 C65.25,90.3999693 64.7100054,91.9056236 63.63,93.1769685 C62.5499946,94.4483134 61.1400087,95.2381087 59.4,95.546378 C57.6599913,95.8546472 56.2500054,95.5644533 55.17,94.6757874 C54.0899946,93.7871215 53.55,92.472804 53.55,90.7327953 L53.55,36.9127953 L46.35,38.1883858 L46.35,91.2883858 C46.35,95.1884053 47.549988,98.1257775 49.95,100.100591 C52.350012,102.075404 55.4999805,102.717326 59.4,102.026378 Z M81.8,103.907874 L81.8,35.507874 L87.2,29.1511811 L98,27.2377953 L98,95.6377953 L92.6,101.994488 L81.8,103.907874 Z M89,95.4322835 L96.2,94.1566929 L96.2,29.3566929 L89,30.6322835 L89,95.4322835 Z M139.75,41.4411417 L134.35,47.7978346 L125.35,49.3923228 C126.010003,49.9353964 127.479989,51.0849518 129.76,52.8410236 C132.040011,54.5970954 133.719995,55.9944436 134.8,57.0331102 C135.880005,58.0717768 136.974994,59.7077644 138.085,61.941122 C139.195006,64.1744797 139.75,66.6411282 139.75,69.3411417 L139.75,74.7411417 C139.75,79.2411642 138.400014,83.0802991 135.7,86.2586614 L130.3,92.6153543 C127.599987,95.7937167 124.000022,97.7814921 119.5,98.5787402 C115.059978,99.3653583 111.475014,98.6355034 108.745,96.3891535 C106.014986,94.1428037 104.65,90.7996679 104.65,86.3596457 L104.65,78.2596457 L110.05,71.9029528 L119.05,70.3084646 C118.389997,69.765391 116.920011,68.6158356 114.64,66.8597638 C112.359989,65.103692 110.680005,63.7063438 109.6,62.6676772 C108.519995,61.6290106 107.425006,59.993023 106.315,57.7596654 C105.204994,55.5263077 104.65,53.0596592 104.65,50.3596457 L104.65,44.9596457 C104.65,40.4596232 105.999986,36.6204883 108.7,33.442126 L114.1,27.0854331 C116.800013,23.9070707 120.399978,21.9192953 124.9,21.1220472 C129.340022,20.3354291 132.924986,21.065284 135.655,23.3116339 C138.385014,25.5579837 139.75,28.9011195 139.75,33.3411417 L139.75,41.4411417 Z M124.9,29.4020472 C126.640009,29.093778 128.049995,29.3839719 129.13,30.2726378 C130.210005,31.1613037 130.75,32.4756212 130.75,34.2156299 L130.75,41.2356299 L137.95,39.9600394 L137.95,33.6600394 C137.95,29.7600199 136.750012,26.8226477 134.35,24.8478346 C131.949988,22.8730216 128.800019,22.2310989 124.9,22.9220472 C120.99998,23.6129956 117.850012,25.3710489 115.45,28.1962598 C113.049988,31.0214708 111.85,34.3840356 111.85,38.2840551 L111.85,43.5940551 C111.85,46.5340698 112.494994,49.1347722 113.785,51.3962402 C115.075006,53.6577082 116.649991,55.4936544 118.51,56.9041339 C120.370009,58.3146134 122.229991,59.6800721 124.09,61.0005512 C125.950009,62.3210302 127.524994,63.8869791 128.815,65.6984449 C130.105006,67.5099106 130.75,69.5556185 130.75,71.8356299 L130.75,77.0556299 C130.75,78.7956386 130.210005,80.3012929 129.13,81.5726378 C128.049995,82.8439827 126.640009,83.633778 124.9,83.9420472 C123.159991,84.2503165 121.750005,83.9601226 120.67,83.0714567 C119.589995,82.1827908 119.05,80.8684733 119.05,79.1284646 L119.05,72.1084646 L111.85,73.3840551 L111.85,79.6840551 C111.85,83.5840746 113.049988,86.5214468 115.45,88.4962598 C117.850012,90.4710729 120.99998,91.1129956 124.9,90.4220472 C128.800019,89.7310989 131.949988,87.9730456 134.35,85.1478346 C136.750012,82.3226237 137.95,78.9600589 137.95,75.0600394 L137.95,69.7500394 C137.95,66.8100247 137.305006,64.2093223 136.015,61.9478543 C134.724994,59.6863863 133.150009,57.8504401 131.29,56.4399606 C129.429991,55.0294811 127.570009,53.6640224 125.71,52.3435433 C123.849991,51.0230643 122.275006,49.4571154 120.985,47.6456496 C119.694994,45.8341839 119.05,43.788476 119.05,41.5084646 L119.05,36.2884646 C119.05,34.5484559 119.589995,33.0428016 120.67,31.7714567 C121.750005,30.5001118 123.159991,29.7103165 124.9,29.4020472 Z M123.55,40.8912205 C123.55,38.9112106 122.650009,37.7806707 120.85,37.4995669 L120.85,41.1895669 C120.85,43.5895789 121.749991,45.7701083 123.55,47.7312205 L123.55,40.8912205 Z M120.85,78.8095669 C120.85,80.7895768 121.749991,81.9201167 123.55,82.2012205 L123.55,78.5112205 C123.55,76.1112085 122.650009,73.9306791 120.85,71.9695669 L120.85,78.8095669 Z M146.4,92.4629921 L146.4,24.0629921 L151.8,17.7062992 L162.6,15.7929134 L162.6,84.1929134 L157.2,90.5496063 L146.4,92.4629921 Z M153.6,83.9874016 L160.8,82.711811 L160.8,17.911811 L153.6,19.1874016 L153.6,83.9874016 Z M170.6,88.1755906 L170.6,19.7755906 L176,13.4188976 L184.91,11.8403543 L191.3,28.8882677 L191.3,16.1082677 L196.7,9.7515748 L207.5,7.83818898 L207.5,76.238189 L202.1,82.5948819 L193.1,84.1893701 L186.8,67.3955118 L186.8,79.9055118 L181.4,86.2622047 L170.6,88.1755906 Z M177.8,79.7 L185,78.4244094 L185,36.9344094 L199.76,75.8094488 L205.7,74.7570866 L205.7,9.95708661 L198.5,11.2326772 L198.5,52.9026772 L183.65,13.8635827 L177.8,14.9 L177.8,79.7 Z M215.5,80.2208661 L215.5,11.8208661 L220.9,5.46417323 L248.8,0.521259843 L248.8,10.6012598 L243.4,16.9579528 L231.7,19.0307874 L231.7,32.7107874 L245.2,30.3190551 L245.2,40.3990551 L239.8,46.755748 L231.7,48.1907874 L231.7,61.8707874 L248.8,58.8412598 L248.8,68.9212598 L243.4,75.2779528 L215.5,80.2208661 Z M222.7,71.7452756 L247,67.4401575 L247,60.9601575 L229.9,63.989685 L229.9,41.309685 L243.4,38.9179528 L243.4,32.4379528 L229.9,34.829685 L229.9,12.149685 L247,9.12015748 L247,2.64015748 L222.7,6.94527559 L222.7,71.7452756 Z" id="Cuisine" fill="#AB172B"></path>
                <path d="M169.6,109.952756 C170.24,109.67937 171.24,109.422205 172.08,109.913386 C175.16,111.567717 175.28,112.626457 174.28,115.403622 C172.88,119.171654 170.28,122.072283 167.44,123.175433 C166.4,123.559685 165.24,122.845197 164.56,122.325669 C163.96,124.191969 164,125.984882 164.76,126.370236 C166.84,127.401732 172.52,124.035433 176.76,117.044252 C177.16,116.373386 179.24,117.564882 177.64,120.328346 C175.04,124.868976 168.24,130.313701 163.36,127.938268 C162.38155,127.484404 161.670609,126.998882 161.276523,126.117654 C158.108191,130.195055 154.907111,131.429597 153.04,129.926614 C152.36,129.327087 151.96,128.597953 151.84,127.819213 C149.52,130.990236 146.84,133.425039 144.12,131.186929 C141.52,129.047559 142.56,125.943307 145.6,120.804724 C147.2,118.08126 149.44,115.724409 151.2,114.532598 C152.6,113.564567 153.56,113.554488 154.84,114.327717 C155.28,114.569764 155.8,114.757638 156.2,115.046772 C157.96,112.054961 164.32,101.408189 166.24,98.9880315 C166.68,98.4300787 167.72,98.4458268 168.6,99.5699213 C169.4,100.508189 169.2,101.823622 168.68,102.915748 C168.12,104.174961 163.2,112.046614 158.08,118.753701 C158.08,118.753701 157.6,119.39874 157.16,120.116693 C156.2,121.686772 152.84,127.042047 154.12,128.295276 C155.372063,129.499414 159.043359,124.922397 161.347597,121.519214 C162.639209,117.14 166.596273,111.310112 169.6,109.952756 Z M151.36,123.224252 C154.56,118.497323 154.4,116.845669 154.08,116.622362 C153.4,116.182835 150.4,119.234331 147.84,123.367874 C146.2,126.098425 144.48,129.48315 144.92,129.965197 C145.28,130.381417 147.44,129.11874 151.36,123.224252 Z M229.56,112.129921 C226.72,116.193071 222.96,120.699213 219.4,117.649921 C218.859053,117.194976 218.504321,116.624814 218.321532,115.95029 C215.081052,119.366102 210.242058,122.103594 206.52,120.291811 C205.519532,119.827734 204.798747,119.330558 204.4104,118.411099 C201.012267,122.544287 197.141281,123.777758 195.36,122.748976 C192.16,120.835906 195.56,114.713543 198.2,110.245827 C197.4,110.307559 196.56,110.176378 195.76,109.59811 C194.44,112.271969 191.6,116.895118 190.36,118.754803 C189.84,119.566929 186.72,119.519685 187.8,118.008346 C191.2,113.245984 192.24,110.301732 192.96,108.414173 C192.44,107.946299 192.16,107.355906 192.4,106.393386 C193.24,102.964567 195.96,100.082677 197.24,100.255906 C198.84,100.452441 199.32,102.247402 198.36,105.13748 C198.2,105.645827 197.92,106.415433 197.08,108.044252 C198.12,108.18 199.6,106.957795 201.04,105.662677 C201.16,105.521417 201.28,105.500157 201.4,105.478898 C201.68,105.429291 201.92,105.546772 202.12,105.751339 C203.56,106.89622 203.64,108.682047 203.4,109.124567 C202.44,110.694646 195.76,119.79811 196.8,121.253858 C197.71878,122.539928 202.196504,117.388777 204.524109,113.817179 C205.832626,109.444365 209.768962,103.657921 212.76,102.306299 C213.4,102.032913 214.4,101.775748 215.24,102.266929 C218.32,103.92126 218.44,104.98 217.44,107.757165 C216.04,111.525197 213.44,114.425827 210.6,115.528976 C209.56,115.913228 208.4,115.19874 207.72,114.679213 C207.12,116.545512 207.16,118.338425 207.92,118.72378 C209.916419,119.713827 215.229331,116.652413 219.402221,110.222971 C219.849355,109.249706 220.412145,108.210125 221.08,107.112283 C223.2,103.616693 224.2,102.359528 224.84,101.486142 C226.08,99.9064567 228.08,102.152126 227.56,103.244252 L223.4,109.74126 C221.72,112.358898 220.08,115.649449 220.84,116.194803 C222.48,117.344252 226.56,111.381417 229.84,105.520315 C230.6,102.665669 231.8,99.7730709 233.16,99.692126 C233.68,99.68 235.64,100.092756 235.04,102.239055 C234.88,102.787402 233.36,106.096693 231.36,109.411024 C231.48,110.109764 231.68,110.874331 232.12,110.956378 C232.794562,111.082164 233.915697,110.329703 235.339271,108.310143 C236.662786,103.943381 240.580426,98.1960477 243.56,96.8496063 C244.2,96.5762205 245.2,96.3190551 246.04,96.8102362 C249.12,98.4645669 249.24,99.5233071 248.24,102.300472 C246.84,106.068504 244.24,108.969134 241.4,110.072283 C240.36,110.456535 239.2,109.742047 238.52,109.22252 C237.92,111.088819 237.96,112.881732 238.72,113.267087 C240.8,114.298583 246.48,110.932283 250.72,103.941102 C251.12,103.270236 253.2,104.461732 251.6,107.225197 C249,111.765827 242.2,117.210551 237.32,114.835118 C236.14985,114.292332 235.362298,113.704268 235.041752,112.448239 C233.282417,113.869169 231.126107,114.47948 229.56,112.129921 Z M166.8,118.168819 C169.2,114.343622 171.36,112.320945 171.72,112.537165 C172.04,112.720472 171.2,115.069291 169.24,117.736535 C167.76,119.75874 166.08,121.496378 165.48,121.282677 C165.12,121.146457 165.76,119.793071 166.8,118.168819 Z M219.76,98.5061417 C220.36,99.5598425 220.84,100.474803 221.44,101.528504 C221.84,102.257638 219.64,102.407402 219.16,101.692441 C218.92,101.374961 218.28,100.528346 217.8,99.7733858 C216.84,99.9434646 215.16,100.281102 214.64,100.333228 C213.68,100.423307 212.52,99.5088189 213.4,99.2329134 C214.72,98.8390551 216.68,98.291811 218,97.9379528 C218.64,97.7845669 219.48,98.035748 219.76,98.5061417 Z M209.96,110.522362 C208.92,112.146614 208.28,113.5 208.64,113.63622 C209.24,113.849921 210.92,112.112283 212.4,110.090079 C214.36,107.422835 215.2,105.074016 214.88,104.890709 C214.52,104.674488 212.36,106.697165 209.96,110.522362 Z M240.76,105.065669 C239.72,106.689921 239.08,108.043307 239.44,108.179528 C240.04,108.393228 241.72,106.655591 243.2,104.633386 C245.16,101.966142 246,99.6173228 245.68,99.4340157 C245.32,99.2177953 243.16,101.240472 240.76,105.065669 Z" id="de-rêve" fill="#AB172B"></path>
                <polygon id="Rectangle-2" fill="#AB172B" points="0 144 130 120.968504 130 123.968504 0 147"></polygon>
                <path d="M11.16,203.022835 L7.11,203.740354 L0.585,172.856358 L5.445,171.995335 L9.09,193.714567 L9.18,193.698622 L12.87,170.679882 L17.73,169.818858 L11.16,203.022835 Z M20.205,176.940374 C20.205,175.650368 20.4299978,174.470517 20.88,173.400787 C21.3300023,172.331058 21.9224963,171.408596 22.6575,170.633376 C23.3925037,169.858156 24.2174954,169.2245 25.1325,168.732392 C26.0475046,168.240283 26.9699954,167.911851 27.9,167.747087 C28.8300047,167.582322 29.7524954,167.583887 30.6675,167.751781 C31.5825046,167.919676 32.4074963,168.261011 33.1425,168.775797 C33.8775037,169.290583 34.4699978,170.003106 34.92,170.913386 C35.3700023,171.823666 35.595,172.923793 35.595,174.213799 L35.595,191.133799 C35.595,192.453806 35.3700023,193.641156 34.92,194.695886 C34.4699978,195.750616 33.8775037,196.665577 33.1425,197.440797 C32.4074963,198.216018 31.5825046,198.849673 30.6675,199.341781 C29.7524954,199.83389 28.8300047,200.162322 27.9,200.327087 C26.9699954,200.491851 26.0475046,200.490286 25.1325,200.322392 C24.2174954,200.154497 23.3925037,199.813162 22.6575,199.298376 C21.9224963,198.78359 21.3300023,198.078567 20.88,197.183287 C20.4299978,196.288007 20.205,195.180381 20.205,193.860374 L20.205,176.940374 Z M24.795,193.047185 C24.795,194.157191 25.1024969,194.920205 25.7175,195.33625 C26.3325031,195.752295 27.0599958,195.885906 27.9,195.737087 C28.7400042,195.588267 29.4674969,195.196883 30.0825,194.562923 C30.6975031,193.928963 31.005,193.056994 31.005,191.946988 L31.005,175.026988 C31.005,173.916983 30.6975031,173.153969 30.0825,172.737923 C29.4674969,172.321878 28.7400042,172.188267 27.9,172.337087 C27.0599958,172.485906 26.3325031,172.87729 25.7175,173.51125 C25.1024969,174.14521 24.795,175.017179 24.795,176.127185 L24.795,193.047185 Z M54.495,188.145374 C54.495,189.195379 54.300002,190.204916 53.91,191.174016 C53.5199981,192.143115 52.9875034,193.024947 52.3125,193.819537 C51.6374966,194.614128 50.8500045,195.286139 49.95,195.835591 C49.0499955,196.385042 48.0900051,196.750117 47.07,196.930827 C46.0499949,197.111536 45.0900045,197.086615 44.19,196.856063 C43.2899955,196.625511 42.5025034,196.232532 41.8275,195.677116 C41.1524966,195.1217 40.620002,194.428547 40.23,193.597638 C39.8399981,192.766728 39.645,191.826285 39.645,190.77628 L39.645,165.93628 L44.235,165.123091 L44.235,189.513091 C44.235,190.653096 44.5049973,191.445254 45.045,191.889587 C45.5850027,192.33392 46.259996,192.484331 47.07,192.340827 C47.8800041,192.197322 48.5549973,191.807739 49.095,191.172067 C49.6350027,190.536394 49.905,189.648569 49.905,188.508563 L49.905,164.118563 L54.495,163.305374 L54.495,188.145374 Z M73.665,169.134114 L69.075,169.947303 L69.075,168.912303 C69.075,167.862298 68.8275025,166.998655 68.3325,166.321348 C67.8374975,165.644042 67.0050059,165.409034 65.835,165.616319 C65.2049969,165.727934 64.687502,165.939615 64.2825,166.251368 C63.877498,166.563122 63.5625011,166.926425 63.3375,167.341289 C63.1124989,167.756154 62.9550005,168.219053 62.865,168.73 C62.7749996,169.240947 62.73,169.766415 62.73,170.306417 C62.73,170.93642 62.7524998,171.464929 62.7975,171.891959 C62.8425002,172.318988 62.9549991,172.674054 63.135,172.957165 C63.3150009,173.240277 63.5774983,173.471269 63.9225,173.650148 C64.2675017,173.829026 64.739997,173.985314 65.34,174.119016 L68.85,174.892165 C69.8700051,175.101458 70.6949969,175.412793 71.325,175.826181 C71.9550032,176.239569 72.4424983,176.768196 72.7875,177.412077 C73.1325017,178.055958 73.3649994,178.824759 73.485,179.718504 C73.6050006,180.612249 73.665,181.644108 73.665,182.814114 C73.665,184.164121 73.5300013,185.440525 73.26,186.643366 C72.9899987,187.846207 72.5475031,188.914592 71.9325,189.848553 C71.3174969,190.782515 70.5000051,191.579839 69.48,192.240551 C68.4599949,192.901263 67.2150074,193.361829 65.745,193.622264 C64.6349945,193.818918 63.6000048,193.807285 62.64,193.587362 C61.6799952,193.36744 60.8550035,192.981105 60.165,192.428346 C59.4749966,191.875588 58.927502,191.170093 58.5225,190.311841 C58.117498,189.453588 57.915,188.484474 57.915,187.404469 L57.915,185.694469 L62.505,184.88128 L62.505,186.32128 C62.505,187.161284 62.7524975,187.874928 63.2475,188.462234 C63.7425025,189.04954 64.5749942,189.239548 65.745,189.032264 C66.5250039,188.894074 67.1324978,188.673948 67.5675,188.37188 C68.0025022,188.069811 68.3324989,187.696351 68.5575,187.251486 C68.7825011,186.806622 68.9249997,186.278881 68.985,185.668248 C69.0450003,185.057615 69.075,184.392307 69.075,183.672303 C69.075,182.832299 69.0450003,182.147621 68.985,181.618248 C68.9249997,181.088875 68.797501,180.676468 68.6025,180.381014 C68.407499,180.08556 68.1375017,179.863396 67.7925,179.714518 C67.4474983,179.565639 66.9900029,179.421694 66.42,179.282677 L63.135,178.514665 C61.1549901,178.05545 59.8275034,177.218146 59.1525,176.002726 C58.4774966,174.787307 58.14,173.174616 58.14,171.164606 C58.14,169.9646 58.3049984,168.79538 58.635,167.656909 C58.9650017,166.518439 59.4524968,165.502081 60.0975,164.607805 C60.7425032,163.713529 61.5599951,162.946204 62.55,162.305807 C63.540005,161.66541 64.6949934,161.228289 66.015,160.994429 C67.1550057,160.79246 68.1974953,160.817764 69.1425,161.070344 C70.0875047,161.322924 70.8974966,161.734416 71.5725,162.304833 C72.2475034,162.875249 72.7649982,163.556059 73.125,164.347283 C73.4850018,165.138508 73.665,165.98411 73.665,166.884114 L73.665,169.134114 Z M85.455,157.820335 L90.045,157.007146 L90.045,184.457146 L99.135,182.846713 L99.135,187.436713 L85.455,189.860335 L85.455,157.820335 Z M101.835,154.918366 L106.425,154.105177 L106.425,158.695177 L101.835,162.838366 L101.835,154.918366 Z M110.61,153.36374 L115.2,152.550551 L115.2,184.590551 L110.61,185.40374 L110.61,153.36374 Z M119.655,151.76128 L124.065,150.97998 L129.96,166.900591 L130.05,166.884646 L135.9,148.883228 L140.355,148.093957 L140.355,180.133957 L135.765,180.947146 L135.765,161.462146 L135.675,161.478091 L131.13,176.053307 L128.835,176.459902 L124.335,163.487146 L124.245,163.503091 L124.245,182.988091 L119.655,183.80128 L119.655,151.76128 Z M151.695,155.309902 L151.605,155.325846 L149.355,167.334469 L153.945,166.52128 L151.695,155.309902 Z M149.76,146.427717 L153.585,145.750059 L160.74,176.522441 L156.15,177.33563 L154.8,170.689803 L148.545,171.797972 L147.195,178.922146 L142.605,179.735335 L149.76,146.427717 Z M162.72,151.691654 C162.72,150.401647 162.944998,149.221797 163.395,148.152067 C163.845002,147.082337 164.437496,146.159876 165.1725,145.384656 C165.907504,144.609435 166.732495,143.97578 167.6475,143.483671 C168.562505,142.991563 169.484995,142.663131 170.415,142.498366 C171.345005,142.333602 172.267495,142.335166 173.1825,142.503061 C174.097505,142.670956 174.922496,143.012291 175.6575,143.527077 C176.392504,144.041863 176.984998,144.754385 177.435,145.664665 C177.885002,146.574945 178.11,147.675072 178.11,148.965079 L178.11,150.585079 L173.52,151.398268 L173.52,149.778268 C173.52,148.668262 173.212503,147.905248 172.5975,147.489203 C171.982497,147.073157 171.255004,146.939546 170.415,147.088366 C169.574996,147.237186 168.847503,147.62857 168.2325,148.26253 C167.617497,148.896489 167.31,149.768459 167.31,150.878465 L167.31,167.798465 C167.31,168.90847 167.617497,169.671484 168.2325,170.08753 C168.847503,170.503575 169.574996,170.637186 170.415,170.488366 C171.255004,170.339546 171.982497,169.948163 172.5975,169.314203 C173.212503,168.680243 173.52,167.808273 173.52,166.698268 L173.52,160.668268 L169.875,161.314035 L169.875,157.264035 L178.11,155.805079 L178.11,165.885079 C178.11,167.205085 177.885002,168.392436 177.435,169.447165 C176.984998,170.501895 176.392504,171.416856 175.6575,172.192077 C174.922496,172.967297 174.097505,173.600952 173.1825,174.093061 C172.267495,174.58517 171.345005,174.913602 170.415,175.078366 C169.484995,175.243131 168.562505,175.241566 167.6475,175.073671 C166.732495,174.905777 165.907504,174.564442 165.1725,174.049656 C164.437496,173.534869 163.845002,172.829847 163.395,171.934567 C162.944998,171.039287 162.72,169.93166 162.72,168.611654 L162.72,151.691654 Z M182.295,140.663642 L186.885,139.850453 L186.885,171.890453 L182.295,172.703642 L182.295,140.663642 Z M191.16,139.093071 L195.57,138.311772 L202.5,156.389016 L202.59,156.373071 L202.59,137.068071 L207.18,136.254882 L207.18,168.294882 L202.86,169.060236 L195.84,151.043937 L195.75,151.059882 L195.75,170.319882 L191.16,171.133071 L191.16,139.093071 Z M211.32,135.521417 L225,133.097795 L225,137.417795 L215.91,139.028228 L215.91,148.433228 L223.83,147.030079 L223.83,151.350079 L215.91,152.753228 L215.91,162.158228 L225,160.547795 L225,165.137795 L211.32,167.561417 L211.32,135.521417 Z M226.485,160.824705 L235.125,135.623996 L226.935,137.07498 L226.935,132.75498 L240.12,130.419055 L240.12,134.064055 L231.3,159.701654 L240.12,158.139055 L240.12,162.459055 L226.485,164.874705 L226.485,160.824705 Z M242.419,160.623752 L243.847,160.37076 L243.847,161.79876 L242.419,162.051752 L242.419,160.623752 Z M247.081,159.797807 L248.509,159.544815 L248.509,160.972815 L247.081,161.225807 L247.081,159.797807 Z M251.743,158.971862 L253.171,158.71887 L253.171,160.14687 L251.743,160.399862 L251.743,158.971862 Z" id="vous-l’imaginez…" fill="#4A4A4A"></path>
            </g>
        </g>
    </g>
</svg>