<?xml version="1.0" encoding="utf-8"?>
<!-- Generator: Adobe Illustrator 22.0.1, SVG Export Plug-In . SVG Version: 6.00 Build 0)  -->
<svg version="1.1" id="Calque_1" xmlns="http://www.w3.org/2000/svg" xmlns:xlink="http://www.w3.org/1999/xlink" x="0px" y="0px"
	 viewBox="0 0 91 36" style="enable-background:new 0 0 91 36;" xml:space="preserve">
<style type="text/css">
	.st0{fill:#D8D8D8;}
</style>
<title>Group 9</title>
<desc>Created with Sketch.</desc>
<g id="Page-1">
	<g id="_x30_1_x5F_QUESTION-02" transform="translate(-357.000000, -334.000000)">
		<g id="Group-9" transform="translate(357.000000, 334.000000)">
			<polygon id="Combined-Shape" class="st0" points="90,19.1 2,36 2,33 90,16.1 			"/>
			<path id="Précédent" class="st0" d="M16,13.3l4.1-0.8c0.6-0.1,1.2-0.1,1.7-0.1c0.5,0.1,0.9,0.2,1.3,0.5s0.6,0.6,0.8,1
				c0.2,0.4,0.3,0.9,0.3,1.4c0,0.6-0.1,1.2-0.3,1.7c-0.2,0.5-0.5,0.9-0.9,1.3c-0.4,0.4-0.8,0.7-1.3,0.9c-0.5,0.3-1.1,0.4-1.6,0.5
				l-2.1,0.4v3.4L16,24V13.3z M20,18.1c0.7-0.1,1.3-0.4,1.7-0.8c0.4-0.4,0.6-0.9,0.6-1.5v0c0-0.6-0.2-1.1-0.6-1.3s-1-0.3-1.7-0.2
				l-2.1,0.4v3.8L20,18.1z M25.8,14.1l1.8-0.3v1.8c0.3-0.7,0.6-1.2,1.1-1.7c0.5-0.5,1-0.7,1.7-0.8V15l-0.1,0
				c-0.4,0.1-0.8,0.2-1.1,0.4c-0.3,0.2-0.6,0.4-0.9,0.8c-0.2,0.3-0.4,0.7-0.6,1.1c-0.1,0.4-0.2,0.9-0.2,1.4v3.1l-1.8,0.3V14.1z
				 M36,8.7l1.7,0.4l-1.8,2.1l-1.4,0.3L36,8.7z M35.4,20.5c-0.6,0.1-1.1,0.1-1.6,0c-0.5-0.1-0.9-0.3-1.3-0.6s-0.7-0.7-0.9-1.2
				c-0.2-0.5-0.3-1-0.3-1.6v0c0-0.6,0.1-1.1,0.3-1.7c0.2-0.5,0.5-1,0.8-1.5c0.3-0.4,0.8-0.8,1.2-1.1c0.5-0.3,1-0.5,1.6-0.6
				c0.6-0.1,1.2-0.1,1.7,0c0.5,0.1,0.9,0.4,1.2,0.7s0.6,0.8,0.7,1.2c0.2,0.5,0.2,1,0.2,1.6c0,0.1,0,0.2,0,0.3c0,0.1,0,0.2,0,0.3
				l-5.8,1.1c0.1,0.6,0.4,1.1,0.8,1.4s0.9,0.4,1.5,0.2c0.5-0.1,0.8-0.2,1.2-0.5c0.3-0.2,0.7-0.5,1-0.9l1.1,0.8
				c-0.4,0.5-0.8,1-1.4,1.4C36.7,20.1,36.1,20.4,35.4,20.5z M37.2,15.4c0-0.3-0.1-0.6-0.2-0.8c-0.1-0.2-0.2-0.4-0.4-0.6
				c-0.2-0.2-0.4-0.3-0.6-0.3c-0.2-0.1-0.5-0.1-0.8,0c-0.6,0.1-1,0.4-1.4,0.8c-0.4,0.5-0.6,1-0.7,1.7L37.2,15.4z M44.5,18.8
				c-0.6,0.1-1.1,0.1-1.6,0c-0.5-0.1-0.9-0.3-1.3-0.6c-0.4-0.3-0.7-0.7-0.9-1.2c-0.2-0.5-0.3-1-0.3-1.6v0c0-0.6,0.1-1.1,0.3-1.7
				c0.2-0.6,0.5-1.1,0.9-1.5c0.4-0.5,0.8-0.8,1.3-1.2c0.5-0.3,1.1-0.5,1.7-0.6c0.4-0.1,0.7-0.1,1-0.1c0.3,0,0.6,0,0.8,0.1
				c0.3,0.1,0.5,0.2,0.7,0.3c0.2,0.1,0.4,0.3,0.6,0.4l-1.1,1.4c-0.3-0.2-0.6-0.4-0.9-0.6s-0.7-0.1-1.1-0.1c-0.3,0.1-0.6,0.2-0.9,0.4
				c-0.3,0.2-0.5,0.4-0.7,0.7c-0.2,0.3-0.4,0.6-0.5,0.9s-0.2,0.7-0.2,1v0c0,0.4,0.1,0.7,0.2,1c0.1,0.3,0.3,0.5,0.5,0.7
				c0.2,0.2,0.5,0.3,0.8,0.4c0.3,0.1,0.6,0.1,1,0c0.4-0.1,0.8-0.2,1.1-0.5c0.3-0.2,0.6-0.5,0.9-0.9l1.1,0.9c-0.4,0.5-0.8,1-1.3,1.3
				C45.9,18.4,45.2,18.7,44.5,18.8z M53.4,5.4l1.7,0.4l-1.8,2.1l-1.4,0.3L53.4,5.4z M52.8,17.2c-0.6,0.1-1.1,0.1-1.6,0
				s-0.9-0.3-1.3-0.6c-0.4-0.3-0.7-0.7-0.9-1.2c-0.2-0.5-0.3-1-0.3-1.6v0c0-0.6,0.1-1.1,0.3-1.7c0.2-0.5,0.5-1,0.8-1.5
				c0.3-0.4,0.8-0.8,1.2-1.1c0.5-0.3,1-0.5,1.6-0.6c0.6-0.1,1.2-0.1,1.7,0s0.9,0.4,1.2,0.7c0.3,0.3,0.6,0.8,0.7,1.2
				c0.2,0.5,0.2,1,0.2,1.6c0,0.1,0,0.2,0,0.3c0,0.1,0,0.2,0,0.3l-5.8,1.1c0.1,0.6,0.4,1.1,0.8,1.4c0.4,0.3,0.9,0.4,1.5,0.2
				c0.5-0.1,0.8-0.2,1.2-0.5s0.7-0.5,1-0.9l1.1,0.8c-0.4,0.5-0.8,1-1.4,1.4C54.2,16.8,53.5,17.1,52.8,17.2z M54.6,12.1
				c0-0.3-0.1-0.6-0.2-0.8c-0.1-0.2-0.2-0.4-0.4-0.6c-0.2-0.2-0.4-0.3-0.6-0.3c-0.2-0.1-0.5-0.1-0.8,0c-0.6,0.1-1,0.4-1.4,0.8
				c-0.4,0.5-0.6,1-0.7,1.7L54.6,12.1z M61.5,15.6c-0.5,0.1-0.9,0.1-1.4,0c-0.4-0.1-0.8-0.3-1.2-0.6s-0.6-0.7-0.8-1.2
				c-0.2-0.5-0.3-1.1-0.3-1.7c0-0.7,0.1-1.3,0.3-1.9c0.2-0.6,0.5-1,0.8-1.5c0.3-0.4,0.7-0.8,1.2-1c0.4-0.3,0.9-0.4,1.4-0.5
				c0.3-0.1,0.6-0.1,0.9-0.1c0.3,0,0.5,0.1,0.7,0.2c0.2,0.1,0.4,0.2,0.6,0.3s0.3,0.3,0.5,0.4V3.8L66,3.4v11.1l-1.8,0.3v-1.3
				c-0.3,0.5-0.7,0.9-1.1,1.3C62.7,15.2,62.1,15.5,61.5,15.6z M61.9,13.9c0.3-0.1,0.6-0.2,0.9-0.3c0.3-0.2,0.5-0.4,0.7-0.7
				c0.2-0.3,0.4-0.6,0.5-0.9s0.2-0.7,0.2-1.1v0c0-0.4-0.1-0.7-0.2-1c-0.1-0.3-0.3-0.5-0.5-0.7c-0.2-0.2-0.5-0.3-0.7-0.4
				c-0.3-0.1-0.6-0.1-0.9,0c-0.3,0.1-0.6,0.2-0.9,0.3c-0.3,0.2-0.5,0.4-0.7,0.6c-0.2,0.3-0.4,0.6-0.5,0.9c-0.1,0.3-0.2,0.7-0.2,1.1
				v0c0,0.4,0.1,0.7,0.2,1s0.3,0.5,0.5,0.7c0.2,0.2,0.5,0.3,0.7,0.4C61.3,14,61.6,14,61.9,13.9z M71.9,13.6c-0.6,0.1-1.1,0.1-1.6,0
				S69.4,13.3,69,13c-0.4-0.3-0.7-0.7-0.9-1.2c-0.2-0.5-0.3-1-0.3-1.6v0c0-0.6,0.1-1.1,0.3-1.7C68.3,8,68.6,7.5,69,7
				s0.8-0.8,1.2-1.1c0.5-0.3,1-0.5,1.6-0.6c0.6-0.1,1.2-0.1,1.7,0c0.5,0.1,0.9,0.4,1.2,0.7s0.6,0.8,0.7,1.2c0.2,0.5,0.2,1,0.2,1.6
				c0,0.1,0,0.2,0,0.3c0,0.1,0,0.2,0,0.3l-5.8,1.1c0.1,0.6,0.4,1.1,0.8,1.4c0.4,0.3,0.9,0.4,1.5,0.2c0.5-0.1,0.8-0.2,1.2-0.5
				c0.3-0.2,0.7-0.5,1-0.9l1.1,0.8c-0.4,0.5-0.8,1-1.4,1.4C73.3,13.2,72.7,13.5,71.9,13.6z M73.7,8.5c0-0.3-0.1-0.6-0.2-0.8
				s-0.2-0.4-0.4-0.6C73,7,72.8,6.9,72.5,6.8c-0.2-0.1-0.5-0.1-0.8,0c-0.6,0.1-1,0.4-1.4,0.8s-0.6,1-0.7,1.7L73.7,8.5z M77.4,4.4
				L79.2,4v1.2c0.1-0.2,0.3-0.4,0.4-0.6c0.2-0.2,0.3-0.4,0.5-0.6c0.2-0.2,0.4-0.3,0.7-0.4c0.2-0.1,0.5-0.2,0.8-0.3
				c0.9-0.2,1.6,0,2.1,0.4s0.7,1.2,0.7,2.1v5.1l-1.8,0.3V6.8c0-0.6-0.1-1.1-0.4-1.4c-0.3-0.3-0.7-0.4-1.3-0.3
				c-0.5,0.1-1,0.4-1.3,0.8c-0.3,0.4-0.5,0.9-0.5,1.6v4.5l-1.8,0.3V4.4z M89.3,10.3c-0.3,0.1-0.6,0.1-0.9,0.1
				c-0.3,0-0.5-0.1-0.7-0.3c-0.2-0.1-0.4-0.4-0.5-0.6c-0.1-0.3-0.2-0.6-0.2-1.1V4.1l-1,0.2V2.7l1-0.2V0.3L88.9,0v2.2L91,1.8v1.6
				l-2.1,0.4v3.9c0,0.4,0.1,0.6,0.3,0.7s0.4,0.2,0.7,0.1c0.4-0.1,0.8-0.2,1.1-0.5v1.5c-0.2,0.2-0.5,0.3-0.7,0.4
				C90,10.1,89.7,10.2,89.3,10.3z"/>
			<polygon class="st0" points="5.2,23.7 2.5,21.6 5.2,18.9 5.2,16.4 0,21.8 5.2,25.8 			"/>
		</g>
	</g>
</g>
</svg>
